<svg xmlns="http://www.w3.org/2000/svg" width="32" height="32" viewBox="0 0 32 32"><g fill="none" transform="translate(0 3)"><path fill="#F087FF" d="M13.1417198,25.3268492 L7.60258843,14.1592064 C7.2981286,13.8517849 7.12708128,13.4348062 7.12708128,13.0000163 C7.12708128,12.5652263 7.2981286,12.1482476 7.60258843,11.8408261 L13.3726983,0.679266715 L19.3275909,0.679266715 C19.7582189,0.67866625 20.1713236,0.851427249 20.4754534,1.15930621 L31.0535976,11.8418402 C31.6872375,12.4821717 31.6872375,13.5198891 31.0535976,14.1602206 L20.4754534,24.8427546 C20.1713236,25.1506336 19.7582189,25.3233946 19.3275909,25.3227925 C18.9121644,25.3211023 13.1417198,25.3268492 13.1417198,25.3268492 Z"/><path fill="#000" d="M12.8511556,25.8028305 L7.2136073,14.4367495 C6.4706801,13.624348 6.47199256,12.3713909 7.21662007,11.5605786 L13.0874901,0.203617873 L19.3275909,0.203617873 C19.8833736,0.202156701 20.4166404,0.425286042 20.808531,0.82327966 L31.3866752,11.5058137 C32.2044416,12.3317099 32.2044416,13.6706889 31.3866752,14.4965852 L20.808531,25.1791192 C20.4166064,25.5770208 19.8833326,25.8000313 19.3275909,25.7984358 C18.9171857,25.7984358 13.2016403,25.8045207 13.1423893,25.8045207 L12.8511556,25.8028305 Z M13.6565674,1.15457344 L7.98654828,12.1241161 L7.93533132,12.1758385 C7.48618557,12.6307586 7.48618557,13.3669075 7.93533132,13.8218277 L7.98922629,13.8762545 L13.432284,24.851206 L19.3275909,24.8457971 C19.6335124,24.8466461 19.9270451,24.7238136 20.1427105,24.5046997 L30.7208547,13.8221657 C30.9371497,13.6039777 31.0586831,13.3079063 31.0586831,12.9991711 C31.0586831,12.6904359 30.9371497,12.3943645 30.7208547,12.1761765 L20.1427105,1.49364248 C19.9269264,1.27474847 19.6334419,1.1520578 19.3275909,1.15287903 L13.6565674,1.15457344 Z"/><path fill="#F087FF" d="M5.31975815,3.81566797 L20.3681934,3.88954037 C21.2584369,3.89391055 21.9790408,4.61451377 21.9834119,5.50475717 L22.0572996,20.5531739 C22.0617012,21.4496351 21.338544,22.1799287 20.4420828,22.1843304 C20.4367696,22.1843564 20.4314563,22.1843564 20.4261431,22.1843304 L5.37772313,22.1104426 C4.48748103,22.1060715 3.76687834,21.3854696 3.76250635,20.4952275 L3.68860333,5.44682612 C3.68420079,4.5503649 4.40735724,3.82007053 5.30381846,3.81566799 C5.30913166,3.8156419 5.31444495,3.81564189 5.31975815,3.81566797 Z" transform="rotate(45 12.873 13)"/><path fill="#000" d="M12.8729144,25.7953976 C12.3174717,25.7964685 11.784507,25.5739522 11.3919742,25.1770909 L0.813830091,14.4945569 C-0.003936311,13.6686606 -0.003936311,12.3296816 0.813830091,11.5037854 L11.3919742,0.821251331 C11.7846223,0.42450339 12.3173012,0.201593792 12.872747,0.201593792 C13.4281929,0.201593792 13.9608718,0.42450339 14.3535199,0.821251331 L24.931664,11.5037854 C25.7494304,12.3296816 25.7494304,13.6686606 24.931664,14.4945569 L14.3535199,25.1770909 C13.961153,25.5739959 13.4282704,25.7965282 12.8729144,25.7953976 Z M12.0577948,24.5046997 C12.5081171,24.9586498 13.237377,24.9586498 13.6876993,24.5046997 L24.2658435,13.8221657 C24.7157265,13.3675536 24.7157265,12.6307887 24.2658435,12.1761765 L13.6876993,1.49364248 C13.2375297,1.03931983 12.5079644,1.03931983 12.0577948,1.49364248 L1.47965062,12.1761765 C1.26335562,12.3943645 1.14182223,12.6904359 1.14182223,12.9991711 C1.14182223,13.3079063 1.26335562,13.6039777 1.47965062,13.8221657 L12.0577948,24.5046997 Z"/><path fill="#000" d="M9.01959109 8.9048195 9.63452941 8.2216106 10.1701316 8.2216106 9.58163869 12.4168716C9.4058942 13.7207492 8.52784129 14.4036201 7.27185405 14.4036201 6.15646239 14.4036201 5.21681522 13.978009 5.21681522 12.9226017L6.72721352 12.9226017C6.72721352 13.1619445 6.91166154 13.4192043 7.34215184 13.4192043 7.87775407 13.4192043 8.00964613 12.9756763 8.06220209 12.6031398L8.14120342 12.0000499C7.81649457 12.3458801 7.35955891 12.585561 6.8416985 12.585561 5.87560597 12.585561 5.40996677 11.8225711 5.40996677 10.8560722 5.40996677 9.56977344 6.06875752 8.13304022 7.64945362 8.13304022 8.23794658 8.13304022 8.73839992 8.38151055 9.01959109 8.9048195ZM7.02581177 9.92473105C6.92806436 10.5721061 6.89458922 10.8648617 6.89458922 10.9358532 6.89458922 11.3526748 7.14029675 11.5920177 7.49178571 11.5920177 7.92227601 11.5920177 8.23828133 11.2904727 8.30857912 10.7759532 8.36113509 10.4125442 8.44047117 9.96901624 8.44047117 9.79153743 8.44047117 9.33043058 8.20313243 9.10866659 7.85197822 9.10866659 7.45630207 9.10866659 7.10514785 9.40142211 7.02581177 9.92473105ZM15.1850423 10.004512C15.1850423 11.6363029 14.1838009 12.8424827 12.5502141 12.8424827L12.4179873 12.8424827C11.145932 12.8424827 10.371652 12.1244541 10.371652 10.9713489 10.371652 9.4457073 11.2754808 8.131688 13.0064802 8.131688L13.1470758 8.131688C14.4033978 8.13304022 15.1850423 8.8426174 15.1850423 10.004512ZM12.0584643 9.9865951C11.9704247 10.5453998 11.9001269 11.0065067 11.9001269 11.1927749 11.9001269 11.6275135 12.1900216 11.8668563 12.585363 11.8668563 13.0419639 11.8668563 13.4195635 11.5477325 13.4985648 10.9879136 13.5779009 10.4825216 13.6569022 9.97679151 13.6569022 9.7993127 13.6569022 9.37370161 13.375711 9.10765242 12.9716661 9.10765242 12.5150652 9.10866659 12.1284273 9.42779039 12.0584643 9.9865951L12.0584643 9.9865951Z"/><polygon fill="#000" points="12.003 13.664 11.924 14.234 11.329 14.234 11.076 16.033 10.364 16.033 10.617 14.234 10.022 14.234 10.101 13.664"/><path fill="#000" d="M12.9509115 13.663618C12.7731585 14.9313238 12.7252891 15.2457148 12.7252891 15.3423985 12.7252891 15.4776204 12.8310705 15.5290048 12.9713313 15.5290048 13.1594616 15.5290048 13.2622303 15.4218414 13.2826501 15.2700547L13.5052598 13.663618 14.2236363 13.663618 14.0010266 15.2801964C13.9293898 15.7571918 13.5872739 16.0678642 12.9679838 16.0678642L12.819689 16.0678642C12.3098626 16.0678642 11.9951963 15.8089142 11.9951963 15.4390822 11.9951963 15.3251577 12.0567905 14.9174635 12.2278485 13.663618L12.9509115 13.663618ZM16.488899 14.205858C16.4951328 14.524991 16.2896905 14.8090862 15.9867719 14.9002227L15.9834244 14.9174635C16.1990043 14.9830461 16.2847007 15.1111689 16.2847007 15.3251577 16.2847007 15.4218414 16.2605986 15.4911426 16.2605986 15.6118282 16.2605986 15.7260908 16.2847007 15.8329161 16.3904821 15.8606366L16.3700623 16.0022816C16.2359319 16.0492225 16.0945393 16.0714365 15.9526273 16.0678642 15.6791354 16.0678642 15.5218022 15.9782797 15.5218022 15.7298094 15.5218022 15.6365062 15.5489171 15.5499642 15.5489171 15.4431388 15.5489171 15.283915 15.5013824 15.2044721 15.295845 15.2044721L15.0872949 15.2044721 14.9708014 16.0337207 14.2688278 16.0337207 14.5972189 13.6639557 15.9245082 13.6639557C16.2341532 13.663618 16.488899 13.8948475 16.488899 14.205858ZM15.223204 14.205858 15.1629487 14.6757543 15.5345228 14.6757543C15.6781311 14.6757543 15.7326956 14.5067268 15.7326956 14.3647438 15.7326956 14.2680601 15.6781311 14.205858 15.5890873 14.205858L15.223204 14.205858ZM18.7575092 14.1679958C18.7575092 14.5685909 18.5044372 14.7308572 18.2855098 14.7964399L18.2821623 14.8103001C18.4907124 14.8623606 18.6547406 14.9901453 18.6547406 15.2801964 18.6547406 15.6567895 18.3708714 16.0333826 17.9092492 16.0333826L16.6023797 16.0333826 16.9341184 13.663618 18.220568 13.663618C18.5352343 13.663618 18.7575092 13.8847059 18.7575092 14.1679958ZM17.9775385 15.2250934C17.979054 15.1852538 17.9640699 15.1465768 17.9361855 15.1183531 17.9083011 15.0901294 17.8700363 15.0749094 17.8305826 15.0763493L17.3954058 15.0763493 17.3405066 15.4840435 17.7756834 15.4840435C17.9196265 15.4840435 17.9671612 15.3839792 17.9775385 15.2250934ZM18.0632348 14.3164019C18.0646606 14.2765589 18.0495894 14.2379164 18.0216415 14.2097569 17.9936936 14.1815973 17.9553945 14.1664653 17.9159442 14.1679958L17.5226113 14.1679958 17.4677121 14.5719714 17.8613797 14.5719714C18.0016406 14.5719714 18.0528575 14.4719072 18.0632348 14.3164019ZM19.782518 16.0678642C19.2623143 16.0678642 18.889736 15.6811295 18.889736 15.1767516 18.889736 15.0939281 18.9205332 14.8968422 18.9509955 14.6723737 19.0299969 14.1024132 19.4865978 13.6358975 20.1226254 13.6358975L20.314438 13.6358975C20.8343069 13.6358975 21.20722 14.0226322 21.20722 14.5270101 21.20722 14.6135522 21.1764228 14.8140187 21.1456257 15.031388 21.0636116 15.6060813 20.6153795 16.0678642 19.9739958 16.0678642L19.782518 16.0678642ZM20.3515954 15.1801321C20.430262 14.6169327 20.4473343 14.5040224 20.4473343 14.464808 20.4473343 14.2886814 20.3207983 14.1679958 20.132668 14.1679958 19.898342 14.1679958 19.7701322 14.3197825 19.7426826 14.5131499 19.657321 15.1006892 19.6469437 15.173033 19.6469437 15.228474 19.6447526 15.3085339 19.6755159 15.3859304 19.7319113 15.4422417 19.7883067 15.498553 19.86529 15.5287424 19.9445377 15.5256242 20.1745119 15.5256242 20.3214678 15.40122 20.3515954 15.1801321Z"/><rect width="6.455" height="1" x="25.073" y="12.525" fill="#000"/><ellipse cx="5.719" cy="19.822" fill="#F087FF" rx="3.786" ry="3.824"/><path fill="#000" d="M5.71860756,24.1210077 C3.99667648,24.1215544 2.44399668,23.0744729 1.78466686,21.4680737 C1.12533704,19.8616744 1.48922017,18.0123573 2.70661784,16.782559 C3.92401551,15.5527607 5.75514654,15.1847048 7.34605533,15.8500358 C8.93696413,16.5153668 9.97430208,18.0830397 9.97430208,19.8219636 C9.97153675,22.1945745 8.06803227,24.1174685 5.71860756,24.1210077 Z M5.71860756,16.4738681 C3.88831446,16.4738681 2.40456873,17.9722561 2.40456873,19.8206114 C2.40456873,21.6689667 3.88831446,23.1673547 5.71860756,23.1673547 C7.54890067,23.1673547 9.0326464,21.6689667 9.0326464,19.8206114 C9.02988124,17.973414 7.54775408,16.4766606 5.71860756,16.4738681 Z"/><path fill="#000" d="M6.9257211,19.9893008 C7.03902366,19.8988672 7.14400436,19.7982815 7.23938316,19.68877 C7.30097742,19.6191307 7.37328372,19.5832969 7.46801836,19.6045943 C7.55421958,19.6192978 7.62214592,19.6868142 7.63807207,19.7736218 C7.87239805,20.8935976 7.26582852,21.8560398 6.32015582,22.1697547 C5.95192929,22.2924686 5.57600347,22.2860456 5.20007765,22.2035602 C4.86532625,22.128512 4.55501171,21.9953184 4.29390562,21.7640889 C3.88584366,21.4047365 3.71043393,20.9473483 3.75596012,20.4054463 C3.80650758,19.8064131 4.12418666,19.3845206 4.62832226,19.0897368 C4.76073635,19.0134928 4.89885179,18.9478226 5.04140549,18.8933269 C5.40327175,18.7516819 5.59274104,18.4754911 5.65065303,18.0972077 C5.68325254,17.8542823 5.67328122,17.6074595 5.62119491,17.3680233 C5.58771977,17.1989959 5.66772535,17.0620836 5.82204574,17.0282781 C5.89997263,17.0088399 5.98232933,17.0310354 6.04030366,17.0870997 C6.41924224,17.4518609 6.73826032,17.8578648 6.9022885,18.3717082 C7.07133796,18.900088 7.08874503,19.4304961 6.92806436,19.9639467 C6.92672268,19.9723356 6.92593984,19.980806 6.9257211,19.9893008 L6.9257211,19.9893008 Z M4.66414066,21.592357 C4.63393519,21.48359 4.61376406,21.372233 4.60388541,21.259711 C4.57442729,20.9013728 4.75954481,20.6011801 5.09329195,20.4781281 C5.20309041,20.4378996 5.31824489,20.4105172 5.42804335,20.3767117 C5.54520391,20.3403405 5.63176034,20.2399559 5.65132253,20.1177616 C5.66806796,20.0286672 5.67458287,19.9379197 5.67073811,19.8473177 C5.66839485,19.725956 5.7396969,19.6444848 5.84447409,19.6417804 C5.94925128,19.6390759 6.02222708,19.7202091 6.02724835,19.8412328 C6.0298788,19.9165076 6.02696962,19.9918757 6.01854481,20.0667154 C5.9904257,20.3347929 5.88464426,20.5545285 5.6322417,20.6769044 C5.60378783,20.6904266 5.60244883,20.7107099 5.60244883,20.7353879 C5.59876656,21.2330047 5.86221591,21.5957376 6.33187212,21.7414392 C6.3649866,21.7533881 6.40159824,21.750307 6.43229754,21.7329878 C6.91032254,21.4801228 7.20044041,21.0864015 7.30265117,20.5518241 C7.32869177,20.4113194 7.33489047,20.2677977 7.3210625,20.1255369 C7.30399018,20.1390591 7.29227388,20.1475105 7.28189659,20.1573141 C7.16283191,20.2656136 7.03631342,20.3652515 6.90329276,20.4554785 C6.80061456,20.5289864 6.66175792,20.5232972 6.56531384,20.4416309 C6.46886975,20.3599646 6.43911384,20.222877 6.49288754,20.107958 C6.7941638,19.4058181 6.73591706,18.7236233 6.37706356,18.0600216 C6.28081087,17.8869477 6.16190912,17.7277572 6.02356609,17.5867448 C6.02356609,17.6178458 6.02155758,17.6418477 6.02356609,17.6655116 C6.036971,17.8175136 6.03258901,17.9705815 6.01051078,18.1215476 C5.93519172,18.6435043 5.67575938,19.0255063 5.18066207,19.2256348 C5.02447297,19.2862189 4.87400751,19.3608929 4.73109094,19.448751 C4.10744909,19.8419089 4.0026719,20.5112575 4.18879368,21.0176637 C4.27649854,21.2590349 4.44086148,21.4415845 4.66414066,21.592357 L4.66414066,21.592357 Z M5.79760889,21.8966064 L5.80731668,21.88207 C5.80021775,21.8791909 5.79338457,21.875684 5.78689685,21.8715903 C5.44611993,21.6187253 5.28175699,21.2698527 5.2479471,20.8516788 C5.24426483,20.8053653 5.22618826,20.8090839 5.19472163,20.8232822 C5.00324383,20.9081339 4.95570913,21.0460603 4.96206941,21.2204966 C4.96909918,21.4192729 5.04040123,21.6018225 5.12676709,21.7779491 C5.13294109,21.7960389 5.14701579,21.8102525 5.16492875,21.8164874 C5.37044753,21.8762262 5.58381597,21.903816 5.79760889,21.8982967 L5.79760889,21.8966064 Z"/><path fill="#000" d="M5.72764585,22.3414933 C5.54446491,22.3403034 5.36195537,22.3189932 5.18334008,22.2779323 C4.80138873,22.1924044 4.4937522,22.0433222 4.2423539,21.8218963 C3.81956289,21.4500359 3.62975884,20.970336 3.67796305,20.397333 C3.72750625,19.8081034 4.03380378,19.3446301 4.5888216,19.0194214 C4.72481981,18.9406662 4.86674654,18.8728457 5.01328637,18.8165884 C5.3333087,18.6911701 5.51541346,18.4508131 5.57332546,18.0819952 C5.6068006,17.8703728 5.5964233,17.6472566 5.54420208,17.3801933 C5.50269291,17.1682329 5.61115236,16.990416 5.80698193,16.9478211 C5.91027863,16.9226203 6.01917129,16.9523101 6.09587239,17.0265879 C6.55079954,17.4660592 6.83232546,17.8832189 6.97827707,18.3450019 C7.13053349,18.8021426 7.15942036,19.2919979 7.06196492,19.7641562 C7.10168875,19.7247165 7.14163575,19.6821216 7.18180592,19.6363715 C7.26850653,19.5379975 7.37094046,19.5011495 7.48609494,19.5278559 C7.60210749,19.548438 7.69348094,19.6392335 7.7157344,19.7560429 C7.83189313,20.3134954 7.75423081,20.8516788 7.49011196,21.3110953 C7.23505795,21.7531644 6.8275691,22.0847556 6.34559693,22.2424365 C6.14617936,22.3085946 5.93754782,22.3420357 5.72764585,22.3414933 Z M5.88163149,17.0992583 C5.86766982,17.099386 5.85375821,17.1009721 5.84012232,17.1040024 C5.72764585,17.1286804 5.67274662,17.2229977 5.69818773,17.3511205 C5.75409121,17.6367769 5.76513801,17.8771339 5.72831535,18.1076874 C5.66337358,18.5312701 5.44176816,18.819969 5.06985936,18.9656706 C4.93119762,19.0185807 4.79688113,19.0824454 4.66815768,19.1566716 C4.15297528,19.4585546 3.88048764,19.8686152 3.83496145,20.4105172 C3.79110902,20.9307836 3.96317124,21.3655222 4.34612683,21.7025629 C4.5771053,21.9053958 4.86231349,22.0436603 5.21648047,22.1231032 C5.61349562,22.2120116 5.9663236,22.2018699 6.29504947,22.0930163 C7.25645548,21.7735544 7.7769939,20.8259866 7.56040975,19.7881581 C7.55013707,19.7325312 7.50577896,19.6897777 7.45027654,19.6820089 C7.39136029,19.6684867 7.3458341,19.6864036 7.29729515,19.7411685 C7.19904744,19.8545393 7.09056671,19.9584319 6.9732558,20.0515029 L6.82362193,20.1698221 L6.84939778,19.9649608 C6.84997941,19.9555787 6.85155047,19.9462859 6.8540843,19.9372403 C7.00505718,19.436243 6.9966884,18.9166527 6.82897795,18.3926676 C6.69039087,17.9589432 6.4229245,17.5613907 5.98774769,17.1418646 C5.95932181,17.11409 5.92118169,17.0987806 5.88163149,17.0992583 L5.88163149,17.0992583 Z M5.7266416,21.9790918 C5.52974883,21.9764547 5.33404383,21.9478151 5.14450892,21.893902 C5.10480971,21.8819695 5.07249976,21.8526904 5.0564693,21.814121 C4.97545946,21.6488122 4.89143686,21.4493598 4.88340283,21.2238772 C4.87838156,21.0764853 4.9014794,20.8672293 5.16325499,20.7506004 C5.19780489,20.7310453 5.2397311,20.7301579 5.27506196,20.748234 C5.30683633,20.7701539 5.32596865,20.8063968 5.32627893,20.8452557 C5.35975407,21.2634296 5.5247865,21.5774826 5.83041453,21.8056696 L5.83041453,21.8056696 L5.84045707,21.8100643 L5.9201279,21.8496168 L5.84012232,21.9733448 L5.7996174,21.9750351 C5.77651955,21.9784157 5.7514132,21.9790918 5.7266416,21.9790918 L5.7266416,21.9790918 Z M5.19739964,21.7448198 C5.3281239,21.7805438 5.46179348,21.8041923 5.59675805,21.8154732 C5.35841506,21.5855959 5.21714997,21.2864173 5.17597555,20.9230084 C5.07555013,20.9841963 5.03504521,21.0717525 5.04207499,21.2194825 C5.04910477,21.4145401 5.12509334,21.5943853 5.19873864,21.7444817 L5.19739964,21.7448198 Z M6.3753898,21.8269671 C6.35267266,21.8269671 6.33009127,21.8234306 6.30843952,21.8164874 C5.80631243,21.6606441 5.51976523,21.266134 5.5234475,20.7347118 C5.51877166,20.679967 5.54864446,20.6281545 5.59809706,20.6052368 C5.80263016,20.5068628 5.91142437,20.3327645 5.94021299,20.058264 C5.94820813,19.9873523 5.95100533,19.9159411 5.94858177,19.8446133 C5.94858177,19.8152025 5.93786973,19.719533 5.84480884,19.7208852 C5.82065511,19.7202783 5.79730853,19.7296847 5.78020182,19.7469154 C5.75728184,19.7745015 5.74598466,19.8100626 5.74873519,19.8459655 C5.75260357,19.9422469 5.74552758,20.0386587 5.72764585,20.1333122 C5.70190477,20.2827542 5.59575575,20.4052086 5.4524802,20.4507457 C5.402937,20.4673104 5.35205478,20.4818467 5.30351583,20.495707 C5.23924356,20.513962 5.17865356,20.5315408 5.11906781,20.5535144 C4.82214332,20.6627061 4.65409812,20.9311217 4.68087823,21.253626 C4.69029094,21.3613689 4.70967967,21.4679841 4.73879022,21.5720737 L4.79368945,21.7749066 L4.62062298,21.6572635 C4.36888993,21.4882361 4.20318799,21.2854032 4.11380936,21.0433559 C3.92032306,20.5176806 4.02309174,19.7993139 4.68824276,19.3797878 C4.8350434,19.2893344 4.98966181,19.2125069 5.15019969,19.1502486 C5.60110982,18.9687131 5.85652514,18.6279538 5.93150945,18.1083635 C5.95261319,17.9635444 5.95677037,17.8167207 5.94389525,17.6709205 C5.9428971,17.651439 5.9428971,17.6319184 5.94389525,17.612437 C5.94389525,17.6039856 5.94389525,17.5948581 5.94389525,17.5850545 L5.94389525,17.3893207 L6.07779581,17.5299516 C6.22137809,17.6761388 6.34458231,17.8413878 6.44401384,18.0211453 C6.82362193,18.7229472 6.86379209,19.4352288 6.56285059,20.138383 C6.52036531,20.2218531 6.54159407,20.3239668 6.6137328,20.3831347 C6.68409409,20.4444351 6.7876717,20.446564 6.86044458,20.3882055 C6.99013529,20.3004524 7.11341777,20.2034064 7.22934062,20.0978164 C7.2377094,20.0900411 7.24674769,20.082942 7.25779449,20.0744906 L7.38667378,19.9730742 L7.39972908,20.1191139 C7.41430398,20.2687219 7.40765343,20.419665 7.37997875,20.5673746 C7.2728583,21.1238129 6.96622602,21.5399585 6.46811594,21.8033032 C6.43952435,21.818483 6.40769177,21.8263747 6.3753898,21.826291 L6.3753898,21.8269671 Z M5.68178491,20.7404587 C5.68178491,21.2015656 5.9194584,21.5298169 6.35597422,21.6650388 C6.36925926,21.6708406 6.38451573,21.669704 6.39681389,21.6619963 C6.85040204,21.4219773 7.12991945,21.0430178 7.22733211,20.5359355 C7.24282992,20.4550558 7.25078716,20.3728872 7.25109946,20.2905077 C7.1547645,20.3724528 7.05419814,20.4491861 6.9498232,20.520385 C6.81842002,20.6163044 6.63939894,20.6102864 6.51460311,20.5057546 C6.38980727,20.4012227 6.35085744,20.2246632 6.41991174,20.0765189 C6.70445043,19.411227 6.66762777,18.7641899 6.30743527,18.0982218 C6.24998278,17.9940153 6.18319989,17.8953418 6.10792344,17.803438 C6.10952934,17.913696 6.10247747,18.023909 6.0868341,18.1330415 C6.00448526,18.7057064 5.70889977,19.0978501 5.20844643,19.2993308 C5.05648549,19.3580973 4.91015054,19.4307421 4.77126111,19.516362 C4.1810944,19.8882224 4.08970726,20.5247797 4.26076523,20.9902813 C4.31976267,21.1474345 4.4162301,21.2874676 4.54162165,21.3979755 C4.53459187,21.3540283 4.5295706,21.3107573 4.52588833,21.2671482 C4.49241319,20.8702718 4.69995906,20.5396541 5.06651184,20.4047702 C5.13145361,20.3807683 5.19806914,20.3618373 5.26234141,20.3435823 C5.30954136,20.3300601 5.35808031,20.3161999 5.40461075,20.3006493 C5.49542361,20.2733768 5.56221871,20.1952301 5.57566872,20.1005208 C5.59088964,20.0176202 5.59672948,19.9332409 5.59307579,19.849008 C5.58937406,19.7709439 5.61673439,19.6946258 5.66906436,19.6370476 C5.71530726,19.5895683 5.77852841,19.562885 5.84447409,19.5630136 L5.8478216,19.5630136 C5.99343846,19.5630136 6.0998894,19.6759239 6.10658443,19.8385283 C6.10960589,19.9175251 6.10658415,19.9966396 6.09754614,20.0751667 C6.06373625,20.3980091 5.92749243,20.6160545 5.68178491,20.7404587 L5.68178491,20.7404587 Z"/><polygon fill="#000" points="5.109 20.675 4.703 21.707 5.807 22.041 5.424 20.842"/><path fill="#000" d="M5.83744431,22.0703666 L4.67686121,21.7194656 L5.09831322,20.6471556 L5.4400944,20.828353 L5.83744431,22.0703666 Z M4.72908243,21.6937735 L5.77718906,22.0108689 L5.40896252,20.8557354 L5.12040682,20.7025966 L4.72908243,21.6937735 Z"/></g></svg>