<svg xmlns="http://www.w3.org/2000/svg" width="32" height="32" viewBox="0 0 32 32"><g fill="none" transform="translate(0 3)"><path fill="#FFF383" stroke="#000" stroke-width=".942" d="M13.1417198,25.3268492 L7.60258843,14.1592064 C7.2981286,13.8517849 7.12708128,13.4348062 7.12708128,13.0000163 C7.12708128,12.5652263 7.2981286,12.1482476 7.60258843,11.8408261 L13.3726983,0.679266715 L19.3275909,0.679266715 C19.7582189,0.67866625 20.1713236,0.851427249 20.4754534,1.15930621 L31.0535976,11.8418402 C31.6872375,12.4821717 31.6872375,13.5198891 31.0535976,14.1602206 L20.4754534,24.8427546 C20.1713236,25.1506336 19.7582189,25.3233946 19.3275909,25.3227925 C18.9121644,25.3211023 13.1417198,25.3268492 13.1417198,25.3268492 Z"/><path fill="#000" d="M12.8511556,25.8028305 L7.2136073,14.4367495 C6.4706801,13.624348 6.47199256,12.3713909 7.21662007,11.5605786 L13.0874901,0.203617873 L19.3275909,0.203617873 C19.8833736,0.202156701 20.4166404,0.425286042 20.808531,0.82327966 L31.3866752,11.5058137 C32.2044416,12.3317099 32.2044416,13.6706889 31.3866752,14.4965852 L20.808531,25.1791192 C20.4166064,25.5770208 19.8833326,25.8000313 19.3275909,25.7984358 C18.9171857,25.7984358 13.2016403,25.8045207 13.1423893,25.8045207 L12.8511556,25.8028305 Z M13.6565674,1.15457344 L7.98654828,12.1241161 L7.93533132,12.1758385 C7.48618557,12.6307586 7.48618557,13.3669075 7.93533132,13.8218277 L7.98922629,13.8762545 L13.432284,24.851206 L19.3275909,24.8457971 C19.6335124,24.8466461 19.9270451,24.7238136 20.1427105,24.5046997 L30.7208547,13.8221657 C30.9371497,13.6039777 31.0586831,13.3079063 31.0586831,12.9991711 C31.0586831,12.6904359 30.9371497,12.3943645 30.7208547,12.1761765 L20.1427105,1.49364248 C19.9269264,1.27474847 19.6334419,1.1520578 19.3275909,1.15287903 L13.6565674,1.15457344 Z"/><path fill="#FFF383" stroke="#000" stroke-width=".942" d="M5.31975815,3.81566797 L20.3681934,3.88954037 C21.2584369,3.89391055 21.9790408,4.61451377 21.9834119,5.50475717 L22.0572996,20.5531739 C22.0617012,21.4496351 21.338544,22.1799287 20.4420828,22.1843304 C20.4367696,22.1843564 20.4314563,22.1843564 20.4261431,22.1843304 L5.37772313,22.1104426 C4.48748103,22.1060715 3.76687834,21.3854696 3.76250635,20.4952275 L3.68860333,5.44682612 C3.68420079,4.5503649 4.40735724,3.82007053 5.30381846,3.81566799 C5.30913166,3.8156419 5.31444495,3.81564189 5.31975815,3.81566797 Z" transform="rotate(45 12.873 13)"/><path fill="#000" d="M12.8729144,25.7953976 C12.3174717,25.7964685 11.784507,25.5739522 11.3919742,25.1770909 L0.813830091,14.4945569 C-0.003936311,13.6686606 -0.003936311,12.3296816 0.813830091,11.5037854 L11.3919742,0.821251331 C11.7846223,0.42450339 12.3173012,0.201593792 12.872747,0.201593792 C13.4281929,0.201593792 13.9608718,0.42450339 14.3535199,0.821251331 L24.931664,11.5037854 C25.7494304,12.3296816 25.7494304,13.6686606 24.931664,14.4945569 L14.3535199,25.1770909 C13.961153,25.5739959 13.4282704,25.7965282 12.8729144,25.7953976 Z M12.0577948,24.5046997 C12.5081171,24.9586498 13.237377,24.9586498 13.6876993,24.5046997 L24.2658435,13.8221657 C24.7157265,13.3675536 24.7157265,12.6307887 24.2658435,12.1761765 L13.6876993,1.49364248 C13.2375297,1.03931983 12.5079644,1.03931983 12.0577948,1.49364248 L1.47965062,12.1761765 C1.26335562,12.3943645 1.14182223,12.6904359 1.14182223,12.9991711 C1.14182223,13.3079063 1.26335562,13.6039777 1.47965062,13.8221657 L12.0577948,24.5046997 Z"/><rect width="6.455" height="1" x="25.073" y="12.525" fill="#000"/><ellipse cx="5.719" cy="19.822" fill="#FFF383" stroke="#000" stroke-width=".942" rx="3.786" ry="3.824"/><path fill="#000" d="M5.71860756,24.1210077 C3.99667648,24.1215544 2.44399668,23.0744729 1.78466686,21.4680737 C1.12533704,19.8616744 1.48922017,18.0123573 2.70661784,16.782559 C3.92401551,15.5527607 5.75514654,15.1847048 7.34605533,15.8500358 C8.93696413,16.5153668 9.97430208,18.0830397 9.97430208,19.8219636 C9.97153675,22.1945745 8.06803227,24.1174685 5.71860756,24.1210077 Z M5.71860756,16.4738681 C3.88831446,16.4738681 2.40456873,17.9722561 2.40456873,19.8206114 C2.40456873,21.6689667 3.88831446,23.1673547 5.71860756,23.1673547 C7.54890067,23.1673547 9.0326464,21.6689667 9.0326464,19.8206114 C9.02988124,17.973414 7.54775408,16.4766606 5.71860756,16.4738681 Z"/><rect width="3.245" height="3.277" x="4.087" y="18.183" fill="#FFF383" stroke="#000" stroke-width=".847"/><path fill="#000" d="M10.484798 7.43292857 10.371652 8.31187125C10.2323954 8.26792411 9.99706517 8.21518755 9.84040152 8.21518755 9.45711117 8.21518755 9.31751983 8.40855494 9.27400215 8.73410179L9.2130774 9.15633232 10.258506 9.15633232 10.1105459 10.2120777 9.06511728 10.2120777 8.5773845 13.7667247C8.43779316 14.8309215 7.77598965 15.2879716 6.86111408 15.2879716 6.56519385 15.2879716 6.10323692 15.2261076 5.86824144 15.1030556L5.99076045 14.2153235C6.12164825 14.2768495 6.36534726 14.3207966 6.51364213 14.3207966 6.86178358 14.3207966 7.02748553 14.1274293 7.08841028 13.731567L7.57614307 10.2127538 7.03551956 10.2127538 7.18347968 9.15700843 7.72376843 9.15700843 7.80210026 8.59414707C7.94135684 7.60871711 8.58608803 7.24835061 9.45711117 7.24835061 9.73562433 7.24835061 10.2421032 7.3098766 10.484798 7.43292857ZM11.6868902 13.6531383 10.1975813 13.6531383 11.0789817 7.31866602 12.5686254 7.31866602 11.6868902 13.6531383ZM14.265815 13.6521241 12.7862138 13.6521241 13.4135379 9.15599427 14.8941434 9.15599427 14.265815 13.6521241ZM14.9972468 8.44607903 13.4992343 8.44607903 13.6565674 7.31866602 15.1549147 7.31866602 14.9972468 8.44607903ZM20.1453885 10.8459306C20.1453885 12.1393285 19.5619168 13.7403564 18.0809767 13.7403564 17.5062085 13.7403564 17.1229182 13.4587567 16.9662545 13.1595782L16.66933 15.2443626 15.1890593 15.2443626 16.0259378 9.15700843 17.210623 9.15700843 17.2802513 9.702629C17.5852098 9.3595033 17.9946108 9.06911417 18.5606754 9.06911417 19.4748815 9.06911417 20.1453885 9.64110301 20.1453885 10.8459306ZM17.2795818 10.8902158C17.20125 11.4354983 17.1316217 11.901676 17.1316217 12.086592 17.1316217 12.5176119 17.3756555 12.7288962 17.7150934 12.7288962 18.1419014 12.7288962 18.4468599 12.4121388 18.5338953 11.8756457 18.6212654 11.2600478 18.6821902 10.811449 18.6821902 10.688059 18.6821902 10.2485876 18.4381564 10.0373031 18.0896802 10.0373031 17.6976863 10.0369653 17.3579136 10.3533846 17.2795818 10.8902158Z"/></g></svg>