<svg xmlns="http://www.w3.org/2000/svg" width="32" height="32" viewBox="0 0 32 32"><g fill="none" transform="translate(0 3)"><path fill="#00FF94" stroke="#000" stroke-width=".96" d="M13.1417198,25.3268492 L7.60258843,14.1592064 C7.2981286,13.8517849 7.12708128,13.4348062 7.12708128,13.0000163 C7.12708128,12.5652263 7.2981286,12.1482476 7.60258843,11.8408261 L13.3726983,0.679266715 L19.3275909,0.679266715 C19.7582189,0.67866625 20.1713236,0.851427249 20.4754534,1.15930621 L31.0535976,11.8418402 C31.6872375,12.4821717 31.6872375,13.5198891 31.0535976,14.1602206 L20.4754534,24.8427546 C20.1713236,25.1506336 19.7582189,25.3233946 19.3275909,25.3227925 C18.9121644,25.3211023 13.1417198,25.3268492 13.1417198,25.3268492 Z"/><path fill="#000" d="M12.8511556,25.8028305 L7.2136073,14.4367495 C6.4706801,13.624348 6.47199256,12.3713909 7.21662007,11.5605786 L13.0874901,0.203617873 L19.3275909,0.203617873 C19.8833736,0.202156701 20.4166404,0.425286042 20.808531,0.82327966 L31.3866752,11.5058137 C32.2044416,12.3317099 32.2044416,13.6706889 31.3866752,14.4965852 L20.808531,25.1791192 C20.4166064,25.5770208 19.8833326,25.8000313 19.3275909,25.7984358 C18.9171857,25.7984358 13.2016403,25.8045207 13.1423893,25.8045207 L12.8511556,25.8028305 Z M13.6565674,1.15457344 L7.98654828,12.1241161 L7.93533132,12.1758385 C7.48618557,12.6307586 7.48618557,13.3669075 7.93533132,13.8218277 L7.98922629,13.8762545 L13.432284,24.851206 L19.3275909,24.8457971 C19.6335124,24.8466461 19.9270451,24.7238136 20.1427105,24.5046997 L30.7208547,13.8221657 C30.9371497,13.6039777 31.0586831,13.3079063 31.0586831,12.9991711 C31.0586831,12.6904359 30.9371497,12.3943645 30.7208547,12.1761765 L20.1427105,1.49364248 C19.9269264,1.27474847 19.6334419,1.1520578 19.3275909,1.15287903 L13.6565674,1.15457344 Z"/><path fill="#00FF94" stroke="#000" stroke-width=".96" d="M5.31975815,3.81566797 L20.3681934,3.88954037 C21.2584369,3.89391055 21.9790408,4.61451377 21.9834119,5.50475717 L22.0572996,20.5531739 C22.0617012,21.4496351 21.338544,22.1799287 20.4420828,22.1843304 C20.4367696,22.1843564 20.4314563,22.1843564 20.4261431,22.1843304 L5.37772313,22.1104426 C4.48748103,22.1060715 3.76687834,21.3854696 3.76250635,20.4952275 L3.68860333,5.44682612 C3.68420079,4.5503649 4.40735724,3.82007053 5.30381846,3.81566799 C5.30913166,3.8156419 5.31444495,3.81564189 5.31975815,3.81566797 Z" transform="rotate(45 12.873 13)"/><path fill="#000" d="M12.8729144,25.7953976 C12.3174717,25.7964685 11.784507,25.5739522 11.3919742,25.1770909 L0.813830091,14.4945569 C-0.003936311,13.6686606 -0.003936311,12.3296816 0.813830091,11.5037854 L11.3919742,0.821251331 C11.7846223,0.42450339 12.3173012,0.201593792 12.872747,0.201593792 C13.4281929,0.201593792 13.9608718,0.42450339 14.3535199,0.821251331 L24.931664,11.5037854 C25.7494304,12.3296816 25.7494304,13.6686606 24.931664,14.4945569 L14.3535199,25.1770909 C13.961153,25.5739959 13.4282704,25.7965282 12.8729144,25.7953976 Z M12.0577948,24.5046997 C12.5081171,24.9586498 13.237377,24.9586498 13.6876993,24.5046997 L24.2658435,13.8221657 C24.7157265,13.3675536 24.7157265,12.6307887 24.2658435,12.1761765 L13.6876993,1.49364248 C13.2375297,1.03931983 12.5079644,1.03931983 12.0577948,1.49364248 L1.47965062,12.1761765 C1.26335562,12.3943645 1.14182223,12.6904359 1.14182223,12.9991711 C1.14182223,13.3079063 1.26335562,13.6039777 1.47965062,13.8221657 L12.0577948,24.5046997 Z"/><rect width="6.455" height="1" x="25.073" y="12.525" fill="#000"/><path fill="#000" d="M9.65327549 8.77399226 10.3478846 8.00255104 10.9527804 8.00255104 10.2882989 12.7410662C10.0897913 14.2136333 9.09792292 14.9850745 7.6792465 14.9850745 6.41924224 14.9850745 5.35808031 14.5043604 5.35808031 13.3120409L7.06531243 13.3120409C7.06531243 13.5824848 7.2735278 13.8728739 7.75958683 13.8728739 8.36481736 13.8728739 8.51344698 13.3722147 8.57303273 12.9513363L8.66241135 12.2701558C8.29418481 12.6609472 7.77933716 12.9313911 7.19419172 12.9313911 6.10290217 12.9313911 5.57734247 12.0696892 5.57734247 10.977772 5.57734247 9.52413603 6.32116008 7.90147263 8.10672403 7.90147263 8.76919705 7.90214874 9.33593116 8.18273428 9.65327549 8.77399226ZM7.40140284 9.92675938C7.29227388 10.6579721 7.25277322 10.9885897 7.25277322 11.0687088 7.25277322 11.5396192 7.53028212 11.8100631 7.92729728 11.8100631 8.41335631 11.8100631 8.77053605 11.4693038 8.84987213 10.8881874 8.90945788 10.4777888 8.99850175 9.97543929 8.99850175 9.77632496 8.99850175 9.2553824 8.73070064 9.00488271 8.33402023 9.00488271 7.88746187 9.00420763 7.49078146 9.3348253 7.40140284 9.92675938ZM16.6177783 10.0160059C16.6177783 11.8594191 15.4866533 13.2217802 13.6418384 13.2217802L13.492874 13.2217802C12.053443 13.2217802 11.1814156 12.4104485 11.1814156 11.1079231 11.1814156 9.38384325 12.2034116 7.90214874 14.1573555 7.90214874L14.3163624 7.90214874C15.7347041 7.90214874 16.6177783 8.70367685 16.6177783 10.0160059ZM13.0874901 9.99606063C12.9870647 10.6272091 12.9090676 11.1481516 12.9090676 11.3584218 12.9090676 11.8492775 13.2361197 12.1200594 13.6826781 12.1200594 14.19853 12.1200594 14.6250032 11.7593549 14.7143819 11.1282064 14.8037605 10.5572317 14.8931391 9.98591899 14.8931391 9.7857905 14.8931391 9.30473841 14.57546 9.00420763 14.1191939 9.00420763 13.602003 9.00420763 13.1654871 9.36491218 13.0874901 9.99606063ZM13.5939689 17.1655284 12.5348155 17.1655284 12.4179873 16.5671713 11.3588339 16.5671713 11.0819944 17.1655284 10.1055246 17.1655284 11.684547 13.7998541 12.9535895 13.7998541 13.5939689 17.1655284ZM12.1210628 14.8353162 11.6935853 15.8555658 12.28643 15.8555658 12.1451649 14.8353162 12.1210628 14.8353162ZM16.9947084 14.5702811C17.0027904 15.023551 16.710848 15.4267389 16.2806836 15.5563872L16.2756624 15.5807272C16.5816252 15.6736923 16.7028052 15.8555658 16.7028052 16.1598152 16.7028052 16.2974035 16.66933 16.3964536 16.66933 16.565481 16.66933 16.7274093 16.7028052 16.8791959 16.853778 16.9187484L16.8246547 17.1215813C16.6351854 17.1949392 16.422953 17.2148844 16.2321447 17.2148844 15.8434983 17.2148844 15.6198844 17.0870997 15.6198844 16.7338323 15.6198844 16.6013148 15.6587156 16.4786009 15.6587156 16.3281665 15.6587156 16.1023458 15.5917653 15.9901116 15.2991926 15.9901116L15.0029376 15.9901116 14.8375704 17.1675567 13.841685 17.1675567 14.3079937 13.8018731 16.1933135 13.8018731C16.6358549 13.7998541 16.9947084 14.1284434 16.9947084 14.5702811ZM15.1970934 14.5702811 15.1097233 15.2376015 15.6393 15.2376015C15.8434983 15.2376015 15.9211606 14.9969064 15.9211606 14.7957637 15.9211606 14.6585135 15.8434983 14.5702811 15.7169623 14.5702811L15.1970934 14.5702811ZM20.1868977 14.6291027C20.1882431 14.6999295 20.1817307 14.7706858 20.1674821 14.8400489L19.23453 14.8400489C19.2383904 14.8156856 19.2400709 14.7910207 19.2395512 14.766353 19.2395512 14.5946211 19.1130152 14.4959091 18.8796935 14.4959091 18.5834385 14.4959091 18.4425082 14.593945 18.4425082 14.7264625 18.4425082 15.1581586 20.0700695 14.8637128 20.0700695 15.8843004 20.0700695 16.5171392 19.7202543 17.2142083 18.4184061 17.2142083 17.73317 17.2142083 17.1356387 16.9342989 17.1356387 16.2967274 17.1327071 16.2025213 17.1425051 16.1083513 17.1647621 16.016818L18.108761 16.016818C18.0948152 16.0510932 18.0881988 16.0879577 18.0893454 16.1249955 18.0893454 16.281853 18.1864234 16.4241741 18.5020939 16.4241741 18.9104906 16.4241741 18.9928395 16.3061929 18.9928395 16.1875357 18.9928395 15.770714 17.3860328 16.0796962 17.3860328 14.9904834 17.3860328 14.1659675 18.0515185 13.7491459 18.9650551 13.7491459 19.6486175 13.7508361 20.1868977 14.0206039 20.1868977 14.6291027Z"/></g></svg>