<svg xmlns="http://www.w3.org/2000/svg" width="32" height="32" viewBox="0 0 32 32"><g fill="none" transform="translate(-.127 3)"><path fill="#00FF94" stroke="#000" stroke-width=".96" d="M13.2688209,25.3268828 L7.72970088,14.15924 C7.42524167,13.8518186 7.2541947,13.4348398 7.2541947,13.0000499 C7.2541947,12.5652599 7.42524167,12.1482812 7.72970088,11.8408597 L7.72970088,11.8408597 L13.4997989,0.679300323 L19.4546793,0.679300323 C19.8853065,0.678699857 20.2984103,0.851460856 20.6025395,1.15933981 L31.180662,11.8418739 C31.8143007,12.4822053 31.8143007,13.5199227 31.180662,14.1602542 L20.6025395,24.8427882 C20.2984103,25.1506672 19.8853065,25.3234282 19.4546793,25.3228262 C19.0392537,25.3211359 13.2688209,25.3268828 13.2688209,25.3268828 Z"/><path fill="#000" d="M12.9782573,25.8028641 L7.34072055,14.4367831 C6.5979567,13.6243178 6.59926903,12.3714887 7.3437333,11.5606122 L13.2145913,0.203652878 L19.4546793,0.203652878 C20.0104314,0.202341028 20.5436419,0.425447274 20.9356165,0.823313267 L31.513739,11.5058473 C32.3315037,12.3317435 32.3315037,13.6707225 31.513739,14.4966188 L20.9356165,25.1791528 C20.5436926,25.5770544 20.0104199,25.8000649 19.4546793,25.7984694 C19.044275,25.7984694 13.3287413,25.8045544 13.2694904,25.8045544 L12.9782573,25.8028641 Z M13.7836675,1.15460704 L8.11365994,12.1241497 L8.06244308,12.1758721 C7.61329825,12.6307922 7.61329825,13.3669411 8.06244308,13.8218613 L8.11633795,13.8762881 L13.5593845,24.8512396 L19.4546793,24.8458307 C19.760615,24.8467553 20.0541749,24.7239111 20.2697973,24.5047334 L30.8479198,13.8221993 C31.0639891,13.6040964 31.1853839,13.308226 31.1853839,12.9997118 C31.1853839,12.6911977 31.0639891,12.3953272 30.8479198,12.1772243 L30.8479198,12.1772243 L20.2697973,1.49469025 C20.0540136,1.27579624 19.7605297,1.15310557 19.4546793,1.1539268 L13.7836675,1.15460704 Z"/><path fill="#00FF94" stroke="#000" stroke-width=".96" d="M5.50478016,3.88956504 L20.5531798,3.81566203 C21.4496411,3.81125949 22.1799354,4.53441594 22.184338,5.43087716 C22.1843641,5.43619146 22.1843641,5.44150586 22.184338,5.44682017 L22.110435,20.4952198 C22.106063,21.3854613 21.3854613,22.106063 20.4952198,22.110435 L5.44682017,22.184338 C4.55035894,22.1887405 3.82006457,21.4655841 3.81566203,20.5691228 C3.81563593,20.5638085 3.81563593,20.5584941 3.81566203,20.5531798 L3.88956504,5.50478016 C3.89393703,4.61453871 4.61453871,3.89393703 5.50478016,3.88956504 Z" transform="rotate(-45 13 13)"/><path fill="#000" d="M13.0000161,25.7954302 C12.4445892,25.7964274 11.9116528,25.5739224 11.5190789,25.1771245 L0.940956427,14.4945905 C0.123191698,13.6686942 0.123191698,12.3297152 0.940956427,11.503819 L11.5190789,0.821284938 C12.3366348,-0.00424884983 13.6620584,-0.00424884983 14.4796142,0.821284938 L14.4796142,0.821284938 L25.0577368,11.503819 C25.8755015,12.3297152 25.8755015,13.6686942 25.0577368,14.4945905 L14.4796142,25.1771245 C14.0874518,25.5737167 13.5550085,25.796217 13.0000161,25.7954302 Z M12.1848981,24.5047334 C12.6352196,24.9586834 13.3644779,24.9586834 13.8147993,24.5047334 L24.3929218,13.8221993 C24.8428039,13.3675872 24.8428039,12.6308223 24.3929218,12.1762101 L13.8147993,1.49367608 C13.3646306,1.03935344 12.6350668,1.03935344 12.1848981,1.49367608 L1.60677559,12.1762101 C1.39070629,12.394313 1.26931157,12.6901835 1.26931157,12.9986976 C1.26931157,13.3072118 1.39070629,13.6030823 1.60677559,13.8211851 L1.60677559,13.8211851 L12.1848981,24.5047334 Z"/><rect width="6.455" height="1" x="25.2" y="12.525" fill="#000"/><path fill="#000" d="M9.78038374 8.77402587 10.4749915 8.00258464 11.079886 8.00258464 10.4154058 12.7410998C10.2168987 14.2136669 9.22503231 14.9851081 7.80635879 14.9851081 6.54635711 14.9851081 5.48519735 14.5043941 5.48519735 13.3120745L7.19242598 13.3120745C7.19242598 13.5825184 7.40064092 13.8729075 7.88669896 13.8729075 8.49192825 13.8729075 8.64055756 13.3722483 8.70014319 12.95137L8.78952163 12.2701894C8.42129585 12.6609808 7.90644925 12.9314247 7.32130501 12.9314247 6.23001768 12.9314247 5.70445907 12.0697228 5.70445907 10.9778056 5.70445907 9.52416963 6.44827515 7.90150624 8.23383545 7.90150624 8.89630711 7.90218235 9.46304006 8.18276789 9.78038374 8.77402587ZM7.5285157 9.92679299C7.41938696 10.6580057 7.37988638 10.9886234 7.37988638 11.0687424 7.37988638 11.5396528 7.65739472 11.8100967 8.05440907 11.8100967 8.5404671 11.8100967 8.89764611 11.4693374 8.97698203 10.8882211 9.03656766 10.4778224 9.12561135 9.97547289 9.12561135 9.77635857 9.12561135 9.25541601 8.85781078 9.00491631 8.46113118 9.00491631 8.01457373 9.00424124 7.61789414 9.33485891 7.5285157 9.92679299ZM16.7448723 10.0160395C16.7448723 11.8594527 15.6137497 13.2218139 13.7689385 13.2218139L13.6199744 13.2218139C12.1805463 13.2218139 11.3085207 12.4104822 11.3085207 11.1079567 11.3085207 9.38387686 12.3305147 7.90218235 14.2844546 7.90218235L14.4434612 7.90218235C15.8617999 7.90218235 16.7448723 8.70371045 16.7448723 10.0160395ZM13.2145913 9.99609424C13.1141661 10.6272427 13.0361692 11.1481853 13.0361692 11.3584554 13.0361692 11.8493111 13.3632206 12.120093 13.8097781 12.120093 14.3256289 12.120093 14.7521013 11.7593885 14.8414798 11.12824 14.9308582 10.5572653 15.0202366 9.98595259 15.0202366 9.78582411 15.0202366 9.30477202 14.7025582 9.00424124 14.246293 9.00424124 13.7291031 9.00424124 13.2925882 9.36494579 13.2145913 9.99609424Z"/><text fill="#000" font-family="Chivo-BlackItalic, Chivo" font-size="5.005" font-style="italic" font-weight="800">
                <tspan x="10.85" y="17.451">COP</tspan>
            </text></g></svg>