<svg xmlns="http://www.w3.org/2000/svg" width="32" height="32" viewBox="0 0 32 32"><g fill="none" transform="translate(0 4)"><path fill="#00FF94" stroke="#000" stroke-width=".96" d="M13.0216861,24.5312908 L7.44577044,13.6288504 C6.80907334,13.0029533 6.80907334,11.9904198 7.44577044,11.3645227 L7.44577044,11.3645227 L13.2541563,0.465382538 L19.2478445,0.465382538 C19.6813041,0.465035594 20.097091,0.633676144 20.4034573,0.93409229 L31.0499186,11.3645227 C31.6866157,11.9904198 31.6866157,13.0029533 31.0499186,13.6288504 L20.4034573,24.0592808 C20.097091,24.3596969 19.6813041,24.5283375 19.2478445,24.52799 L13.0216861,24.5312908 Z"/><path fill="#000" d="M12.7285715,24.9966992 L7.05495098,13.8995134 C6.30788152,13.1057302 6.30934855,11.8826198 7.05832011,11.0905589 L12.96778,0.00327539604 L19.2478445,0.00327539604 C19.8063382,0.00327539604 20.3419824,0.220517087 20.7370015,0.607316146 L31.3834628,11.0377466 C32.2055124,11.8449434 32.2055124,13.1517305 31.3834628,13.9589273 L20.7370015,24.3893577 C20.3437516,24.7787442 19.8069537,24.9964833 19.2478445,24.9933985 C18.8334411,24.9933985 13.0823305,25 13.0216861,25 L12.7285715,24.9966992 Z M13.5405327,0.930791521 L7.83322078,11.6417873 L7.78268378,11.6912989 C7.3311529,12.1358205 7.3311529,12.8542518 7.78268378,13.2987734 L7.83658991,13.3515857 L13.3148007,24.0658823 L19.2478445,24.0592808 C19.5552666,24.0598761 19.8501234,23.9398092 20.0665439,23.7259031 L30.7130053,13.2954727 C31.1645176,12.8522316 31.1645176,12.1345399 30.7130053,11.6912989 L30.7130053,11.6912989 L20.0665439,1.26086843 C19.8501234,1.04696236 19.5552666,0.926895488 19.2478445,0.927488549 L13.5405327,0.930791521 Z"/><path fill="#00FF94" stroke="#000" stroke-width=".96" d="M0.950081359,11.3645227 L11.5965427,0.93409229 C12.2354031,0.31031462 13.2689078,0.31031462 13.9077682,0.93409229 L24.5542296,11.3645227 C25.1909267,11.9904198 25.1909267,13.0029533 24.5542296,13.6288504 L13.9077682,24.0592808 C13.2689078,24.6830585 12.2354031,24.6830585 11.5965427,24.0592808 L0.950081359,13.6288504 C0.313384255,13.0029533 0.313384255,11.9904198 0.950081359,11.3645227 Z"/><path fill="#000" d="M12.7521555,24.9901061 C12.1936618,24.9901061 11.6580176,24.772856 11.2629985,24.3860569 L0.616537158,13.9556265 C-0.205512386,13.1484297 -0.205512386,11.8416426 0.616537158,11.0344458 L11.2629985,0.604015377 C12.0856048,-0.201338459 13.4187062,-0.201338459 14.2413124,0.604015377 L14.2413124,0.604015377 L24.8877738,11.0344458 C25.7098233,11.8416426 25.7098233,13.1484297 24.8877738,13.9556265 L14.2413124,24.3860569 C13.8471809,24.774156 13.3109593,24.9916613 12.7521555,24.9901061 L12.7521555,24.9901061 Z M11.9300869,23.7292039 C12.3838153,24.1715726 13.1171264,24.1715726 13.5708549,23.7292039 L24.2173162,13.2987734 C24.6688471,12.8542518 24.6688471,12.1358205 24.2173162,11.6912989 L13.5708549,1.26086843 C13.1171264,0.818499722 12.3838153,0.818499722 11.9300869,1.26086843 L1.28362556,11.6912989 C0.832113264,12.1345399 0.832113264,12.8522316 1.28362556,13.2954727 L1.28362556,13.2954727 L11.9300869,23.7292039 Z"/><rect width="6.496" height="1" x="25.029" y="12.031" fill="#000"/><path fill="#000" d="M8.87091385 8.37072513 9.57169358 7.61814977 10.1815067 7.61814977 9.51104918 12.2458281C9.31227032 13.6849634 8.31163771 14.4375388 6.88649431 14.4375388 5.61970017 14.4375388 4.5516849 13.9688296 4.5516849 12.8036581L6.26994291 12.8036581C6.26994291 13.0677196 6.47882917 13.3515857 6.96735351 13.3515857 7.57716664 13.3515857 7.72540851 12.8630719 7.78605291 12.4504758L7.87701951 11.7837204C7.50641484 12.1666096 6.98756831 12.4306712 6.39796997 12.4306712 5.2996325 12.4306712 4.77067857 11.588975 4.77067857 10.5228266 4.77067857 9.10349588 5.51862617 7.5191267 7.31774338 7.5191267 7.98146264 7.5191267 8.55084618 7.79309054 8.87091385 8.37072513ZM6.60348711 9.49628741C6.49230571 10.2092535 6.45524524 10.5327289 6.45524524 10.6119474 6.45524524 11.0707543 6.73488331 11.3348158 7.13244104 11.3348158 7.62096538 11.3348158 7.98146264 11.0014381 8.06232184 10.4337058 8.12296625 10.0343128 8.21056371 9.54249818 8.21056371 9.3477528 8.21056371 8.83943435 7.94103304 8.59517744 7.54010618 8.59517744 7.09201144 8.59517744 6.69445371 8.91865281 6.60348711 9.49628741ZM15.8787112 9.5821074C15.8787112 11.3810266 14.7399441 12.7112365 12.8835517 12.7112365L12.7319407 12.7112365C11.2832133 12.7112365 10.4038695 11.9190519 10.4038695 10.6482558 10.4038695 8.96486358 11.4314552 7.5191267 13.3990291 7.5191267L13.5607475 7.5191267C14.9926291 7.5191267 15.8787112 8.30140898 15.8787112 9.5821074ZM12.3276447 9.56230279C12.2265707 10.1795466 12.1490806 10.6878651 12.1490806 10.8925127 12.1490806 11.3711243 12.4792557 11.6351858 12.9273504 11.6351858 13.4461969 11.6351858 13.8740769 11.2820035 13.9650435 10.6680604 14.0560101 10.1102305 14.1436075 9.55240048 14.1436075 9.3576551 14.1436075 8.88894589 13.8235399 8.59517744 13.3653377 8.59517744 12.8464912 8.59517744 12.4051347 8.94835973 12.3276447 9.56230279Z"/><g fill="#000" transform="translate(9.514 13.45)"><polygon points="2.224 1.93 2.244 1.93 3.144 0 4.559 0 4.094 3.222 3.226 3.222 3.547 .997 3.528 .997 2.488 3.223 1.529 3.223 1.131 .997 1.107 .997 .786 3.223 0 3.223 .465 .001 1.874 .001"/><polygon points="6.366 .906 6.385 .906 7.065 0 8.002 0 6.808 1.522 7.637 3.222 6.621 3.222 6.132 2.142 6.113 2.142 5.312 3.222 4.377 3.222 5.69 1.526 4.943 0 5.954 0"/><polygon points="9.85 1.352 10.019 1.691 10.033 1.681 10.273 0 11.073 0 10.608 3.222 9.865 3.222 9.131 1.897 8.959 1.55 8.94 1.554 8.704 3.222 7.909 3.222 8.374 0 9.103 0"/></g></g></svg>