<svg xmlns="http://www.w3.org/2000/svg" width="32" height="32" viewBox="0 0 32 32"><g fill="none" fill-rule="evenodd"><rect width="32" height="32"/><g fill-rule="nonzero"><circle cx="16" cy="16" r="16" fill="#DA1A33"/><circle cx="16" cy="16" r="14.189" fill="#FFF"/><circle cx="16" cy="16" r="11.27" fill="#00853E"/><path fill="#FFF" d="M7.04402516 19.3207547C6.94339623 19.2201258 6.94339623 19.1194969 6.94339623 19.0188679L7.64779874 12.3773585C7.64779874 12.2767296 7.74842767 12.1761006 7.8490566 12.1761006 7.94968553 12.0754717 8.1509434 12.0754717 8.35220126 12.0754717L8.65408805 12.0754717C8.75471698 12.0754717 8.95597484 12.0754717 9.05660377 12.1761006 9.1572327 12.2767296 9.25786164 12.2767296 9.25786164 12.3773585L10.2641509 14.7924528C10.2641509 14.8930818 10.3647799 15.0943396 10.3647799 15.2955975 10.4654088 15.0943396 10.4654088 14.9937107 10.5660377 14.7924528L12.0754717 12.3773585C12.1761006 12.2767296 12.1761006 12.1761006 12.2767296 12.1761006 12.3773585 12.1761006 12.5786164 12.0754717 12.6792453 12.0754717L12.9811321 12.0754717C13.1823899 12.0754717 13.2830189 12.0754717 13.3836478 12.1761006 13.4842767 12.1761006 13.4842767 12.2767296 13.4842767 12.3773585L12.9811321 19.0188679C12.9811321 19.1194969 12.8805031 19.2201258 12.7798742 19.2201258 12.6792453 19.3207547 12.4779874 19.3207547 12.2767296 19.3207547L11.9748428 19.3207547C11.7735849 19.3207547 11.672956 19.3207547 11.572327 19.2201258 11.4716981 19.2201258 11.4716981 19.1194969 11.4716981 19.0188679L11.8742138 15.4968553C11.8742138 15.2955975 11.9748428 15.0943396 11.9748428 14.8930818L11.9748428 14.8930818C11.8742138 15.0943396 11.7735849 15.1949686 11.672956 15.3962264L10.6666667 16.8050314C10.5660377 16.9056604 10.5660377 16.9056604 10.4654088 17.0062893 10.3647799 17.0062893 10.2641509 17.1069182 10.2641509 17.1069182L10.0628931 17.1069182C9.96226415 17.1069182 9.86163522 17.1069182 9.86163522 17.1069182 9.76100629 17.1069182 9.76100629 17.0062893 9.76100629 16.9056604L9.1572327 15.4968553C9.1572327 15.3962264 9.05660377 15.1949686 8.95597484 14.9937107L8.95597484 14.9937107C8.95597484 15.0943396 8.95597484 15.1949686 8.95597484 15.2955975 8.95597484 15.3962264 8.95597484 15.4968553 8.95597484 15.4968553L8.45283019 19.0188679C8.45283019 19.1194969 8.35220126 19.2201258 8.25157233 19.2201258 8.1509434 19.3207547 7.94968553 19.3207547 7.74842767 19.3207547L7.44654088 19.3207547C7.34591195 19.3207547 7.14465409 19.3207547 7.04402516 19.3207547ZM13.6855346 19.3207547C13.5849057 19.3207547 13.5849057 19.2201258 13.5849057 19.2201258 13.5849057 19.1194969 13.5849057 19.0188679 13.6855346 18.918239L15.4968553 15.5974843 14.591195 12.7798742C14.490566 12.6792453 14.490566 12.4779874 14.490566 12.3773585 14.490566 12.2767296 14.6918239 12.1761006 14.9937107 12.1761006L15.5974843 12.1761006C15.6981132 12.1761006 15.8993711 12.1761006 16 12.1761006 16.1006289 12.1761006 16.1006289 12.2767296 16.2012579 12.2767296L16.7044025 14.6918239 17.7106918 12.2767296C17.7106918 12.1761006 17.8113208 12.1761006 17.9119497 12.0754717 18.0125786 12.0754717 18.2138365 12.0754717 18.3144654 12.0754717L18.8176101 12.0754717C19.2201258 12.0754717 19.4213836 12.1761006 19.4213836 12.2767296 19.4213836 12.3773585 19.4213836 12.4779874 19.3207547 12.5786164L17.6100629 15.5974843 18.6163522 18.918239C18.6163522 19.0188679 18.6163522 19.1194969 18.6163522 19.2201258 18.6163522 19.3207547 18.6163522 19.3207547 18.5157233 19.3207547 18.4150943 19.3207547 18.2138365 19.4213836 18.1132075 19.3207547L17.509434 19.3207547C17.408805 19.3207547 17.2075472 19.3207547 17.1069182 19.2201258 17.0062893 19.2201258 17.0062893 19.1194969 16.9056604 19.0188679L16.4025157 16.5031447 15.1949686 19.1194969C15.1949686 19.2201258 15.0943396 19.3207547 14.9937107 19.3207547 14.8930818 19.3207547 14.6918239 19.3207547 14.591195 19.3207547L13.9874214 19.3207547C13.8867925 19.3207547 13.7861635 19.3207547 13.6855346 19.3207547ZM19.2201258 19.0188679 19.9245283 12.3773585C19.9245283 12.1761006 20.1257862 12.0754717 20.5283019 12.0754717L20.8301887 12.0754717C20.9308176 12.0754717 21.0314465 12.0754717 21.1320755 12.0754717 21.2327044 12.1761006 21.3333333 12.1761006 21.3333333 12.2767296L22.8427673 15.6981132C22.9433962 16 23.0440252 16.2012579 23.1446541 16.5031447L23.1446541 16.5031447C23.1446541 16.3018868 23.1446541 16.1006289 23.1446541 16 23.1446541 15.8993711 23.1446541 15.7987421 23.1446541 15.6981132L23.5471698 12.2767296C23.5471698 12.0754717 23.7484277 11.9748428 24.1509434 11.9748428L24.3522013 11.9748428C24.754717 11.9748428 24.9559748 12.0754717 24.9559748 12.2767296L24.2515723 19.0188679C24.2515723 19.2201258 24.0503145 19.3207547 23.6477987 19.3207547L23.4465409 19.3207547C23.3459119 19.3207547 23.245283 19.3207547 23.1446541 19.2201258 23.0440252 19.1194969 22.9433962 19.1194969 22.9433962 19.0188679L21.3333333 15.3962264C21.2327044 15.2955975 21.2327044 15.1949686 21.2327044 14.9937107 21.2327044 14.8930818 21.1320755 14.7924528 21.1320755 14.6918239L21.0314465 14.6918239C21.0314465 14.7924528 21.0314465 14.7924528 21.0314465 14.8930818 21.0314465 14.9937107 21.0314465 15.0943396 21.0314465 15.0943396 21.0314465 15.1949686 21.0314465 15.2955975 21.0314465 15.3962264L20.6289308 19.0188679C20.6289308 19.2201258 20.427673 19.3207547 20.0251572 19.3207547L19.8238994 19.3207547C19.4213836 19.4213836 19.2201258 19.2201258 19.2201258 19.0188679Z"/></g></g></svg>