<svg xmlns="http://www.w3.org/2000/svg" width="32" height="32" viewBox="0 0 32 32"><g fill="none" fill-rule="evenodd"><polygon points="0 0 32 0 32 32 0 32"/><g fill-rule="nonzero"><path fill="#4B5CF0" d="M16,32 C24.837,32 32,24.837 32,16 C32,7.163 24.837,0 16,0 C7.163,0 0,7.163 0,16 C0,24.837 7.163,32 16,32 Z"/><path fill="#FFF" d="M23.665,8.284 L23.665,23.709 L20.345,23.709 L20.345,15.653 L17.61,15.653 C17.1016346,15.6544306 16.6413584,15.9538449 16.434,16.418 C16.361,16.581 16.323,16.758 16.323,16.94 L16.323,18.8 C16.323,19.2998177 15.9178177,19.705 15.418,19.705 L13.208,19.705 C12.7081823,19.705 12.303,19.2998177 12.303,18.8 L12.303,16.558 C12.303,16.058 12.708,15.653 13.208,15.653 L15.195,15.653 C15.6331379,15.6517627 16.0312181,15.3978015 16.217,15.001 C16.286,14.855 16.322,14.693 16.322,14.527 L16.322,11.6 L8.29,11.6 L8.29,8.284 L23.665,8.284 Z M12.305,21.714 L12.305,21.748 C12.305,22.8580923 11.4050923,23.758 10.295,23.758 C9.18490765,23.758 8.285,22.8580923 8.285,21.748 L8.285,21.714 C8.28563351,20.9016467 8.77519369,20.1695375 9.52569133,19.858617 C10.276189,19.5476966 11.1400608,19.7190983 11.715,20.293 C12.08,20.657 12.305,21.159 12.305,21.713 L12.305,21.714 Z"/></g></g></svg>