<svg xmlns="http://www.w3.org/2000/svg" xmlns:xlink="http://www.w3.org/1999/xlink" width="174" height="56" viewBox="0 0 174 56"><defs><polygon id="a" points="0 0 14.282 0 14.282 18.014 0 18.014"/><polygon id="c" points="0 0 21.149 0 21.149 19.366 0 19.366"/><polygon id="e" points="0 0 17.118 0 17.118 22.191 0 22.191"/></defs><g fill="none" fill-rule="evenodd"><rect width="174" height="56"/><g transform="translate(0 1)"><path fill="#FFFF40" d="M58.1119073 34.7264893 60.0800604 16.0667584C60.1190593 15.6520513 60.2365733 15.3512427 60.4326024 15.1632895 60.6281143 14.9758577 60.9121755 14.8819854 61.2843722 14.8819854L69.3626341 14.8819854C69.851931 14.8819854 70.0969933 15.2373443 70.0969933 15.9481664L70.0676148 16.3628734 69.9501008 17.281049C69.8716891 18.2686901 69.5389051 18.761937 68.9514384 18.761937L64.3688051 18.761937 63.7813384 23.6787604 68.0994617 23.6787604C68.5887587 23.6787604 68.833821 24.0044973 68.833821 24.6561798 68.833821 24.8736507 68.8237867 25.0411606 68.8045459 25.1596484L68.6870319 26.0778239C68.6085168 26.6109144 68.4960716 26.9914102 68.349179 27.218164 68.2022865 27.445335 67.9820511 27.5587119 67.6882661 27.5587119L63.3701428 27.5587119 62.6944371 34.7264893C62.6356801 35.3587715 62.0380758 35.6743911 60.9025551 35.6743911L59.7275183 35.6743911C58.5915838 35.6743911 58.0531503 35.3587715 58.1119073 34.7264893M70.6842117 32.2681505C70.6842117 32.0905233 70.7034526 31.7844995 70.7429687 31.349975L72.5348508 14.2302716C72.5936078 13.5986152 73.210453 13.2825784 74.3854898 13.2825784L75.2079846 13.2825784C76.3830214 13.2825784 76.9411096 13.5986152 76.8823526 14.2302716L75.0904705 31.4093231C75.0707125 31.4883845 75.061092 31.5970678 75.061092 31.7350601 75.061092 31.9720355 75.1148837 32.1450735 75.2226738 32.2533396 75.3300502 32.3621272 75.5310447 32.4162602 75.8248298 32.4162602 75.9814462 32.4162602 76.1525449 32.382049 76.3389536 32.3126877 76.5248451 32.2437437 76.6570484 32.209011 76.7355635 32.209011 76.9117311 32.209011 76.9998666 32.3473162 76.9998666 32.6236137L76.9411096 33.1270823C76.9213515 33.24557 76.8870076 33.4728453 76.8382848 33.8083867 76.7892517 34.1443453 76.7254258 34.4303429 76.647428 34.6673184 76.5299139 35.003277 76.2163708 35.2846853 75.7074192 35.5114391 75.1978469 35.7382973 74.6497929 35.8519871 74.0623262 35.8519871 71.810112 35.8519871 70.6842117 34.657514 70.6842117 32.2681505M79.9370759 17.6660924 80.172104 15.3558946C80.230861 14.7241339 80.9945987 14.4080971 82.4633172 14.4080971 83.8926229 14.4080971 84.5783628 14.7241339 84.5196058 15.3558946L84.2845777 17.6660924C84.2259241 18.2982703 83.4718068 18.6138899 82.022743 18.6138899 80.5732654 18.6138899 79.8783189 18.2982703 79.9370759 17.6660924M79.1292704 35.1263436C78.6298358 34.6427969 78.3802219 33.8676201 78.3802219 32.8012306 78.3802219 32.4857153 78.3898424 32.2386225 78.4096005 32.0608909L79.5257768 21.0130577C79.5845338 20.381297 80.2014825 20.0651559 81.3765193 20.0651559L82.1990141 20.0651559C83.3932917 20.0651559 83.9514834 20.3909972 83.8733821 21.0426797L82.6983452 31.7646716 82.6983452 31.9720251C82.6983452 32.2681401 82.8548582 32.4162498 83.1682979 32.4162498 83.2859154 32.4162498 83.4225668 32.3820385 83.579597 32.3126773 83.7362134 32.2437333 83.8440036 32.2090006 83.9027606 32.2090006 84.0790316 32.2090006 84.1671671 32.3473058 84.1671671 32.6236033L84.1083067 33.1270718C84.088652 33.2455596 84.0542047 33.4728349 84.0055853 33.8083763 83.9564488 34.1443349 83.8926229 34.4304368 83.814625 34.667308 83.6972145 35.0226668 83.3786025 35.309186 82.859927 35.5262397 82.3408378 35.7432933 81.7583365 35.8519766 81.1121127 35.8519766 80.289618 35.8519766 79.628705 35.6105162 79.1292704 35.1263436M93.3762946 30.5650877C93.7384571 29.3506928 93.9196935 27.9733772 93.9196935 26.4332454 93.9196935 25.3669602 93.8265926 24.6070116 93.6407011 24.1525653 93.4542925 23.6986405 93.1753001 23.4713652 92.8034137 23.4713652 92.215947 23.4713652 91.6872373 23.8665676 91.2171812 24.6561381L90.4534435 31.9720251C90.8058821 32.2488441 91.1776651 32.3867321 91.5696199 32.3867321 92.4114589 32.3867321 93.0136148 31.7794825 93.3762946 30.5650877M97.3126007 21.5461482C97.9685483 22.652277 98.2965738 24.2909748 98.2965738 26.4628673 98.2965738 28.1020866 98.0910277 29.6372119 97.6798321 31.0686605 97.268533 32.5005263 96.6268609 33.6556773 95.7556433 34.5340093 94.884012 35.4128628 93.7921453 35.8519766 92.4803536 35.8519766 91.4815878 35.8519766 90.6979885 35.565979 90.1302799 34.9931492L89.5427098 40.7686958C89.4840562 41.4004565 88.8569699 41.7165976 87.6627957 41.7165976L86.8401975 41.7165976C86.2329727 41.7165976 85.7973639 41.6374319 85.5330608 41.4796221 85.2686542 41.3212908 85.1557953 41.0844197 85.195208 40.7686958L86.7815439 25.3373382C86.8791964 24.3895407 86.9284364 23.5602309 86.9284364 22.8494089 86.9284364 22.4939457 86.9182988 22.1487042 86.8990579 21.8127456 86.8791964 21.4772042 86.8696794 21.2402287 86.8696794 21.1018192 86.9284364 20.8057042 87.3543213 20.5738396 88.1474376 20.4058081 88.9405538 20.2382982 89.5914326 20.154126 90.1009014 20.154126 90.9233961 20.154126 91.2951791 20.7760823 91.2171812 22.0200991 91.5889642 21.3883384 92.0736061 20.8751697 92.6713139 20.479863 93.268401 20.0850777 93.9196935 19.8875286 94.6246742 19.8875286 95.7602984 19.8875286 96.6562394 20.4405409 97.3126007 21.5461482M119.622949 32.6236346 119.564192 33.1271031C119.544434 33.2455908 119.509987 33.4728662 119.461367 33.8083032 119.412231 34.1443661 119.348508 34.4303638 119.270511 34.6673393 119.152893 35.0226981 118.839453 35.3092173 118.330398 35.526271 117.82093 35.7433246 117.253221 35.8520079 116.626652 35.8520079 115.804157 35.8520079 115.143141 35.6054366 114.64381 35.1116682 114.144478 34.6182127 113.894761 33.7987074 113.894761 32.6532565 113.894761 32.4954467 113.914002 32.1992274 113.953518 31.7647029L114.629224 25.0115283 114.658499 24.5968212C114.658499 24.2220621 114.585052 23.945243 114.43816 23.7675115 114.291371 23.5898842 114.041654 23.5010184 113.689111 23.5010184 113.160298 23.5010184 112.650933 23.7675115 112.161636 24.3007062L111.074735 34.7264788C111.015978 35.358761 110.418373 35.6743806 109.282853 35.6743806L108.284087 35.6743806C107.148049 35.6743806 106.609615 35.358761 106.668476 34.7264788L107.696517 25.0115283C107.715861 24.8930406 107.725895 24.7449309 107.725895 24.5673036 107.725895 24.2118404 107.652449 23.945243 107.505556 23.7675115 107.358664 23.5898842 107.10905 23.5010184 106.756508 23.5010184 106.247039 23.5010184 105.737984 23.8170552 105.229032 24.4488159L104.142235 34.7264788C104.122373 35.0426199 103.965964 35.2795954 103.672179 35.4374052 103.378393 35.5956322 102.94744 35.6743806 102.379628 35.6743806L101.351483 35.6743806C100.235204 35.6743806 99.7064939 35.358761 99.7652509 34.7264788 99.9414185 32.7717442 100.205825 30.0962789 100.558367 26.6998741 100.793395 24.7255306 100.910806 23.3529087 100.910806 22.5828428 100.910806 22.2273796 100.900772 21.941382 100.881427 21.7239111 100.861773 21.5067531 100.861773 21.3291258 100.881427 21.1907163 100.92053 20.8352531 101.361104 20.5738709 102.203357 20.4058394 103.045196 20.2383295 103.769934 20.154053 104.377159 20.154053 104.964729 20.154053 105.258411 20.598382 105.258411 21.4869356 105.258411 21.6253451 105.238653 21.8719164 105.199654 22.2273796 105.708709 21.5564011 106.315934 20.9981738 107.020915 20.5539491 107.725895 20.1096201 108.508977 19.8875599 109.370988 19.8875599 110.917808 19.8875599 111.838472 20.5788774 112.132258 21.9607822 112.621451 21.3684479 113.22371 20.8750967 113.938829 20.4798943 114.65343 20.085109 115.441581 19.8875599 116.303488 19.8875599 118.202747 19.8875599 119.152893 21.0032846 119.152893 23.234421 119.152893 23.4319701 119.133238 23.7874332 119.09424 24.3007062L118.301123 31.7943248 118.301123 31.9720564C118.301123 32.2681714 118.428154 32.4162811 118.68294 32.4162811 118.760938 32.4162811 118.878452 32.3820698 119.035379 32.3127086 119.191995 32.2436603 119.299786 32.2089275 119.358543 32.2089275 119.534814 32.2089275 119.622949 32.3473371 119.622949 32.6236346M128.596645 30.6540056C128.919705 29.4987503 129.081391 27.9044854 129.081391 25.8704809 129.081391 25.001849 128.968428 24.3650818 128.743538 23.9600749 128.51813 23.5555895 128.12152 23.3529296 127.553812 23.3529296 126.887726 23.3529296 126.393464 23.9258636 126.0703 25.070793 125.74724 26.2162439 125.585659 27.8059195 125.585659 29.8394025 125.585659 30.7280604 125.698104 31.374945 125.923408 31.7794304 126.148402 32.1844373 126.555046 32.38668 127.142513 32.38668 127.788736 32.38668 128.273482 31.8090523 128.596645 30.6540056M122.61874 34.1341654C121.698075 32.989236 121.238053 31.2906685 121.238053 29.0397146 121.238053 26.3545491 121.796245 24.1577283 122.912525 22.449565 124.028805 20.7418189 125.751792 19.8874765 128.082521 19.8874765 129.82537 19.8874765 131.152265 20.455404 132.062895 21.5905289 132.973629 22.7262797 133.428892 24.4094104 133.428892 26.6405468 133.428892 29.306312 132.865735 31.5082437 131.739835 33.2456117 130.613418 34.9833969 128.885361 35.8520288 126.555046 35.8520288 124.851299 35.8520288 123.53899 35.2796162 122.61874 34.1341654M147.998728 32.6236346 147.939971 33.1271031C147.920213 33.2455908 147.885766 33.4728662 147.837147 33.8083032 147.78801 34.1443661 147.724288 34.4303638 147.646186 34.6673393 147.528672 35.0226981 147.215233 35.3092173 146.706177 35.526271 146.196709 35.7433246 145.63862 35.8520079 145.031809 35.8520079 144.209315 35.8520079 143.543333 35.6054366 143.034278 35.1116682 142.524809 34.6182127 142.27054 33.7987074 142.27054 32.6532565 142.27054 32.4954467 142.289781 32.1992274 142.329194 31.7647029L143.004899 25.0115283 143.034278 24.5968212C143.034278 24.2220621 142.960832 23.945243 142.813939 23.7675115 142.667047 23.5898842 142.417433 23.5010184 142.064891 23.5010184 141.536077 23.5010184 141.016988 23.8170552 140.508037 24.4488159L139.421135 34.7264788C139.401377 35.0426199 139.244864 35.2795954 138.951079 35.4374052 138.657294 35.5956322 138.22634 35.6743806 137.658632 35.6743806L136.630488 35.6743806C135.514104 35.6743806 134.985395 35.358761 135.044255 34.7264788L136.042917 25.2781257C136.140673 24.2317622 136.18981 23.3335084 136.18981 22.5828428 136.18981 22.2273796 136.179672 21.941382 136.160535 21.7239111 136.140673 21.5067531 136.140673 21.3291258 136.160535 21.1907163 136.19943 20.8352531 136.640108 20.5738709 137.482361 20.4058394 138.3242 20.2383295 139.048835 20.154053 139.656163 20.154053 139.930087 20.154053 140.140805 20.2281078 140.287698 20.3762175 140.43459 20.5243272 140.508037 20.8649794 140.508037 21.3980698 140.508037 21.7340284 140.497899 22.0200261 140.478658 22.2570015 140.987713 21.5859188 141.59949 21.0232064 142.314608 20.5687601 143.029209 20.1147309 143.807636 19.8875599 144.649889 19.8875599 145.609139 19.8875599 146.333877 20.1591638 146.823692 20.7020587 147.312988 21.2453709 147.558051 22.0497523 147.558051 23.1159333 147.558051 23.2742646 147.538396 23.5703796 147.499294 24.0044869L146.676799 31.7943248 146.676799 31.9720564C146.676799 32.2681714 146.803933 32.4162811 147.05872 32.4162811 147.136717 32.4162811 147.254231 32.3820698 147.411158 32.3127086 147.567671 32.2436603 147.675565 32.2089275 147.734322 32.2089275 147.910489 32.2089275 147.998728 32.3473371 147.998728 32.6236346M154.931187 26.966388C156.693691 26.966388 157.574942 26.1865177 157.574942 24.626464 157.574942 24.2118613 157.467152 23.8962417 157.251882 23.6786665 157.036095 23.4616129 156.732689 23.3529296 156.341148 23.3529296 155.694925 23.3529296 155.170663 23.6837773 154.769605 24.34516 154.36803 25.0069598 154.098555 25.8807025 153.9618 26.966388L154.931187 26.966388ZM160.747511 26.981199C160.277558 27.8207304 159.631231 28.4671978 158.808633 28.9212269 157.986138 29.3756732 157.055853 29.602427 156.018088 29.602427 155.156077 29.602427 154.431752 29.5431832 153.844286 29.4246954 153.86363 30.5503288 154.074245 31.3254013 154.475924 31.7499128 154.877085 32.1747372 155.440242 32.38668 156.164981 32.38668 156.752344 32.38668 157.261399 32.2978142 157.692456 32.1200826 158.122893 31.9424553 158.56357 31.7155972 159.014386 31.4387782 159.347066 31.201907 159.582094 31.0834193 159.719366 31.0834193 160.05215 31.0834193 160.218698 31.5573702 160.218698 32.5051677 160.218698 33.1965895 160.091149 33.769002 159.83688 34.2230311 159.543095 34.7561216 158.930802 35.1611285 158.000931 35.4373217 157.070542 35.7137236 156.174601 35.8520288 155.313004 35.8520288 153.334713 35.8520288 151.861443 35.2994337 150.892056 34.1934092 149.922669 33.0878019 149.437923 31.5277483 149.437923 29.5135612 149.437923 26.6900905 150.035114 24.3798927 151.229909 22.5828637 152.424187 20.7862518 154.206448 19.8874765 156.576177 19.8874765 158.377679 19.8874765 159.640851 20.3272161 160.36559 21.2055481 161.089915 22.0844016 161.452491 23.0470101 161.452491 24.0933736 161.452491 25.1795806 161.217567 26.1421891 160.747511 26.981199L160.747511 26.981199ZM173.995759 20.7168384C173.995759 20.7960041 173.956243 20.9736314 173.878141 21.2499289L166.828127 41.094537C166.671097 41.5092441 166.113009 41.7165976 165.153656 41.7165976L164.566292 41.7165976C164.017721 41.7165976 163.606422 41.661943 163.332499 41.5535726 163.058058 41.4448894 162.940544 41.2917732 162.979957 41.094537 162.979957 40.9760493 163.028576 40.7983177 163.126849 40.5614465L164.830596 36.0000863 162.363111 21.3980385C162.304251 21.1018192 162.284596 20.8848699 162.304251 20.7464603 162.323595 20.5294067 162.460867 20.3613752 162.71555 20.2429918 162.969819 20.1245041 163.342119 20.0651559 163.83183 20.0651559L165.095002 20.0651559C165.5453 20.0651559 165.892773 20.1096931 166.137836 20.1984546 166.382381 20.2873204 166.514687 20.4701628 166.534342 20.7464603L166.97502 27.055306C167.014019 27.5688919 167.053121 28.6744992 167.092534 30.3725451L167.209944 30.3725451 168.061921 27.055306 169.883182 20.6872165C170.019936 20.2725094 170.558784 20.0651559 171.498793 20.0651559L172.350769 20.0651559C173.506048 20.0651559 174.054412 20.2827311 173.995759 20.7168384"/><g transform="translate(19.412 36.986)"><mask id="b" fill="#fff"><use xlink:href="#a"/></mask><polygon fill="#FFFF40" points=".203 4.015 .203 4.054 .557 11.01 13.78 18.014 14.282 6.744 0 0" mask="url(#b)"/></g><polygon fill="#FFFF40" points="52.335 9.371 38.313 4.734 33.613 8.556 33.546 8.611 30.123 11.395 44.957 16.885"/><polygon fill="#FFFF40" points="50.386 24.515 52.494 10.088 45.461 17.252 45.461 17.319 44.268 31.324 44.263 31.449"/><polygon fill="#FFFF40" points="34.321 43.662 33.857 54.194 42.626 43.228 43.469 33.301"/><g transform="translate(7.525)"><mask id="d" fill="#fff"><use xlink:href="#c"/></mask><polygon fill="#FFFF40" points="16.999 13.5 21.149 4.438 7.076 0 0 15.21 5.045 17.353 9.786 19.366" mask="url(#d)"/></g><polygon fill="#FFFF40" points="19.37 36.272 33.723 43.047 34.386 27.963 18.595 21.112 18.692 23.019"/><polygon fill="#FFFF40" points="44.471 17.379 29.544 11.852 18.874 20.532 34.644 27.374"/><polygon fill="#FFFF40" points="34.374 42.667 43.572 32.254 44.725 18.703 44.751 17.995 35.025 27.893"/><polygon fill="#FFFF40" points="43.33 42.347 48.778 35.532 50.227 25.655 44.173 32.511"/><g transform="translate(0 15.777)"><mask id="f" fill="#fff"><use xlink:href="#e"/></mask><path fill="#FFFF40" d="M12.9608455,22.1912075 L17.1178008,13.342907 L16.6720544,4.6033942 C16.6621236,4.41564956 16.7082603,4.22926086 16.8046715,4.06832198 L7.2525189,0 L-4.13781787e-05,15.5973029 L12.9608455,22.1912075 Z" mask="url(#f)"/></g></g></g></svg>