<svg xmlns="http://www.w3.org/2000/svg" width="32" height="32" viewBox="0 0 32 32"><g fill="none" fill-rule="evenodd"><rect width="32" height="32"/><g fill-rule="nonzero" transform="translate(1)"><polygon fill="#FFF383" points="8.9 .512 16.937 3.016 19.211 5.372 22.03 3.113 30.346 5.885 28.353 20.534 19.624 31.317 11.615 27.369 11.41 22.941 7.9 22.019 .515 18.149"/><polygon fill="#FFF383" points="10.31 12.141 11.512 20.817 19.707 24.655 25.379 18.454 25.675 10.394 17.127 7.264"/><polygon fill="#FFF383" points="25.122 18.734 24.748 24.378 28.426 20.466 29.264 14.259"/><polygon fill="#FFF383" points="4.727 8.842 11.512 12.222 10.854 21.107 9.022 22.133 1.729 19.494 .048 18.091"/><path fill="#0C0C08" d="M30.6796221,5.39993584 L22.1902025,2.62552636 C22.0245238,2.57141302 21.8426047,2.60438491 21.7066952,2.71315955 L19.2891591,4.6545721 L17.6452346,2.77575471 C17.5814808,2.70332247 17.4982769,2.65053342 17.405415,2.62360035 L9.05427845,0.0234942719 C8.80800915,-0.0532298772 8.54271671,0.0632284688 8.43345519,0.296023909 L0.0484730983,18.0913425 C-0.069181491,18.3421039 0.0344386684,18.640588 0.282490589,18.7654441 L7.98089244,22.6376761 C7.99949279,22.647629 8.01890164,22.6560047 8.03891331,22.6627142 L10.9080451,23.6854225 L11.101448,27.3977962 C11.1107323,27.5788661 11.2150782,27.7416872 11.3760801,27.8263323 L19.2427425,31.9412409 C19.3162763,31.9801401 19.398331,32.0003205 19.481595,32 C19.6378862,32 19.7857042,31.9292636 19.882906,31.8073836 L28.7504283,20.8541959 C28.8085712,20.7830054 28.846325,20.6974968 28.8597009,20.6067044 L31.0248462,5.95847714 C31.0610478,5.71123762 30.9138956,5.47376719 30.675754,5.39512082 M19.5328467,5.78513674 L19.5695933,5.75528367 L22.1389506,3.69156985 L29.804474,6.1953757 L25.7710568,10.2525042 L17.6616739,7.28838325 L19.5328467,5.78513674 Z M25.5051279,10.5192558 L20.1333627,15.9159204 L11.5124291,12.2218438 L17.3454601,7.53491183 L25.5051279,10.5192558 Z M25.6791905,10.8312685 L25.0138845,18.5506946 L19.9854096,24.1727017 L20.3412708,16.1961541 L25.6791905,10.8312685 Z M9.17612227,1.13576187 L16.869689,3.53171147 L14.6010732,8.42472591 L14.6010732,8.42472591 L10.6575884,11.5920403 L5.30806457,9.34824507 L9.17612227,1.13576187 Z M1.19438519,18.0759344 L5.15914434,9.65447978 L10.3810222,11.851088 C10.3283257,11.9379763 10.3030583,12.038627 10.3084961,12.1399886 L10.5521838,16.8586996 L10.5521838,16.8586996 L8.2796999,21.6361537 L1.19438519,18.0759344 Z M19.3394439,30.8318623 L12.1110111,27.0501524 L11.9176082,23.2944437 L11.9176082,23.2732576 L11.8064015,21.1055396 L19.614076,24.746651 L19.3394439,30.8318623 Z M11.7831932,20.7203386 L11.3596408,12.5348195 L19.9921786,16.2337112 L19.6295482,24.3778212 L11.7831932,20.7203386 Z M19.7030413,30.3965853 L19.9563991,24.710057 L24.9577977,19.1159769 L24.4965318,24.4760474 L19.7030413,30.3965853 Z M27.8598079,20.3206928 L24.8814036,24.0003244 L25.3426695,18.6893669 L28.6517928,14.9875862 L27.8598079,20.3206928 Z M28.7388241,14.3722279 L25.3881191,18.1202325 L26.0466559,10.4865138 C26.0466559,10.4739947 26.0466559,10.4624387 26.0466559,10.4508827 L29.8915053,6.5825026 L28.7388241,14.3722279 Z"/></g></g></svg>