<svg xmlns="http://www.w3.org/2000/svg" width="16" height="16" viewBox="0 0 16 16"><g fill="none" fill-rule="evenodd"><rect width="12" height="12" x="2" y="2"/><path fill="#000" d="M8,0 C12.418278,0 16,3.581722 16,8 C16,12.418278 12.418278,16 8,16 C3.581722,16 0,12.418278 0,8 C0,3.581722 3.581722,0 8,0 Z M8,12 C7.72385763,12 7.5,12.2238576 7.5,12.5 L7.5,13.5 C7.5,13.7761424 7.72385763,14 8,14 C8.27614237,14 8.5,13.7761424 8.5,13.5 L8.5,12.5 C8.5,12.2238576 8.27614237,12 8,12 Z M11.5355534,10.8284466 C11.3402912,10.6331845 11.0237088,10.6331845 10.8284466,10.8284466 C10.6331845,11.0237088 10.6331845,11.3402912 10.8284466,11.5355534 L11.5354466,12.2425534 C11.7307088,12.4378155 12.0472912,12.4378155 12.2425534,12.2425534 C12.4378155,12.0472912 12.4378155,11.7307088 12.2425534,11.5354466 Z M5.17155339,10.8284466 C4.97629124,10.6331845 4.65970876,10.6331845 4.46444661,10.8284466 L3.75744661,11.5354466 C3.56218446,11.7307088 3.56218446,12.0472912 3.75744661,12.2425534 C3.95270876,12.4378155 4.26929124,12.4378155 4.46455339,12.2425534 L5.17155339,11.5355534 C5.36681554,11.3402912 5.36681554,11.0237088 5.17155339,10.8284466 Z M8,5.5 C6.61928813,5.5 5.5,6.61928813 5.5,8 C5.5,9.38071187 6.61928813,10.5 8,10.5 C9.38071187,10.5 10.5,9.38071187 10.5,8 C10.5,6.61928813 9.38071187,5.5 8,5.5 Z M13.5,7.5 L12.5,7.5 C12.2238576,7.5 12,7.72385763 12,8 C12,8.27614237 12.2238576,8.5 12.5,8.5 L13.5,8.5 C13.7761424,8.5 14,8.27614237 14,8 C14,7.72385763 13.7761424,7.5 13.5,7.5 Z M3.5,7.5 L2.5,7.5 C2.22385763,7.5 2,7.72385763 2,8 C2,8.27614237 2.22385763,8.5 2.5,8.5 L3.5,8.5 C3.77614237,8.5 4,8.27614237 4,8 C4,7.72385763 3.77614237,7.5 3.5,7.5 Z M12.2425534,3.75744661 C12.0472912,3.56218446 11.7307088,3.56218446 11.5354466,3.75744661 L10.8284466,4.46444661 C10.6331845,4.65970876 10.6331845,4.97629124 10.8284466,5.17155339 C11.0237088,5.36681554 11.3402912,5.36681554 11.5355534,5.17155339 L12.2425534,4.46455339 C12.4378155,4.26929124 12.4378155,3.95270876 12.2425534,3.75744661 Z M4.46455339,3.75744661 C4.26929124,3.56218446 3.95270876,3.56218446 3.75744661,3.75744661 C3.56218446,3.95270876 3.56218446,4.26929124 3.75744661,4.46455339 L4.46444661,5.17155339 C4.65970876,5.36681554 4.97629124,5.36681554 5.17155339,5.17155339 C5.36681554,4.97629124 5.36681554,4.65970876 5.17155339,4.46444661 Z M8,2 C7.72385763,2 7.5,2.22385763 7.5,2.5 L7.5,3.5 C7.5,3.77614237 7.72385763,4 8,4 C8.27614237,4 8.5,3.77614237 8.5,3.5 L8.5,2.5 C8.5,2.22385763 8.27614237,2 8,2 Z"/></g></svg>