<svg xmlns="http://www.w3.org/2000/svg" width="16" height="16" viewBox="0 0 16 16"><g fill="none" fill-rule="evenodd"><rect width="12" height="12" x="2" y="2"/><path fill="#000" d="M8,0 C12.418278,0 16,3.581722 16,8 C16,12.418278 12.418278,16 8,16 C3.581722,16 0,12.418278 0,8 C0,3.581722 3.581722,0 8,0 Z M7.12468363,2.77904426 C7.19934253,2.4172301 6.86935104,2.1021849 6.51138321,2.19352204 C3.8322636,2.87711179 1.96717691,5.30301614 1.99509045,8.06783036 C2.02300398,10.8326446 3.93668931,13.2203985 6.62906444,13.8497577 C9.32143956,14.4791169 12.095293,13.1871039 13.3459287,10.7211584 C13.5130963,10.3915449 13.2772294,10.000745 12.9076922,9.99505917 C9.70633397,9.94580236 7.12200018,7.39582604 7.00419375,4.22208668 L7,4.00002026 C7.00001662,3.58985151 7.04179324,3.18075011 7.12468363,2.77904426 Z M6.02578159,3.412 L6.00912847,3.64179539 C6.00305159,3.7610356 6.00000484,3.8804688 6.00000011,4.00032544 L6.0041263,4.23827077 C6.11988222,7.63498673 8.65714807,10.4237787 11.9539043,10.9179566 L12.0497816,10.93 L11.972664,11.0371722 C10.7966701,12.5824454 8.80117762,13.3305448 6.85668448,12.8760077 C4.61303854,12.3515417 3.01830076,10.3617467 2.99503949,8.05773488 C2.97487971,6.06092461 4.13959785,4.27624682 5.90388745,3.46500525 L6.02578159,3.412 Z"/></g></svg>