<svg xmlns="http://www.w3.org/2000/svg" width="174" height="56" viewBox="0 0 174 56"><g fill="none" fill-rule="evenodd"><rect width="174" height="56"/><g fill="#D4DAE2" fill-rule="nonzero"><path d="M71.4809604,23.4213836 L71.4809604,0.498327312 L74.5204079,0.498327312 L74.5204079,23.4213836 L71.4809604,23.4213836 Z M73.3708495,15.1746287 L73.3708495,12.4581828 L79.4497445,12.4581828 C80.3984093,12.4581828 81.2168652,12.2596012 81.8976716,11.8661849 C82.5784781,11.4690218 83.1067542,10.9257326 83.4787796,10.2250769 C83.850805,9.52816807 84.0368177,8.73009501 84.0368177,7.83460458 C84.0368177,6.93911414 83.850805,6.1447879 83.4787796,5.44413221 C83.1067542,4.74722334 82.5784781,4.19644052 81.8976716,3.78803693 C81.2131449,3.38338017 80.3984093,3.18105179 79.4497445,3.18105179 L73.3708495,3.18105179 L73.3708495,0.49458049 L78.8917064,0.49458049 C80.5472194,0.49458049 81.9943982,0.745617557 83.2332428,1.24394487 C84.4758077,1.74227218 85.4356332,2.51411749 86.1164397,3.55573398 C86.7972462,4.59735046 87.1395095,5.9387127 87.1395095,7.58356751 L87.1395095,8.08189482 C87.1395095,9.72674963 86.7935259,11.0718587 86.1015587,12.1097284 C85.4095914,13.1513448 84.4460456,13.9194433 83.2183618,14.4215175 C81.9869577,14.9198448 80.5472194,15.1708818 78.8917064,15.1708818 L73.3708495,15.1708818 L73.3708495,15.1746287 Z M85.4653952,23.4213836 L77.9616429,13.2712431 L81.5293665,13.2712431 L89.1596074,23.4213836 L85.4691155,23.4213836 L85.4653952,23.4213836 Z"/><polygon points="93.252 23.421 93.252 .622 96.291 .622 96.291 23.421 93.252 23.421"/><path d="M102.924547 23.4213836 102.924547.621972434 105.963995.621972434 105.963995 23.4213836 102.924547 23.4213836ZM105.342712 3.3721397 105.342712.621972434 115.577131.621972434 115.577131 3.3721397 105.342712 3.3721397ZM105.342712 13.2712431 105.342712 10.5210759 115.048855 10.4911013 115.048855 13.2412686 105.342712 13.2712431ZM137.500588 23.9834069C135.47305 23.9834069 133.72825 23.6199652 132.25875 22.8893349 130.78925 22.1624515 129.580167 21.2032651 128.631502 20.0155225 127.679117 18.82778 126.972269 17.5576074 126.507237 16.2050047 126.042206 14.852402 125.80783 13.548508 125.80783 12.3008163L125.80783 11.6151479C125.80783 10.2625452 126.045926 8.89870199 126.522118 7.52361836 126.998311 6.14853473 127.72004 4.89334939 128.691026 3.76180918 129.662013 2.62652215 130.878536 1.71604443 132.336875 1.03037602 133.795215.344707614 135.513972 0 137.500588 0 139.487204 0 141.205961.344707614 142.664301 1.03037602 144.12264 1.71604443 145.335443 2.62652215 146.310149 3.76180918 147.281136 4.89709621 148.006585 6.15228155 148.479058 7.52361836 148.95525 8.89870199 149.193346 10.2625452 149.193346 11.6151479L149.193346 12.3008163C149.193346 13.548508 148.95897 14.852402 148.493939 16.2050047 148.028907 17.5576074 147.322059 18.82778 146.369674 20.0155225 145.417288 21.2032651 144.208206 22.1587047 142.742426 22.8893349 141.276646 23.6162184 139.528126 23.9834069 137.500588 23.9834069L137.500588 23.9834069ZM137.500588 21.1732905C138.824998 21.1732905 140.01548 20.9222534 141.083193 20.4239261 142.150905 19.9255988 143.051207 19.2436772 143.795258 18.3781614 144.539309 17.5126455 145.108507 16.534725 145.499134 15.440653 145.893481 14.346581 146.086934 13.1963067 146.086934 11.9898301 146.086934 10.7196574 145.889761 9.53191489 145.499134 8.43034926 145.104787 7.32878362 144.539309 6.35460993 143.795258 5.511575 143.051207 4.66854008 142.147185 4.00909942 141.083193 3.52950622 140.0192 3.04991302 138.824998 2.81011642 137.500588 2.81011642 136.176178 2.81011642 134.981976 3.04991302 133.917983 3.52950622 132.853991 4.00909942 131.949969 4.66854008 131.205918 5.511575 130.461867 6.35460993 129.892669 7.32878362 129.502042 8.43034926 129.107695 9.53566172 128.914242 10.7196574 128.914242 11.9898301 128.914242 13.2600027 129.111415 14.346581 129.502042 15.440653 129.892669 16.534725 130.461867 17.5126455 131.205918 18.3781614 131.949969 19.2436772 132.853991 19.9255988 133.917983 20.4239261 134.981976 20.9222534 136.176178 21.1732905 137.500588 21.1732905Z"/><polygon points="154.182 23.421 154.182 .622 159.145 .622 170.648 20.671 171.641 20.671 171.02 21.233 171.02 .622 173.937 .622 173.937 23.421 168.914 23.421 157.411 3.372 156.418 3.372 157.039 2.81 157.039 23.421 154.186 23.421"/><path d="M81.3135918 55.9962532C79.2451305 55.9962532 77.4817301 55.6328115 76.0271108 54.9021812 74.5687712 54.1752977 73.3968912 53.2273518 72.5077505 52.0583434 71.6186098 50.8930818 70.9675654 49.626656 70.5546172 48.2628128 70.141669 46.8989696 69.9333348 45.5838351 69.9333348 44.3136625L69.9333348 43.6279941C69.9333348 42.2529105 70.1453892 40.8778268 70.5694982 39.50649 70.9936071 38.1314064 71.6483719 36.8837147 72.5375126 35.7596681 73.4266533 34.6356216 74.5836523 33.7288907 76.0085095 33.0432223 77.4370871 32.3575539 79.1409634 32.0128462 81.1238588 32.0128462 83.1067542 32.0128462 84.8850356 32.3687943 86.3322144 33.0731968 87.7793932 33.7813462 88.9252314 34.7705072 89.7734494 36.0406798 90.6216673 37.3108524 91.1387826 38.8095812 91.3247953 40.5368661L88.2258237 40.5368661C88.0584123 39.2479593 87.6454641 38.1801151 86.9832589 37.3370802 86.3210536 36.4940452 85.491437 35.8645792 84.4869684 35.4486819 83.4824998 35.0327847 82.3627034 34.8229627 81.1238588 34.8229627 79.7808471 34.8229627 78.6015266 35.0590124 77.5896175 35.5273652 76.5777084 35.9957179 75.7332108 36.6514117 75.063565 37.4944467 74.3901991 38.3374816 73.8842445 39.3116553 73.5457014 40.4132209 73.203438 41.5185334 73.0360266 42.7137696 73.0360266 44.0064231 73.0360266 45.2990767 73.2071583 46.4006423 73.5457014 47.5059548 73.8879648 48.6112672 74.4013598 49.5891877 75.0970473 50.4434631 75.7890146 51.2977385 76.6521135 51.9684196 77.6863441 52.4592533 78.7205747 52.950087 79.9296573 53.1936304 81.3135918 53.1936304 83.2555643 53.1936304 84.8887559 52.7065436 86.2131663 51.7248762 87.5375767 50.7469557 88.3411516 49.330657 88.6313314 47.4759802L91.7340232 47.4759802C91.525689 49.0384049 91.0048534 50.4659441 90.1677963 51.7548508 89.3307391 53.0475043 88.1737401 54.0778804 86.6967993 54.8459789 85.2198585 55.6140773 83.4229758 56 81.317312 56L81.3135918 55.9962532ZM96.1350837 55.4342299 96.1350837 32.6348187 99.1745312 32.6348187 99.1745312 55.4342299 96.1350837 55.4342299ZM98.5532488 45.4714305 98.5532488 42.7212632 112.072652 42.7212632 112.072652 45.4714305 98.5532488 45.4714305 98.5532488 45.4714305ZM111.451369 55.4342299 111.451369 32.6348187 114.490817 32.6348187 114.490817 55.4342299 111.451369 55.4342299ZM118.646341 55.4342299 126.801137 32.6348187 131.949969 32.6348187 140.354023 55.4342299 137.221569 55.4342299 129.62481 34.6356216 131.112912 35.3849859 127.455902 35.3849859 129.03701 34.6356216 121.689508 55.4342299 118.650061 55.4342299 118.646341 55.4342299ZM123.516153 48.6262545 124.539223 45.8760872 134.30861 45.8760872 135.33168 48.6262545 123.516153 48.6262545Z"/><polygon points="144.573 55.434 144.573 32.635 147.612 32.635 147.612 55.434"/><polygon points="154.245 55.434 154.245 32.635 159.208 32.635 170.711 52.684 171.705 52.684 171.083 53.246 171.083 32.635 174 32.635 174 55.434 168.978 55.434 157.475 35.385 156.481 35.385 157.103 34.823 157.103 55.434 154.249 55.434"/><path d="M45.9190952,37.7941924 L4.27457185,37.7941924 C1.91593081,37.7941924 0,35.8608323 0,33.4890941 L0,4.91583032 C0,2.52910478 1.92709157,0.588251037 4.29689337,0.588251037 L45.9190952,0.588251037 L45.9190952,4.26013649 L4.29689337,4.26013649 C3.93602874,4.26013649 3.64584892,4.55613542 3.64584892,4.91583032 L3.64584892,33.4890941 C3.64584892,33.8375485 3.92858823,34.122307 4.27457185,34.122307 L45.9153749,34.122307 L45.9153749,37.7941924 L45.9190952,37.7941924 Z"/><path d="M54.367792,54.9359026 L12.7641915,54.9359026 L12.7641915,51.2640171 L54.367792,51.2640171 C54.7360972,51.2640171 55.0337175,50.9642714 55.0337175,50.593336 L55.0337175,22.109996 C55.0337175,21.7203265 54.7174959,21.4055935 54.3343097,21.4055935 L12.7641915,21.4055935 L12.7641915,17.733708 L54.3343097,17.733708 C56.7338736,17.733708 58.6832867,19.6970427 58.6832867,22.1137428 L58.6832867,50.5970828 C58.6832867,52.991302 56.7487546,54.9433962 54.367792,54.9433962 L54.367792,54.9359026 Z"/></g></g></svg>