<svg xmlns="http://www.w3.org/2000/svg" xmlns:xlink="http://www.w3.org/1999/xlink" width="32" height="32" viewBox="0 0 32 32"><defs><path id="a" d="M-9.05941988e-13,16 L-9.05941988e-13,0 L15.5113787,0 L15.5113787,16 L-9.05941988e-13,16 Z"/></defs><g fill="none" fill-rule="evenodd"><rect width="32" height="32"/><g transform="translate(0 0)"><circle cx="16" cy="16" r="16"/><g transform="translate(16.489)"><mask id="b" fill="#fff"><use xlink:href="#a"/></mask><circle cx="-.489" cy="16" r="14.5" stroke="#000000" stroke-width="3" mask="url(#b)"/></g><path fill="#000000" fill-rule="nonzero" d="M6 0 1 0C.44771525 0 0 .44771525 0 1L0 6C0 6.55228475.44771525 7 1 7L6 7C6.55228475 7 7 6.55228475 7 6L7 1C7 .44771525 6.55228475 0 6 0ZM5 5 2 5 2 2 5 2 5 5ZM15 9 10 9C9.44771525 9 9 9.44771525 9 10L9 15C9 15.5522847 9.44771525 16 10 16L15 16C15.5522847 16 16 15.5522847 16 15L16 10C16 9.44771525 15.5522847 9 15 9ZM14 14 11 14 11 11 14 11 14 14ZM6 9 1 9C.44771525 9 0 9.44771525 0 10L0 15C0 15.5522847.44771525 16 1 16L6 16C6.55228475 16 7 15.5522847 7 15L7 10C7 9.44771525 6.55228475 9 6 9ZM5 14 2 14 2 11 5 11 5 14Z" transform="translate(8 8)"/></g></g></svg>