<svg xmlns="http://www.w3.org/2000/svg" width="48" height="48" viewBox="0 0 48 48"><g fill="none" fill-rule="evenodd"><rect width="48" height="48"/><g transform="translate(8 8)"><circle cx="16" cy="16" r="16" fill="#26272F"/><g fill="#E45353" fill-rule="nonzero" transform="translate(8 8)"><path d="M8,0 C3.6,0 0,3.6 0,8 C0,12.4 3.6,16 8,16 C12.4,16 16,12.4 16,8 C16,3.6 12.4,0 8,0 Z M8,14 C4.7,14 2,11.3 2,8 C2,4.7 4.7,2 8,2 C11.3,2 14,4.7 14,8 C14,11.3 11.3,14 8,14 Z"/><path d="M9.414,8 L11.182,6.232 C11.377,6.037 11.377,5.72 11.182,5.525 L10.475,4.818 C10.28,4.623 9.963,4.623 9.768,4.818 L8,6.586 L6.232,4.818 C6.037,4.623 5.72,4.623 5.525,4.818 L4.818,5.525 C4.623,5.72 4.623,6.037 4.818,6.232 L6.586,8 L4.818,9.768 C4.623,9.963 4.623,10.28 4.818,10.475 L5.525,11.182 C5.72,11.377 6.037,11.377 6.232,11.182 L8,9.414 L9.768,11.182 C9.963,11.377 10.28,11.377 10.475,11.182 L11.182,10.475 C11.377,10.28 11.377,9.963 11.182,9.768 L9.414,8 Z"/></g></g></g></svg>