<?xml version="1.0" encoding="UTF-8"?>
<svg width="24px" height="24px" viewBox="0 0 24 24" version="1.1" xmlns="http://www.w3.org/2000/svg" xmlns:xlink="http://www.w3.org/1999/xlink">
    <title>Wallet</title>
    <g id="⭐️Symbols" stroke="none" stroke-width="1" fill="none" fill-rule="evenodd">
        <g id="Component/Options" transform="translate(-136.000000, -44.000000)" fill-rule="nonzero">
            <g id="Wallet" transform="translate(136.000000, 44.000000)">
                <path d="M0,0 L24,0 L24,24 L0,24 L0,0 Z" id="Vector"></path>
                <path d="M3.75,6.00004578 C3.75,5.73482928 3.75,9.73482928 3.75,18.0000458 C3.75,18.3978705 3.9080352,18.7794011 4.18933976,19.0607057 C4.47064432,19.3420102 4.85217525,19.5000458 5.25,19.5000458 L20.25,19.5000458 C20.4489124,19.5000458 20.6396784,19.4210287 20.7803307,19.2803764 C20.9209829,19.1397242 21,18.9489582 21,18.7500458 L21,8.25004578 C21,8.0511334 20.9209829,7.86036811 20.7803307,7.71971583 C20.6396784,7.57906355 20.4489124,7.50004578 20.25,7.50004578 L5.25,7.50004578 C4.85217525,7.50004578 4.47064432,7.34201022 4.18933976,7.06070566 C3.9080352,6.7794011 3.9080352,5.22069009 4.18933976,4.93938553 C4.47064432,4.65808097 4.85217525,4.50004578 5.25,4.50004578 L18,4.50004578" id="Vector" stroke="#000000" stroke-width="1.45790863" stroke-linecap="round" stroke-linejoin="round"></path>
                <path d="M18,13.5 C18,14.1213204 17.4963204,14.625 16.875,14.625 C16.2536796,14.625 15.75,14.1213204 15.75,13.5 C15.75,12.8786796 16.2536796,12.375 16.875,12.375 C17.4963204,12.375 18,12.8786796 18,13.5 Z" id="Vector" fill="#000000"></path>
            </g>
        </g>
    </g>
</svg>