<svg xmlns="http://www.w3.org/2000/svg" width="32" height="32" viewBox="0 0 32 32"><g fill="none" fill-rule="evenodd"><rect width="32" height="32"/><g fill-rule="nonzero"><circle cx="16" cy="16" r="16" fill="#00FF94"/><circle cx="16" cy="16" r="14.189" fill="#FFF"/><circle cx="16" cy="15.597" r="10.365" fill="#DA1A33"/><circle cx="16" cy="16" r="11.27" fill="#333"/><polygon fill="#00FF94" points="8.654 21.031 17.308 25.057 17.711 16 8.352 11.975"/><polygon fill="#00FF94" points="23.849 9.66 14.792 6.34 8.352 11.572 17.912 15.698"/><polygon fill="#00FF94" points="17.711 24.855 23.346 18.616 24.05 10.465 24.05 10.063 18.113 16"/><polygon fill="#333" points="17.912 25.66 17.107 25.56 17.509 15.698 24.05 9.157 24.553 9.761 18.415 16.101"/><polygon fill="#333" points="12.414 8.046 13.219 8.046 13.219 19.316 12.414 19.316" transform="rotate(-66.391 12.817 13.681)"/></g></g></svg>