<svg xmlns="http://www.w3.org/2000/svg" width="32" height="32" viewBox="0 0 32 32"><g fill="none" fill-rule="evenodd"><rect width="32" height="32"/><g fill-rule="nonzero"><circle cx="16" cy="16" r="16" fill="#74ACDF"/><circle cx="16" cy="16" r="14.189" fill="#FFF"/><circle cx="16" cy="16" r="11.27" fill="#74ACDF"/><path fill="#FFF" d="M6.94339623 19.7232704C6.94339623 19.7232704 6.94339623 19.6226415 6.94339623 19.6226415 6.94339623 19.5220126 6.94339623 19.5220126 7.04402516 19.4213836L9.76100629 11.7735849C9.86163522 11.572327 10.0628931 11.4716981 10.5660377 11.4716981L11.2704403 11.4716981C11.672956 11.4716981 11.9748428 11.572327 11.9748428 11.7735849L13.081761 19.5220126C13.081761 19.5220126 13.081761 19.6226415 13.081761 19.6226415 13.081761 19.6226415 13.081761 19.7232704 13.081761 19.7232704 13.081761 19.9245283 12.8805031 20.0251572 12.5786164 20.0251572L11.9748428 20.0251572C11.572327 20.0251572 11.3710692 19.9245283 11.3710692 19.7232704L11.1698113 18.2138365 9.1572327 18.2138365 8.65408805 19.7232704C8.65408805 19.9245283 8.45283019 20.0251572 8.05031447 20.0251572L7.44654088 20.0251572C7.14465409 20.0251572 6.94339623 19.9245283 6.94339623 19.7232704ZM10.9685535 16.7044025 10.6666667 14.0880503C10.6666667 13.6855346 10.6666667 13.3836478 10.6666667 13.1823899L10.5660377 13.1823899C10.4654088 13.5849057 10.3647799 13.8867925 10.3647799 14.0880503L9.55974843 16.7044025 10.9685535 16.7044025ZM13.7861635 19.6226415 14.591195 11.8742138C14.591195 11.7735849 14.591195 11.572327 14.6918239 11.4716981 14.7924528 11.3710692 14.8930818 11.3710692 15.0943396 11.3710692L16.6037736 11.3710692C18.5157233 11.3710692 19.4213836 12.1761006 19.4213836 13.7861635 19.4213836 14.2893082 19.3207547 14.7924528 19.0188679 15.1949686 18.7169811 15.5974843 18.4150943 15.8993711 17.9119497 16L17.9119497 16C18.1132075 16.1006289 18.3144654 16.3018868 18.4150943 16.5031447 18.6163522 16.8050314 18.7169811 17.1069182 18.7169811 17.408805L19.1194969 19.5220126 19.1194969 19.6226415C19.1194969 19.7232704 19.1194969 19.9245283 19.0188679 19.9245283 18.8176101 20.0251572 18.6163522 20.0251572 18.4150943 20.0251572L18.0125786 20.0251572C17.6100629 20.0251572 17.3081761 19.9245283 17.3081761 19.7232704L16.9056604 17.408805C16.9056604 17.1069182 16.7044025 16.9056604 16.4025157 16.9056604 16.4025157 16.9056604 16.4025157 16.9056604 16.4025157 16.9056604L16 16.9056604 15.6981132 19.6226415C15.6981132 19.9245283 15.3962264 20.0251572 14.8930818 20.0251572L14.490566 20.0251572C13.9874214 20.0251572 13.7861635 19.8238994 13.7861635 19.6226415ZM16.8050314 15.0943396C17.0062893 15.0943396 17.3081761 14.9937107 17.408805 14.7924528 17.509434 14.591195 17.6100629 14.2893082 17.6100629 13.9874214 17.6100629 13.6855346 17.6100629 13.4842767 17.408805 13.2830189 17.2075472 13.081761 17.0062893 13.081761 16.8050314 13.081761L16.4025157 13.081761 16.2012579 15.0943396 16.8050314 15.0943396ZM20.427673 19.8238994C20.2264151 19.7232704 20.0251572 19.6226415 19.8238994 19.5220126 19.7232704 19.4213836 19.6226415 19.3207547 19.6226415 19.1194969 19.6226415 18.8176101 19.7232704 18.6163522 19.8238994 18.3144654 19.9245283 18.0125786 20.1257862 17.9119497 20.2264151 17.9119497 20.327044 17.9119497 20.427673 17.9119497 20.5283019 18.0125786L20.8301887 18.2138365C21.1320755 18.3144654 21.4339623 18.4150943 21.7358491 18.4150943 21.9371069 18.4150943 22.2389937 18.3144654 22.4402516 18.2138365 22.6415094 18.0125786 22.7421384 17.8113208 22.7421384 17.509434 22.7421384 17.3081761 22.6415094 17.0062893 22.5408805 16.9056604 22.3396226 16.7044025 22.0377358 16.5031447 21.836478 16.3018868 21.5345912 16.1006289 21.3333333 15.8993711 21.0314465 15.6981132 20.8301887 15.4968553 20.6289308 15.2955975 20.5283019 14.9937107 20.427673 14.6918239 20.327044 14.2893082 20.327044 13.8867925 20.327044 13.3836478 20.427673 12.8805031 20.7295597 12.4779874 20.9308176 12.0754717 21.3333333 11.7735849 21.7358491 11.572327 22.1383648 11.3710692 22.6415094 11.2704403 23.1446541 11.2704403 23.4465409 11.2704403 23.6477987 11.2704403 23.9496855 11.3710692 24.1509434 11.3710692 24.4528302 11.4716981 24.6540881 11.572327 24.8553459 11.672956 24.9559748 11.7735849 24.9559748 11.9748428 24.9559748 12.1761006 24.8553459 12.4779874 24.8553459 12.6792453 24.754717 12.8805031 24.6540881 13.081761 24.4528302 13.081761 24.3522013 13.081761 24.1509434 13.081761 24.0503145 12.9811321 23.8490566 12.8805031 23.5471698 12.7798742 23.245283 12.7798742 22.9433962 12.7798742 22.6415094 12.8805031 22.4402516 13.081761 22.3396226 13.2830189 22.2389937 13.4842767 22.2389937 13.6855346 22.2389937 13.8867925 22.3396226 14.1886792 22.4402516 14.2893082 22.6415094 14.490566 22.7421384 14.591195 22.9433962 14.6918239 23.1446541 14.7924528 23.245283 14.8930818 23.3459119 14.8930818 23.7484277 15.1949686 24.1509434 15.4968553 24.3522013 15.8993711 24.5534591 16.3018868 24.754717 16.7044025 24.6540881 17.2075472 24.6540881 17.9119497 24.3522013 18.7169811 23.8490566 19.2201258 23.245283 19.7232704 22.4402516 20.0251572 21.7358491 19.9245283 21.3333333 20.1257862 20.8301887 20.0251572 20.427673 19.8238994Z"/></g></g></svg>