<svg xmlns="http://www.w3.org/2000/svg" width="48" height="48" viewBox="0 0 48 48"><g fill="none" fill-rule="evenodd"><rect width="48" height="48"/><rect width="48" height="48"/><g fill="#000" transform="translate(4 4)"><path fill-rule="nonzero" d="M34,40 C37.3137,40 40,37.3137 40,34 L40,16 C40,12.6863 37.3137,10 34,10 L33,10 L33,25 C33,29.4183 29.4183,33 25,33 L10,33 L10,34 C10,37.3137 12.6863,40 16,40 L34,40 Z"/><path d="M24,30 C27.3137,30 30,27.3137 30,24 L30,6 C30,2.68629 27.3137,0 24,0 L6,0 C2.68629,0 0,2.68629 0,6 L0,24 C0,27.3137 2.68629,30 6,30 L24,30 Z M16.5,7 L16.5,13.5 L23,13.5 L23,16.5 L16.5,16.5 L16.5,23 L13.5,23 L13.5,16.5 L7,16.5 L7,13.5 L13.5,13.5 L13.5,7 L16.5,7 Z"/></g></g></svg>