<svg xmlns="http://www.w3.org/2000/svg" width="24" height="24" viewBox="0 0 24 24"><g fill="none" fill-rule="evenodd"><rect width="24" height="24"/><g stroke="#000" stroke-width="2" transform="translate(1 1)"><path d="M0,3 L0,7 C0,8.657 2.686,10 6,10 C9.314,10 12,8.657 12,7 L12,3"/><path d="M0,7 L0,11 C0,12.657 2.686,14 6,14 C7.537,14 8.938,13.71 10,13.235"/><path d="M0,11 L0,15 C0,16.657 2.686,18 6,18 C7.537,18 8.939,17.711 10,17.236"/><ellipse cx="6" cy="3" rx="6" ry="3"/><path d="M10,11 L10,15 C10,16.657 12.686,18 16,18 C19.314,18 22,16.657 22,15 L22,11"/><path d="M10,15 L10,19 C10,20.657 12.686,22 16,22 C19.314,22 22,20.657 22,19 L22,15"/><ellipse cx="16" cy="11" rx="6" ry="3"/></g></g></svg>