<svg xmlns="http://www.w3.org/2000/svg" width="24" height="24" viewBox="0 0 24 24"><g fill="none" fill-rule="evenodd"><rect width="24" height="24"/><rect width="24" height="24"/><g stroke="#000" stroke-width="2" transform="translate(11 9)"><path d="M0,3 L0,7 C0,8.657 2.686,10 6,10 C9.314,10 12,8.657 12,7 L12,3"/><path d="M0,7 L0,11 C0,12.657 2.686,14 6,14 C9.314,14 12,12.657 12,11 L12,7"/><ellipse cx="6" cy="3" rx="6" ry="3"/></g><rect width="8" height="6" x="1" y="6" stroke="#212121" stroke-width="2"/><path stroke="#212121" stroke-width="2" d="M3,6 L3,3 C3,1.8954305 3.8954305,1 5,1 L5,1 C6.1045695,1 7,1.8954305 7,3 L7,6"/></g></svg>