<svg xmlns="http://www.w3.org/2000/svg" width="24" height="24" viewBox="0 0 24 24"><g fill="none" fill-rule="evenodd"><rect width="24" height="24"/><rect width="24" height="24"/><g stroke="#000" stroke-width="2" transform="translate(1 1)"><path d="M10,11 L10,15 C10,16.657 12.686,18 16,18 C19.314,18 22,16.657 22,15 L22,11"/><path d="M10,15 L10,19 C10,20.657 12.686,22 16,22 C19.314,22 22,20.657 22,19 L22,15"/><ellipse cx="16" cy="11" rx="6" ry="3"/><polyline points="7 4 7 7 4 7"/><path d="M7,14 C3.134,14 0,10.866 0,7 C0,3.134 3.134,0 7,0 C10.171,0 12.85,2.109 13.71,5.001"/></g></g></svg>