<svg xmlns="http://www.w3.org/2000/svg" width="174" height="56" viewBox="0 0 174 56"><g fill="none" fill-rule="evenodd"><rect width="174" height="56"/><polygon fill="#00FF94" points="15.407 .899 29.318 5.279 33.253 9.403 38.131 5.45 52.526 10.302 49.076 35.936 33.966 54.805 20.106 47.896 19.75 40.148 13.675 38.535 .892 31.763"/><polygon fill="#FFFF40" points="29.544 12.897 44.442 18.31 43.616 32.63 34.344 42.997 19.669 36.272 19.194 21.289"/><path fill="#000" d="M49.7509102,25.1530625 L43.9511102,31.7122286 L45.0896789,18.3529474 C45.0914635,18.3321646 45.0903928,18.311801 45.0880133,18.291677 L51.7436434,11.5225864 L49.7509102,25.1530625 Z M48.2290709,35.5626804 L43.0743409,41.9997849 L43.8661637,32.7090254 L49.5931524,26.2322119 L48.2290709,35.5626804 Z M34.1109975,53.1931008 L34.5507801,43.244059 L43.2054489,33.4562487 L42.4061903,42.8341523 L34.1109975,53.1931008 Z M20.4031419,36.2613306 L19.6691399,21.9313659 L34.6113967,28.4030285 L33.9810198,42.6629785 L20.4031419,36.2613306 Z M33.4818104,53.956016 L20.9704632,47.3383945 L20.6332946,40.7550317 C20.6331161,40.7518573 20.6329972,40.7487429 20.6328187,40.7455087 L20.4378225,36.9390781 L33.9524069,43.3108395 L33.4818104,53.956016 Z M2.06861664,31.6339486 L8.93625603,16.89809 L17.9724108,20.7414745 C17.8829433,20.8923446 17.8380311,21.0683697 17.847192,21.2484675 L18.270021,29.5030207 L14.3340473,37.863704 L2.06861664,31.6339486 Z M15.8840235,1.99003946 L29.1994477,6.1832581 L25.2651396,14.7464392 L18.4400329,20.2902417 L9.18907301,16.3555206 L15.8840235,1.99003946 Z M35.2097104,28.3383442 L44.4418726,18.9488214 L43.2903954,32.4594519 L34.592718,42.2959551 L35.2097104,28.3383442 Z M30.0243449,13.1893447 L44.139682,18.4048146 L34.8489257,27.8539308 L19.9269537,21.3910125 L30.0243449,13.1893447 Z M38.313708,6.45618984 L51.5809482,10.8367533 L44.5998089,17.9368717 L30.5641835,12.7508092 L38.313708,6.45618984 Z M53.1020736,9.44807757 L38.4089456,4.59675623 C38.1216861,4.50188595 37.806111,4.55992213 37.570664,4.75116002 L33.3874056,8.14906141 L30.5333101,4.85938641 C30.4251044,4.7345697 30.2846571,4.64239459 30.1276727,4.59298298 L15.6734419,0.0411259317 C15.2475196,-0.0930340657 14.7888204,0.110242287 14.5993564,0.516914779 L0.0846874423,31.6611999 C-0.120421486,32.1013525 0.0594057444,32.625954 0.490562795,32.8449223 L13.8155048,39.612815 C13.8484007,39.6295251 13.882189,39.644139 13.9168695,39.6565967 L18.8816001,41.4445182 L19.2144262,47.9419348 C19.230666,48.258768 19.4116235,48.5434987 19.690555,48.6910148 L33.3138804,55.8969039 C33.4455237,55.9664994 33.5876961,56.0000394 33.7284408,56.0000394 C33.9913705,56.0000394 34.2493627,55.8830088 34.4235983,55.6654779 L49.7710761,36.499764 C49.8710131,36.3748874 49.9359722,36.225335 49.9591719,36.0666788 L53.7068118,10.4325364 C53.7700458,9.99993034 53.5147304,9.58433381 53.1020736,9.44807757 L53.1020736,9.44807757 Z"/><path fill="#000" d="M1.97248882 2.78417995C2.01148775 2.36947291 2.12900178 2.06866428 2.3250309 1.88071104 2.5205428 1.69327931 2.80460399 1.59940699 3.17680071 1.59940699L11.2550625 1.59940699C11.7443595 1.59940699 11.9894218 1.95476587 11.9894218 2.66558793L11.9600433 3.08029497 11.8425292 3.99847054C11.7641176 4.98611164 11.4313336 5.47935852 10.8438669 5.47935852L6.2612336 5.47935852 5.67376691 10.396182 9.99189019 10.396182C10.4811872 10.396182 10.7262494 10.7219189 10.7262494 11.3736014 10.7262494 11.5910723 10.7162152 11.7585822 10.6969744 11.8770699L10.5794603 12.7952455C10.5009452 13.328336 10.3885 13.7088318 10.2416075 13.9355856 10.094715 14.1627566 9.87447961 14.2761335 9.58069454 14.2761335L5.26257125 14.2761335 4.5868656 21.4439108C4.52810858 22.076193 3.93050424 22.3918126 2.79498357 22.3918126L1.61994674 22.3918126C.484012285 22.3918126-.0544212655 22.076193.00433574824 21.4439108L1.97248882 2.78417995ZM12.5766402 18.9855721C12.5766402 18.8079448 12.595881 18.5019211 12.6353972 18.0673965L14.4272792.947693206C14.4860362.316036806 15.1028814 3.55271368e-15 16.2779183 3.55271368e-15L17.100413 3.55271368e-15C18.2754499 3.55271368e-15 18.833538.316036806 18.774781.947693206L16.982899 18.1267447C16.9631409 18.2058061 16.9535205 18.3144893 16.9535205 18.4524816 16.9535205 18.6894571 17.0073121 18.8624951 17.1151023 18.9707611 17.2224787 19.0795487 17.4234732 19.1336818 17.7172582 19.1336818 17.8738746 19.1336818 18.0449734 19.0994705 18.2313821 19.0301093 18.4172736 18.9611653 18.5494768 18.9264325 18.6279919 18.9264325 18.8041595 18.9264325 18.8922951 19.0647378 18.8922951 19.3410353L18.833538 19.8445038C18.81378 19.9629915 18.7794361 20.1902669 18.7307133 20.5258083 18.6816801 20.8617668 18.6178543 21.1477645 18.5398564 21.38474 18.4223424 21.7206986 18.1087992 22.0021069 17.5998476 22.2288607 17.0902754 22.4557188 16.5422214 22.5694086 15.9547547 22.5694086 13.7025404 22.5694086 12.5766402 21.3749355 12.5766402 18.9855721M21.8295044 4.38351393 22.0645324 2.07331618C22.1232895 1.44155547 22.8870272 1.12551867 24.3557456 1.12551867 25.7850514 1.12551867 26.4707912 1.44155547 26.4120342 2.07331618L26.1770062 4.38351393C26.1183526 5.01569185 25.3642353 5.33131144 23.9151715 5.33131144 22.4656939 5.33131144 21.7707474 5.01569185 21.8295044 4.38351393M21.0216989 21.8437652C20.5222643 21.3602184 20.2726504 20.5850417 20.2726504 19.5186521 20.2726504 19.2031369 20.2822708 18.956044 20.3020289 18.7783125L21.4182053 7.7304793C21.4769623 7.0987186 22.0939109 6.78257749 23.2689478 6.78257749L24.0914425 6.78257749C25.2857202 6.78257749 25.8439118 7.10841874 25.7658105 7.76010123L24.5907737 18.4820931 24.5907737 18.6894467C24.5907737 18.9855617 24.7472867 19.1336713 25.0607264 19.1336713 25.1783438 19.1336713 25.3149953 19.0994601 25.4720255 19.0300989 25.6286419 18.9611549 25.736432 18.9264221 25.795189 18.9264221 25.9714601 18.9264221 26.0595956 19.0647273 26.0595956 19.3410249L26.0007351 19.8444934C25.9810805 19.9629811 25.9466332 20.1902564 25.8980138 20.5257978 25.8488772 20.8617564 25.7850514 21.1478584 25.7070535 21.3847295 25.5896429 21.7400884 25.271031 22.0266076 24.7523555 22.2436612 24.2332662 22.4607149 23.6507649 22.5693982 23.0045412 22.5693982 22.1820465 22.5693982 21.5211335 22.3279377 21.0216989 21.8437652M35.268723 17.2825092C35.6308856 16.0681143 35.812122 14.6907988 35.812122 13.150667 35.812122 12.0843817 35.7190211 11.3244332 35.5331296 10.8699868 35.3467209 10.416062 35.0677285 10.1887867 34.6958422 10.1887867 34.1083755 10.1887867 33.5796658 10.5839892 33.1096097 11.3735597L32.3458719 18.6894467C32.6983106 18.9662657 33.0700935 19.1041537 33.4620483 19.1041537 34.3038874 19.1041537 34.9060433 18.4969041 35.268723 17.2825092M39.2050292 8.26356977C39.8609768 9.36969858 40.1890023 11.0083964 40.1890023 13.1802889 40.1890023 14.8195082 39.9834562 16.3546335 39.5722605 17.7860821 39.1609614 19.2179478 38.5192893 20.3730988 37.6480718 21.2514308 36.7764404 22.1302843 35.6845737 22.5693982 34.372782 22.5693982 33.3740162 22.5693982 32.590417 22.2834005 32.0227084 21.7105708L31.4351382 27.4861173C31.3764847 28.117878 30.7493984 28.4340191 29.5552241 28.4340191L28.7326259 28.4340191C28.1254012 28.4340191 27.6897924 28.3548535 27.4254893 28.1970437 27.1610827 28.0387124 27.0482237 27.8018412 27.0876364 27.4861173L28.6739724 12.0547598C28.7716249 11.1069623 28.8208649 10.2776525 28.8208649 9.56683045 28.8208649 9.21136727 28.8107273 8.86612575 28.7914864 8.53016715 28.7716249 8.19462576 28.7621079 7.95765031 28.7621079 7.81924079 28.8208649 7.52312578 29.2467498 7.29126115 30.039866 7.1232297 30.8329823 6.95571976 31.483861 6.87154758 31.9933299 6.87154758 32.8158246 6.87154758 33.1876075 7.49350385 33.1096097 8.73752067 33.4813926 8.10575997 33.9660345 7.59259129 34.5637423 7.19728453 35.1608294 6.80249928 35.812122 6.6049502 36.5171027 6.6049502 37.6527268 6.6049502 38.5486678 7.15796246 39.2050292 8.26356977M61.5153777 19.3410561 61.4566206 19.8445247C61.4368626 19.9630124 61.4024152 20.1902877 61.3537959 20.5257248 61.3046593 20.8617877 61.2409369 21.1477854 61.162939 21.3847608 61.0453215 21.7401197 60.7318818 22.0266389 60.2228268 22.2436925 59.713358 22.4607462 59.1456494 22.5694295 58.5190803 22.5694295 57.6965855 22.5694295 57.0355691 22.3228582 56.536238 21.8290898 56.0369068 21.3356343 55.7871895 20.516129 55.7871895 19.3706781 55.7871895 19.2128683 55.8064303 18.916649 55.8459465 18.4821244L56.5216522 11.7289498 56.5509272 11.3142428C56.5509272 10.9394836 56.477481 10.6626646 56.3305884 10.484933 56.1837993 10.3073057 55.934082 10.2184399 55.5815399 10.2184399 55.0527268 10.2184399 54.5433614 10.484933 54.0540645 11.0181278L52.9671632 21.4439004C52.9084061 22.0761826 52.3108018 22.3918022 51.1752811 22.3918022L50.1765153 22.3918022C49.0404774 22.3918022 48.5020439 22.0761826 48.5609044 21.4439004L49.5889452 11.7289498C49.6082895 11.6104621 49.6183237 11.4623525 49.6183237 11.2847252 49.6183237 10.929262 49.5448774 10.6626646 49.3979849 10.484933 49.2510924 10.3073057 49.0014785 10.2184399 48.6489364 10.2184399 48.1394676 10.2184399 47.6304126 10.5344767 47.121461 11.1662374L46.0346631 21.4439004C46.0148016 21.7600415 45.8583921 21.9970169 45.564607 22.1548267 45.2708219 22.3130538 44.8398682 22.3918022 44.2720561 22.3918022L43.2439118 22.3918022C42.127632 22.3918022 41.5989223 22.0761826 41.6576794 21.4439004 41.833847 19.4891658 42.0982535 16.8137004 42.4507956 13.4172956 42.6858237 11.4429522 42.8032342 10.0703303 42.8032342 9.30026436 42.8032342 8.94480118 42.7932 8.65880352 42.7738557 8.44133265 42.7542011 8.22417468 42.7542011 8.0465474 42.7738557 7.90813788 42.8129581 7.5526747 43.2535323 7.29129244 44.0957851 7.12326099 44.9376241 6.95575105 45.6623629 6.87147457 46.2695877 6.87147457 46.8571578 6.87147457 47.1508395 7.31580355 47.1508395 8.20435719 47.1508395 8.34276671 47.1310814 8.589338 47.0920825 8.94480118 47.6011375 8.27382271 48.2083623 7.71559532 48.913343 7.27137065 49.6183237 6.82704168 50.4014057 6.60498149 51.2634167 6.60498149 52.8102364 6.60498149 53.7309009 7.29629897 54.024686 8.6782038 54.5138795 8.08586947 55.1161389 7.59251828 55.8312572 7.19731582 56.5458584 6.80253057 57.3340093 6.60498149 58.1959167 6.60498149 60.0951751 6.60498149 61.0453215 7.72070615 61.0453215 9.95184255 61.0453215 10.1493916 61.0256669 10.5048548 60.986668 11.0181278L60.1935517 18.5117464 60.1935517 18.689478C60.1935517 18.985593 60.3205827 19.1337026 60.5753689 19.1337026 60.6533667 19.1337026 60.7708808 19.0994914 60.9278075 19.0301302 61.0844239 18.9610819 61.1922141 18.9263491 61.2509711 18.9263491 61.4272421 18.9263491 61.5153777 19.0647586 61.5153777 19.3410561M70.4890736 17.3714272C70.8121338 16.2161718 70.973819 14.621907 70.973819 12.5879024 70.973819 11.7192706 70.8608566 11.0825033 70.6359662 10.6774964 70.4105585 10.273011 70.0139487 10.0703511 69.4462401 10.0703511 68.7801548 10.0703511 68.2858925 10.6432852 67.9627289 11.7882146 67.6396688 12.9336655 67.478087 14.523341 67.478087 16.556824 67.478087 17.445482 67.5905322 18.0923666 67.8158364 18.496852 68.0408302 18.9018589 68.4474743 19.1041016 69.034941 19.1041016 69.6811647 19.1041016 70.16591 18.5264739 70.4890736 17.3714272M64.5111681 20.8515869C63.5905037 19.7066575 63.1304818 18.0080901 63.1304818 15.7571362 63.1304818 13.0719707 63.6886734 10.8751498 64.8049532 9.16698653 65.921233 7.45924045 67.6442204 6.60489805 69.9749498 6.60489805 71.7177986 6.60489805 73.0446934 7.17282558 73.9553237 8.30795051 74.8660574 9.44370126 75.3213208 11.1268319 75.3213208 13.3579683 75.3213208 16.0237336 74.7581638 18.2256653 73.6322635 19.9630333 72.5058461 21.7008185 70.7777899 22.5694503 68.4474743 22.5694503 66.7437278 22.5694503 65.4314188 21.9970378 64.5111681 20.8515869M89.8911568 19.3410561 89.8323998 19.8445247C89.8126417 19.9630124 89.7781944 20.1902877 89.729575 20.5257248 89.6804384 20.8617877 89.616716 21.1477854 89.5386147 21.3847608 89.4211007 21.7401197 89.107661 22.0266389 88.5986059 22.2436925 88.0891371 22.4607462 87.5310489 22.5694295 86.9242379 22.5694295 86.1017432 22.5694295 85.4357614 22.3228582 84.9267064 21.8290898 84.4172375 21.3356343 84.1629686 20.516129 84.1629686 19.3706781 84.1629686 19.2128683 84.1822095 18.916649 84.2216222 18.4821244L84.8973279 11.7289498 84.9267064 11.3142428C84.9267064 10.9394836 84.8532601 10.6626646 84.7063676 10.484933 84.559475 10.3073057 84.3098612 10.2184399 83.9573191 10.2184399 83.428506 10.2184399 82.9094167 10.5344767 82.4004651 11.1662374L81.3135638 21.4439004C81.2938057 21.7600415 81.1372928 21.9970169 80.8435077 22.1548267 80.5497226 22.3130538 80.1187689 22.3918022 79.5510603 22.3918022L78.522916 22.3918022C77.4065327 22.3918022 76.877823 22.0761826 76.9366835 21.4439004L77.9353458 11.9955472C78.0331018 10.9491838 78.0822384 10.05093 78.0822384 9.30026436 78.0822384 8.94480118 78.0721007 8.65880352 78.0529633 8.44133265 78.0331018 8.22417468 78.0331018 8.0465474 78.0529633 7.90813788 78.0918588 7.5526747 78.5325364 7.29129244 79.3747892 7.12326099 80.2166283 6.95575105 80.9412636 6.87147457 81.5485919 6.87147457 81.8225154 6.87147457 82.0332338 6.9455294 82.1801263 7.09363906 82.3270188 7.24174872 82.4004651 7.58240093 82.4004651 8.1154914 82.4004651 8.45145 82.3903275 8.73744766 82.3710866 8.97442311 82.8801416 8.30334034 83.491918 7.74062794 84.2070364 7.28618162 84.9216375 6.8321525 85.7000645 6.60498149 86.5423173 6.60498149 87.501567 6.60498149 88.2263058 6.8765854 88.71612 7.41948031 89.2054169 7.96279243 89.4504792 8.76717389 89.4504792 9.83335483 89.4504792 9.99168614 89.4308246 10.2878011 89.3917222 10.7219085L88.5692274 18.5117464 88.5692274 18.689478C88.5692274 18.985593 88.6963619 19.1337026 88.951148 19.1337026 89.0291459 19.1337026 89.1466599 19.0994914 89.3035867 19.0301302 89.4600996 18.9610819 89.5679932 18.9263491 89.6267502 18.9263491 89.8029178 18.9263491 89.8911568 19.0647586 89.8911568 19.3410561M96.8236155 13.6838096C98.586119 13.6838096 99.4673708 12.9039392 99.4673708 11.3438856 99.4673708 10.9292829 99.3595806 10.6136633 99.1443106 10.3960881 98.9285234 10.1790344 98.6251179 10.0703511 98.2335769 10.0703511 97.5873532 10.0703511 97.0630917 10.4011989 96.6620337 11.0625815 96.2604585 11.7243814 95.9909831 12.5981241 95.8542282 13.6838096L96.8236155 13.6838096ZM102.639939 13.6986206C102.169987 14.538152 101.523659 15.1846194 100.701061 15.6386485 99.8785664 16.0930948 98.9482815 16.3198486 97.9105168 16.3198486 97.0485059 16.3198486 96.3241809 16.2606047 95.7367142 16.142117 95.7560585 17.2677504 95.9666734 18.0428228 96.3683521 18.4673343 96.7695135 18.8921587 97.3326705 19.1041016 98.0574093 19.1041016 98.6447726 19.1041016 99.1538276 19.0152358 99.5848848 18.8375042 100.015321 18.6598769 100.455999 18.4330188 100.906814 18.1561997 101.239495 17.9193286 101.474523 17.8008409 101.611795 17.8008409 101.944579 17.8008409 102.111126 18.2747918 102.111126 19.2225893 102.111126 19.9140111 101.983578 20.4864236 101.729309 20.9404527 101.435524 21.4735432 100.82323 21.8785501 99.8933591 22.1547433 98.9629708 22.4311451 98.0670298 22.5694503 97.2054326 22.5694503 95.2271419 22.5694503 93.7538718 22.0168553 92.7844846 20.9108308 91.8150973 19.8052235 91.3303519 18.2451698 91.3303519 16.2309828 91.3303519 13.4075121 91.9275425 11.0973143 93.1223374 9.30028522 94.3166151 7.50367335 96.0988767 6.60489805 98.468605 6.60489805 100.270107 6.60489805 101.53328 7.04463771 102.258019 7.9229697 102.982344 8.80182321 103.34492 9.76443168 103.34492 10.8107951 103.34492 11.8970022 103.109995 12.8596106 102.639939 13.6986206L102.639939 13.6986206ZM115.888187 7.43425998C115.888187 7.51342564 115.848671 7.69105293 115.77057 7.96735045L108.720556 27.8119586C108.563525 28.2266656 108.005437 28.4340191 107.046084 28.4340191L106.458721 28.4340191C105.91015 28.4340191 105.498851 28.3793646 105.224927 28.2709942 104.950486 28.1623109 104.832972 28.0091947 104.872385 27.8119586 104.872385 27.6934708 104.921004 27.5157393 105.019278 27.2788681L106.723024 22.7175079 104.25554 8.11546011C104.196679 7.81924079 104.177025 7.60229143 104.196679 7.46388191 104.216024 7.24682825 104.353296 7.0787968 104.607978 6.96041338 104.862247 6.84192565 105.234548 6.78257749 105.724258 6.78257749L106.987431 6.78257749C107.437729 6.78257749 107.785202 6.82711469 108.030264 6.91587618 108.274809 7.00474197 108.407116 7.18758439 108.426771 7.46388191L108.867448 13.7727275C108.906447 14.2863134 108.945549 15.3919207 108.984962 17.0899667L109.102373 17.0899667 109.954349 13.7727275 111.77561 7.40463805C111.912365 6.98993101 112.451212 6.78257749 113.391221 6.78257749L114.243198 6.78257749C115.398476 6.78257749 115.946841 7.00015266 115.888187 7.43425998" transform="translate(58.108 14.283)"/></g></svg>