<?xml version="1.0" encoding="UTF-8"?>
<svg width="24px" height="24px" viewBox="0 0 24 24" version="1.1" xmlns="http://www.w3.org/2000/svg" xmlns:xlink="http://www.w3.org/1999/xlink">
    <title>Icons/Send/Filled</title>
    <g id="⭐️Symbols" stroke="none" stroke-width="1" fill="none" fill-rule="evenodd">
        <g id="PaperPlaneTilt">
            <rect id="Rectangle" x="0" y="0" width="24" height="24"></rect>
            <path d="M20.9752809,3.02471906 C20.591251,2.64100788 20.0299573,2.49456532 19.5074156,2.64175031 L2.03915625,7.56866438 C1.43729965,7.73840235 1.00389587,8.2637187 0.95159871,8.88686182 C0.899301553,9.51000495 1.23908536,10.1002109 1.80423187,10.3678894 L9.11050594,13.8287644 L14.105715,8.83355531 C14.3986274,8.54064292 14.8735323,8.54064293 15.1664447,8.83355533 C15.4593571,9.12646774 15.4593571,9.60137258 15.1664447,9.894285 L10.1712356,14.8894941 L13.6321106,22.1957681 C13.876886,22.7206489 14.4042812,23.0555237 14.9834288,23.0538076 C15.0263663,23.0538076 15.0696097,23.0520003 15.1131591,23.0483991 C15.7376919,22.9995407 16.2647179,22.5647203 16.4313356,21.9608437 L21.3582459,4.49258437 C21.5052923,3.97004201 21.3588696,3.40881914 20.9752809,3.02471906 Z" id="Path" fill="#FFF383" fill-rule="nonzero"></path>
        </g>
    </g>
</svg>