<svg xmlns="http://www.w3.org/2000/svg" width="24" height="24" viewBox="0 0 24 24"><g fill="none" fill-rule="evenodd"><rect width="24" height="24"/><path fill="#000" fill-rule="nonzero" d="M12,0 C5.383,0 0,5.383 0,12 C0,18.617 5.383,24 12,24 C18.617,24 24,18.617 24,12 C24,5.383 18.617,0 12,0 Z M5,12 C5,12.552 4.553,13 4,13 C3.447,13 3,12.552 3,12 C3,10.613 3.325,9.304 3.887,8.129 L5.413,9.655 C5.15,10.389 5,11.177 5,12 Z M13.414,13.414 C13.037,13.792 12.534,14 12,14 C11.466,14 10.963,13.792 10.586,13.414 C9.983,12.812 6.033,6.946 5.585,6.279 C5.452,6.081 5.478,5.816 5.647,5.647 C5.816,5.479 6.081,5.453 6.279,5.585 C6.946,6.033 12.812,9.983 13.414,10.586 C13.792,10.963 14,11.466 14,12 C14,12.534 13.792,13.037 13.414,13.414 Z M20,13 C19.447,13 19,12.552 19,12 C19,8.14 15.859,5 12,5 C11.177,5 10.39,5.15 9.655,5.413 L8.13,3.887 C9.304,3.324 10.613,3 12,3 C16.963,3 21,7.038 21,12 C21,12.552 20.553,13 20,13 Z"/></g></svg>