<?xml version="1.0" encoding="UTF-8"?>
<svg width="24px" height="24px" viewBox="0 0 24 24" version="1.1" xmlns="http://www.w3.org/2000/svg" xmlns:xlink="http://www.w3.org/1999/xlink">
    <title>Icons/Arrow/SwapButton</title>
    <g id="Icons/Arrow/SwapButton" stroke="none" stroke-width="1" fill="none" fill-rule="evenodd">
        <rect id="Area" x="0" y="0" width="24" height="24"></rect>
        <path d="M12,0 C18.627417,0 24,5.372583 24,12 C24,18.627417 18.627417,24 12,24 C5.372583,24 0,18.627417 0,12 C0,5.372583 5.372583,0 12,0 Z M8.50997173,6.90909091 C8.11345963,6.90909091 7.79202306,7.234702 7.79202306,7.63636364 L7.792,17.483 L6.23271467,15.8566703 C5.95631465,15.5686809 5.50177978,15.5621959 5.21748261,15.8421855 C4.93318545,16.1221752 4.92678355,16.5826131 5.20318357,16.8706025 L8.00230536,19.7869867 C8.02452906,19.8094991 8.04820295,19.8305424 8.07322451,19.8500844 C8.0816687,19.8566577 8.09022443,19.8630148 8.09856918,19.8688311 C8.11688106,19.8818236 8.13581916,19.8939723 8.15563932,19.9054949 C8.16930798,19.9133591 8.18317775,19.9207324 8.19682205,19.9273574 C8.21227816,19.9349583 8.22804395,19.9420142 8.24419272,19.9485509 C8.25742164,19.9538805 8.27077575,19.9587961 8.2836456,19.9631256 C8.3033295,19.9697437 8.3233915,19.9755221 8.34472971,19.9805871 C8.35631068,19.9833484 8.36794634,19.9858151 8.3788948,19.9879073 L8.43412561,19.9959568 L8.463,19.998 L8.44358256,19.9969319 L8.4636901,19.9984973 L8.49331826,19.9998056 L8.52561603,19.9998285 C8.54546326,19.9993932 8.56529602,19.9981295 8.58485505,19.9960916 C8.60450674,19.9940285 8.62392305,19.9911624 8.64309035,19.987466 C8.65345511,19.9854957 8.66378521,19.9832931 8.67416442,19.9808934 C8.69559482,19.9758145 8.71665586,19.9697632 8.73694711,19.9628818 C8.74969564,19.9585921 8.76234869,19.9539305 8.77487301,19.9488934 C8.79439977,19.9410367 8.81350561,19.9323372 8.83231528,19.9228227 C8.84200777,19.9178899 8.8516127,19.9127207 8.86112167,19.907315 L8.87233417,19.900706 C8.92551556,19.8691484 8.97433039,19.8308569 9.02473728,19.7796934 L11.8167599,16.8706025 C12.0931599,16.5826131 12.086758,16.1221752 11.8024609,15.8421855 L11.7209662,15.7729236 C11.4369932,15.5657014 11.0385015,15.5948618 10.7872288,15.8566703 L9.227,17.483 L9.2279204,7.63636364 C9.2279204,7.234702 8.90648384,6.90909091 8.50997173,6.90909091 Z M15.4900283,4 C15.4805875,4 15.4711893,4.00018459 15.4622761,4.00053991 C15.4474808,4.00111582 15.4326998,4.00215246 15.4181003,4.00360433 C15.3974394,4.00568623 15.3770363,4.00865541 15.3569096,4.01253404 C15.3465449,4.01450433 15.3362148,4.0167069 15.3258356,4.01910661 C15.3044052,4.02418548 15.2833441,4.03023679 15.2630529,4.03711819 C15.2503044,4.04140793 15.2376513,4.04606948 15.225127,4.05110657 C15.2056002,4.05896326 15.1864944,4.0676628 15.1676847,4.07717725 C15.1579922,4.08211005 15.1483873,4.08727931 15.1388783,4.09268504 L15.1276658,4.09929405 C15.0744844,4.13085157 15.0256696,4.16914309 14.9752627,4.22030662 L12.1832401,7.12939753 C11.9068401,7.41738688 11.913242,7.87782484 12.1975391,8.15781449 L12.2790338,8.22707636 C12.5630068,8.43429855 12.9614985,8.40513824 13.2127712,8.14332974 L14.772,6.518 L14.7720796,15.6363636 C14.7720796,16.0380253 15.0935162,16.3636364 15.4900283,16.3636364 C15.8865404,16.3636364 16.2079769,16.0380253 16.2079769,15.6363636 L16.207,6.519 L17.7672853,8.14332974 C18.0436854,8.43131909 18.4982202,8.43780413 18.7825174,8.15781449 C19.0668146,7.87782484 19.0732165,7.41738688 18.7968164,7.12939753 L15.9976946,4.21301325 C15.9754709,4.19050093 15.9517971,4.16945764 15.9267755,4.1499156 C15.9183313,4.14334231 15.9097756,4.13698517 15.9014308,4.13116887 C15.8831189,4.11817639 15.8641808,4.10602772 15.8443607,4.09450512 C15.830692,4.08664094 15.8168222,4.07926757 15.803178,4.0726426 C15.7877218,4.06504165 15.7719561,4.05798585 15.7558073,4.05144909 C15.7425784,4.04611948 15.7292243,4.04120395 15.7163544,4.03687442 C15.6966705,4.0302563 15.6766085,4.02447786 15.6552703,4.01941288 C15.6436893,4.01665162 15.6320537,4.01418493 15.6211052,4.01209266 L15.556,4.004 L15.5403598,4.0017775 L15.5187892,4.00057989 Z" id="Combined-Shape" fill="#000000"></path>
    </g>
</svg>