<svg xmlns="http://www.w3.org/2000/svg" width="24" height="24" viewBox="0 0 24 24"><g fill="none" fill-rule="evenodd"><rect width="24" height="24"/><path fill="#000" fill-rule="nonzero" d="M23,4 L4,4 L3,4 C2.449,4 2,3.551 2,3 C2,2.449 2.449,2 3,2 L18,2 L18,3 L20,3 L20,1 C20,0.448 19.552,0 19,0 L3,0 C1.343,0 0,1.343 0,3 L0,20 C0,22.209 1.791,24 4,24 L23,24 C23.552,24 24,23.552 24,23 L24,5 C24,4.448 23.552,4 23,4 Z M18,16 C16.895,16 16,15.105 16,14 C16,12.895 16.895,12 18,12 C19.105,12 20,12.895 20,14 C20,15.105 19.105,16 18,16 Z"/></g></svg>