<svg xmlns="http://www.w3.org/2000/svg" width="32" height="32" viewBox="0 0 32 32"><g fill="none" fill-rule="evenodd"><rect width="32" height="32"/><path fill="#000" d="M16,0 C24.836556,0 32,7.163444 32,16 C32,24.836556 24.836556,32 16,32 C7.163444,32 0,24.836556 0,16 C0,7.163444 7.163444,0 16,0 Z M16,4 C14.949385,4 13.9848762,4.57839874 13.4935287,5.50308307 L5.32467037,20.8802295 C4.86327019,21.7534698 4.89549606,22.8036711 5.40957702,23.6472323 C5.92364633,24.4907744 6.84426635,25.0041522 7.83518344,24.999946 L24.1651061,24.999946 C25.1512535,25.0060528 26.0736287,24.4934372 26.5890176,23.6495555 C27.1044181,22.8056546 27.1371794,21.7543156 26.6753142,20.8802201 L18.5065056,5.50316717 C18.0151134,4.57839874 17.0506046,4 16,4 Z M15.9999948,5.82582419 C16.3712578,5.82582419 16.7120946,6.03021793 16.8857263,6.35698158 L25.0535433,21.732163 C25.2144516,22.0366924 25.2029708,22.405122 25.0223546,22.7008573 C24.8417365,22.9965959 24.5184747,23.1762506 24.1708422,23.1741042 L7.83121629,23.1741042 C7.47995525,23.1755719 7.15730856,22.99565 6.97715281,22.7000304 C6.81951829,22.4413662 6.79116763,22.1272595 6.89486426,21.847767 L6.94644631,21.732163 L15.114308,6.35689748 C15.287895,6.03021793 15.6287318,5.82582419 15.9999948,5.82582419 Z M15.9981612,18.6094685 C15.2386508,18.6094685 14.6229459,19.2225555 14.6229459,19.9788366 C14.6229459,20.7351177 15.2386508,21.3482047 15.9981612,21.3482047 C16.7576716,21.3482047 17.3733764,20.7351177 17.3733764,19.9788366 C17.3733764,19.2225555 16.7576716,18.6094685 15.9981612,18.6094685 Z M15.9981612,10.3932596 C15.4918209,10.3932596 15.081351,10.8019842 15.081351,11.3061717 L15.081351,16.7836443 C15.081351,17.2878317 15.4918209,17.6965564 15.9981612,17.6965564 C16.5045014,17.6965564 16.9149713,17.2878317 16.9149713,16.7836443 L16.9149713,11.3061717 C16.9149713,10.8019842 16.5045014,10.3932596 15.9981612,10.3932596 Z"/></g></svg>