<svg xmlns="http://www.w3.org/2000/svg" width="32" height="32" viewBox="0 0 32 32"><g fill="none" fill-rule="evenodd"><rect width="32" height="32"/><path fill="#000" d="M16,0 C24.836556,0 32,7.163444 32,16 C32,24.836556 24.836556,32 16,32 C7.163444,32 0,24.836556 0,16 C0,7.163444 7.163444,0 16,0 Z M15.9981162,3 C14.8521758,3 13.800149,3.6335755 13.2642175,4.64647076 L4.35413043,21.4905311 C3.85086355,22.4470747 3.88601354,23.5974607 4.44674137,24.5214941 C5.00745647,25.4455065 6.01161204,26.0078583 7.09244331,26.0032509 L24.9041162,26.0032509 C25.979745,26.0099402 26.985815,25.4484233 27.5479694,24.5240389 C28.1101365,23.5996335 28.1458706,22.4480013 27.6420965,21.4905207 L18.7320636,4.64656288 C18.1960833,3.6335755 17.1440566,3 15.9981162,3 Z M15.9981162,5 C16.403067,5 16.7748307,5.22389202 16.9642175,5.58182753 L25.8731687,22.4237354 C26.0486777,22.7573155 26.0361551,23.1608917 25.8391501,23.4848389 C25.6421429,23.8087898 25.2895489,24.0055827 24.9103728,24.0032315 L7.08811619,24.0032315 C6.7049823,24.0048393 6.35305919,23.8077537 6.15655639,23.4839332 C5.98461838,23.2005935 5.95369522,22.8565224 6.06680111,22.5503675 L6.12306364,22.4237354 L15.0320636,5.5817354 C15.2214016,5.22389202 15.5931654,5 15.9981162,5 Z M15.9961162,19.0031491 C15.1676891,19.0031491 14.4961162,19.674722 14.4961162,20.5031491 C14.4961162,21.3315763 15.1676891,22.0031491 15.9961162,22.0031491 C16.8245433,22.0031491 17.4961162,21.3315763 17.4961162,20.5031491 C17.4961162,19.674722 16.8245433,19.0031491 15.9961162,19.0031491 Z M15.9961162,10.0031491 C15.4438314,10.0031491 14.9961162,10.4508644 14.9961162,11.0031491 L14.9961162,17.0031491 C14.9961162,17.5554339 15.4438314,18.0031491 15.9961162,18.0031491 C16.5484009,18.0031491 16.9961162,17.5554339 16.9961162,17.0031491 L16.9961162,11.0031491 C16.9961162,10.4508644 16.5484009,10.0031491 15.9961162,10.0031491 Z"/></g></svg>