<?xml version="1.0" encoding="UTF-8"?>
<svg width="32px" height="32px" viewBox="0 0 32 32" version="1.1" xmlns="http://www.w3.org/2000/svg" xmlns:xlink="http://www.w3.org/1999/xlink">
    <title>tc1</title>
    <g id="tc1" stroke="none" stroke-width="1" fill="none" fill-rule="evenodd">
        <rect id="Square-Area" x="0" y="0" width="32" height="32"></rect>
        <g id="Grupo-2" fill-rule="nonzero">
            <circle id="Oval" fill="#00A651" cx="16" cy="16" r="16"></circle>
            <circle id="Oval" fill="#FFFFFF" cx="16" cy="16" r="14.1886792"></circle>
            <path d="M16,4.72955975 C22.2244923,4.72955975 27.2704403,9.77550773 27.2704403,16 C27.2704403,22.2244923 22.2244923,27.2704403 16,27.2704403 C9.77550773,27.2704403 4.72955975,22.2244923 4.72955975,16 C4.72955975,9.77550773 9.77550773,4.72955975 16,4.72955975 Z M15.2188905,14.0006385 C14.8434451,13.9916887 14.4720185,14.0769612 14.1409075,14.2481229 C13.7030194,14.4744812 13.6710568,14.5079828 13.444136,14.9455797 C13.2744691,15.2727675 13.1904794,15.6351488 13.1995253,16.0009694 C13.189842,16.3658461 13.2727284,16.7274714 13.440959,17.0543137 C13.5980145,17.3478088 13.8415781,17.5897931 14.1409075,17.749725 C14.4743295,17.9229819 14.8488752,18.0090046 15.2273624,17.9992544 C15.533334,18.0045501 15.8361677,17.9389743 16.1105053,17.8080167 C16.3627923,17.6875518 16.5776021,17.5047932 16.7331504,17.2782769 C16.8897679,17.0456471 16.9816732,16.777966 17,16.501052 L15.925193,16.501052 C15.8953497,16.6805683 15.8044394,16.8453693 15.6668164,16.969432 C15.5290395,17.0888229 15.3488368,17.1522065 15.163827,17.1463525 C15.0379664,17.1508243 14.9130019,17.1242518 14.8007256,17.0691413 C14.6884493,17.0140307 14.5925645,16.9322 14.52212,16.8313723 C14.3577209,16.5844909 14.2773756,16.294141 14.2923331,16.0009694 C14.2784974,15.7065588 14.3607244,15.415383 14.5274139,15.1685206 C14.5979818,15.0678817 14.6939204,14.9862518 14.8061887,14.9313241 C14.918457,14.8763964 15.0433586,14.8499796 15.169122,14.8545626 C15.3540048,14.8483226 15.5342279,14.9113484 15.6721103,15.0304614 C15.8095515,15.1550768 15.9004038,15.3201318 15.9304869,15.4998636 L17,15.4998636 C16.9794681,15.2221342 16.8845961,14.9543168 16.7246784,14.7226393 C16.569542,14.4955206 16.354649,14.3123376 16.1020334,14.1918762 C15.8276957,14.0609186 15.5248621,13.9953428 15.2188905,14.0006385 Z M11.393031,15.0335486 C11.0951479,15.0335486 10.8007728,15.0956329 10.5300085,15.2155622 C10.2911452,15.33059 10.0929078,15.5113634 9.96030724,15.7350757 C9.82819215,15.9753749 9.7591094,16.2432961 9.7591094,16.5153682 C9.7591094,16.7874404 9.82819215,17.0553621 9.96030724,17.2956612 C10.0929078,17.5193736 10.2911452,17.700147 10.5300085,17.8151748 C10.8007728,17.9351041 11.0951479,17.9971879 11.393031,17.9971879 C11.6909141,17.9971879 11.9852881,17.9351041 12.2560524,17.8151748 C12.4944148,17.6998312 12.6922253,17.5191105 12.8246941,17.2956612 C12.9568092,17.0553621 13.0258925,16.7874404 13.0258925,16.5153682 C13.0258925,16.2432961 12.9568092,15.9753749 12.8246941,15.7350757 C12.6922253,15.5116265 12.4944148,15.3309058 12.2560524,15.2155622 C11.9852881,15.0956329 11.6909141,15.0335486 11.393031,15.0335486 Z M7.52802579,14.0343777 L6,14.0343777 L6,17.9634534 L7.52802579,17.9634534 C7.9022088,17.9704149 8.27184573,17.8833728 8.60071482,17.7108558 C8.90593922,17.5484916 9.15767909,17.306434 9.32713607,17.0123753 C9.4968934,16.6997157 9.58557648,16.3519507 9.58557648,15.9989155 C9.58557648,15.6458803 9.4968934,15.2981149 9.32713607,14.9854553 C9.15735863,14.6916308 8.90569801,14.4496505 8.60071482,14.2869758 C8.27165327,14.1149407 7.90214991,14.0279295 7.52802579,14.0343777 Z M11.392501,15.80679 C11.4770472,15.80679 11.5606337,15.824096 11.6377503,15.8575662 C11.7148669,15.8910363 11.7837623,15.9399106 11.8398958,16.0009684 C11.9545447,16.1477274 12.0122531,16.3286774 12.0029698,16.5123006 C12.0122531,16.6959237 11.9545447,16.8768737 11.8398958,17.0236327 C11.7837623,17.0846905 11.7148669,17.1335648 11.6377503,17.1670349 C11.5606337,17.2005051 11.4770472,17.2178111 11.392501,17.2178111 C11.3079547,17.2178111 11.2243682,17.2005051 11.1472516,17.1670349 C11.070135,17.1335648 11.0012396,17.0846905 10.9451061,17.0236327 C10.8403917,16.8722769 10.7845006,16.6943325 10.7845006,16.5123006 C10.7845006,16.3302686 10.8403917,16.1523242 10.9451061,16.0009684 C11.0012396,15.9399106 11.070135,15.8910363 11.1472516,15.8575662 C11.2243682,15.824096 11.3079547,15.80679 11.392501,15.80679 Z M7.62927731,14.8705071 C7.73013807,14.8768935 7.82930549,14.9005084 7.92209033,14.9405119 C8.04580343,14.9938498 8.1546326,15.0747983 8.23962164,15.1766941 C8.41866243,15.4132924 8.50801941,15.7021513 8.49270484,15.9948251 C8.50810629,16.287509 8.41874082,16.576396 8.23962164,16.8129567 C8.1546326,16.9148525 8.04580343,16.9957999 7.92209033,17.0491378 C7.79837722,17.1024758 7.66331727,17.1266791 7.52802579,17.1197556 L7.06845305,17.1197556 L7.06845305,14.8698947 Z" id="Forma-combinada" fill="#00A651"></path>
            <path d="M15.0943396,22.9433962 C14.9937107,22.9433962 14.8930818,22.8427673 14.8930818,22.7421384 C14.8930818,22.5408805 14.9937107,22.4402516 15.0943396,22.2389937 L18.3144654,16.4025157 L16.7044025,11.3710692 C16.6037736,11.0691824 16.5031447,10.8679245 16.5031447,10.5660377 C16.5031447,10.3647799 16.8050314,10.2641509 17.408805,10.2641509 L18.5157233,10.2641509 C18.7169811,10.2641509 18.918239,10.2641509 19.2201258,10.3647799 C19.3207547,10.3647799 19.4213836,10.4654088 19.5220126,10.6666667 L20.327044,14.9937107 L22.1383648,10.7672956 C22.2389937,10.6666667 22.3396226,10.5660377 22.5408805,10.4654088 C22.7421384,10.3647799 23.0440252,10.3647799 23.245283,10.3647799 L24.0503145,10.3647799 C24.754717,10.3647799 25.0566038,10.4654088 25.0566038,10.6666667 C25.0566038,10.8679245 24.9559748,10.9685535 24.8553459,11.0691824 L21.836478,16.4025157 L23.7484277,22.2389937 C23.7484277,22.3396226 23.8490566,22.5408805 23.8490566,22.7421384 C23.8490566,22.8427673 23.7484277,22.9433962 23.6477987,23.0440252 C23.4465409,23.1446541 23.1446541,23.1446541 22.9433962,23.1446541 L21.9371069,23.1446541 C21.7358491,23.1446541 21.5345912,23.1446541 21.2327044,23.0440252 C21.0314465,22.9433962 20.9308176,22.8427673 20.9308176,22.6415094 L19.9245283,18.2138365 L17.8113208,22.7421384 C17.7106918,22.8427673 17.6100629,23.0440252 17.509434,23.0440252 C17.3081761,23.0440252 17.0062893,23.0440252 16.8050314,23.0440252 L15.7987421,23.0440252 C15.4968553,22.9433962 15.2955975,22.9433962 15.0943396,22.9433962 Z" id="Path" fill="#FFFFFF"></path>
        </g>
    </g>
</svg>