<svg xmlns="http://www.w3.org/2000/svg" width="24" height="24" viewBox="0 0 24 24"><g fill="none" fill-rule="evenodd"><rect width="24" height="24"/><path fill="#000" d="M12,0 C18.627417,0 24,5.372583 24,12 C24,18.627417 18.627417,24 12,24 C5.372583,24 0,18.627417 0,12 C0,5.372583 5.372583,0 12,0 Z M11.7076683,17.5105122 L11.711,17.513 C11.7345901,17.5340217 11.7524277,17.5479665 11.7707308,17.5609457 C11.7887275,17.5736135 11.8076656,17.5857622 11.8271749,17.5970114 L11.86907,17.6194049 L11.9139928,17.6394992 L11.9403966,17.6496347 L11.9670795,17.6586659 C11.9791365,17.6625343 11.9918672,17.6661933 12.0047365,17.6695003 C12.024237,17.6744317 12.0432312,17.6784629 12.0623304,17.6817098 L12.0839843,17.685089 L12.1061738,17.6878012 C12.1216322,17.6894214 12.1373363,17.6905758 12.1530572,17.69121 L12.1818182,17.6917899 L12.2569057,17.6878274 C12.2411621,17.689494 12.2253744,17.6906348 12.2095704,17.69125 L12.1818182,17.6917899 C12.2230327,17.6917899 12.2634361,17.688272 12.3027517,17.6815164 C12.3210919,17.6782997 12.3391093,17.67447 12.3569875,17.6699345 L12.3781505,17.6642556 L12.3990986,17.6578891 C12.4156988,17.6525407 12.432337,17.646522 12.4487806,17.6398628 L12.4761448,17.6280661 L12.5029939,17.6151372 C12.5131993,17.610032 12.523135,17.6046949 12.5329681,17.5991049 L12.5660246,17.5790135 L12.5981701,17.5570778 C12.6307344,17.5335568 12.6612776,17.50735 12.6894846,17.4787767 L15.4886063,14.5623924 C15.7650064,14.274403 15.7586045,13.8139651 15.4743073,13.5339754 C15.1900101,13.2539858 14.7354753,13.2604708 14.4590752,13.5484602 L12.8988464,15.1721536 L12.8997669,6.05542628 C12.8997669,5.65376464 12.5783303,5.32815355 12.1818182,5.32815355 C11.7853061,5.32815355 11.4638695,5.65376464 11.4638695,6.05542628 L11.4638464,15.1741536 L9.90456112,13.5484602 C9.65328837,13.2866517 9.25479674,13.2574914 8.97082368,13.4647136 L8.88932906,13.5339754 C8.6050319,13.8139651 8.59863,14.274403 8.87503002,14.5623924 L11.6670526,17.4714833 L11.7450194,17.5417504 L11.711,17.513 L11.674,17.478 L11.7076683,17.5105122 Z"/></g></svg>