<?xml version="1.0" encoding="UTF-8"?>
<svg width="32px" height="32px" viewBox="0 0 32 32" version="1.1" xmlns="http://www.w3.org/2000/svg" xmlns:xlink="http://www.w3.org/1999/xlink">
    <title>logo-app-small-dark</title>
    <g id="logo-app-small-dark" stroke="none" stroke-width="1" fill="none" fill-rule="evenodd">
        <rect id="Square-Area" x="0" y="0" width="32" height="32"></rect>
        <g id="Group-5" fill="#26252B">
            <path d="M16,0 C24.83072,0 32,7.16928 32,16 C32,24.83064 24.83072,32 16,32 C7.16936,32 0,24.83064 0,16 C0,7.16928 7.16936,0 16,0 Z M16,1.6 C8.052416,1.6 1.6,8.05248 1.6,16 C1.6,23.947584 8.052416,30.4 16,30.4 C23.94752,30.4 30.4,23.947584 30.4,16 C30.4,8.05248 23.94752,1.6 16,1.6 Z" id="Fill-1"></path>
            <path d="M18.77552,3.5216 C24.46464,4.82256 28.71456,9.91888 28.71456,16 C28.71456,22.438704 23.95008,27.773424 17.7576,28.668032 C18.04528,28.612688 18.32736,28.541056 18.59824,28.450224 C23.79776,26.70648 24.25648,20.320544 19.67568,15.8128 C14.777632,10.99328 11.900256,4.84496 18.5528,3.5488 C18.62992,3.53392 18.6984,3.52432 18.77552,3.5216 Z M14.404656,3.28832 C8.092704,4.64272 7.600048,11.52944 12.343024,16.196496 C15.52824,19.330912 16.92736,22.187696 17.25456,23.979392 C17.91152,27.576656 14.066256,28.436016 13.020176,28.470816 C7.34776,27.157584 3.11448,22.069264 3.11448,16 C3.11448,9.44624 8.050576,4.03632 14.404656,3.28832 Z" id="Combined-Shape"></path>
        </g>
    </g>
</svg>