<svg xmlns="http://www.w3.org/2000/svg" xmlns:xlink="http://www.w3.org/1999/xlink" width="48" height="48" viewBox="0 0 48 48"><defs><path id="a" d="M16,16 L16,0 L32,0 L32,32 L0,32 L0,16 L16,16 Z"/></defs><g fill="none" fill-rule="evenodd"><rect width="48" height="48"/><g transform="translate(8 8)"><circle cx="16" cy="16" r="16" fill="#26272F"/><mask id="b" fill="#fff"><use xlink:href="#a"/></mask><path fill="#69E453" fill-rule="nonzero" d="M16,0 C24.836556,0 32,7.163444 32,16 C32,24.836556 24.836556,32 16,32 C7.163444,32 0,24.836556 0,16 C0,7.163444 7.163444,0 16,0 Z M16,3 C8.82029825,3 3,8.82029825 3,16 C3,23.1797017 8.82029825,29 16,29 C23.1797017,29 29,23.1797017 29,16 C29,8.82029825 23.1797017,3 16,3 Z" mask="url(#b)"/><g fill="#69E453" fill-rule="nonzero" transform="translate(8 8)"><path d="M7.00000279 11C6.73480798 11 6.48049552 10.8945494 6.29300279 10.707L4.29300279 8.707C4.03304621 8.45592553 3.9287902 8.08412211 4.02030564 7.73449268 4.11182108 7.38486324 4.38486604 7.11181828 4.73449547 7.02030284 5.0841249 6.9287874 5.45592832 7.03304342 5.70700279 7.293L7.00000279 8.586 10.2930028 5.293C10.5440773 5.03304342 10.9158807 4.9287874 11.2655101 5.02030284 11.6151395 5.11181828 11.8881845 5.38486324 11.9796999 5.73449268 12.0712154 6.08412211 11.9669594 6.45592553 11.7070028 6.707L7.70700279 10.707C7.51951006 10.8945494 7.26519761 11 7.00000279 11ZM2.40700279 4.789C2.7217601 4.789 3.01814841 4.64080584 3.20700279 4.389 3.51963907 3.97523987 3.88431115 3.60350962 4.29200279 3.283 4.72609861 2.94141188 4.80109091 2.31259581 4.45950279 1.8785 4.11791468 1.44440419 3.48909861 1.36941188 3.05500279 1.711 2.51185055 2.13912114 2.02588184 2.63517219 1.60900279 3.187 1.38173956 3.49001765 1.34518359 3.89542957 1.5145756 4.2342136 1.68396762 4.57299762 2.03023073 4.787 2.40899703 4.787L2.40700279 4.789ZM2.05200279 8.791C2.01753766 8.52873966 2.00016766 8.26451523 2 8 1.99976751 7.74556958 2.01580021 7.49138441 2.04800279 7.239 2.11814296 6.69113353 1.73086927 6.19014016 1.18300279 6.12.635136321 6.04985984.134142956 6.43713353.0640027933 6.985-.0229763658 7.67102899-.0212958937 8.36540005.0690027933 9.051.134191675 9.54820206.557546008 9.92024072 1.05900279 9.921 1.10282358 9.921 1.1465924 9.91798324 1.19000279 9.912 1.73756963 9.84043834 2.12347821 9.3385781 2.05200279 8.791ZM3.22400279 11.633C3.01106223 11.339197 2.65567814 11.1837956 2.2953973 11.2269419 1.93511646 11.2700882 1.62647664 11.5050114 1.48893288 11.8407876 1.35138911 12.1765637 1.40652572 12.5605004 1.63300279 12.844 2.05161851 13.3942424 2.53967008 13.8880081 3.08500279 14.313 3.52075546 14.6526551 4.14934767 14.5747527 4.48900279 14.139 4.82865791 13.7032473 4.75075546 13.0746551 4.31500279 12.735 3.90513096 12.4164822 3.53839292 12.0460465 3.22400279 11.633L3.22400279 11.633Z"/><path d="M8.00000279,0 C7.61960598,0.000261747565 7.23968841,0.0269929748 6.86300279,0.08 C6.34415469,0.153901659 5.97038006,0.615842525 6.00637506,1.1386897 C6.04237007,1.66153687 6.47592228,2.06789795 7.00000279,2.07 C7.04714605,2.06999188 7.09424109,2.06698582 7.14100279,2.061 C7.42558468,2.0208617 7.71260463,2.00047961 8.00000279,2 C11.3137113,2 14.0000028,4.6862915 14.0000028,8 C14.0000028,11.3137085 11.3137113,14 8.00000279,14 C7.71260463,13.9995204 7.42558468,13.9791383 7.14100279,13.939 C6.78713123,13.8893401 6.43364716,14.0322407 6.21370463,14.3138725 C5.9937621,14.5955043 5.9407756,14.9730807 6.07470463,15.3043725 C6.20863366,15.6356642 6.50913123,15.8703401 6.86300279,15.92 C7.23968841,15.973007 7.61960598,15.9997383 8.00000279,16 C12.4182807,16 16.0000027,12.418278 16.0000027,8 C16.0000027,3.58172205 12.4182807,0 8.00000279,0 Z"/></g></g></g></svg>