<svg xmlns="http://www.w3.org/2000/svg" width="32" height="32" viewBox="0 0 32 32"><defs><linearGradient id="a" x1="0%" x2="100%" y1="50%" y2="50%"><stop offset="0%" stop-color="#716B94"/><stop offset="100%" stop-color="#37367B"/></linearGradient><linearGradient id="b" x1="0%" x2="100%" y1="50%" y2="50%"><stop offset="0%" stop-color="#716B94"/><stop offset="100%" stop-color="#37367B"/></linearGradient></defs><g fill="none" fill-rule="evenodd"><rect width="32" height="32"/><g stroke="#14044D" stroke-linecap="round" stroke-linejoin="round" stroke-width=".1" transform="translate(6)"><line x1="10.032" x2="10.032" y1="23.973" y2="22.08"/><polygon fill="#14044D" fill-opacity=".796" points="9.991 13.779 20 18.166 9.991 23.973"/><polygon fill="url(#a)" fill-opacity=".796" points="9.991 13.779 9.991 23.973 0 18.184"/><polygon fill="#37367B" fill-opacity=".797" fill-rule="nonzero" points="9.991 23.973 9.991 32 19.981 18.166"/><polygon fill="#716B94" fill-opacity=".801" fill-rule="nonzero" points="0 18.184 9.991 32 9.991 23.973"/><polygon fill="url(#b)" fill-opacity=".816" points="9.991 13.779 19.981 18.166 9.991 23.973 0 18.184"/><polygon fill="#37367B" fill-opacity=".919" points="9.991 11.886 19.981 16.291 9.991 22.061 0 16.291"/><g fill-rule="nonzero"><polygon fill="#37367B" fill-opacity=".799" points="19.981 16.291 9.991 0 9.991 22.08"/><polygon fill="#716B94" fill-opacity=".801" points="9.991 0 0 16.291 9.991 22.08"/></g></g></g></svg>