<svg xmlns="http://www.w3.org/2000/svg" width="32" height="32" viewBox="0 0 32 32"><defs><linearGradient id="a" x1="0%" x2="100%" y1="50%" y2="50%"><stop offset="0%" stop-color="#716B94"/><stop offset="100%" stop-color="#37367B"/></linearGradient><linearGradient id="b" x1="0%" x2="100%" y1="50%" y2="50%"><stop offset="0%" stop-color="#716B94"/><stop offset="100%" stop-color="#37367B"/></linearGradient></defs><g fill="none" fill-rule="evenodd"><path fill="#5F5E96" d="M16,0 C24.83072,0 32,7.16928 32,16 C32,24.83064 24.83072,32 16,32 C7.16936,32 0,24.83064 0,16 C0,7.16928 7.16936,0 16,0 Z"/><path fill="#FFF" d="M16,1.6 C23.94752,1.6 30.4,8.05248 30.4,16 C30.4,23.947584 23.94752,30.4 16,30.4 C8.052416,30.4 1.6,23.947584 1.6,16 C1.6,8.05248 8.052416,1.6 16,1.6 Z"/><rect width="32" height="32"/><g stroke="#14044D" stroke-linecap="round" stroke-linejoin="round" stroke-width=".1" transform="translate(9 4)"><line x1="7.538" x2="7.538" y1="17.98" y2="16.56"/><polygon fill="#14044D" fill-opacity=".796" points="7.493 10.334 15 13.625 7.493 17.98"/><polygon fill="url(#a)" fill-opacity=".796" points="7.493 10.334 7.493 17.98 0 13.638"/><polygon fill="#37367B" fill-opacity=".797" fill-rule="nonzero" points="7.493 17.98 7.493 24 14.986 13.625"/><polygon fill="#716B94" fill-opacity=".801" fill-rule="nonzero" points="0 13.638 7.493 24 7.493 17.98"/><polygon fill="url(#b)" fill-opacity=".816" points="7.493 10.334 14.986 13.625 7.493 17.98 0 13.638"/><polygon fill="#37367B" fill-opacity=".919" points="7.493 8.915 14.986 12.218 7.493 16.546 0 12.218"/><g fill-rule="nonzero"><polygon fill="#37367B" fill-opacity=".799" points="14.986 12.218 7.493 0 7.493 16.56"/><polygon fill="#716B94" fill-opacity=".801" points="7.493 0 0 12.218 7.493 16.56"/></g></g></g></svg>