<svg xmlns="http://www.w3.org/2000/svg" width="32" height="32" viewBox="0 0 32 32"><g fill="none" fill-rule="evenodd"><rect width="32" height="32"/><g fill-rule="nonzero"><circle cx="16" cy="16" r="16" fill="#FF9415"/><circle cx="16" cy="16" r="14.189" fill="#FFF"/><circle cx="16" cy="16" r="11.27" fill="#FF9415"/><path fill="#FFF" d="M6.13836478,17.408805 C6.13836478,17.3081761 6.13836478,17.3081761 6.13836478,17.2075472 L6.5408805,13.3836478 C6.5408805,13.2830189 6.5408805,13.2830189 6.64150943,13.1823899 C6.64150943,13.1823899 6.74213836,13.081761 6.8427673,13.081761 L7.8490566,13.081761 C8.25157233,13.081761 8.55345912,13.081761 8.85534591,13.2830189 C8.95597484,13.5849057 9.05660377,13.7861635 9.05660377,14.0880503 C9.05660377,14.2893082 9.05660377,14.591195 8.85534591,14.7924528 C8.75471698,14.9937107 8.55345912,15.0943396 8.35220126,15.1949686 L8.35220126,15.1949686 C8.55345912,15.1949686 8.65408805,15.3962264 8.75471698,15.4968553 C8.85534591,15.6981132 8.95597484,15.8993711 8.85534591,16.1006289 C8.85534591,16.5031447 8.75471698,16.8050314 8.45283019,17.1069182 C8.1509434,17.3081761 7.74842767,17.408805 7.34591195,17.408805 L6.23899371,17.408805 C6.23899371,17.408805 6.13836478,17.408805 6.13836478,17.408805 Z M7.44654088,16.7044025 C7.54716981,16.7044025 7.74842767,16.7044025 7.8490566,16.6037736 C7.94968553,16.5031447 7.94968553,16.3018868 7.94968553,16.1006289 C7.94968553,16 7.94968553,15.8993711 7.8490566,15.7987421 C7.74842767,15.6981132 7.64779874,15.6981132 7.54716981,15.6981132 L7.14465409,15.6981132 L7.04402516,16.7044025 L7.44654088,16.7044025 Z M7.64779874,14.8930818 C7.74842767,14.8930818 7.94968553,14.8930818 7.94968553,14.7924528 C8.05031447,14.591195 8.05031447,14.490566 8.05031447,14.2893082 C8.05031447,14.1886792 8.05031447,14.0880503 7.94968553,13.9874214 C7.94968553,13.8867925 7.74842767,13.8867925 7.64779874,13.8867925 L7.34591195,13.8867925 L7.24528302,14.8930818 L7.64779874,14.8930818 Z"/><path fill="#FFF" d="M7.14465409 13.6855346 7.14465409 13.6855346C7.04402516 13.6855346 6.94339623 13.5849057 6.94339623 13.4842767 6.94339623 13.4842767 6.94339623 13.4842767 6.94339623 13.4842767L6.94339623 12.7798742C6.94339623 12.6792453 7.04402516 12.5786164 7.14465409 12.5786164 7.24528302 12.5786164 7.34591195 12.6792453 7.34591195 12.7798742L7.34591195 13.4842767C7.34591195 13.5849057 7.24528302 13.6855346 7.14465409 13.6855346 7.14465409 13.6855346 7.14465409 13.6855346 7.14465409 13.6855346ZM7.94968553 13.6855346 7.94968553 13.6855346C7.8490566 13.6855346 7.74842767 13.5849057 7.74842767 13.4842767 7.74842767 13.4842767 7.74842767 13.4842767 7.74842767 13.4842767L7.8490566 12.7798742C7.8490566 12.6792453 7.94968553 12.5786164 8.05031447 12.5786164 8.1509434 12.5786164 8.25157233 12.6792453 8.25157233 12.7798742 8.25157233 12.7798742 8.25157233 12.7798742 8.25157233 12.7798742L8.25157233 13.4842767C8.1509434 13.5849057 8.05031447 13.6855346 7.94968553 13.6855346 7.94968553 13.6855346 7.94968553 13.6855346 7.94968553 13.6855346ZM6.74213836 18.0125786 6.74213836 18.0125786C6.64150943 18.0125786 6.5408805 17.9119497 6.5408805 17.8113208 6.5408805 17.8113208 6.5408805 17.8113208 6.5408805 17.8113208L6.5408805 17.1069182C6.5408805 17.0062893 6.64150943 16.9056604 6.74213836 16.9056604 6.8427673 16.9056604 6.94339623 17.0062893 6.94339623 17.1069182L6.94339623 17.9119497C6.94339623 18.0125786 6.8427673 18.0125786 6.74213836 18.0125786ZM7.54716981 18.0125786 7.54716981 18.0125786C7.44654088 18.0125786 7.34591195 17.9119497 7.34591195 17.8113208 7.34591195 17.8113208 7.34591195 17.8113208 7.34591195 17.8113208L7.34591195 17.1069182C7.34591195 17.0062893 7.44654088 16.9056604 7.54716981 16.9056604 7.64779874 16.9056604 7.74842767 17.0062893 7.74842767 17.1069182 7.74842767 17.1069182 7.74842767 17.1069182 7.74842767 17.1069182L7.74842767 17.8113208C7.74842767 18.0125786 7.64779874 18.0125786 7.54716981 18.0125786ZM9.35849057 17.3081761 9.76100629 13.4842767C9.76100629 13.3836478 9.76100629 13.3836478 9.86163522 13.2830189 9.96226415 13.2830189 9.96226415 13.2830189 10.0628931 13.2830189L10.9685535 13.2830189C11.2704403 13.2830189 11.672956 13.3836478 11.8742138 13.5849057 12.0754717 13.7861635 12.2767296 14.1886792 12.1761006 14.490566 12.1761006 14.8930818 12.0754717 15.2955975 11.7735849 15.5974843 11.4716981 15.8993711 11.1698113 16 10.7672956 16L10.4654088 16 10.3647799 17.408805C10.3647799 17.509434 10.2641509 17.6100629 9.96226415 17.6100629L9.66037736 17.6100629C9.4591195 17.509434 9.35849057 17.408805 9.35849057 17.3081761ZM10.8679245 15.0943396C10.9685535 15.0943396 11.0691824 14.9937107 11.1698113 14.8930818 11.2704403 14.7924528 11.2704403 14.591195 11.2704403 14.490566 11.2704403 14.1886792 11.1698113 13.9874214 10.8679245 13.9874214L10.6666667 13.9874214 10.5660377 15.0943396 10.8679245 15.0943396ZM12.2767296 17.3081761 12.4779874 15.3962264C12.4779874 15.2955975 12.4779874 15.0943396 12.4779874 14.9937107 12.4779874 14.8930818 12.4779874 14.7924528 12.4779874 14.6918239L12.4779874 14.591195C12.4779874 14.490566 12.5786164 14.490566 12.6792453 14.3899371 12.8805031 14.3899371 12.9811321 14.2893082 13.1823899 14.2893082 13.2830189 14.2893082 13.2830189 14.2893082 13.2830189 14.3899371 13.2830189 14.490566 13.2830189 14.490566 13.2830189 14.591195 13.2830189 14.591195 13.2830189 14.6918239 13.2830189 14.6918239 13.3836478 14.591195 13.3836478 14.490566 13.4842767 14.3899371 13.5849057 14.2893082 13.6855346 14.2893082 13.7861635 14.2893082 13.8867925 14.2893082 13.9874214 14.2893082 13.9874214 14.3899371 13.9874214 14.490566 13.9874214 14.591195 13.9874214 14.591195 13.9874214 14.6918239 13.9874214 14.7924528 13.9874214 14.8930818 13.9874214 14.9937107 13.8867925 15.0943396 13.8867925 15.0943396 13.8867925 15.0943396 13.7861635 15.0943396 13.7861635 15.0943396 13.6855346 15.0943396 13.6855346 15.0943396 13.5849057 15.0943396 13.4842767 15.0943396 13.3836478 15.0943396 13.3836478 15.1949686 13.2830189 15.2955975 13.2830189 15.2955975 13.2830189 15.3962264L13.081761 17.3081761C13.081761 17.408805 12.9811321 17.509434 12.6792453 17.509434L12.4779874 17.509434C12.3773585 17.509434 12.2767296 17.408805 12.2767296 17.3081761ZM14.490566 17.2075472C14.2893082 16.9056604 14.1886792 16.5031447 14.1886792 16.2012579 14.1886792 15.6981132 14.2893082 15.1949686 14.591195 14.7924528 14.7924528 14.3899371 15.1949686 14.1886792 15.6981132 14.2893082 16 14.2893082 16.3018868 14.3899371 16.5031447 14.6918239 16.7044025 14.9937107 16.8050314 15.2955975 16.8050314 15.6981132 16.8050314 16.2012579 16.7044025 16.7044025 16.4025157 17.1069182 16.2012579 17.509434 15.6981132 17.7106918 15.2955975 17.6100629 14.9937107 17.509434 14.6918239 17.408805 14.490566 17.2075472ZM15.7987421 16.5031447C15.8993711 16.2012579 15.8993711 15.7987421 15.8993711 15.4968553 15.8993711 15.3962264 15.8993711 15.1949686 15.7987421 15.0943396 15.6981132 14.9937107 15.6981132 14.9937107 15.5974843 14.9937107 15.4968553 14.9937107 15.3962264 15.0943396 15.2955975 15.3962264 15.1949686 15.6981132 15.1949686 16.1006289 15.1949686 16.4025157 15.1949686 16.5031447 15.1949686 16.7044025 15.2955975 16.8050314 15.3962264 16.9056604 15.3962264 16.9056604 15.4968553 16.9056604 15.5974843 16.8050314 15.6981132 16.7044025 15.7987421 16.5031447Z"/><path fill="#FFF" d="M15.0943396,22.9433962 C14.9937107,22.9433962 14.8930818,22.8427673 14.8930818,22.7421384 C14.8930818,22.5408805 14.9937107,22.4402516 15.0943396,22.2389937 L18.3144654,16.4025157 L16.7044025,11.3710692 C16.6037736,11.0691824 16.5031447,10.8679245 16.5031447,10.5660377 C16.5031447,10.3647799 16.8050314,10.2641509 17.408805,10.2641509 L18.5157233,10.2641509 C18.7169811,10.2641509 18.918239,10.2641509 19.2201258,10.3647799 C19.3207547,10.3647799 19.4213836,10.4654088 19.5220126,10.6666667 L20.327044,14.9937107 L22.1383648,10.7672956 C22.2389937,10.6666667 22.3396226,10.5660377 22.5408805,10.4654088 C22.7421384,10.3647799 23.0440252,10.3647799 23.245283,10.3647799 L24.0503145,10.3647799 C24.754717,10.3647799 25.0566038,10.4654088 25.0566038,10.6666667 C25.0566038,10.8679245 24.9559748,10.9685535 24.8553459,11.0691824 L21.836478,16.4025157 L23.7484277,22.2389937 C23.7484277,22.3396226 23.8490566,22.5408805 23.8490566,22.7421384 C23.8490566,22.8427673 23.7484277,22.9433962 23.6477987,23.0440252 C23.4465409,23.1446541 23.1446541,23.1446541 22.9433962,23.1446541 L21.9371069,23.1446541 C21.7358491,23.1446541 21.5345912,23.1446541 21.2327044,23.0440252 C21.0314465,22.9433962 20.9308176,22.8427673 20.9308176,22.6415094 L19.9245283,18.2138365 L17.8113208,22.7421384 C17.7106918,22.8427673 17.6100629,23.0440252 17.509434,23.0440252 C17.3081761,23.0440252 17.0062893,23.0440252 16.8050314,23.0440252 L15.7987421,23.0440252 C15.4968553,22.9433962 15.2955975,22.9433962 15.0943396,22.9433962 Z"/></g></g></svg>