<svg xmlns="http://www.w3.org/2000/svg" width="32" height="32" viewBox="0 0 32 32"><g fill="none" fill-rule="evenodd"><rect width="32" height="32"/><g fill-rule="nonzero"><circle cx="16" cy="16" r="16" fill="#D4145A"/><circle cx="16" cy="16" r="14.189" fill="#FF0"/><circle cx="16" cy="16" r="11.27" fill="#0E4BA5"/><path fill="#FFF" d="M7.8490566 19.2201258C7.34591195 18.5157233 7.14465409 17.6100629 7.14465409 16.8050314 7.04402516 15.3962264 7.44654088 13.9874214 8.1509434 12.6792453 8.75471698 11.7735849 9.86163522 11.2704403 10.9685535 11.2704403 11.2704403 11.2704403 11.672956 11.2704403 11.9748428 11.3710692 12.1761006 11.4716981 12.3773585 11.672956 12.2767296 11.9748428 12.2767296 12.2767296 12.1761006 12.5786164 11.9748428 12.7798742 11.8742138 12.9811321 11.672956 13.081761 11.572327 13.081761 11.3710692 12.9811321 11.0691824 12.9811321 10.7672956 12.9811321 10.163522 12.9811321 9.66037736 13.3836478 9.4591195 13.9874214 9.05660377 14.7924528 8.95597484 15.6981132 8.95597484 16.6037736 8.95597484 17.1069182 9.05660377 17.6100629 9.35849057 18.0125786 9.55974843 18.3144654 9.96226415 18.5157233 10.3647799 18.5157233 10.6666667 18.5157233 10.8679245 18.5157233 11.1698113 18.4150943L11.2704403 18.4150943C11.3710692 18.4150943 11.4716981 18.5157233 11.572327 18.6163522 11.672956 18.8176101 11.672956 19.0188679 11.672956 19.2201258 11.672956 19.4213836 11.672956 19.6226415 11.572327 19.8238994 11.4716981 19.9245283 11.3710692 20.0251572 11.2704403 20.1257862 11.1698113 19.9245283 10.9685535 19.9245283 10.7672956 20.0251572 10.5660377 20.0251572 10.2641509 20.0251572 10.0628931 20.0251572 9.25786164 20.1257862 8.45283019 19.8238994 7.8490566 19.2201258ZM12.4779874 16.4025157C12.4779874 15.4968553 12.5786164 14.591195 12.8805031 13.7861635 13.081761 13.081761 13.5849057 12.3773585 14.0880503 11.9748428 14.6918239 11.4716981 15.3962264 11.2704403 16.2012579 11.2704403 18.0125786 11.2704403 18.918239 12.4779874 18.918239 14.7924528 18.918239 15.6981132 18.8176101 16.6037736 18.5157233 17.408805 18.3144654 18.1132075 17.8113208 18.8176101 17.3081761 19.3207547 16.7044025 19.8238994 16 20.0251572 15.1949686 20.0251572 13.3836478 20.0251572 12.4779874 18.8176101 12.4779874 16.4025157ZM16.7044025 17.3081761C17.0062893 16.5031447 17.1069182 15.5974843 17.1069182 14.7924528 17.1069182 14.2893082 17.0062893 13.7861635 16.9056604 13.2830189 16.8050314 12.9811321 16.5031447 12.7798742 16.1006289 12.8805031 15.4968553 12.8805031 14.9937107 13.3836478 14.7924528 13.9874214 14.490566 14.7924528 14.3899371 15.5974843 14.3899371 16.5031447 14.3899371 17.0062893 14.490566 17.509434 14.6918239 18.0125786 14.7924528 18.3144654 15.0943396 18.5157233 15.4968553 18.5157233 16 18.4150943 16.4025157 18.0125786 16.7044025 17.3081761ZM19.6226415 19.5220126 20.427673 11.8742138C20.427673 11.7735849 20.5283019 11.572327 20.5283019 11.4716981 20.6289308 11.3710692 20.7295597 11.3710692 20.9308176 11.3710692L22.6415094 11.3710692C23.3459119 11.3710692 23.9496855 11.572327 24.5534591 11.9748428 25.0566038 12.4779874 25.2578616 13.1823899 25.2578616 13.7861635 25.2578616 14.591195 25.0566038 15.2955975 24.4528302 15.8993711 23.9496855 16.4025157 23.1446541 16.7044025 22.4402516 16.7044025L21.7358491 16.7044025 21.4339623 19.5220126C21.4339623 19.8238994 21.1320755 19.9245283 20.6289308 19.9245283L20.2264151 19.9245283C19.8238994 19.9245283 19.6226415 19.8238994 19.6226415 19.5220126ZM22.6415094 15.0943396C22.9433962 15.0943396 23.1446541 14.9937107 23.245283 14.6918239 23.4465409 14.3899371 23.4465409 14.0880503 23.4465409 13.7861635 23.4465409 13.1823899 23.1446541 12.8805031 22.6415094 12.8805031L22.2389937 12.8805031 22.0377358 15.0943396 22.6415094 15.0943396Z"/></g></g></svg>