<svg xmlns="http://www.w3.org/2000/svg" width="17" height="17" viewBox="0 0 17 17"><g fill="none" fill-rule="evenodd" stroke="#000" stroke-linecap="round" stroke-linejoin="round" transform="translate(1 1)"><path d="M7.9845 0C12.1266356 0 15.4845 3.35786442 15.4845 7.5 15.4845 11.6421356 12.1266356 15 7.9845 15M.5155 8.122C.4985 7.917.4845 7.71.4845 7.5.4845 7.29.4985 7.083.5155 6.878M4.0585 1.118C4.411645.898575919 4.78261913.70924196 5.1675.552M1.2955 4.121C1.48305367 3.75029555 1.70149216 3.39604385 1.9485 3.062M1.9345 11.92C1.68877686 11.5839223 1.47136428 11.2280347 1.2845 10.856"/><path d="M.5155 6.878C.4985 7.083.4845 7.29.4845 7.5.4845 7.71.4985 7.917.5155 8.122M5.1675.552C4.78261913.70924196 4.411645.898575919 4.0585 1.118M1.9485 3.062C1.70149216 3.39604385 1.48305367 3.75029555 1.2955 4.121M4.0455 13.874C4.39959206 14.0947316 4.7715605 14.2853989 5.1575 14.444M1.2845 10.856C1.47136428 11.2280347 1.68877686 11.5839223 1.9345 11.92"/><polyline points="4.484 8 6.484 10 11.485 5"/></g></svg>