<?xml version="1.0" encoding="UTF-8"?>
<svg width="24px" height="24px" viewBox="0 0 24 24" version="1.1" xmlns="http://www.w3.org/2000/svg" xmlns:xlink="http://www.w3.org/1999/xlink">
    <title>Icons/Performance/Filled</title>
    <g id="⭐️Symbols" stroke="none" stroke-width="1" fill="none" fill-rule="evenodd">
        <g id="Gauge">
            <rect id="Rectangle" x="0" y="0" width="24" height="24"></rect>
            <path d="M20.1630253,13.5891722 C19.7629188,13.6963916 19.3516499,13.4589598 19.2444305,13.0588533 C19.137211,12.6587468 19.3746429,12.2474779 19.7747494,12.1402584 L21.9268341,11.5636134 C20.5473431,7.59602024 16.9396281,4.82950136 12.75,4.52650406 L12.75,6.75 C12.75,7.16421356 12.4142136,7.5 11.9999997,7.5 C11.5857864,7.5 11.25,7.16421356 11.25,6.75 L11.25,4.52760281 C7.0175175,4.83132938 3.46774312,7.68640125 2.1016875,11.5712587 L4.22525344,12.1402584 C4.48436744,12.2093618 4.68687055,12.4115516 4.75637501,12.6705583 C4.82587947,12.929565 4.75180826,13.2059736 4.56210236,13.3955178 C4.37239645,13.585062 4.09592484,13.6588975 3.8369775,13.5891722 L1.70526094,13.017975 C1.56857248,13.7055183 1.49999965,14.4048363 1.49999965,15.1058353 L1.49999965,17.25 C1.50094699,18.0780346 2.17196545,18.749053 2.99999965,18.75 L8.17716938,18.75 L15.5141147,9.18832406 C15.7663696,8.86001268 16.2369452,8.7982117 16.5654185,9.05025569 C16.8938919,9.30229967 16.9559951,9.77283544 16.7041622,10.1014706 L10.0678706,18.75 L20.9999997,18.75 C21.8280346,18.749053 22.499053,18.0780346 22.4999997,17.25 L22.4999997,15 C22.4999997,14.3332991 22.4374674,13.6680677 22.3128206,13.0131225 L20.1630253,13.5891722 Z" id="Path" fill="#FFF383" fill-rule="nonzero"></path>
        </g>
    </g>
</svg>