<svg xmlns="http://www.w3.org/2000/svg" width="32" height="32" viewBox="0 0 32 32"><g fill="none" fill-rule="evenodd"><rect width="32" height="32"/><path fill="#00A59B" d="M32,16 C32,24.83648 24.83648,32 16,32 C7.16352,32 0,24.83648 0,16 C0,7.16352 7.16352,0 16,0 C24.83648,0 32,7.16352 32,16"/><path fill="#04364F" d="M15.9999787,1.554048 C8.03453867,1.554048 1.554112,8.03447467 1.554112,15.9999147 C1.554112,23.965568 8.03453867,30.4459947 15.9999787,30.4459947 C23.9654187,30.4459947 30.4460587,23.965568 30.4460587,15.9999147 C30.4460587,8.03447467 23.9654187,1.554048 15.9999787,1.554048"/><polygon fill="#00A59B" points="2.2 22.784 30.446 22.784 30.446 22.152 2.2 22.152"/><path fill="#FFF" d="M1.18184533,16 C1.18184533,7.81610667 7.81608533,1.18186667 15.9999787,1.18186667 L15.9999787,1.18186667 C7.81629867,1.18186667 1.18184533,7.81610667 1.18184533,16 C1.18184533,24.1838933 7.81629867,30.8181333 15.9999787,30.8181333 L15.9999787,30.8181333 C7.81608533,30.8181333 1.18184533,24.1838933 1.18184533,16 M15.9999787,30.4458667 C8.03453867,30.4458667 1.554112,23.96544 1.554112,16 C1.554112,8.03456 8.03453867,1.55413333 15.9999787,1.55413333 C23.965632,1.55413333 30.4460587,8.03456 30.4460587,16 C30.4460587,23.96544 23.965632,30.4458667 15.9999787,30.4458667 M15.9999787,0.809813333 C7.62408533,0.809813333 0.809792,7.62410667 0.809792,16 C0.809792,24.3758933 7.62408533,31.1901867 15.9999787,31.1901867 C24.375872,31.1901867 31.1903787,24.3758933 31.1903787,16 C31.1903787,7.62410667 24.375872,0.809813333 15.9999787,0.809813333"/><polygon fill="#FFF" points="7.388 25.604 10.182 25.604 10.182 6.396 7.388 6.396"/><polygon fill="#FFF" points="21.569 6.396 16.114 18.854 13.14 12.198 13.14 18.769 14.748 25.604 17.343 25.604 21.798 11.379 21.798 25.604 24.612 25.604 24.612 6.396"/></g></svg>