<svg xmlns="http://www.w3.org/2000/svg" xmlns:xlink="http://www.w3.org/1999/xlink" width="108" height="42" viewBox="0 0 108 42"><defs><polygon id="a" points="0 0 108 0 108 42 0 42"/></defs><g fill="none" fill-rule="evenodd"><mask id="b" fill="#fff"><use xlink:href="#a"/></mask><text fill="#04364F" font-family="Sora-Bold, Sora" font-size="15.802" font-weight="bold" mask="url(#b)">
                    <tspan x="45.414" y="16.519">MONEY</tspan>
                </text><text fill="#04364F" font-family="Sora-Bold, Sora" font-size="11.287" font-weight="bold" letter-spacing="-.001" mask="url(#b)">
                    <tspan x="46.063" y="28.386">ON CHAIN</tspan>
                </text><path fill="#00A59B" d="M42.1308866,21 C42.1308866,32.59788 32.6994663,42 21.0654433,42 C9.43142028,42 0,32.59788 0,21 C0,9.40212 9.43142028,0 21.0654433,0 C32.6994663,0 42.1308866,9.40212 42.1308866,21" mask="url(#b)"/><path fill="#04364F" d="M21.0654152,2.039688 C10.5781949,2.039688 2.04612864,10.545248 2.04612864,20.999888 C2.04612864,31.454808 10.5781949,39.960368 21.0654152,39.960368 C31.5526355,39.960368 40.0849827,31.454808 40.0849827,20.999888 C40.0849827,10.545248 31.5526355,2.039688 21.0654152,2.039688" mask="url(#b)"/><polygon fill="#00A59B" points="2.897 29.904 40.085 29.904 40.085 29.075 2.897 29.075" mask="url(#b)"/><path fill="#FFF" d="M21.0654152,40.4488 C10.2905814,40.4488 1.55600599,31.74136 1.55600599,21 C1.55600599,10.25864 10.2905814,1.5512 21.0654152,1.5512 C31.840249,1.5512 40.5748245,10.25864 40.5748245,21 C40.5748245,31.74136 31.840249,40.4488 21.0654152,40.4488 M21.0654152,1.06288 C10.0377961,1.06288 1.06616422,10.00664 1.06616422,21 C1.06616422,31.99336 10.0377961,40.93712 21.0654152,40.93712 C32.0930344,40.93712 41.0646662,31.99336 41.0646662,21 C41.0646662,10.00664 32.0930344,1.06288 21.0654152,1.06288" mask="url(#b)"/><path fill="#FFF" d="M21.0654152,39.960312 C10.5781949,39.960312 2.04612864,31.454752 2.04612864,20.999832 C2.04612864,10.545192 10.5781949,2.039632 21.0654152,2.039632 C31.5526355,2.039632 40.0849827,10.545192 40.0849827,20.999832 C40.0849827,31.454752 31.5526355,39.960312 21.0654152,39.960312 M21.0654152,1.551312 C10.2905814,1.551312 1.55600599,10.258752 1.55600599,21.000112 C1.55600599,31.741192 10.2905814,40.448912 21.0654152,40.448912 C31.840249,40.448912 40.5748245,31.741192 40.5748245,21.000112 C40.5748245,10.258752 31.840249,1.551312 21.0654152,1.551312" mask="url(#b)"/><polygon fill="#FFF" points="9.727 33.605 13.405 33.605 13.405 8.395 9.727 8.395" mask="url(#b)"/><polygon fill="#FFF" points="28.397 8.395 21.216 24.746 17.3 16.01 17.3 24.635 19.418 33.605 22.834 33.605 28.699 14.935 28.699 33.605 32.403 33.605 32.403 8.395" mask="url(#b)"/></g></svg>