<svg xmlns="http://www.w3.org/2000/svg" xmlns:xlink="http://www.w3.org/1999/xlink" width="108" height="42" viewBox="0 0 108 42"><defs><polygon id="a" points="0 0 108 0 108 42 0 42"/><polygon id="c" points="0 0 44 0 44 44 0 44"/></defs><g fill="none" fill-rule="evenodd"><mask id="b" fill="#fff"><use xlink:href="#a"/></mask><g fill="#FFF" fill-rule="nonzero" mask="url(#b)"><g transform="translate(46.71 4.637)"><polygon points="0 11.883 0 .348 3.571 .348 6.21 6.826 6.51 6.826 9.118 .348 12.752 .348 12.752 11.883 10.192 11.883 10.192 2.038 10.556 2.07 7.506 9.544 5.041 9.544 1.975 2.07 2.37 2.038 2.37 11.883"/><path d="M20.8740234,12.1830977 C19.8311124,12.1830977 18.9225156,12.0013784 18.1482331,11.6379396 C17.3739506,11.2745009 16.7339825,10.7951832 16.2283286,10.1999865 C15.7226747,9.60478974 15.346068,8.95955435 15.0985083,8.26428029 C14.8509486,7.56900623 14.7271687,6.90006831 14.7271687,6.25746653 L14.7271687,5.9098295 C14.7271687,5.19348653 14.8562158,4.4850444 15.1143099,3.78450312 C15.3724041,3.08396183 15.7595453,2.44926089 16.2757336,1.8804003 C16.791922,1.3115397 17.4345237,0.855924504 18.203539,0.513554703 C18.9725542,0.171184901 19.8627157,0 20.8740234,0 C21.8853312,0 22.7754927,0.171184901 23.5445079,0.513554703 C24.3135231,0.855924504 24.9561249,1.3115397 25.4723132,1.8804003 C25.9885016,2.44926089 26.3782764,3.08396183 26.6416378,3.78450312 C26.9049992,4.4850444 27.0366799,5.19348653 27.0366799,5.9098295 L27.0366799,6.25746653 C27.0366799,6.90006831 26.9102664,7.56900623 26.6574395,8.26428029 C26.4046126,8.95955435 26.0253722,9.60478974 25.5197183,10.1999865 C25.0140644,10.7951832 24.3740963,11.2745009 23.5998138,11.6379396 C22.8255313,12.0013784 21.9169345,12.1830977 20.8740234,12.1830977 Z M20.8740234,9.76544019 C21.4218151,9.76544019 21.9143009,9.67063009 22.3514808,9.48100989 C22.7886607,9.2913897 23.1626339,9.02802831 23.4734003,8.69092574 C23.7841668,8.35382316 24.0185584,7.96404831 24.1765752,7.52160118 C24.3345921,7.07915405 24.4136005,6.60510356 24.4136005,6.0994497 C24.4136005,5.56219247 24.3319584,5.06970668 24.1686744,4.62199232 C24.0053903,4.17427797 23.7683651,3.78450312 23.4575986,3.45266777 C23.1468322,3.12083242 22.7754927,2.86537188 22.34358,2.68628614 C21.9116673,2.50720039 21.4218151,2.41765752 20.8740234,2.41765752 C20.3262318,2.41765752 19.8363796,2.50720039 19.4044669,2.68628614 C18.9725542,2.86537188 18.6012147,3.12083242 18.2904483,3.45266777 C17.9796818,3.78450312 17.7452902,4.17427797 17.5872734,4.62199232 C17.4292565,5.06970668 17.3502481,5.56219247 17.3502481,6.0994497 C17.3502481,6.60510356 17.4292565,7.07915405 17.5872734,7.52160118 C17.7452902,7.96404831 17.9796818,8.35382316 18.2904483,8.69092574 C18.6012147,9.02802831 18.9725542,9.2913897 19.4044669,9.48100989 C19.8363796,9.67063009 20.3262318,9.76544019 20.8740234,9.76544019 Z"/><polygon points="28.996 11.883 28.996 .348 33.247 .348 37.592 9.781 38.129 9.781 37.813 10.066 37.813 .348 40.247 .348 40.247 11.883 35.965 11.883 31.619 2.449 31.082 2.449 31.398 2.165 31.398 11.883"/><path d="M42.838363 11.8828657 42.838363.347637029 45.3666323.347637029 45.3666323 11.8828657 42.838363 11.8828657ZM45.0505987 11.8828657 45.0505987 9.73383682 50.0913356 9.73383682 50.0913356 11.8828657 45.0505987 11.8828657ZM45.0505987 7.09495574 45.0505987 4.94592683 49.7278969 4.94592683 49.7278969 7.09495574 45.0505987 7.09495574ZM45.0505987 2.49666594 45.0505987.347637029 49.9807238.347637029 49.9807238 2.49666594 45.0505987 2.49666594ZM54.4051951 7.5057995 51.0394366.347637029 53.6941194.347637029 56.1117769 5.70440762 55.6535281 5.56219247 56.9808695 5.56219247 56.4910173 5.70440762 58.6716496.347637029 61.1841172.347637029 58.0869873 7.5057995 54.4051951 7.5057995ZM54.9740557 11.8828657 54.9740557 7.14236079 57.5181267 7.14236079 57.5181267 11.8828657 54.9740557 11.8828657Z"/></g></g><g fill="#FFF" fill-rule="nonzero" mask="url(#b)"><g transform="translate(46.549 19.899)"><path d="M4.39061053,8.70221265 C3.64567404,8.70221265 2.99667634,8.57241311 2.44361743,8.31281403 C1.89055852,8.05321495 1.4334384,7.71084515 1.07225707,7.28570463 C0.711075742,6.8605641 0.442070898,6.39968168 0.265242539,5.90305735 C0.0884141796,5.40643302 0,4.92862022 0,4.46961895 L0,4.22130679 C0,3.70963324 0.0921764851,3.20360314 0.276529455,2.70321651 C0.460882425,2.20282988 0.737411881,1.74947206 1.10611782,1.34314307 C1.47482376,0.936814073 1.93382503,0.611374646 2.48312164,0.366824788 C3.03241824,0.122274929 3.66824788,0 4.39061053,0 C5.11297319,0 5.74880282,0.122274929 6.29809943,0.366824788 C6.84739603,0.611374646 7.30639731,0.936814073 7.67510325,1.34314307 C8.04380919,1.74947206 8.32221979,2.20282988 8.51033507,2.70321651 C8.69845035,3.20360314 8.79250798,3.70963324 8.79250798,4.22130679 L8.79250798,4.46961895 C8.79250798,4.92862022 8.70221265,5.40643302 8.52162199,5.90305735 C8.34103132,6.39968168 8.07014533,6.8605641 7.708964,7.28570463 C7.34778267,7.71084515 6.89066255,8.05321495 6.33760364,8.31281403 C5.78454473,8.57241311 5.13554703,8.70221265 4.39061053,8.70221265 Z M4.39061053,6.97531442 C4.78189031,6.97531442 5.13366587,6.90759292 5.44593723,6.77214992 C5.75820859,6.63670693 6.02533228,6.44859165 6.2473083,6.2078041 C6.46928433,5.96701654 6.63670693,5.68860594 6.74957609,5.37257227 C6.86244526,5.05653861 6.91887984,4.71793111 6.91887984,4.35674978 C6.91887984,3.97299462 6.8605641,3.62121906 6.74393263,3.30142309 C6.62730116,2.98162712 6.45799741,2.70321651 6.23602139,2.46619126 C6.01404536,2.22916602 5.74880282,2.0466942 5.44029377,1.91877581 C5.13178472,1.79085742 4.78189031,1.72689823 4.39061053,1.72689823 C3.99933076,1.72689823 3.64943635,1.79085742 3.3409273,1.91877581 C3.03241824,2.0466942 2.7671757,2.22916602 2.54519968,2.46619126 C2.32322365,2.70321651 2.15580106,2.98162712 2.04293189,3.30142309 C1.93006273,3.62121906 1.87362815,3.97299462 1.87362815,4.35674978 C1.87362815,4.71793111 1.93006273,5.05653861 2.04293189,5.37257227 C2.15580106,5.68860594 2.32322365,5.96701654 2.54519968,6.2078041 C2.7671757,6.44859165 3.03241824,6.63670693 3.3409273,6.77214992 C3.64943635,6.90759292 3.99933076,6.97531442 4.39061053,6.97531442 Z"/><polygon points="10.191 8.488 10.191 .248 13.227 .248 16.331 6.987 16.715 6.987 16.489 7.19 16.489 .248 18.227 .248 18.227 8.488 15.168 8.488 12.064 1.749 11.681 1.749 11.906 1.546 11.906 8.488"/><path d="M26.2265614 8.70221265C25.481625 8.70221265 24.842033 8.57241311 24.3077856 8.31281403 23.7735382 8.05321495 23.3371108 7.71084515 22.9985033 7.28570463 22.6598958 6.8605641 22.4097025 6.40156283 22.2479234 5.90870081 22.0861442 5.41583879 22.0052547 4.93614483 22.0052547 4.46961895L22.0052547 4.22130679C22.0052547 3.70963324 22.0880254 3.20360314 22.2535668 2.70321651 22.4191083 2.20282988 22.6730639 1.74947206 23.0154337 1.34314307 23.3578035.936814073 23.7904686.611374646 24.3134291.366824788 24.8363896.122274929 25.4552888 0 26.1701269 0 26.9150634 0 27.5734668.139205304 28.1453373.417615912 28.7172077.69602652 29.1743278 1.08166284 29.5166976 1.57452486 29.8590674 2.06738688 30.0603508 2.64490078 30.1205476 3.30706655L28.2582064 3.30706655C28.2055341 2.97598366 28.0851404 2.69381075 27.8970251 2.46054781 27.7089098 2.22728486 27.4662411 2.0466942 27.169019 1.91877581 26.8717968 1.79085742 26.5388328 1.72689823 26.1701269 1.72689823 25.8014209 1.72689823 25.4741003 1.79085742 25.1881651 1.91877581 24.9022299 2.0466942 24.6633235 2.22728486 24.4714459 2.46054781 24.2795683 2.69381075 24.1328384 2.9703402 24.0312562 3.29013617 23.9296739 3.60993214 23.8788828 3.96547001 23.8788828 4.35674978 23.8788828 4.74050495 23.9296739 5.09228051 24.0312562 5.41207648 24.1328384 5.73187245 24.2833306 6.01028306 24.4827328 6.2473083 24.682135 6.48433355 24.928566 6.66492422 25.2220259 6.7890803 25.5154857 6.91323638 25.8503309 6.97531442 26.2265614 6.97531442 26.7984319 6.97531442 27.2818881 6.83610912 27.6769302 6.55769851 28.0719723 6.2792879 28.3108787 5.89553274 28.3936494 5.40643302L30.2447037 5.40643302C30.1769822 6.0084019 29.9756989 6.55957966 29.6408537 7.0599663 29.3060085 7.56035293 28.8507695 7.95915731 28.2751368 8.25637945 27.6995041 8.55360158 27.0166456 8.70221265 26.2265614 8.70221265ZM36.8009914 8.48776124 36.8009914.248312164 38.6520457.248312164 38.6520457 8.48776124 36.8009914 8.48776124ZM31.4735668 8.48776124 31.4735668.248312164 33.3246211.248312164 33.3246211 8.48776124 31.4735668 8.48776124ZM32.9973005 5.15812086 32.9973005 3.53280488 37.128312 3.53280488 37.128312 5.15812086 32.9973005 5.15812086ZM39.7228919 8.48776124 42.4430388.248312164 45.4340717.248312164 48.2558008 8.48776124 46.337025 8.48776124 44.0570678 1.52373373 44.6439875 1.76075898 43.1879753 1.76075898 43.7974688 1.52373373 41.5739462 8.48776124 39.7228919 8.48776124ZM41.7883976 6.44482934 42.3527434 4.90980869 45.5808016 4.90980869 46.1564343 6.44482934 41.7883976 6.44482934Z"/><polygon points="49.349 8.488 49.349 .248 51.2 .248 51.2 8.488"/><polygon points="53.072 8.488 53.072 .248 56.109 .248 59.213 6.987 59.596 6.987 59.371 7.19 59.371 .248 61.109 .248 61.109 8.488 58.05 8.488 54.946 1.749 54.562 1.749 54.788 1.546 54.788 8.488"/></g></g><g mask="url(#b)"><g transform="translate(-1 -1)"><mask id="d" fill="#fff"><use xlink:href="#c"/></mask><path fill="#FFF" d="M32.93848,29.8148 L32.93848,9.80068 L29.07308,9.80068 L22.1456,25.62488 L18.367,17.17112 L18.367,25.51736 L19.37864,29.8148 L14.6094,29.8148 L14.6094,9.80068 L11.06152,9.80068 L11.06152,29.8148 L5.40048,29.8148 C4.27908,27.44236 3.65048,24.79328 3.65048,21.99972 C3.65048,11.88192 11.8822,3.65048 22,3.65048 C32.1178,3.65048 40.34952,11.88192 40.34952,21.99972 C40.34952,24.79328 39.72092,27.44236 38.59952,29.8148 L32.93848,29.8148 Z M25.07916,29.8148 L29.36428,16.1298 L29.36428,29.8148 L25.07916,29.8148 Z M22,40.34952 C14.99496,40.34952 8.89488,36.4032 5.80424,30.61728 L11.06152,30.61728 L11.06152,34.19932 L14.6094,34.19932 L14.6094,30.61728 L19.56736,30.61728 L20.41044,34.19932 L23.70632,34.19932 L24.828,30.61728 L29.36428,30.61728 L29.36428,34.19932 L32.93848,34.19932 L32.93848,30.61728 L38.19576,30.61728 C35.10484,36.4032 29.00504,40.34952 22,40.34952 L22,40.34952 Z M22,1 C10.40212,1 1,10.40184 1,22 C1,33.59788 10.40212,43 22,43 C33.59788,43 43,33.59788 43,22 C43,10.40184 33.59788,1 22,1 L22,1 Z" mask="url(#d)"/></g></g></g></svg>