<svg xmlns="http://www.w3.org/2000/svg" xmlns:xlink="http://www.w3.org/1999/xlink" width="174" height="56" viewBox="0 0 174 56"><defs><polygon id="a" points="0 56 143 56 143 0 0 0"/></defs><g fill="none" fill-rule="evenodd"><rect width="174" height="56"/><g transform="translate(16)"><polygon fill="#FFF" points="65.306 16.764 68.834 25.378 72.09 25.378 75.639 16.668 75.639 28.472 79.02 28.472 79.02 13.21 74.219 13.21 70.775 21.782 70.378 21.782 66.892 13.21 62.175 13.21 62.175 28.472 65.306 28.472"/><path fill="#FFF" d="M91.7014133,25.2947893 C91.1236401,25.5456693 90.4731792,25.6711093 89.7500308,25.6711093 C89.025764,25.6711093 88.3790307,25.5456693 87.8087126,25.2947893 C87.237649,25.0439093 86.7471008,24.6955893 86.3366954,24.2490827 C85.9262901,23.8029493 85.616529,23.287376 85.4077851,22.7019893 C85.199414,22.1162293 85.0946693,21.4894027 85.0946693,20.8207627 C85.0946693,20.1095627 85.199414,19.4584693 85.4077851,18.865616 C85.616529,18.2735093 85.9262901,17.7575627 86.3366954,17.3185227 C86.7471008,16.8794827 87.237649,16.5419893 87.8087126,16.3049227 C88.3790307,16.067856 89.025764,15.949136 89.7500308,15.949136 C90.4731792,15.949136 91.1202853,16.067856 91.6913489,16.3049227 C92.261667,16.5419893 92.7518424,16.8794827 93.1626206,17.3185227 C93.573026,17.7575627 93.8861418,18.2735093 94.1019681,18.865616 C94.3177943,19.4584693 94.4258938,20.1095627 94.4258938,20.8207627 C94.4258938,21.4894027 94.3211491,22.1162293 94.112778,22.7019893 C93.9036614,23.287376 93.5939003,23.8029493 93.1838677,24.2490827 C92.7730896,24.6955893 92.2788139,25.0439093 91.7014133,25.2947893 M95.887101,26.2456693 C96.5550815,25.4586827 97.0556941,24.6041227 97.390057,23.684976 C97.7236745,22.7647093 97.8906696,21.8802827 97.8906696,21.0298293 L97.8906696,20.5698827 C97.8906696,19.6219893 97.7165921,18.6849227 97.3688099,17.7575627 C97.0210277,16.830576 96.5058776,15.9913227 95.8244779,15.2383093 C95.1419599,14.4856693 94.2931924,13.8834827 93.2778025,13.4298827 C92.261667,12.9770293 91.0859916,12.7500427 89.7500308,12.7500427 C88.4140699,12.7500427 87.237649,12.9770293 86.2218863,13.4298827 C85.2057509,13.8834827 84.3569833,14.4856693 83.6755836,15.2383093 C82.9934384,15.9913227 82.4820159,16.830576 82.1413161,17.7575627 C81.8002435,18.6849227 81.6295208,19.6219893 81.6295208,20.5698827 L81.6295208,21.0298293 C81.6295208,21.8802827 81.7931611,22.7647093 82.1200689,23.684976 C82.4469768,24.6041227 82.9446073,25.4586827 83.6125877,26.2456693 C84.2805682,27.0330293 85.1259809,27.6673227 86.1488259,28.148176 C87.1720438,28.6294027 88.3719483,28.8698293 89.7500308,28.8698293 C91.1273677,28.8698293 92.3280178,28.6294027 93.3504901,28.148176 C94.3733351,27.6673227 95.2191206,27.0330293 95.887101,26.2456693"/><polygon fill="#FFF" points="103.652 15.991 103.944 15.991 109.685 28.473 115.342 28.473 115.342 13.21 112.127 13.21 112.127 25.691 111.835 25.691 106.095 13.21 100.479 13.21 100.479 28.473 103.652 28.473"/><polygon fill="#FFF" points="122.105 28.472 128.346 28.472 128.346 25.629 122.105 25.629 122.105 22.137 127.866 22.137 127.866 19.294 122.105 19.294 122.105 16.054 128.2 16.054 128.2 13.21 122.105 13.21 121.687 13.21 118.765 13.21 118.765 28.472 121.687 28.472"/><polygon fill="#FFF" points="134.796 22.681 134.796 28.473 138.157 28.473 138.157 22.681 138.909 22.681 143 13.21 139.681 13.21 136.877 20.11 136.215 20.11 133.106 13.21 129.599 13.21 134.045 22.681"/><path fill="#FFF" d="M70.8830873,37.951648 C70.7339845,38.369408 70.5125669,38.7375147 70.2195799,39.0563413 C69.9262202,39.375168 69.5732194,39.6241813 69.1609502,39.803008 C68.7479355,39.982208 68.2831076,40.0721813 67.7668392,40.0721813 C67.2498254,40.0721813 66.7876067,39.982208 66.3801834,39.803008 C65.9723873,39.6241813 65.6219958,39.375168 65.3290088,39.0563413 C65.0352764,38.7375147 64.8146043,38.369408 64.6651287,37.951648 C64.5163987,37.5331413 64.4418473,37.0855147 64.4418473,36.607648 C64.4418473,36.0995413 64.5163987,35.634368 64.6651287,35.2113813 C64.8146043,34.7883947 65.0352764,34.4195413 65.3290088,34.1059413 C65.6219958,33.7923413 65.9723873,33.551168 66.3801834,33.382048 C66.7876067,33.212928 67.2498254,33.1281813 67.7668392,33.1281813 C68.2831076,33.1281813 68.745699,33.212928 69.1531223,33.382048 C69.5609184,33.551168 69.9113099,33.7923413 70.2046696,34.1059413 C70.4976566,34.4195413 70.720938,34.7883947 70.8752594,35.2113813 C71.0295807,35.634368 71.1067414,36.0995413 71.1067414,36.607648 C71.1067414,37.0855147 71.0318173,37.5331413 70.8830873,37.951648 M72.1053573,32.6200747 C71.6185367,32.0824747 71.0120612,31.6523947 70.2863034,31.3287147 C69.5609184,31.0050347 68.7207242,30.843008 67.7668392,30.843008 C66.8125815,30.843008 65.9723873,31.0050347 65.2470023,31.3287147 C64.5212445,31.6523947 63.914769,32.0824747 63.4279484,32.6200747 C62.9403823,33.158048 62.5754533,33.7576213 62.332043,34.4195413 C62.08826,35.0818347 61.9667412,35.750848 61.9667412,36.428448 L61.9667412,36.756608 C61.9667412,37.3640213 62.0834141,37.9960747 62.3171327,38.6531413 C62.5504786,39.310208 62.9060887,39.9202347 63.3832176,40.4824747 C63.8599737,41.0454613 64.46384,41.4983147 65.1944436,41.8417813 C65.9250472,42.185248 66.7827609,42.356608 67.7668392,42.356608 C68.7505448,42.356608 69.6082585,42.185248 70.3388621,41.8417813 C71.0694657,41.4983147 71.6729592,41.0454613 72.1500881,40.4824747 C72.6275897,39.9202347 72.9854364,39.310208 73.2236281,38.6531413 C73.4625653,37.9960747 73.5814748,37.3640213 73.5814748,36.756608 L73.5814748,36.428448 C73.5814748,35.750848 73.4573467,35.0818347 73.2087178,34.4195413 C72.9600889,33.7576213 72.5925506,33.158048 72.1053573,32.6200747"/><polygon fill="#FFF" points="83.676 40.087 83.467 40.087 79.367 31.172 75.356 31.172 75.356 42.073 77.622 42.073 77.622 33.158 77.831 33.158 81.931 42.073 85.972 42.073 85.972 31.172 83.676 31.172"/><path fill="#FFF" d="M98.3102075,39.5193867 C97.7883478,39.8874933 97.1494424,40.07192 96.3942369,40.07192 C95.8969791,40.07192 95.4548894,39.9897867 95.0672222,39.82552 C94.6795549,39.6616267 94.3537654,39.42232 94.090599,39.10872 C93.8270598,38.7954933 93.6280076,38.4270133 93.4941879,38.00328 C93.3599954,37.5806667 93.2928991,37.1154933 93.2928991,36.60776 C93.2928991,36.0899467 93.3599954,35.61992 93.4941879,35.1961867 C93.6280076,34.7732 93.822214,34.4073333 94.0756887,34.0985867 C94.3291634,33.7902133 94.6445158,33.55128 95.0224913,33.38216 C95.4000941,33.2126667 95.8328649,33.1282933 96.3196855,33.1282933 C96.806506,33.1282933 97.2463592,33.2126667 97.639245,33.38216 C98.0317581,33.55128 98.3523291,33.7902133 98.600958,34.0985867 C98.8492141,34.4073333 99.0083813,34.7806667 99.0780868,35.2185867 L101.538283,35.2185867 C101.458513,34.34312 101.192737,33.5789067 100.740583,32.92632 C100.288429,32.27448 99.6845624,31.7641333 98.9289841,31.3956533 C98.1734057,31.0275467 97.3037638,30.84312 96.3196855,30.84312 C95.3751194,30.84312 94.5576634,31.0047733 93.8669448,31.3288267 C93.1762262,31.6525067 92.604417,32.0825867 92.1518901,32.6201867 C91.7001087,33.15816 91.3642547,33.75736 91.1458191,34.4196533 C90.9270108,35.0815733 90.817793,35.75096 90.817793,36.42856 L90.817793,36.75672 C90.817793,37.3742133 90.9247743,38.0085067 91.138364,38.6610933 C91.3519537,39.3129333 91.6825891,39.9203467 92.1298975,40.4825867 C92.5772058,41.0455733 93.153488,41.4984267 93.8594897,41.8418933 C94.5651186,42.18536 95.4101585,42.35672 96.3942369,42.35672 C97.4379563,42.35672 98.3400281,42.1603467 99.1004523,41.7668533 C99.8608764,41.3737333 100.462133,40.8465867 100.904596,40.1842933 C101.346686,39.5223733 101.612834,38.7932533 101.702296,37.9961867 L99.2570102,37.9961867 C99.1474196,38.6435467 98.8320673,39.15128 98.3102075,39.5193867"/><polygon fill="#FFF" points="110.29 35.518 105.698 35.518 105.698 31.172 103.252 31.172 103.252 42.073 105.698 42.073 105.698 37.668 110.29 37.668 110.29 42.073 112.736 42.073 112.736 31.172 110.29 31.172"/><path fill="#FFF" d="M118.03192,37.3391573 L119.360053,33.1727573 L119.905396,33.1727573 L121.26745,37.3391573 L118.03192,37.3391573 Z M117.671091,31.1716907 L114.077342,42.073024 L116.523,42.073024 L117.384441,39.3697173 L121.93133,39.3697173 L122.815137,42.073024 L125.349512,42.073024 L121.621942,31.1716907 L117.671091,31.1716907 Z"/><mask id="b" fill="#fff"><use xlink:href="#a"/></mask><polygon fill="#FFF" points="126.721 42.073 129.167 42.073 129.167 31.172 126.721 31.172" mask="url(#b)"/><polygon fill="#FFF" points="139.887 40.087 139.678 40.087 135.578 31.172 131.567 31.172 131.567 42.073 133.833 42.073 133.833 33.158 134.042 33.158 138.142 42.073 142.183 42.073 142.183 31.172 139.887 31.172" mask="url(#b)"/><path fill="#00A59B" d="M55.9135412,28 C55.9135412,43.46384 43.3967359,56 27.9567706,56 C12.5168053,56 0,43.46384 0,28 C0,12.53616 12.5168053,0 27.9567706,0 C43.3967359,0 55.9135412,12.53616 55.9135412,28" mask="url(#b)"/><path fill="#04364F" d="M27.9567333,2.719584 C14.0387347,2.719584 2.71549704,14.0603307 2.71549704,27.9998507 C2.71549704,41.939744 14.0387347,53.2804907 27.9567333,53.2804907 C41.874732,53.2804907 53.1983424,41.939744 53.1983424,27.9998507 C53.1983424,14.0603307 41.874732,2.719584 27.9567333,2.719584" mask="url(#b)"/><polygon fill="#00A59B" points="3.845 39.872 53.198 39.872 53.198 38.767 3.845 38.767" mask="url(#b)"/><path fill="#FFF" d="M2.06503618,28 C2.06503618,13.6781867 13.6570316,2.06826667 27.9567333,2.06826667 L27.9567333,2.06826667 C13.6574043,2.06826667 2.06503618,13.6781867 2.06503618,28 C2.06503618,42.3218133 13.6574043,53.9317333 27.9567333,53.9317333 L27.9567333,53.9317333 C13.6570316,53.9317333 2.06503618,42.3218133 2.06503618,28 M27.9567333,53.2802667 C14.0387347,53.2802667 2.71549704,41.93952 2.71549704,28 C2.71549704,14.06048 14.0387347,2.71973333 27.9567333,2.71973333 C41.8751048,2.71973333 53.1983424,14.06048 53.1983424,28 C53.1983424,41.93952 41.8751048,53.2802667 27.9567333,53.2802667 M27.9567333,1.41717333 C13.3215503,1.41717333 1.41494807,13.3421867 1.41494807,28 C1.41494807,42.6578133 13.3215503,54.5828267 27.9567333,54.5828267 C42.5919164,54.5828267 54.4988914,42.6578133 54.4988914,28 C54.4988914,13.3421867 42.5919164,1.41717333 27.9567333,1.41717333" mask="url(#b)"/><polygon fill="#FFF" points="12.91 44.807 17.79 44.807 17.79 11.193 12.91 11.193" mask="url(#b)"/><polygon fill="#FFF" points="37.687 11.193 28.157 32.994 22.959 21.347 22.959 32.846 25.77 44.807 30.304 44.807 38.087 19.913 38.087 44.807 43.004 44.807 43.004 11.193" mask="url(#b)"/></g></g></svg>