<svg xmlns="http://www.w3.org/2000/svg" width="24" height="24" viewBox="0 0 24 24"><g fill="none" fill-rule="evenodd"><rect width="24" height="24"/><rect width="24" height="24"/><g stroke="#212121" stroke-width="2" transform="translate(1.474 1)"><circle cx="10.526" cy="11" r="3"/><path d="M18.526,11 C18.5248154,10.4239175 18.4617876,9.84962692 18.338,9.287 L21.052,7.232 L19.052,3.768 L15.909,5.094 C15.0578625,4.31369934 14.0476549,3.72722619 12.948,3.375 L12.526,0 L8.526,0 L8.104,3.375 C7.00434513,3.72722619 5.99413747,4.31369934 5.143,5.094 L2,3.768 L-2.22044605e-16,7.232 L2.714,9.287 C2.46339272,10.4152513 2.46339272,11.5847487 2.714,12.713 L-2.22044605e-16,14.768 L2,18.232 L5.143,16.906 C5.99413747,17.6863007 7.00434513,18.2727738 8.104,18.625 L8.526,22 L12.526,22 L12.948,18.625 C14.0476549,18.2727738 15.0578625,17.6863007 15.909,16.906 L19.052,18.232 L21.052,14.768 L18.338,12.713 C18.4617876,12.1503731 18.5248154,11.5760825 18.526,11 Z"/></g></g></svg>