<svg xmlns="http://www.w3.org/2000/svg" width="24" height="24" viewBox="0 0 24 24"><g fill="none" fill-rule="evenodd"><rect width="24" height="24"/><path fill="#000" fill-rule="nonzero" d="M0.396871367,9.79658486 L2.97387137,11.7485849 L11.9738714,7.74858486 L4.99687137,13.2475849 L4.99687137,19.9965849 C4.99730373,20.4164971 5.26002611,20.7914109 5.65457217,20.9351464 C6.04911824,21.0788819 6.49143528,20.9608181 6.76187137,20.6395849 L9.89187137,16.9205849 L16.3968714,21.7965849 C16.6711049,22.0028202 17.0319271,22.0540528 17.3527304,21.9323058 C17.6735336,21.8105589 17.9095148,21.5328354 17.9778714,21.1965849 L21.9778714,1.19658486 C22.0500307,0.83665687 21.9191842,0.466126524 21.6370068,0.231326529 C21.3548294,-0.00347346617 20.9666884,-0.0647929417 20.6258714,0.0715848627 L0.625871367,8.07158486 C0.291855532,8.20634329 0.0561136407,8.5103123 0.00871487678,8.86735539 C-0.0386838871,9.22439848 0.109584415,9.57934624 0.396871367,9.79658486 Z" transform="translate(1 1)"/></g></svg>