<svg xmlns="http://www.w3.org/2000/svg" width="16" height="16" viewBox="0 0 16 16"><g fill="#2CBF12"><path d="M8,0 C3.589,0 0,3.589 0,8 C0,12.411 3.589,16 8,16 C12.411,16 16,12.411 16,8 C16,3.589 12.411,0 8,0 Z M8,14 C4.691,14 2,11.309 2,8 C2,4.691 4.691,2 8,2 C11.309,2 14,4.691 14,8 C14,11.309 11.309,14 8,14 Z"/><path d="M7,11 C6.744,11 6.488,10.902 6.293,10.707 L4.293,8.707 C3.902,8.316 3.902,7.684 4.293,7.293 C4.684,6.902 5.316,6.902 5.707,7.293 L7,8.586 L10.293,5.293 C10.684,4.902 11.316,4.902 11.707,5.293 C12.098,5.684 12.098,6.316 11.707,6.707 L7.707,10.707 C7.512,10.902 7.256,11 7,11 Z"/></g></svg>