<svg width="13" height="16" viewBox="0 0 16 16" fill="none" xmlns="http://www.w3.org/2000/svg">
<path fill-rule="evenodd" clip-rule="evenodd" d="M0 8C0 3.6 3.6 0 8 0C12.4 0 16 3.6 16 8C16 12.4 12.4 16 8 16C3.6 16 0 12.4 0 8ZM2 8C2 11.3 4.7 14 8 14C11.3 14 14 11.3 14 8C14 4.7 11.3 2 8 2C4.7 2 2 4.7 2 8Z" fill="#E54A49"/>
<path d="M9.41388 7.99988L11.1819 6.23188C11.3769 6.03688 11.3769 5.71988 11.1819 5.52488L10.4749 4.81788C10.2799 4.62288 9.96288 4.62288 9.76788 4.81788L7.99988 6.58588L6.23188 4.81788C6.03688 4.62288 5.71988 4.62288 5.52488 4.81788L4.81788 5.52488C4.62288 5.71988 4.62288 6.03688 4.81788 6.23188L6.58588 7.99988L4.81788 9.76788C4.62288 9.96288 4.62288 10.2799 4.81788 10.4749L5.52488 11.1819C5.71988 11.3769 6.03688 11.3769 6.23188 11.1819L7.99988 9.41388L9.76788 11.1819C9.96288 11.3769 10.2799 11.3769 10.4749 11.1819L11.1819 10.4749C11.3769 10.2799 11.3769 9.96288 11.1819 9.76788L9.41388 7.99988Z" fill="#E54A49"/>
</svg>
