<svg xmlns="http://www.w3.org/2000/svg" width="32" height="32" viewBox="0 0 32 32"><g fill="none" fill-rule="evenodd"><rect width="32" height="32"/><path fill="#6D62BF" d="M16,0 C24.83072,0 32,7.16928 32,16 C32,24.83064 24.83072,32 16,32 C7.16936,32 0,24.83064 0,16 C0,7.16928 7.16936,0 16,0 Z"/><path fill="#FFF" d="M16,1.6 C23.94752,1.6 30.4,8.05248 30.4,16 C30.4,23.947584 23.94752,30.4 16,30.4 C8.052416,30.4 1.6,23.947584 1.6,16 C1.6,8.05248 8.052416,1.6 16,1.6 Z"/><path fill="#6D62BF" d="M15.91448,3.2 C22.97904,3.2 28.71456,8.93552 28.71456,16 C28.71456,23.064512 22.97904,28.8 15.91448,28.8 C8.849968,28.8 3.11448,23.064512 3.11448,16 C3.11448,8.93552 8.849968,3.2 15.91448,3.2 Z"/><polygon fill="#FFF" points="16 17.175 10.608 13.994 16 5.042 21.392 13.994"/><polygon fill="#FFF" points="8.889 24.371 8.889 19.018 12.621 19.018 12.621 20.07 10.181 20.07 10.181 21.167 12.429 21.167 12.429 22.219 10.181 22.219 10.181 23.319 12.621 23.319 12.621 24.371"/><polygon fill="#FFF" points="13.257 20.07 13.257 19.018 17.781 19.018 17.781 20.07 16.157 20.07 16.157 24.371 14.881 24.371 14.881 20.07"/><polygon fill="#FFF" points="18.417 24.371 18.417 19.018 19.709 19.018 19.709 21.167 21.819 21.167 21.819 19.018 23.111 19.018 23.111 24.371 21.819 24.371 21.819 22.219 19.709 22.219 19.709 24.371"/><polygon fill="#6D62BF" points="14.996 9.698 15.975 11.389 16.017 11.389 17.004 9.698 18.453 9.698 16.836 12.374 18.503 15.05 17.02 15.05 16.017 13.342 15.975 13.342 14.971 15.05 13.497 15.05 15.155 12.374 13.539 9.698"/></g></svg>