<svg xmlns="http://www.w3.org/2000/svg" width="32" height="32" viewBox="0 0 32 32"><g fill="none" fill-rule="evenodd"><rect width="32" height="32"/><path fill="#6FBF62" d="M16,0 C24.83072,0 32,7.16928 32,16 C32,24.83064 24.83072,32 16,32 C7.16936,32 0,24.83064 0,16 C0,7.16928 7.16936,0 16,0 Z"/><path fill="#FFF" d="M16,1.6 C23.94752,1.6 30.4,8.05248 30.4,16 C30.4,23.947584 23.94752,30.4 16,30.4 C8.052416,30.4 1.6,23.947584 1.6,16 C1.6,8.05248 8.052416,1.6 16,1.6 Z"/><path fill="#6FBF62" d="M15.91448,3.2 C22.97904,3.2 28.71456,8.93552 28.71456,16 C28.71456,23.064512 22.97904,28.8 15.91448,28.8 C8.849968,28.8 3.11448,23.064512 3.11448,16 C3.11448,8.93552 8.849968,3.2 15.91448,3.2 Z"/><polygon fill="#FFF" points="16 28.134 10.608 24.953 16 16 21.392 24.953"/><path fill="#FFF" d="M11.854784 8.94208 13.146944 8.94208 13.146944 12.39424C13.146944 12.7936 13.05208 13.14064 12.86232 13.43568 12.672576 13.73072 12.407824 13.9592 12.068048 14.12096 11.728272 14.28288 11.333088 14.36384 10.88248 14.36384 10.42912 14.36384 10.03256 14.28288 9.692784 14.12096 9.353008 13.9592 9.088944 13.73072 8.900592 13.43568 8.712224 13.14064 8.618048 12.7936 8.618048 12.39424L8.618048 8.94208 9.910208 8.94208 9.910208 12.28336C9.910208 12.468 9.950976 12.63264 10.032528 12.77712 10.11408 12.9216 10.228128 13.03456 10.374672 13.11632 10.521216 13.19808 10.69048 13.23888 10.88248 13.23888 11.075888 13.23888 11.2456 13.19808 11.391632 13.11632 11.537648 13.03456 11.651344 12.9216 11.73272 12.77712 11.814096 12.63264 11.854784 12.468 11.854784 12.28336L11.854784 8.94208ZM16.852 10.54784C16.83456 10.35552 16.75728 10.20576 16.62 10.0984 16.48272 9.99104 16.28752 9.93728 16.0344 9.93728 15.8672 9.93728 15.727904 9.95936 15.61656 10.0032 15.505216 10.0472 15.421584 10.10688 15.365648 10.18256 15.309712 10.25808 15.281056 10.34432 15.279664 10.44128 15.276896 10.52144 15.293184 10.59216 15.328544 10.65376 15.36392 10.7152 15.416096 10.76912 15.485104 10.81536 15.554112 10.86144 15.637392 10.90208 15.734976 10.93712 15.832544 10.97216 15.942144 11.00272 16.06368 11.0288L16.52368 11.13344C16.78864 11.19088 17.02256 11.2672 17.2256 11.36224 17.42848 11.45744 17.59952 11.57152 17.7384 11.70448 17.87728 11.83744 17.9824 11.99008 18.05376 12.16256 18.12528 12.33504 18.1616 12.528 18.16304 12.74128 18.1616 13.08064 18.07616 13.37136 17.90656 13.61312 17.73712 13.85504 17.49424 14.04064 17.17792 14.16992 16.86176 14.2992 16.48128 14.36384 16.03664 14.36384 15.587744 14.36384 15.196992 14.29632 14.864368 14.16144 14.531744 14.02656 14.273168 13.8224 14.08864 13.5488 13.904128 13.27536 13.809072 12.93008 13.803488 12.51344L15.041296 12.51344C15.051744 12.6848 15.098192 12.82832 15.180608 12.94384 15.26304 13.05936 15.375952 13.1464 15.519344 13.20512 15.662736 13.26384 15.829584 13.29328 16.01984 13.29328 16.19344 13.29328 16.3416 13.26976 16.46464 13.22288 16.58768 13.17616 16.68224 13.11088 16.74848 13.02752 16.81472 12.944 16.84848 12.84784 16.84992 12.7392 16.84848 12.63808 16.81728 12.55168 16.75632 12.47984 16.69536 12.40816 16.60192 12.34544 16.47616 12.29168 16.3504 12.23808 16.18928 12.18848 15.992656 12.1432L15.4344 12.0136C14.971632 11.90736 14.606768 11.73536 14.339824 11.49776 14.07288 11.26 13.940096 10.93792 13.941488 10.5312 13.940096 10.19936 14.029232 9.90896 14.20888 9.66 14.388512 9.41104 14.63664 9.21696 14.953232 9.07776 15.269824 8.93856 15.631632 8.86896 16.03872 8.86896 16.45344 8.86896 16.81376 8.93904 17.11968 9.07936 17.4256 9.21952 17.66304 9.41584 17.83184 9.66816 18.0008 9.92048 18.08672 10.21376 18.08992 10.54784L16.852 10.54784ZM20.7976 14.29488 18.81952 14.29488 18.81952 8.94208 20.79552 8.94208C21.33984 8.94208 21.8096 9.0488 22.2048 9.26224 22.6 9.47568 22.90464 9.78224 23.11904 10.18176 23.33328 10.58128 23.44048 11.05952 23.44048 11.61632 23.44048 12.17392 23.33344 12.6528 23.11952 13.05312 22.9056 13.45328 22.60096 13.76032 22.20576 13.97408 21.81056 14.18784 21.34128 14.29488 20.7976 14.29488ZM20.11168 13.19296 20.74736 13.19296C21.04784 13.19296 21.30208 13.14176 21.51008 13.0392 21.71808 12.9368 21.87584 12.7704 21.9832 12.54 22.0904 12.3096 22.14416 12.00176 22.14416 11.61632 22.14416 11.23168 22.08992 10.92432 21.9816 10.69456 21.87312 10.46464 21.71392 10.29888 21.50384 10.1968 21.2936 10.09488 21.0352 10.044 20.72864 10.044L20.11168 10.044 20.11168 13.19296Z"/><polygon fill="#6FBF62" points="14.996 20.656 15.975 22.348 16.017 22.348 17.004 20.656 18.453 20.656 16.836 23.333 18.503 26.009 17.02 26.009 16.017 24.301 15.975 24.301 14.971 26.009 13.497 26.009 15.155 23.333 13.539 20.656"/></g></svg>