<svg xmlns="http://www.w3.org/2000/svg" width="32" height="32" viewBox="0 0 32 32"><g fill="none" fill-rule="evenodd"><rect width="32" height="32"/><g transform="translate(0 3)"><path fill="#FFF" d="M12.9153157,26 C5.79381062,26 0,20.1682 0,13 C0,5.8318 5.79381062,0 12.9153157,0 C14.9831438,0 16.9590149,0.47736 18.7883402,1.41908 C20.2085083,2.1502 21.4964236,3.15484 22.5618511,4.35673333 C22.6374487,4.31270667 22.7139074,4.26972 22.7913993,4.22846667 C23.8446002,3.66444 25.0267821,3.37844 26.3045374,3.37844 C26.4075155,3.37844 26.51256,3.38034667 26.6165714,3.38416 C28.9812796,3.46909333 30.5832953,4.11666667 31.0010627,4.35898667 C31.0043346,4.36089333 31.4424221,4.62072 31.4424221,4.62072 C31.8333257,4.85281333 32.0489254,5.29706667 31.9905481,5.74998667 L31.9623066,5.96873333 L31.960068,6.00253333 C31.738269,9.32550667 30.2812492,11.86744 27.8576471,13.16016 C27.7105847,13.23816 27.5743712,13.30524 27.4385021,13.3664267 C26.9181009,13.60112 26.3704916,13.77064 25.8018733,13.8734267 C25.3539701,20.6358533 19.745279,26 12.9153157,26"/><path fill="#FF9931" d="M12.915264,24.8594667 C6.40818357,24.8594667 1.13322424,19.5497467 1.13322424,13 C1.13322424,6.45025333 6.40818357,1.14053333 12.915264,1.14053333 C19.4223445,1.14053333 24.697476,6.45025333 24.697476,13 C24.697476,19.5497467 19.4223445,24.8594667 12.915264,24.8594667 Z"/><path fill="#006E36" d="M21.1829431,11.09836 L29.3678091,6.33256 C29.3678091,6.33256 29.5462127,4.62782667 26.384199,4.66076 C23.2220131,4.69386667 21.4298839,6.77629333 21.1910367,8.64846667 C20.9521894,10.5204667 21.1829431,11.09836 21.1829431,11.09836"/><path fill="#00B22B" d="M29.4974273,6.124924 L21.3125612,10.890724 C21.3125612,10.890724 21.1341576,12.5954573 24.2961713,12.562524 C27.4583572,12.5294173 29.2506586,10.4469907 29.4893337,8.57481733 C29.7281809,6.70281733 29.4974273,6.124924 29.4974273,6.124924"/><path fill="#FFF" d="M29.473732 6.51343333 29.4716655 6.53076667C29.2419451 7.80407333 28.565527 10.0964067 26.6170363 11.1351933 26.6005047 11.1440333 26.5827677 11.1528733 26.5650307 11.16154 25.8963617 11.5066467 24.9788577 11.7472333 24.1517609 11.7167267 23.5991576 11.6978333 23.0215846 11.5927933 22.429891 11.4081933L21.9447917 11.1996733 22.4791414 10.91922 24.4853204 9.8527C24.6726786 9.75268667 24.8128528 9.58282 24.8769128 9.37620667 24.8972329 9.30583333 24.9077373 9.23754 24.9094594 9.16612667 24.9137645 9.05346 24.9752414 9.02087333 24.9325348 8.91496667 24.9225469 8.89018 24.9111814 8.86504667 24.8984383 8.84078L24.8875895 8.82119333C24.8867284 8.81824667 24.8843176 8.81651333 24.8822511 8.81322 24.7436267 8.57124667 24.4946195 8.50139333 24.2144432 8.49116667 24.0728913 8.48648667 23.9335781 8.5189 23.8090745 8.5865L21.8180494 9.64383333 21.4410944 9.84316667C21.4410944 9.84316667 21.7724153 7.28199333 23.5664388 6.37459333 23.7064408 6.30387333 23.8323221 6.20074 23.9762848 6.12343333 24.6831831 5.74660667 25.5042527 5.57188667 26.4140076 5.60516667 27.521625 5.64468667 28.5398685 5.97922 29.2374678 6.27648667 29.2818965 6.29607333 29.3254641 6.3141 29.367482 6.33316667L29.4794147 6.37927333 29.473732 6.51343333ZM30.4353203 5.34724667C30.2348746 5.23094 28.8200448 4.60468667 26.5758795 4.52391333 25.3818155 4.48092667 24.2848747 4.72064667 23.322942 5.23562 23.0009201 5.40791333 22.7080008 5.60222 22.4412565 5.81507333 20.4151017 7.42274 20.3627517 9.40324667 20.2277436 10.5477667L18.6240058 11.3369533C18.3837809 11.4387 18.215193 11.6777267 18.215193 11.95662 18.215193 12.3277267 18.5139673 12.6286333 18.8826565 12.6286333 18.9883899 12.6286333 19.0877517 12.6043667 19.1766091 12.5617267 19.1766091 12.5617267 19.1767813 12.5625933 19.1769535 12.56294L19.1988234 12.5513267C19.200201 12.55046 19.2017509 12.5497667 19.2031285 12.5489L19.567857 12.35442 20.3057521 11.9632067 20.6625592 11.79126C21.5359789 12.2421 22.6640887 12.7910467 24.2168541 12.84738 25.2044452 12.8823933 26.1303872 12.70646 26.9752211 12.3254733 27.0943864 12.27174 27.2116575 12.2135 27.3270343 12.1523133 30.6548806 10.37738 30.7967769 6.34131333 30.8343174 5.85511333L30.866864 5.60326 30.4353203 5.34724667ZM15.4331179 12.0981706C15.1146483 13.3976078 13.1599102 12.7954747 13.1599102 12.7954747L12.2326974 12.5501407 12.8696366 9.95145164 13.9786771 10.2401126C13.9786771 10.2401126 15.7868324 10.637276 15.4287801 12.0981706L15.4331179 12.0981706ZM12.3172852 17.0268849 11.202461 16.738224 11.897238 13.8942009 13.2289541 14.2463709C13.2289541 14.2463709 15.4063679 14.7314842 15.0103595 16.3238409 14.6636939 17.7415938 12.3172852 17.0268849 12.3172852 17.0268849ZM17.3920131 10.1967857C16.8729185 9.68723152 16.2394135 9.31636054 15.5471669 9.11694564L15.444324 9.08806103 15.977155 6.92264109 14.708699 6.58769071 14.1802058 8.74163087 13.2275082 8.48037328 13.7547362 6.33495038 12.4862802 6 11.9648359 8.13375796C10.4301451 7.72233743 9.44798638 7.47255962 9.44798638 7.47255962 9.44798638 7.47255962 9.2365168 8.55980595 9.14487998 8.82106355 9.14487998 8.82106355 9.40569247 8.88605392 9.68602522 8.96548659 9.87074481 9.02029329 10.7740995 9.11990816 10.472439 10.2647386 10.3034441 10.9085321 9.31694754 15.2265961 9.23940869 15.521182 9.15066376 15.872056 9.06462998 16.0596208 8.64187155 15.9701896L7.63278207 15.7391127 7 17.2853651C7.22972465 17.3662791 8.0246334 17.5538439 9.53673131 17.9450822L9.00823809 20.0775441 10.2765134 20.4123093 10.8008495 18.2772552 11.7535471 18.5327729 11.2264998 20.6650496 12.4947751 21 13.0259795 18.8343949C14.4959642 19.1145386 15.342927 19.0251074 15.5444557 18.9875204 16.771883 18.7549622 17.2933273 17.7876981 17.5174489 16.8637609 18.154388 14.265257 16.064454 14.0341801 16.3294236 13.9764109 17.4990131 13.7353355 18.0585941 12.5890238 17.9951533 11.5712117 17.9391229 10.9946304 17.7380761 10.5364884 17.3920131 10.1967857Z"/></g></g></svg>