<?xml version="1.0" encoding="UTF-8"?>
<svg width="24px" height="24px" viewBox="0 0 24 24" version="1.1" xmlns="http://www.w3.org/2000/svg" xmlns:xlink="http://www.w3.org/1999/xlink">
    <title>Icons/LiquidityMining/Filled</title>
    <g id="⭐️Symbols" stroke="none" stroke-width="1" fill="none" fill-rule="evenodd">
        <g id="ChartPie" transform="translate(0.248416, 0.000000)">
            <rect id="Rectangle" x="0" y="0" width="24" height="24"></rect>
            <path d="M20.2145131,6.91495416 C20.2081962,6.90245634 20.20244,6.88982259 20.1953553,6.87755447 C20.1857928,6.86098322 20.1751568,6.84546478 20.1645593,6.82994728 C17.456634,2.19755301 11.5140174,0.624781699 6.86910358,3.3111755 C2.2241897,5.9975693 0.623851229,11.9328214 3.28865558,16.5901548 C3.29497246,16.6026517 3.30072871,16.6152863 3.30781339,16.6275545 C3.31451933,16.6391795 3.32267839,16.6493438 3.32989996,16.6604673 C6.03139373,21.3005144 11.9764704,22.8823038 16.6266543,20.1982964 C21.2768382,17.5142889 22.8809962,11.5752088 20.2145131,6.91495416 Z M18.4890875,6.99666478 L12.5015843,10.4535123 L12.5015843,3.53702447 C14.9076411,3.75812225 17.0959441,5.02254597 18.4890875,6.99666478 L18.4890875,6.99666478 Z M11.7515843,20.0025547 C9.07135115,20.0020591 6.55857749,18.6989193 5.01408121,16.5084442 L19.2408725,8.29465322 C20.421165,10.8489419 20.2178864,13.8287026 18.7016374,16.1990338 C17.1853884,18.5693651 14.5653862,20.0032005 11.7515843,20.0025547 Z" id="Shape" fill="#FFF383" fill-rule="nonzero"></path>
        </g>
    </g>
</svg>