<?xml version="1.0" encoding="UTF-8"?>
<svg width="174px" height="56px" viewBox="0 0 174 56" version="1.1" xmlns="http://www.w3.org/2000/svg" xmlns:xlink="http://www.w3.org/1999/xlink">
    <title>logo-app</title>
    <g id="logo-app" stroke="none" stroke-width="1" fill="none" fill-rule="evenodd">
        <g id="Group-2" transform="translate(0, 4)" fill="#000000" fill-rule="nonzero">
            <g id="Group" transform="translate(56.6616, 15.1539)">
                <path d="M14.4524176,12.9628276 C14.4524176,14.0560053 14.1682807,15.0382516 13.6020366,15.9095666 C13.0357925,16.7808816 12.205707,17.4626049 11.1138097,17.9567534 C10.0219124,18.4488851 8.72706019,18.6969678 7.23128266,18.6969678 C5.43716145,18.6969678 3.95559077,18.36014 2.79062971,17.6864844 C1.96460332,17.2024205 1.29079309,16.5549851 0.775287673,15.7441781 C0.257752708,14.935388 0,14.1467672 0,13.3823497 C0,12.9386244 0.154245715,12.5594411 0.464766694,12.2427826 C0.775287673,11.9261241 1.16902016,11.7688034 1.65002324,11.7688034 C2.03766708,11.7688034 2.36848354,11.8918363 2.636384,12.1379021 C2.90428445,12.3839679 3.13362347,12.7510497 3.32440107,13.2351136 C3.55576964,13.8099394 3.80540415,14.2919864 4.07533415,14.6772206 C4.34323461,15.0644717 4.72276025,15.3831471 5.20985198,15.6332468 C5.69897326,15.8833464 6.33828116,16.0083963 7.13386432,16.0083963 C8.22576161,16.0083963 9.11267448,15.7562797 9.7946029,15.2500295 C10.4765313,14.7437794 10.8174955,14.1144963 10.8174955,13.3581465 C10.8174955,12.7591174 10.6328066,12.2710197 10.2654582,11.8978871 C9.89608034,11.5247545 9.42116591,11.23835 8.83868538,11.0406906 C8.25620485,10.8430312 7.47685808,10.6332702 6.50064507,10.4114075 C5.19361559,10.1068507 4.09968874,9.75187048 3.21886453,9.34445004 C2.33804031,8.9370296 1.6398755,8.38237306 1.12234053,7.68048041 C0.604805567,6.97858777 0.347052859,6.10525583 0.347052859,5.0604846 C0.347052859,4.01571337 0.619012409,3.18272009 1.16496106,2.41023479 C1.71090971,1.6377495 2.50040422,1.04477123 3.53547415,0.629283059 C4.57054408,0.213794885 5.78421431,0.00605079864 7.18257349,0.00605079864 C8.29882537,0.00605079864 9.26489064,0.143202235 10.0787397,0.419522039 C10.8925888,0.695841844 11.5704582,1.0609067 12.1062591,1.51673353 C12.6440895,1.97256036 13.0357925,2.45259038 13.285427,2.95278974 C13.5330319,3.45500603 13.6568344,3.94310378 13.6568344,4.41909994 C13.6568344,4.85475745 13.5025887,5.24805936 13.1920677,5.59698875 C12.8815467,5.94591813 12.4959325,6.1213913 12.0331953,6.1213913 C11.6110491,6.1213913 11.2903804,6.01651079 11.0711891,5.80674977 C10.8519979,5.59698875 10.6145406,5.25411016 10.3588175,4.778114 C10.028001,4.09639068 9.63020944,3.5639204 9.1674723,3.18070315 C8.70473515,2.79748591 7.95989071,2.60789422 6.93496853,2.60789422 C5.9831101,2.60789422 5.21594062,2.8156383 4.6334601,3.23112648 C4.05097957,3.64661465 3.75872453,4.14479707 3.75872453,4.72970761 C3.75872453,5.09073859 3.85817242,5.40336319 4.05706821,5.6675814 C4.255964,5.92978267 4.52792355,6.15567915 4.87497641,6.34527085 C5.22202927,6.53486254 5.57314123,6.68209864 5.93034183,6.78899608 C6.28551288,6.89589352 6.87408206,7.05119735 7.69199026,7.25692451 C8.71691244,7.49492259 9.64644583,7.75914079 10.4765313,8.04554526 C11.3086464,8.33396667 12.0149294,8.68289605 12.5974099,9.09435036 C13.1798904,9.50580467 13.6345094,10.0261734 13.9612668,10.6534395 C14.2880241,11.2827225 14.4524176,12.0531909 14.4524176,12.9648446 L14.4524176,12.9628276 Z" id="Path"></path>
                <path d="M30.0251461,3.33399005 L26.0046098,3.33399005 L26.0046098,16.4642231 C26.0046098,17.2205729 25.8341277,17.7812803 25.495193,18.1463451 C25.1562584,18.51141 24.7178758,18.6949509 24.1800454,18.6949509 C23.6422149,18.6949509 23.1896255,18.5093931 22.8466318,18.1402943 C22.503638,17.7711956 22.3311263,17.2125052 22.3311263,16.4642231 L22.3311263,3.33399005 L18.31059,3.33399005 C17.6814299,3.33399005 17.2146336,3.19683862 16.9081717,2.92051881 C16.6017098,2.64621594 16.4494937,2.28115109 16.4494937,1.82935812 C16.4494937,1.37756516 16.6077985,0.990314045 16.9264377,0.720045039 C17.2450768,0.449776033 17.7057844,0.312624597 18.31059,0.312624597 L30.021087,0.312624597 C30.6583654,0.312624597 31.1312503,0.451792965 31.4417713,0.732146636 C31.7522922,1.01250031 31.906538,1.37756516 31.906538,1.82935812 C31.906538,2.28115109 31.7482331,2.64621594 31.4356826,2.92051881 C31.1211025,3.19683862 30.6502472,3.33399005 30.021087,3.33399005 L30.0251461,3.33399005 Z" id="Path"></path>
                <path d="M44.7657597,16.3411902 L43.8971127,14.0721407 L36.5034662,14.0721407 L35.6348193,16.3895966 C35.2958846,17.2931825 35.0056591,17.9043132 34.7661723,18.2209717 C34.5266856,18.5376301 34.1329531,18.6949509 33.5870044,18.6949509 C33.1242673,18.6949509 32.7142984,18.5255285 32.3591274,18.1887007 C32.0039563,17.8518729 31.825356,17.4686557 31.825356,17.0410659 C31.825356,16.7950001 31.865947,16.5388496 31.9491585,16.2766484 C32.03237,16.0144471 32.1683498,15.6473653 32.3591274,15.1794369 L37.0108534,3.4408875 C37.1427741,3.1040597 37.3031084,2.6986562 37.4877974,2.2266939 C37.6724863,1.75473161 37.8734117,1.36142969 38.0844848,1.0488051 C38.2955578,0.736180502 38.5715765,0.484063892 38.9145702,0.290438335 C39.257564,0.0968127783 39.6817397,2.11976031e-14 40.1870974,2.11976031e-14 C40.6924551,2.11976031e-14 41.1288081,0.0968127783 41.4718018,0.290438335 C41.8147956,0.484063892 42.0928438,0.732146636 42.3018873,1.0367035 C42.5129604,1.34126037 42.6895312,1.66800349 42.8356587,2.01693288 C42.9797567,2.36586227 43.1644456,2.8337907 43.387696,3.4166843 L48.1388699,15.0806072 C48.5102774,15.9680576 48.6969958,16.6134761 48.6969958,17.0168627 C48.6969958,17.4202493 48.5204251,17.819602 48.1693131,18.1705483 C47.8182012,18.5194777 47.3940255,18.6949509 46.896786,18.6949509 C46.6065605,18.6949509 46.3589555,18.6425106 46.1519416,18.539647 C45.9449276,18.4367835 45.7703864,18.2976151 45.6303475,18.120125 C45.4903086,17.9446518 45.3380925,17.6723659 45.1777581,17.3073011 C45.0174237,16.9422362 44.8773849,16.6195269 44.7617006,16.3391733 L44.7657597,16.3411902 Z M37.471561,11.3230612 L42.9046633,11.3230612 L40.1627428,3.8644434 L37.471561,11.3230612 Z" id="Shape"></path>
                <path d="M59.8047169,18.3883771 L54.2457825,18.3883771 C53.4441107,18.3883771 52.8697483,18.2088701 52.5267546,17.8518729 C52.1837608,17.4948758 52.0112492,16.9261007 52.0112492,16.1435308 L52.0112492,2.55545396 C52.0112492,1.75876547 52.1857904,1.18595653 52.5389319,0.835010213 C52.8920734,0.484063892 53.4583175,0.310607664 54.2437529,0.310607664 L60.1375629,0.310607664 C61.0062098,0.310607664 61.7591724,0.365064852 62.3944212,0.469945361 C63.0316996,0.576842804 63.6020028,0.782569958 64.1073605,1.08712682 C64.5376249,1.34126037 64.9171505,1.66396963 65.247967,2.05525461 C65.5787834,2.44653959 65.8304475,2.87816322 66.0049887,3.35012552 C66.1795299,3.82208781 66.264771,4.32228716 66.264771,4.84870665 C66.264771,6.65789544 65.3555331,7.98100341 63.5350277,8.81803056 C65.9258363,9.57438039 67.1212406,11.0447245 67.1212406,13.2310797 C67.1212406,14.2415631 66.8614583,15.1532167 66.3398643,15.9620068 C65.8182702,16.7707969 65.1160463,17.369826 64.231163,17.7550602 C63.6770961,17.9849905 63.0398178,18.1483621 62.3213575,18.2431579 C61.6008676,18.3379538 60.7626639,18.3843432 59.8026873,18.3843432 L59.8047169,18.3883771 Z M55.6989395,3.06170411 L55.6989395,7.7349376 L59.0740793,7.7349376 C59.9914354,7.7349376 60.7017775,7.64820949 61.2010465,7.47677019 C61.7023451,7.30331396 62.0839003,6.9745539 62.3477416,6.49049001 C62.5547556,6.14559449 62.6582626,5.75834338 62.6582626,5.33075361 C62.6582626,4.41909994 62.3315052,3.81200315 61.6779905,3.51148015 C61.0244758,3.21095715 60.0279673,3.06170411 58.688465,3.06170411 L55.6989395,3.06170411 L55.6989395,3.06170411 Z M59.5327573,10.3609842 L55.6989395,10.3609842 L55.6989395,15.6372806 L59.6565598,15.6372806 C62.1468163,15.6372806 63.3909297,14.7457963 63.3909297,12.9628276 C63.3909297,12.051174 63.0682315,11.38962 62.4228349,10.9781657 C61.7774384,10.5667114 60.8134027,10.3609842 59.5327573,10.3609842 Z" id="Shape"></path>
                <path d="M74.5595372,2.22467697 L74.5595372,15.3791132 L82.0282771,15.3791132 C82.6229349,15.3791132 83.081613,15.5223155 83.3982226,15.8107369 C83.7168618,16.0991583 83.8751666,16.4601892 83.8751666,16.8958467 C83.8751666,17.3315043 83.7168618,17.698586 83.4043113,17.9749058 C83.0917607,18.2512256 82.6310531,18.3883771 82.0282771,18.3883771 L73.1327644,18.3883771 C72.3310926,18.3883771 71.7526711,18.210887 71.4015592,17.8579237 C71.0504472,17.5049605 70.8738765,16.9341685 70.8738765,16.1435308 L70.8738765,2.22266004 C70.8738765,1.48244567 71.042329,0.927789125 71.3772046,0.558690408 C71.7120802,0.189591691 72.1524923,0.00403386576 72.6984409,0.00403386576 C73.2443896,0.00403386576 73.7010381,0.187574758 74.0440318,0.55263961 C74.3870256,0.919721394 74.5595372,1.47639487 74.5595372,2.22266004 L74.5595372,2.22467697 Z" id="Path"></path>
                <path d="M98.9161534,3.13633063 L90.6152984,3.13633063 L90.6152984,7.5755999 L98.25655,7.5755999 C98.818735,7.5755999 99.2388516,7.70064974 99.5168998,7.95074942 C99.794948,8.2008491 99.9329573,8.53162609 99.9329573,8.9430804 C99.9329573,9.3545347 99.7969776,9.68934556 99.5229885,9.94751297 C99.2489994,10.2056804 98.8288828,10.336781 98.25655,10.336781 L90.6152984,10.336781 L90.6152984,15.4779429 L99.2002902,15.4779429 C99.7787116,15.4779429 100.215065,15.6110605 100.509349,15.8793126 C100.803634,16.1455477 100.949761,16.5025448 100.949761,16.9462701 C100.949761,17.3899953 100.803634,17.7207723 100.509349,17.9890244 C100.215065,18.2552595 99.7787116,18.390394 99.2002902,18.390394 L89.1885256,18.390394 C88.3868538,18.390394 87.8084323,18.2129039 87.4573204,17.8599407 C87.1062084,17.5069774 86.9296377,16.9361854 86.9296377,16.1455477 L86.9296377,2.55747089 C86.9296377,2.03105141 87.0087901,1.60144471 87.1650653,1.26865078 C87.3213406,0.935856857 87.5689456,0.693824911 87.9038211,0.540538012 C88.2386967,0.389268046 88.6669315,0.312624597 89.1885256,0.312624597 L98.9161534,0.312624597 C99.502693,0.312624597 99.939046,0.441708301 100.225212,0.701892643 C100.511379,0.962076984 100.653447,1.29890478 100.653447,1.71842682 C100.653447,2.13794885 100.511379,2.48889518 100.225212,2.74706258 C99.939046,3.00522999 99.502693,3.1343137 98.9161534,3.1343137 L98.9161534,3.13633063 Z" id="Path"></path>
                <path d="M103.843898,14.8728631 L107.913144,8.96728359 L104.489295,3.71519037 C104.166596,3.20490635 103.92508,2.76723191 103.762716,2.40216706 C103.600352,2.03710221 103.5212,1.68615589 103.5212,1.34731116 C103.5212,1.00846644 103.675445,0.691807978 103.985966,0.415488174 C104.296487,0.139168369 104.673984,0.00201693288 105.120484,0.00201693288 C105.63396,0.00201693288 106.031752,0.151269966 106.317918,0.451792965 C106.604085,0.752315965 106.997817,1.30898944 107.503175,2.12181339 L110.232918,6.51065934 L113.14735,2.12181339 C113.386837,1.75271467 113.591821,1.43605621 113.762303,1.171838 C113.930756,0.90963673 114.095149,0.691807978 114.251425,0.518351751 C114.4077,0.344895523 114.584271,0.215811818 114.779107,0.129083704 C114.973944,0.0423555905 115.199224,0 115.454947,0 C115.917684,0 116.29721,0.137151436 116.589465,0.413471241 C116.88375,0.689791045 117.029877,1.01653417 117.029877,1.39370062 C117.029877,1.9443233 116.711238,2.6926054 116.07396,3.63854692 L112.487747,8.96526666 L116.345919,14.8708461 C116.692972,15.3891979 116.944636,15.8188046 117.102941,16.1596662 C117.259216,16.5005279 117.338369,16.8232372 117.338369,17.127794 C117.338369,17.4162154 117.267334,17.6784167 117.127295,17.9164148 C116.987257,18.1544129 116.788361,18.3440046 116.532638,18.4831729 C116.276914,18.6223413 115.986689,18.6929339 115.663991,18.6929339 C115.316938,18.6929339 115.022653,18.6203244 114.783167,18.4771221 C114.54368,18.3339199 114.348843,18.1544129 114.200686,17.940618 C114.052529,17.7268231 113.774481,17.3113349 113.368571,16.6961704 L110.167972,11.690143 L106.768478,16.8434065 C106.504637,17.2548608 106.315889,17.5412653 106.204263,17.7066538 C106.092638,17.8720423 105.958688,18.03138 105.800383,18.1866838 C105.644108,18.3440046 105.457389,18.4650205 105.242257,18.5557825 C105.027125,18.6465445 104.775461,18.690917 104.485235,18.690917 C104.038735,18.690917 103.667327,18.5557825 103.375072,18.2834966 C103.080788,18.0112106 102.93466,17.6179087 102.93466,17.099557 C102.93466,16.4904432 103.237063,15.7482119 103.839839,14.8668123 L103.843898,14.8728631 Z" id="Path"></path>
            </g>
            <g id="Group">
                <path d="M49.0284981,37.0396852 C48.9574639,36.7492469 48.8722228,36.4547747 48.772775,36.1562686 C48.7687159,36.1441671 48.7646568,36.1320655 48.7605977,36.1199639 C48.6591202,35.8214578 48.5434359,35.5189179 48.4115152,35.2123441 C48.2308854,34.794839 48.0198123,34.371283 47.7762664,33.9416763 C47.5956366,33.6230009 47.3967408,33.3002917 47.1795791,32.9755655 C47.1734904,32.9674978 47.1694313,32.95943 47.1633427,32.9513623 C46.9441514,32.6246192 46.7066942,32.2958591 46.4469119,31.9630652 C46.1871297,31.6302713 45.9090815,31.2954604 45.6087082,30.9566157 C45.6046491,30.9505649 45.5985605,30.946531 45.5945014,30.9404802 C45.2920986,30.5996186 44.9734594,30.2587569 44.6264066,29.9118444 C44.0824875,29.3713064 43.2950225,28.5887365 41.8418655,27.2656285 C40.8210024,26.319687 39.8224644,25.5229985 38.8482809,24.8432921 C36.0718581,22.9130873 33.4882423,21.963112 31.1441134,21.4003877 C30.9330403,21.3499644 30.7239968,21.301558 30.5169828,21.2571855 C30.5169828,21.2571855 30.5169828,21.2592024 30.5169828,21.2612193 C30.4885691,21.5193867 30.4642145,21.7795711 30.4418895,22.0437893 C30.421594,22.2838043 30.4012985,22.5258362 30.3830325,22.771902 C30.3667961,22.9816631 30.3505598,23.193441 30.3363529,23.4072359 C30.3322938,23.4737947 30.3262052,23.5363196 30.3221461,23.6028784 C30.2977915,23.9518078 30.2714074,24.3027541 30.2450232,24.6577343 C30.2409641,24.7000899 30.236905,24.7444624 30.2348755,24.786818 C30.1861663,25.4060164 30.1313685,26.0352994 30.0562752,26.6847518 C30.0136546,27.0619183 29.9649455,27.4451355 29.9060886,27.8364205 C29.8878226,27.9554196 29.8675271,28.0764355 29.8492612,28.1954346 C29.8492612,28.1954346 29.8492612,28.1974515 29.8492612,28.1994684 L29.8492612,28.1994684 C30.3749143,28.3789755 30.8843311,28.5847026 31.3856297,28.8247176 C32.4024337,29.3128154 33.390824,29.9420984 34.429953,30.7811425 C34.5923169,30.9122432 34.7567104,31.0493946 34.9211038,31.1905799 C35.0449063,31.2974773 35.1687088,31.4063917 35.2945408,31.51934 C35.6720369,31.8561677 36.0576512,32.2212326 36.4574723,32.6185684 L40.9955436,37.1284303 C41.23706,37.3684453 41.4217489,37.6366974 41.5496105,37.9231019 C41.592231,38.0178977 41.6287629,38.1126935 41.6571766,38.2095063 C41.6571766,38.2135402 41.6571766,38.2175741 41.6592061,38.219591 C41.6916789,38.3244715 41.7140039,38.429352 41.7302403,38.5362494 C41.7342994,38.5604526 41.7383585,38.5846558 41.7403881,38.608859 C41.7525654,38.6976041 41.758654,38.7863491 41.7606836,38.8771111 C41.7606836,38.9053482 41.7627131,38.9315683 41.7627131,38.9598054 C41.7627131,39.0707367 41.7545949,39.181668 41.7383585,39.2925993 L41.7383585,39.2986501 C41.7018266,39.5326143 41.632822,39.7605277 41.529315,39.9803734 C41.5232263,39.992475 41.5171377,40.0045766 41.5110491,40.0166782 C41.4501626,40.1397111 41.3791284,40.2587101 41.2979464,40.3736753 C41.2898282,40.3857769 41.2796805,40.3978785 41.2695327,40.4099801 C41.1903803,40.5188945 41.1010802,40.6257919 41.0016323,40.7266386 C40.9996027,40.7286555 40.9975732,40.7306724 40.9955436,40.7326894 C40.9935141,40.7347063 40.989455,40.7387402 40.9874254,40.7407571 C40.9305981,40.7972312 40.8697116,40.8456376 40.8088251,40.894044 C40.782441,40.9142133 40.760116,40.9384165 40.7337318,40.9585858 C40.7337318,40.9585858 40.7337318,40.9585858 40.7337318,40.9585858 C40.7053181,40.9807721 40.6748749,41.0029584 40.6464612,41.0231277 C40.5693384,41.0775849 40.4922155,41.1259913 40.4130631,41.1703638 C40.1857536,41.2974306 39.9482964,41.3861756 39.702721,41.4386159 C39.6885142,41.4406328 39.6763369,41.4446667 39.66213,41.4487005 C39.455116,41.4890392 39.2460725,41.5011408 39.037029,41.4890392 C38.9944084,41.4870223 38.9497584,41.4850053 38.9071378,41.4789545 C38.8462514,41.4729037 38.7853649,41.4628191 38.7244784,41.4527344 C38.6879466,41.4466836 38.6514147,41.4365989 38.6148828,41.4285312 C38.4038097,41.3801248 38.1988253,41.3054983 37.9999295,41.2006178 C37.9978999,41.2006178 37.9938408,41.1986009 37.9918113,41.1965839 C37.9187475,41.1582622 37.8477133,41.1138897 37.7766791,41.0675002 C37.7766791,41.0675002 37.77262,41.0654833 37.7705905,41.0634663 C37.628522,40.9686705 37.4925423,40.8577392 37.3646807,40.7306724 L31.7509485,35.1518361 L28.9522006,32.3704856 C28.9522006,32.3704856 28.9522006,32.3745195 28.9522006,32.3765364 C28.8568118,32.7093304 28.7533048,33.0461581 28.6396501,33.3850029 C28.0977605,35.0106508 27.3468274,36.6847051 26.2468119,38.4233012 C25.9850001,38.8347555 25.7069519,39.2502437 25.4045491,39.6697657 C25.4045491,39.6697657 25.4045491,39.6717827 25.4025196,39.6737996 L28.6416796,42.8928245 L28.6416796,42.8867737 L30.1070139,44.3429992 C34.470544,48.6794049 38.438312,49.4377717 41.5009013,48.8044547 C41.5455514,48.796387 41.5902015,48.7883193 41.632822,48.7782346 C41.7485063,48.7520145 41.8601315,48.7237774 41.9737862,48.6935234 C42.0387318,48.677388 42.1036773,48.6592356 42.1665933,48.6410832 C42.2741594,48.6108292 42.379696,48.5785583 42.483203,48.5462873 C42.5481485,48.526118 42.6130941,48.5039317 42.6780397,48.4817455 C42.7795171,48.4474576 42.8809945,48.4111528 42.9804424,48.374848 C43.0372698,48.3526618 43.0940972,48.3284586 43.148895,48.3062723 C43.2645793,48.2598829 43.3802636,48.2114765 43.4939183,48.1610532 C43.7313755,48.0541557 43.958685,47.9412075 44.1778763,47.8222084 C44.5046337,47.6447183 44.809066,47.4571436 45.0952324,47.2594842 C45.1743848,47.205027 45.2535372,47.1505698 45.3286305,47.0961126 C45.3834283,47.0557739 45.4382261,47.0134183 45.4909944,46.9730797 C45.5579695,46.9226564 45.6249446,46.8702161 45.6898902,46.8197928 C45.7406289,46.7794541 45.7893381,46.7391155 45.8380473,46.6987768 C45.9070519,46.6423027 45.9719975,46.5858286 46.0369431,46.5273375 C46.0755045,46.4930497 46.1160955,46.4587618 46.1546569,46.422457 C46.2094547,46.3720337 46.2601934,46.3216104 46.3129617,46.273204 C46.3535527,46.2348823 46.3961732,46.1945436 46.4367642,46.1562219 C46.4367642,46.1562219 46.4408233,46.152188 46.4428528,46.1501711 C46.4428528,46.1501711 46.4428528,46.1501711 46.4428528,46.1501711 L46.4428528,46.1501711 C46.4854734,46.1057986 46.5301234,46.0594091 46.572744,46.0150366 C46.6924873,45.8920037 46.8122307,45.76292 46.9319741,45.6237516 C46.968506,45.5793791 47.0070674,45.5329896 47.0435993,45.4886171 C47.1694313,45.3373471 47.2932338,45.1820433 47.4150067,45.0146379 C47.5733116,44.798826 47.7295868,44.5688957 47.8777439,44.3268638 C47.9832804,44.1554245 48.0847579,43.9739005 48.1842058,43.7903596 C48.1943535,43.7722072 48.2045013,43.7520379 48.214649,43.7338855 C48.3120674,43.5463107 48.4074562,43.3547021 48.4947268,43.1570427 C48.6185292,42.8787059 48.732184,42.5882676 48.8316319,42.2877446 C48.8823706,42.1364746 48.9290502,41.9852047 48.9716707,41.8278839 C49.0975028,41.3801248 49.190862,40.9081625 49.2476894,40.4180478 C49.2903099,40.0570168 49.3146645,39.6859012 49.3127525,39.3026839 C49.3127525,38.941653 49.2882804,38.5725542 49.2436303,38.1933709 C49.1969507,37.8141875 49.127946,37.4289533 49.0325572,37.0336345 L49.0284981,37.0396852 Z" id="Path"></path>
                <polygon id="Path" points="2.86640881 2.85670677 2.86640881 2.85468984 2.86640881 2.85670677"></polygon>
                <path d="M4.74577108,19.1515075 L7.77182846,22.1587545 C8.75007102,23.1309161 9.80137734,23.8751643 10.9034224,24.4580579 L10.8993633,24.4620918 C10.6923493,24.3531774 10.4873649,24.2382123 10.28441,24.1171963 C10.4873649,24.2382123 10.6923493,24.3531774 10.8993633,24.4620918 C10.9785157,24.5024305 11.0576681,24.5367183 11.1368205,24.577057 C11.282948,24.6496666 11.4290755,24.7202592 11.5752031,24.7888349 C11.656385,24.8271567 11.737567,24.8715292 11.8207785,24.907834 C11.926315,24.9542234 12.0338811,24.9925451 12.1394177,25.0349007 C12.2469837,25.0792733 12.3545498,25.1216289 12.4621159,25.1639844 C12.5615638,25.2023062 12.6610117,25.2466787 12.7604596,25.2829835 C12.9715327,25.3596269 13.1846353,25.4322365 13.397738,25.4987953 C14.3293009,25.7932675 15.2831889,26.0090793 16.245195,26.1744678 C16.5658638,26.228925 16.888562,26.2793483 17.2112603,26.3237209 C17.5339586,26.3680934 17.8586864,26.410449 18.1813847,26.4467538 C18.4411669,26.4770077 18.7009492,26.5052448 18.9607314,26.5314649 C19.358523,26.5718036 19.7563146,26.6081084 20.1520766,26.6444132 C20.1520766,26.6444132 20.1520766,26.6423962 20.1520766,26.6403793 C20.2413768,26.1744678 20.3245883,25.6823362 20.4037407,25.1599506 C20.4077998,25.1317135 20.4118589,25.1054934 20.415918,25.0772563 C20.4727454,24.7061407 20.5255136,24.3188896 20.5803114,23.915503 C20.6513457,23.3870666 20.7203503,22.8283762 20.7934141,22.2353979 C20.81168,22.0397554 20.8279164,21.8400791 20.8461823,21.6424196 C20.8725665,21.3519813 20.8989506,21.061543 20.9253348,20.7690877 C20.9436007,20.5633605 20.9618666,20.3576334 20.9801326,20.1498893 L20.9801326,20.1498893 L20.9801326,20.1458554 C18.8795495,19.9078574 16.9372712,19.4600983 15.0944408,18.2701079 C15.0660271,18.2519555 15.039643,18.23582 15.0112293,18.2176676 C14.4023647,17.816298 13.8036477,17.3322341 13.213049,16.7473235 L8.31168846,11.8764306 C8.26500884,11.8300412 8.22238831,11.7816348 8.18179733,11.7332284 C8.15947229,11.7090252 8.13714726,11.684822 8.11685177,11.6586019 C8.07220169,11.6021277 8.02958117,11.5456536 7.98899019,11.4891795 C7.97072425,11.4629594 7.95448786,11.4367393 7.93825147,11.4105191 C7.7819762,11.1664702 7.67238056,10.9062859 7.60946455,10.6380338 C7.60946455,10.6380338 7.60946455,10.6380338 7.60946455,10.6380338 C7.6033759,10.6138306 7.5993168,10.5896274 7.59322816,10.5654242 C7.59119861,10.5533227 7.58713951,10.5412211 7.58510996,10.5291195 C7.57699177,10.4887808 7.57293267,10.4484421 7.56684402,10.4081035 C7.56481447,10.3879342 7.56075537,10.3677648 7.55872583,10.3475955 C7.55669628,10.3254092 7.55466673,10.303223 7.55466673,10.2810367 C7.55466673,10.2588504 7.55060763,10.2366642 7.55060763,10.2144779 C7.54248943,10.0894281 7.54248943,9.96236132 7.55466673,9.83731148 C7.55466673,9.83731148 7.55466673,9.83731148 7.55466673,9.83529454 L7.55466673,9.83529454 C7.55466673,9.83529454 7.55466673,9.83126068 7.55466673,9.82924375 C7.56075537,9.78285429 7.56887357,9.7344479 7.57496222,9.68805844 C7.58105086,9.64973672 7.58713951,9.61141499 7.59525771,9.57309327 C7.59525771,9.56502554 7.59728725,9.55494087 7.5993168,9.54687314 C7.5993168,9.54687314 7.5993168,9.54687314 7.5993168,9.54687314 C7.607435,9.51258528 7.61555319,9.47628049 7.62570094,9.44199263 C7.63787823,9.39560318 7.65005553,9.34921372 7.66629192,9.3048412 C7.67643966,9.27660414 7.68658741,9.24836708 7.69673515,9.22013002 C7.71500109,9.16768976 7.73529658,9.11726644 7.75965117,9.06684312 C7.76979891,9.04263992 7.7819762,9.01843673 7.7941535,8.99423353 L7.7941535,8.99423353 C7.80836034,8.96397954 7.82459673,8.93574248 7.83880357,8.90548849 C7.84692177,8.88935302 7.85503996,8.87120063 7.86518771,8.85506516 C7.87939455,8.83086197 7.89360139,8.80665877 7.90780823,8.78447251 C7.90780823,8.78245558 7.91186733,8.78043865 7.91186733,8.77640478 C7.93622192,8.73606612 7.9605765,8.69371053 7.98899019,8.65538881 C7.99304929,8.64933801 7.99913793,8.64328721 8.00319703,8.63723641 C8.02755162,8.60294855 8.05393575,8.56664376 8.08234944,8.5323559 C8.08640853,8.5263051 8.09046763,8.52025431 8.09452673,8.51420351 C8.10873357,8.49605111 8.12091087,8.47789872 8.13511771,8.45974632 C8.18991553,8.39520447 8.2467429,8.33066261 8.30965891,8.2681377 C8.35836808,8.21973131 8.40910681,8.17535878 8.46187508,8.13098626 C8.47811147,8.11686773 8.49231831,8.10073227 8.5085547,8.08863067 C8.520732,8.078546 8.53493884,8.06846134 8.54914568,8.05837668 C8.64250493,7.98576709 8.73789373,7.92122524 8.83734162,7.86273419 C8.94490771,7.79819233 9.0524738,7.74171821 9.16612854,7.69532876 C9.47461997,7.56826199 9.79934779,7.50372013 10.1240756,7.50372013 C10.2742622,7.50372013 10.4244488,7.5198556 10.5746355,7.54607572 C10.6071082,7.55212652 10.639581,7.56019425 10.6720538,7.56624505 C11.1307319,7.66910863 11.571144,7.90307284 11.9405219,8.27015463 L18.1590596,14.450037 L19.2022478,15.4867405 L19.2123955,15.4766558 L21.2561512,17.4935887 C21.4773721,15.7570095 21.8122476,13.9962271 22.4231418,12.2878849 L22.4231418,12.2878849 C22.6078308,11.773567 22.8148448,11.2653 23.0543315,10.7630837 C23.2917888,10.2649012 23.5576597,9.77276963 23.8580329,9.29072267 C23.8580329,9.29072267 23.8580329,9.28870573 23.8600624,9.2866888 L21.5524654,6.99343611 L19.2042773,4.65984477 C17.3573878,2.82443585 15.5835621,1.63646238 13.9173025,0.916417343 C13.9030956,0.910366544 13.8868592,0.902298812 13.8726524,0.896248014 C13.8523569,0.888180282 13.8320614,0.880112551 13.8117659,0.872044819 C13.7062294,0.827672296 13.6006928,0.785316705 13.4971859,0.744978048 C13.4565949,0.728842585 13.4180334,0.712707122 13.3774425,0.698588591 C13.2374036,0.646148337 13.0973647,0.595725014 12.9593554,0.549335558 C12.9471781,0.545301692 12.9350008,0.541267827 12.9228235,0.537233961 C12.7340755,0.474709042 12.5493865,0.420251854 12.3646976,0.369828532 C12.322077,0.357726934 12.2814861,0.34764227 12.2388655,0.337557606 C12.1698609,0.31940521 12.1028858,0.299235881 12.0338811,0.283100418 C11.9486401,0.262931089 11.863399,0.246795626 11.7801875,0.22864323 C11.7477147,0.222592431 11.7152419,0.2145247 11.6807396,0.206456968 C11.5021393,0.170152177 11.3255685,0.13788125 11.1510273,0.113678056 C11.1124659,0.107627257 11.0739045,0.103593391 11.0373726,0.0995595257 C10.9074815,0.0814071297 10.7796199,0.0672885996 10.6537879,0.0551870023 C10.5868128,0.0491362036 10.5198376,0.043085405 10.4528625,0.0370346063 C10.4203897,0.0350176735 10.3858874,0.0309838077 10.3534146,0.0289668748 C10.3087646,0.024933009 10.2641145,0.0269499419 10.2194644,0.0229160762 C10.1017506,0.0168652775 9.98403674,0.0108144789 9.8663229,0.00879754599 C9.82776147,0.00879754599 9.78920005,0.00476368023 9.75063862,0.00476368023 C9.70801809,0.00476368023 9.66742711,0.00879754599 9.62480659,0.00879754599 C9.48070862,0.00879754599 9.33661065,0.0148483446 9.19657177,0.0229160762 C9.13162621,0.0269499419 9.0646511,0.0289668748 8.99970553,0.0350176735 C8.79675064,0.0511531365 8.5958253,0.0713224653 8.39895906,0.0975425928 C8.38475222,0.0995595257 8.37054538,0.101576459 8.35633854,0.103593391 C8.22441786,0.12376272 8.09452673,0.145948982 7.9646356,0.170152177 C7.94434011,0.174186042 7.92404462,0.178219908 7.90171959,0.182253774 C7.77588756,0.206456968 7.65005553,0.234694029 7.52625304,0.262931089 C7.5079871,0.266964955 7.48972116,0.273015753 7.47145522,0.277049619 C7.34562319,0.307303612 7.21979116,0.341591471 7.09598868,0.37587933 C7.09192958,0.37587933 7.08990003,0.377896263 7.08584094,0.379913196 C6.84229507,0.450505847 6.60483785,0.533200095 6.37549883,0.619928209 C6.35317379,0.627995941 6.32678966,0.636063672 6.30446462,0.644131404 C6.28416913,0.652199135 6.26590319,0.660266867 6.2456077,0.668334598 C6.17863259,0.694554726 6.11571657,0.722791786 6.05077101,0.749011913 C5.99394364,0.773215108 5.93508672,0.79540137 5.87825935,0.819604564 C5.86202296,0.825655363 5.84781612,0.833723095 5.83157973,0.841790826 C5.67733401,0.910366544 5.52511785,0.982976128 5.37696078,1.05760264 C5.36681303,1.06365344 5.35463574,1.06970424 5.344488,1.07575504 C5.19836048,1.15038156 5.0583216,1.22702501 4.92031228,1.30568539 C4.89595769,1.31980392 4.87363266,1.33190552 4.84927807,1.34602405 C4.71735739,1.4226675 4.58746626,1.50132788 4.46366378,1.58200519 C4.44742739,1.59208986 4.43322055,1.60217452 4.41698416,1.61024225 C4.27491574,1.70302117 4.13893596,1.79580008 4.00701528,1.89059592 C4.00092664,1.89462979 3.99483799,1.90068059 3.98874934,1.90471445 C3.80811949,2.03581509 3.63966694,2.16893266 3.47933258,2.30205023 C3.46918483,2.31011796 3.45700754,2.32020263 3.44685979,2.32827036 C3.40829836,2.36054129 3.37176648,2.39281221 3.3352346,2.42710007 C3.27840724,2.47752339 3.21955032,2.52592978 3.1647525,2.5763531 C3.07545235,2.65703042 2.99021129,2.73972467 2.90699979,2.82040198 C2.8948225,2.83250358 2.88061566,2.84460518 2.86843836,2.85670677 C2.86843836,2.85670677 2.86843836,2.85670677 2.86843836,2.85670677 C0.327443163,5.38392368 -2.81632805,11.6364156 4.74577108,19.1535245 L4.74577108,19.1515075 Z" id="Path"></path>
                <polygon id="Rectangle" transform="translate(24.6993, 10.0768) rotate(-45) translate(-24.6993, -10.0768)" points="24.6222534 9.99977045 24.7758573 10.0002494 24.7763362 10.1538533 24.6227323 10.1533744"></polygon>
                <path d="M27.5335459,31.8662524 C27.6066097,31.6121189 27.6735848,31.3600023 27.7344713,31.1099026 C27.8927761,30.4806195 28.0206376,29.8674719 28.1302333,29.2724767 C28.2256221,28.7621927 28.306804,28.2660272 28.3839269,27.7839803 L28.3839269,27.7839803 C28.3839269,27.7839803 28.3839269,27.7819633 28.3839269,27.7799464 C28.3920451,27.7295231 28.4001633,27.6770828 28.4082815,27.6266595 C28.4752566,27.1728496 28.5300544,26.7250905 28.576734,26.2853991 C28.6457387,25.6440145 28.7005365,25.0167483 28.7451866,24.4056177 C28.7451866,24.3894822 28.7472161,24.3713298 28.7492457,24.3551944 C28.7979549,23.7158266 28.8405754,23.0905774 28.887255,22.4794468 C28.9258164,21.9691628 28.9704665,21.4689634 29.0252643,20.9788487 L29.0252643,20.9788487 C29.0252643,20.9788487 29.0252643,20.9768318 29.0252643,20.9748148 C29.0800622,20.4725986 29.1490668,19.9804669 29.2343079,19.4943861 C29.3459331,18.8691369 29.4859719,18.2580063 29.6767495,17.6589772 C30.1780481,16.0777018 31.006104,14.5791207 32.4612906,13.1329798 L37.3626511,8.2620869 C38.3916324,7.23950193 39.9645328,7.23950193 40.9935141,8.2620869 C42.0224954,9.28467187 42.0224954,10.8477949 40.9935141,11.8703798 L34.7749763,18.0502622 L34.4096575,18.4133101 L34.4096575,18.4133101 C34.4096575,18.4133101 34.0707229,18.7239178 34.0707229,18.7239178 L32.4531724,20.2043465 C34.8277446,20.8638835 37.3058238,21.9046209 39.9259714,23.7702838 L41.2715623,22.4270065 L42.2437162,21.4568618 L42.2843072,21.4165231 L44.6284361,19.0869657 C52.0728214,11.6888559 49.046764,5.434347 46.4448824,2.84863904 C43.9038872,0.323439076 37.6102561,-2.80482382 30.0440979,4.71228503 L27.0566019,7.68121023 L27.0180405,7.71953195 C26.1798368,8.55252523 25.5100857,9.4399757 24.9661666,10.3657479 C23.8275897,12.3060373 23.2552569,14.4177661 22.9122631,16.5718504 C22.8939972,16.6908494 22.8757312,16.8098484 22.8574653,16.9288475 C22.7661356,17.5500628 22.6910423,18.1732951 22.6260967,18.7965273 C22.6098603,18.7965273 22.5936239,18.7945104 22.5773875,18.7924935 L22.6220376,18.8348491 C22.5712989,19.318913 22.5266488,19.8029768 22.4840283,20.2850238 C22.4840283,20.2850238 22.4840283,20.2870407 22.4840283,20.2890577 C22.4393782,20.789257 22.3967577,21.2874394 22.3521076,21.781588 C22.3338417,21.9852982 22.3155757,22.1890084 22.2952803,22.3927187 C22.1653891,23.4455576 22.0456457,24.4036007 21.9137251,25.2890343 C21.8366022,25.8053691 21.7554202,26.2954838 21.6681496,26.7674461 C21.6681496,26.7674461 21.6681496,26.769463 21.6681496,26.77148 C21.5727608,27.2857978 21.4672243,27.7779295 21.3474809,28.2498918 C21.1871466,28.8872425 21.0024576,29.4923224 20.7792072,30.0772329 C19.9917423,32.1466061 18.7374811,33.9860489 16.4867114,36.2228274 L11.9486401,40.7326894 C10.9196588,41.7552743 9.34675839,41.7552743 8.31777711,40.7326894 C7.28879582,39.7101044 7.28879582,38.1469814 8.31777711,37.1243964 L15.95294,29.5366949 L17.0428077,28.453602 L17.0428077,28.453602 L17.4527766,28.0461815 L17.4345107,28.0461815 L17.6029632,27.8767592 C14.9178701,27.5399314 12.1678313,26.9368684 9.65119072,25.4745921 L8.11076312,26.739209 L7.00668853,27.6448119 L7.00668853,27.6004394 L6.75096537,27.8545729 L6.1502189,28.451585 L4.68894371,29.9037767 C-2.75544159,37.3018865 0.270615795,43.5563954 2.87249746,46.1421033 C5.47437913,48.7278113 11.7680102,51.7350582 19.2123955,44.3369484 C19.7563146,43.7964104 20.5437796,43.0138404 21.8751636,41.5717334 C21.9786706,41.4608021 22.0781185,41.3498708 22.179596,41.2389395 C22.9975042,40.3414044 23.7037872,39.4600047 24.3106223,38.5967574 C24.3106223,38.5967574 24.3106223,38.5967574 24.3106223,38.5947405 C24.3106223,38.5947405 24.3106223,38.5927236 24.3126518,38.5907066 C26.0012365,36.1905565 26.9429472,33.9356255 27.5315164,31.8561677 L27.5315164,31.8561677 L27.5335459,31.8662524 Z" id="Path"></path>
            </g>
        </g>
    </g>
</svg>