<svg xmlns="http://www.w3.org/2000/svg" width="174" height="56" viewBox="0 0 174 56"><g fill="none" fill-rule="evenodd"><path fill="#000" d="M27.9999355,0 C43.4535254,0 56,12.546465 56,28.000043 C56,43.453664 43.4535254,56 27.9999355,56 C12.5463456,56 0,43.453664 0,28.000043 C0,12.546465 12.5463456,0 27.9999355,0 Z M27.9999355,2.8000473 C14.0917046,2.8000473 2.79996345,14.0918228 2.79996345,28.000043 C2.79996345,41.9083062 14.0917046,53.1999957 27.9999355,53.1999957 C41.9081664,53.1999957 53.1999506,41.9083062 53.1999506,28.000043 C53.1999506,14.0918228 41.9081664,2.8000473 27.9999355,2.8000473 Z M32.8570237,6.16294194 C42.8128507,8.4397003 50.250267,17.3579713 50.250267,28.000043 C50.250267,39.2677825 41.9124662,48.6035237 31.0756041,50.1690907 C31.5791142,50.0722156 32.0727347,49.9468756 32.547006,49.787911 C41.6458767,46.7363669 42.448655,35.5608587 34.4324815,27.6723962 C25.860813,19.2382857 20.8254108,8.47882873 32.4674591,6.21067002 C32.6020438,6.18444108 32.7220091,6.16767175 32.8570237,6.16294194 Z M22.7852304,49.8239436 C12.8585563,47.5258151 5.45033581,38.6210455 5.45033581,28.000043 C5.45033581,16.5311146 14.0884798,7.06375568 25.2080987,5.75445838 C14.1621788,8.12495297 13.3000629,20.1765079 21.6002402,28.3440292 C27.1743681,33.8293184 29.6226914,38.8287271 30.1954288,41.9639889 C31.3452034,48.2591506 24.6158831,49.763058 22.7852304,49.8239436 Z"/><path fill="#FFF" d="M27.8879249,2.8000473 C41.7963708,2.8000473 53.087725,14.0918228 53.087725,28.000043 C53.087725,41.9083062 41.7963708,53.1999957 27.8879249,53.1999957 C13.9796941,53.1999957 2.68799587,41.9083062 2.68799587,28.000043 C2.68799587,14.0918228 13.9796941,2.8000473 27.8879249,2.8000473 Z M27.7382908,5.6000946 C15.3754189,5.6000946 5.33832523,15.6371806 5.33832523,28.000043 C5.33832523,40.3629484 15.3754189,50.4000344 27.7382908,50.4000344 C40.1009477,50.4000344 50.1380414,40.3629484 50.1380414,28.000043 C50.1380414,15.6371806 40.1009477,5.6000946 27.7382908,5.6000946 Z"/><g fill="#000" transform="translate(66 16)"><path d="M13.4701443 6.58026259C13.4820152 5.42904503 13.1615007 4.55112623 12.5086007 3.94658126 11.8556242 3.34211135 10.9470019 3.03983887 9.78281048 3.03983887 8.94832394 3.03983887 8.20428606 3.18853561 7.55054366 3.48585404 6.89687786 3.78317247 6.36643974 4.19195716 5.95915271 4.71220812 5.55186569 5.23245908 5.30050878 5.82484409 5.20523517 6.4892881 5.12443641 7.04144018 5.1704649 7.51732981 5.34332064 7.91695701 5.51617638 8.31665926 5.76983088 8.65143336 6.10428414 8.92150448 6.43866081 9.19150054 6.80887997 9.41525874 7.21486502 9.59270403 7.62077349 9.77014931 8.01320273 9.91576854 8.39199958 10.0295617L10.2993099 10.621121C10.9139165 10.8031451 11.5387092 11.0507728 12.1738411 11.3640793 12.808973 11.6773108 13.3808444 12.0872965 13.8894554 12.5938862 14.3981429 13.1005511 14.7785481 13.7292658 15.0309006 14.4801056 15.2831766 15.2309453 15.3324983 16.1320581 15.1789423 17.1832938 14.9855614 18.4967943 14.5199921 19.6663268 13.7822343 20.6917414 13.0444765 21.7171559 12.0742021 22.5248923 10.8715642 23.1149504 9.66884976 23.7050085 8.27015045 24 6.67531311 24 5.1574452 24 3.87967598 23.7243743 2.84185227 23.1729729 1.80410515 22.6216465 1.04375434 21.8359031.561029615 20.815818.0782282979 19.7957328-.092942537 18.5817638.0474405236 17.1740613L3.13088973 17.1740613C3.06203847 18.0205293 3.19721364 18.7213781 3.53626209 19.2765327 3.87531054 19.8316121 4.3567333 20.2449756 4.98060696 20.5165479 5.60448062 20.7881203 6.30984231 20.9239064 7.09653887 20.9239064 7.96809328 20.9239064 8.76543537 20.7661273 9.48864172 20.4505689 10.2118481 20.1350856 10.8085335 19.6943998 11.2787746 19.1285865 11.7490158 18.5627733 12.0370576 17.9022325 12.1430533 17.146889 12.2489725 16.4582002 12.1641912 15.8923869 11.8887096 15.4494492 11.6131513 15.0064365 11.2032604 14.6416378 10.6588835 14.3549781 10.1145832 14.0683184 9.49400277 13.8157366 8.79729535 13.5973829L6.5005427 12.8418893C4.9469089 12.3322971 3.76808944 11.5844598 2.96400774 10.5984525 2.16000263 9.61244519 1.87127151 8.30945336 2.0977378 6.68947701 2.29908372 5.34857915 2.79023297 4.17717006 3.57103237 3.17524974 4.35183177 2.17332941 5.32532281 1.39366606 6.49158208.836184626 7.65784136.278703188 8.92174842 0 10.2833799 0 11.6608647 0 12.8340934.27982911 13.8029892.839562392 14.7719616 1.39929567 15.4878923 2.17362966 15.9507811 3.16271447 16.4136699 4.15172422 16.5749611 5.29093195 16.4345015 6.58026259L13.4701443 6.58026259ZM19.4431257 8.8737654 17.2212746 8.8737654 17.610717 6.14332985 19.8365505 6.14332985 20.439899 1.95677711 23.4121446 1.95677711 22.8034351 6.14332985 25.9473876 6.14332985 25.5579453 8.8737654 22.4063341 8.8737654 21.0081709 18.4892881C20.9168032 19.1444996 20.9326566 19.6386291 21.0558842 19.9715267 21.1791119 20.3044993 21.3727992 20.5290081 21.6370226 20.6450531 21.9012461 20.7611732 22.1949553 20.8191957 22.5181503 20.8191957 22.7565641 20.8191957 22.9651858 20.8005805 23.1439387 20.7634251 23.3227682 20.7263447 23.4638405 20.6963201 23.5670791 20.6735765L23.7259961 23.4859041C23.5273307 23.5587137 23.2608097 23.6356517 22.9263564 23.7168682 22.5919032 23.7980096 22.1882923 23.8423709 21.7155238 23.8499521 20.9285975 23.8636133 20.2216275 23.7020811 19.5945372 23.3653554 18.9673703 23.0285546 18.4985077 22.5124321 18.1879495 21.8169877 17.8773146 21.1214682 17.8001154 20.2458012 17.9564285 19.1899868L19.4431257 8.8737654ZM29.6825114 24C28.7156068 24 27.8715469 23.794857 27.1503318 23.3846462 26.4291167 22.9743603 25.8966874 22.3736434 25.5529671 21.5825707 25.2092469 20.791498 25.1181855 19.8256072 25.2797065 18.6849733 25.4294331 17.6928861 25.7175515 16.8789947 26.1440618 16.2434493 26.570572 15.607904 27.0910539 15.1028154 27.7056606 14.7281837 28.3201907 14.3534769 28.9887143 14.0717713 29.7113079 13.8829166 30.433825 13.694062 31.1633114 13.5533968 31.8997672 13.4608461 32.8242429 13.3363942 33.5759395 13.2325091 34.1547037 13.1490408 34.7335445 13.0656475 35.1686324 12.934365 35.460044 12.7554185 35.7514557 12.5763969 35.9289832 12.2836572 35.9926266 11.8771995L35.9926266 11.7952323C36.1317077 10.8123026 36.0074843 10.0463755 35.6200332 9.49722585 35.2326587 8.9481513 34.5620673 8.67357649 33.6084121 8.67357649 32.6150086 8.67357649 31.7815943 8.92390645 31.108016 9.42441624 30.4345143 9.92500109 29.9407611 10.4847344 29.6269096 11.103541L26.9646096 10.3754449C27.4413605 9.31362553 28.0476193 8.45469728 28.7833858 7.79866015 29.5191524 7.14262302 30.3278293 6.66478179 31.2093399 6.36521152 32.090774 6.06564124 32.9911249 5.91581858 33.9103161 5.91581858 34.5197149 5.91581858 35.1528556 5.99816099 35.8098146 6.16277077 36.4667736 6.32738054 37.0650674 6.62544959 37.604849 7.0569779 38.1446307 7.48850621 38.5465567 8.1043104 38.8108567 8.90446553 39.0750802 9.70462066 39.1158242 10.7410693 38.9330888 12.0136612L37.2483389 23.6178621 34.3474719 23.6178621 34.7050543 21.2333848 34.5858857 21.2333848C34.336903 21.6670899 33.9895066 22.097117 33.5437731 22.523391 33.0980397 22.949665 32.5536628 23.3023038 31.9106425 23.5813823 31.2676222 23.8604608 30.5248863 24 29.6825114 24ZM30.6998099 21.278722C31.5235743 21.278722 32.2546691 21.0921192 32.8930942 20.7189887 33.5315193 20.3459332 34.0500865 19.8582589 34.4487958 19.2560409 34.8475052 18.6538979 35.0971772 18.0084444 35.1978884 17.3198306L35.5236874 15.0626576C35.3991578 15.1855332 35.1789716 15.2966241 34.8630522 15.3960055 34.5471329 15.4953868 34.1941457 15.582233 33.8040906 15.6565438 33.4140356 15.7308546 33.0325582 15.7952574 32.6597351 15.8499021 32.286912 15.9045468 31.9779621 15.9515353 31.7329618 15.9908675 31.147458 16.0789146 30.6010899 16.2204055 30.0937809 16.415265 29.5864719 16.6101996 29.1639442 16.8915299 28.8261211 17.2594061 28.4883746 17.6272073 28.2785276 18.1145063 28.1964269 18.7213031 28.0731992 19.5631173 28.2489652 20.1998636 28.7238781 20.631392 29.1987144 21.0629203 29.8573584 21.278722 30.6998099 21.278722ZM40.0455843 23.6178621 43.4231257.318560822 46.3951415.318560822 45.1559719 8.97382232 45.3305892 8.97382232C45.5557535 8.61285177 45.8651629 8.19310811 46.2580517 7.71451626 46.6517063 7.23592441 47.16407 6.81648099 47.7959087 6.456186 48.4277473 6.09596607 49.2165883 5.91581858 50.1624316 5.91581858 51.391645 5.91581858 52.4362849 6.27153482 53.2963514 6.98289224 54.1571837 7.69432473 54.7668122 8.72199113 55.1267688 10.0659665 55.4859595 11.4099419 55.5296138 13.0269908 55.2562 14.9170383 54.9866155 16.8009308 54.478847 18.417154 53.7344262 19.7657082 52.9900053 21.1142623 52.083987 22.1495099 51.017137 22.8715261 49.9495212 23.5935422 48.798426 23.9545128 47.5638516 23.9545128 46.636389 23.9545128 45.9080514 23.7774428 45.3773069 23.4233028 44.8465625 23.0690878 44.4500741 22.6527219 44.1871527 22.1741301 43.9242312 21.6955382 43.7278634 21.2697146 43.5981259 20.896509L43.3437055 20.896509 42.9462981 23.6178621 40.0455843 23.6178621ZM44.2338704 14.8806335C44.061704 16.1061619 44.0630059 17.1827684 44.2378529 18.1103779 44.4126233 19.0379874 44.7592538 19.7615798 45.2769786 20.2810801 45.7947034 20.8006555 46.4801526 21.0604432 47.3333262 21.0604432 48.2179003 21.0604432 48.9975509 20.7892462 49.6715122 20.2470022 50.3454734 19.7046832 50.9014914 18.966754 51.3388003 18.0330646 51.7753434 17.0994502 52.0801577 16.0485898 52.2524773 14.8806335 52.4140748 13.7246871 52.4117772 12.6890642 52.2463504 11.7736146 52.0809236 10.8582402 51.7385819 10.1354734 51.2193254 9.60531435 50.7000689 9.07515528 49.9931755 8.81011328 49.0971134 8.81011328 48.2339835 8.81011328 47.4681185 9.06307039 46.80105 9.56890954 46.1332157 10.0747487 45.5817929 10.7823531 45.1460157 11.6916475 44.7102385 12.6010171 44.4060369 13.6640374 44.2338704 14.8806335Z"/><polygon points="62.258 .319 58.88 23.618 55.908 23.618 59.285 .319"/><path d="M64.8701037,15.899893 C64.6977841,17.1625769 64.7299504,18.178909 64.9658369,18.9488143 C65.203255,19.7223977 65.6183539,20.2844579 66.2118993,20.6348448 C66.8054447,20.9853067 67.5506314,21.1605002 68.448991,21.1605002 C69.0264533,21.1605002 69.5602612,21.0683247 70.0511807,20.8839738 C70.5421002,20.6996228 70.980175,20.4220455 71.3661709,20.0511669 C71.7529328,19.6802882 72.075362,19.2188104 72.3349902,18.6667334 L75.0530452,19.2492103 C74.6900252,20.1957353 74.1677052,21.0235881 73.4868512,21.7326936 C72.8052313,22.4417992 72.0010731,22.9924501 71.0743764,23.3846462 C70.1476797,23.7767672 69.1267816,23.9728278 68.0116821,23.9728278 C66.5151818,23.9728278 65.2783098,23.6023244 64.3003002,22.8613177 C63.3230564,22.1202359 62.6399048,21.0766565 62.2500795,19.7304293 C61.86102,18.3842021 61.7974532,16.8070107 62.0593791,14.9990054 C62.3190073,13.2060124 62.8390297,11.6268695 63.620212,10.2617268 C64.4006285,8.89650902 65.3763405,7.83086152 66.5465823,7.06485935 C67.7168241,6.29885719 69.0080725,5.91581858 70.4195618,5.91581858 C71.2857551,5.91581858 72.1006355,6.07810145 72.8626712,6.40274225 C73.6247069,6.72730798 74.2756922,7.23922712 74.8148612,7.93857471 C75.3540302,8.63784724 75.7277723,9.54383902 75.9360876,10.656475 C76.1451688,11.769186 76.1336808,13.1165392 75.9031554,14.6986095 L75.7361968,15.899893 L64.8701037,15.899893 Z M65.2484411,13.3514815 L73.1697831,13.3514815 C73.3045753,12.4626788 73.2655162,11.6705553 73.0533716,10.9750358 C72.8404611,10.2795164 72.478207,9.73119241 71.9666091,9.32998893 C71.4542454,8.92878544 70.8116847,8.72814617 70.038161,8.72814617 C69.2439589,8.72814617 68.5026016,8.96706679 67.8140889,9.44490802 C67.1263421,9.92267419 66.5504116,10.5302216 66.0878291,11.2674002 C65.6643058,11.9417523 65.384765,12.6364461 65.2484411,13.3514815 Z"/><polygon points="81.617 .319 85.718 8.264 85.877 8.264 90.002 .319 94.858 .319 88.65 11.968 95 23.618 90.049 23.618 85.877 15.663 85.718 15.663 81.546 23.618 76.618 23.618 82.984 11.968 76.738 .319"/></g></g></svg>