<?xml version="1.0" encoding="UTF-8"?>
<svg width="32px" height="32px" viewBox="0 0 32 32" version="1.1" xmlns="http://www.w3.org/2000/svg" xmlns:xlink="http://www.w3.org/1999/xlink">
    <title>logo-app-small-dark</title>
    <g id="logo-app-small-dark" stroke="none" stroke-width="1" fill="none" fill-rule="evenodd">
        <rect id="Square-Area" x="0" y="0" width="32" height="32"></rect>
        <g id="Group-2-Copy" fill="#000000">
            <path d="M16,0 C24.836556,0 32,7.163444 32,16 C32,24.836556 24.836556,32 16,32 C7.163444,32 0,24.836556 0,16 C0,7.163444 7.163444,0 16,0 Z M18.613327,14.5446084 C18.600652,14.6617655 18.5897876,14.7785829 18.5798287,14.8972115 C18.570775,15.0049734 18.5617214,15.1136408 18.5535732,15.2241193 C18.5463303,15.3182977 18.5390874,15.4133817 18.5327498,15.5093712 L18.5264123,15.5972107 C18.515548,15.7538729 18.5037783,15.9114406 18.4920086,16.0708195 C18.4901978,16.0898363 18.4883871,16.1097586 18.4874817,16.1287754 C18.4657531,16.4067829 18.4413083,16.6893181 18.4078099,16.980909 C18.3887973,17.150249 18.3670686,17.3223057 18.3408131,17.4979847 L18.3281381,17.5785797 L18.315463,17.6609858 C18.5499517,17.7415808 18.7771975,17.8339481 19.0008219,17.94171 C19.4544082,18.1608559 19.8953195,18.4433911 20.3588647,18.8201048 C20.4312937,18.8789663 20.504628,18.9405445 20.5779623,19.0039338 C20.6331894,19.0519286 20.6884165,19.1008289 20.7445489,19.1515404 C20.9129462,19.3027692 21.084965,19.4666759 21.2633212,19.6450715 L23.2877104,21.6699075 C23.3954485,21.7776693 23.4778364,21.898109 23.5348742,22.0266988 C23.5538868,22.0692602 23.5701833,22.1118216 23.5837637,22.1598164 C23.5982495,22.2069056 23.6082085,22.2539948 23.6154514,22.3019895 C23.6172621,22.3128563 23.6190728,22.323723 23.6199782,22.3345898 C23.6254104,22.3744345 23.6281265,22.4142792 23.6290318,22.4550295 L23.6299372,22.4921575 C23.6299372,22.5419634 23.6263157,22.5917693 23.6190728,22.6442919 C23.6027763,22.749337 23.571994,22.8516655 23.5258206,22.9503717 L23.5176723,22.9666718 C23.4905115,23.0219111 23.4588238,23.0753392 23.4226093,23.1269563 C23.4189879,23.1323896 23.4144611,23.137823 23.4099342,23.1432564 C23.3746251,23.1921567 23.3347892,23.2401515 23.2840889,23.2917685 C23.2587388,23.3171242 23.231578,23.3388577 23.2044171,23.3605912 L23.1876679,23.3750802 L23.1709187,23.3895692 C23.1582436,23.3995303 23.1446632,23.4094915 23.1319882,23.4185471 C23.0975844,23.4429973 23.0631807,23.4647308 23.0278715,23.4846531 C22.926471,23.5417035 22.8205437,23.5815482 22.7109949,23.6050928 L22.6928876,23.6096206 C22.6005407,23.6277319 22.5072885,23.6331652 22.4140362,23.6277319 C22.3950236,23.6268263 22.3751056,23.6259208 22.356093,23.6232041 L22.2746105,23.6114318 C22.2583139,23.6087151 22.2420174,23.6041873 22.2257209,23.600565 C22.1315633,23.5788315 22.0401217,23.5453258 21.9477748,23.4964254 C21.9151818,23.4792198 21.8834941,23.4592974 21.8490904,23.4366584 C21.785715,23.394097 21.7250558,23.3442911 21.668018,23.2872407 L19.1637871,20.782457 L17.915293,19.5364041 C17.872741,19.6858218 17.8265676,19.8370506 17.7758673,19.989185 C17.5341357,20.7190677 17.1991518,21.4706839 16.7084457,22.2512781 C16.591654,22.4360127 16.4676194,22.6225584 16.3318151,22.8127263 L17.7767727,24.2552861 L18.4304439,24.9091017 C20.376972,26.8560593 22.1469544,27.1965505 23.5131455,26.9122042 L23.571994,26.9004319 C23.6235997,26.8886596 23.6733946,26.8759817 23.7240948,26.8623983 L23.8101042,26.8388537 C23.8580884,26.8252702 23.9051672,26.8107813 23.9513406,26.7962923 C23.9803122,26.7872367 24.0092838,26.7772755 24.0382554,26.7673143 C24.0835235,26.7519198 24.1287916,26.7356196 24.1731543,26.7193195 C24.1985044,26.7093584 24.2238546,26.6984916 24.2482993,26.6885304 C24.299905,26.6677025 24.3515106,26.645969 24.4022109,26.62333 C24.5081382,26.5753352 24.6095387,26.5246238 24.7073178,26.4711956 C24.8530811,26.3915062 24.9888854,26.307289 25.1165414,26.2185439 C25.1518505,26.1940937 25.1871596,26.1696436 25.220658,26.1451934 C25.2451028,26.1270822 25.2695475,26.1080654 25.2930869,26.0899541 L25.3818124,26.0211315 C25.4044465,26.0030202 25.4261751,25.984909 25.4479038,25.9667978 C25.4786861,25.941442 25.5076577,25.9160863 25.5366293,25.889825 C25.5538312,25.8744305 25.5719384,25.8590359 25.5891403,25.8427358 C25.613585,25.8200968 25.6362191,25.7974577 25.6597585,25.7757242 C25.6778657,25.7585186 25.6968783,25.7404073 25.7177017,25.720485 C25.7367143,25.7005626 25.7566322,25.6797347 25.7756448,25.6598123 C25.8290612,25.6045731 25.8824775,25.5466171 25.9358939,25.4841334 C25.9521904,25.464211 25.9693923,25.4433831 25.9856888,25.4234607 C26.0418212,25.3555436 26.0970483,25.2858154 26.15137,25.2106537 C26.2219882,25.1137586 26.2917011,25.0105246 26.3577925,24.9018572 C26.4048713,24.8248844 26.4501394,24.7433839 26.4945021,24.6609778 C26.499029,24.6528277 26.5035558,24.6437721 26.5080826,24.6356221 C26.5515399,24.5514048 26.594092,24.4653765 26.6330225,24.3766314 C26.6882496,24.2516639 26.7389499,24.121263 26.7833126,23.9863343 C26.8059466,23.9184172 26.82677,23.8505001 26.8457826,23.7798662 C26.901915,23.5788315 26.9435616,23.3669301 26.9689118,23.1468786 C26.9879244,22.9847831 26.9987887,22.8181597 26.9979358,22.646103 C26.9979358,22.4840074 26.987019,22.3182897 26.967101,22.1480441 C26.9462777,21.9777985 26.9154954,21.8048362 26.8711327,21.6300628 C26.839445,21.4996619 26.8014198,21.3674499 26.7570571,21.2334267 L26.7516249,21.2171266 C26.7063568,21.0831035 26.6547512,20.9472692 26.5959027,20.8096239 C26.5153255,20.6221726 26.4211678,20.4320046 26.3125244,20.23912 C26.2319472,20.0960412 26.1432217,19.9511514 26.046348,19.8053559 C26.0436319,19.8017337 26.0418212,19.7981114 26.0391051,19.7944892 C25.941326,19.6477882 25.8353987,19.5001816 25.7195124,19.350764 C25.6036261,19.2013463 25.4795915,19.051023 25.3392604,18.8916442 C25.2043615,18.7386043 25.0622197,18.5855643 24.9074028,18.4298077 L24.7631489,18.2858486 C24.5272107,18.0513278 24.1956237,17.7277504 23.6652463,17.2417108 C23.2098493,16.8170023 22.7644112,16.4593054 22.3298375,16.1541312 C21.0913025,15.2875086 19.9387768,14.860989 18.8930839,14.6083373 L18.7525264,14.5751711 L18.613327,14.5446084 Z M25.718607,6.27898079 C24.585094,5.14521754 21.7775668,3.74069134 18.4023777,7.11571981 L17.0524832,8.4659123 C16.6785687,8.83990929 16.3797993,9.23835644 16.1371623,9.65400926 C15.6292543,10.5251596 15.3739423,11.4732827 15.2209361,12.4404226 L15.1964913,12.600707 C15.1557501,12.87962 15.1222517,13.1594386 15.0932801,13.4392572 L15.0715514,13.437446 L15.0914694,13.4564628 C15.0688353,13.6737977 15.0489174,13.8911325 15.0299048,14.1093728 C15.0099868,14.3339521 14.9909742,14.5576259 14.9710562,14.7794885 L14.9457061,15.0538737 C14.8877629,15.5265769 14.8343466,15.9567187 14.7754981,16.3542603 L14.7224212,16.6936195 L14.6659493,17.0198481 C14.6233973,17.2507664 14.5763185,17.4717234 14.5229021,17.6836249 C14.4513785,17.9697824 14.3689906,18.2414509 14.2694008,18.5040638 C13.9181204,19.4331701 13.3586067,20.2590423 12.3545604,21.2633103 L10.3301713,23.2881462 C9.8711528,23.747266 9.16949735,23.747266 8.71047888,23.2881462 C8.25146041,22.8290265 8.25146041,22.1272161 8.71047888,21.6680964 L12.1164502,18.2613732 L12.7773644,17.5921631 L12.8525094,17.516096 C11.6547157,17.3648671 10.4279504,17.0941042 9.30530163,16.437572 L8.61813197,17.0053592 L8.12561511,17.4119564 L8.12561511,17.392034 L7.09169185,18.4261855 C3.7708245,21.7477858 5.12071905,24.5559326 6.28139298,25.7168627 C7.4420669,26.8777928 10.2495941,28.2279853 13.5704614,24.906385 L13.7143888,24.7621047 C13.9488578,24.5261389 14.2723638,24.1946135 14.7582962,23.6648599 C14.8044696,23.615054 14.8488324,23.5652481 14.8941005,23.5154422 C15.1677461,23.213211 15.4133821,22.9150548 15.6333001,22.6213557 L15.8456358,22.3264397 C16.5235708,21.3565831 16.9316355,20.4395389 17.1978716,19.5852094 L17.2824451,19.307297 C17.3150381,19.1931962 17.3449151,19.080001 17.3720759,18.9677114 C17.4426941,18.6851761 17.4997319,18.4098854 17.5486215,18.1427447 L17.6082622,17.8038382 L17.6617917,17.472629 C17.6654132,17.4499899 17.6690346,17.4264453 17.6726561,17.4038063 C17.702533,17.2000549 17.7269778,16.9990202 17.7478011,16.8016078 C17.7785834,16.5136391 17.8030282,16.2320095 17.8229461,15.9576243 C17.8229461,15.9503798 17.8238515,15.9422297 17.8247569,15.9349852 C17.8464855,15.6479222 17.8654981,15.367198 17.8863215,15.0928128 L17.9143877,14.752548 L17.9478861,14.4172638 C17.9723308,14.1917789 18.0031131,13.9708219 18.0411383,13.7525815 C18.0909332,13.4718574 18.1534032,13.1974722 18.2385072,12.9285204 C18.4621316,12.21856 18.8315193,11.5457277 19.4806637,10.8964399 L21.6671126,8.7095084 C22.1261311,8.25038862 22.8277866,8.25038862 23.286805,8.7095084 C23.7458235,9.16862819 23.7458235,9.8704385 23.286805,10.3295583 L20.5127763,13.1041993 L20.3498111,13.2672004 C20.3498111,13.2672004 20.1986157,13.406657 20.1986157,13.406657 L19.4770423,14.0713392 C20.5363157,14.3674579 21.6417625,14.8347278 22.8105847,15.6723723 L23.4108396,15.0692682 L23.8445079,14.6336931 L24.9083081,13.5696581 C28.2291755,10.2480577 26.8792809,7.4399109 25.718607,6.27898079 Z M9.34966436,5.0021388 C9.33065176,5.0021388 9.31254453,5.00394992 9.29353193,5.00394992 C9.22925123,5.00394992 9.16497054,5.0066666 9.10250057,5.01028885 C9.07352899,5.01209997 9.04365205,5.01300554 9.01468047,5.01572222 C8.92414428,5.02296671 8.83451346,5.03202233 8.74669336,5.04379463 C8.74035582,5.0447002 8.73401829,5.04560576 8.72768076,5.04651132 C8.66883223,5.05556694 8.61088907,5.06552811 8.55294591,5.07639485 C8.5438923,5.07820598 8.53483868,5.0800171 8.5248797,5.08182822 C8.46874726,5.09269497 8.41261482,5.10537283 8.35738775,5.11805069 C8.34923949,5.11986182 8.34109124,5.1225785 8.33294298,5.12438962 C8.27681054,5.13797305 8.22067811,5.1533676 8.16092422,5.17057327 C8.0522808,5.20226793 7.94635346,5.23939596 7.84404757,5.27833511 C7.83408859,5.28195736 7.82231888,5.28557961 7.8123599,5.28920185 C7.80330628,5.2928241 7.79515803,5.29644635 7.78610441,5.3000686 C7.75622747,5.3118409 7.72816125,5.32451876 7.69918967,5.33629106 C7.67383954,5.3471578 7.64758404,5.35711898 7.62223391,5.36798572 C7.61499101,5.37070241 7.60865348,5.37432465 7.60141059,5.3779469 C7.53260308,5.408736 7.46470094,5.44133622 7.39860953,5.474842 L7.38412374,5.48299206 C7.31893768,5.51649784 7.25646771,5.55090919 7.19490311,5.58622609 C7.18403876,5.59256502 7.17407978,5.5979984 7.16321544,5.60433733 C7.10436692,5.63874867 7.04642376,5.67406558 6.99119668,5.71028805 C6.98395379,5.71481585 6.97761626,5.71934366 6.97037336,5.72296591 C6.90699803,5.76462175 6.84633878,5.80627759 6.78749026,5.84883899 C6.78477418,5.85065011 6.78205809,5.85336679 6.77934201,5.85517792 C6.6987648,5.91403943 6.62361976,5.9738065 6.55209618,6.03357357 C6.54756937,6.03719582 6.5421372,6.04172363 6.53761039,6.04534588 L6.48781548,6.0897184 C6.46246535,6.11235744 6.43620986,6.13409092 6.41176509,6.15672997 C6.37192916,6.19295243 6.33390396,6.23008046 6.29678413,6.26630293 L6.28818319,6.27445299 L6.27958225,6.28260304 C5.14606919,7.41727185 3.74366365,10.2245131 7.11704198,13.598636 L8.46693654,14.9488285 C8.90332096,15.3853093 9.37229841,15.7194615 9.86209918,15.98298 L9.96802652,16.034597 C10.0332126,16.0671972 10.0983986,16.0988919 10.1635847,16.129681 L10.2731335,16.1831091 C10.3202123,16.203937 10.3681965,16.2211427 10.4152753,16.2401595 L10.5592278,16.2981155 C10.6035906,16.3153211 10.6479533,16.3352435 10.692316,16.3515436 C10.7864737,16.3859549 10.8815367,16.4185552 10.9765996,16.4484387 C11.3921607,16.5806507 11.8176808,16.6775458 12.2468224,16.7518019 C12.3898695,16.776252 12.5338221,16.7988911 12.6777746,16.8188134 C12.8217271,16.8387358 12.966585,16.8577526 13.1105376,16.8740527 L13.4581965,16.9120863 L13.7242598,16.9381212 L13.989644,16.9609866 C14.0294799,16.7518019 14.0665997,16.5308448 14.1019088,16.2963043 C14.1037196,16.2836265 14.1055303,16.2718542 14.107341,16.2591763 C14.1326911,16.092553 14.1562305,15.9186851 14.1806753,15.7375728 C14.212363,15.5003156 14.2431453,15.249475 14.2757383,14.9832399 L14.2992777,14.7170047 C14.3110474,14.5866038 14.3228171,14.456203 14.3345868,14.3248965 L14.3468092,14.1862324 L14.3590316,14.045078 C13.4219821,13.9382217 12.5555508,13.737187 11.7334822,13.2029056 C11.7208071,13.1947555 11.7090374,13.187511 11.6963623,13.179361 C11.4247538,12.9991542 11.157672,12.7818194 10.8942117,12.5192065 L8.7077628,10.332275 C8.68693947,10.3114471 8.66792687,10.2897136 8.64981964,10.2679801 C8.63986065,10.2571134 8.62990167,10.2462466 8.62084806,10.2344743 C8.60093009,10.2091186 8.58191749,10.1837629 8.56381026,10.1584071 C8.555662,10.1466348 8.54841911,10.1348625 8.54117621,10.1230902 C8.49470097,10.0500416 8.45748054,9.97377316 8.42951491,9.89535822 L8.39450759,9.77626009 C8.3917915,9.76539335 8.38998078,9.75452661 8.38726469,9.74365987 L8.38364324,9.72735976 L8.37549499,9.67302605 L8.37187354,9.6458592 C8.37096818,9.63589802 8.37006282,9.62593685 8.37006282,9.61597567 C8.37006282,9.60601449 8.36825209,9.59605331 8.36825209,9.58609213 L8.36576235,9.50142211 L8.37006282,9.41312985 C8.3727789,9.39230193 8.37640035,9.37056845 8.37911644,9.34974053 C8.38183252,9.33253485 8.38454861,9.31532918 8.38817005,9.29812351 L8.38998078,9.28635121 C8.39360223,9.27095666 8.39722367,9.25465655 8.40175048,9.239262 L8.41985772,9.1776838 L8.43343815,9.13965021 C8.4415864,9.11610561 8.45064002,9.09346656 8.46150437,9.07082752 L8.46886043,9.05452741 L8.49681348,8.99838259 C8.50043493,8.99113809 8.50405637,8.98298804 8.50858318,8.97574354 C8.51492072,8.9648768 8.52125825,8.95401006 8.52940651,8.94042664 C8.54027085,8.9223154 8.55113519,8.90329861 8.56381026,8.88609293 C8.56562098,8.88337625 8.56833707,8.88065956 8.57014779,8.87794288 L8.58712333,8.85439828 L8.61088907,8.82270362 L8.62899631,8.79825345 C8.65344108,8.76927548 8.67879122,8.7402975 8.70685743,8.71222509 C8.72858612,8.69049161 8.75122016,8.67056925 8.77475957,8.65064689 C8.78200247,8.64430796 8.78834,8.63706347 8.7955829,8.6316301 C8.80101507,8.62710229 8.8073526,8.62257448 8.81369013,8.61804667 C8.85533678,8.58544645 8.89788879,8.55646848 8.94225152,8.53020719 C8.9902357,8.50122921 9.03821988,8.47587348 9.08892014,8.45504556 C9.22653515,8.39799518 9.37139305,8.3690172 9.51625095,8.3690172 C9.58324773,8.3690172 9.6502445,8.3762617 9.71724128,8.388034 C9.73172707,8.39075068 9.74621286,8.39437293 9.76069865,8.39708962 C9.96531044,8.44327326 10.161774,8.54831842 10.3265498,8.71313065 L13.1005786,11.4877717 L13.5704614,11.9487026 L14.4821608,12.8542643 C14.5643979,12.2045238 14.6818434,11.5472369 14.8764124,10.9023177 L15.0027439,10.5170096 C15.0851318,10.2860913 15.1774787,10.0578898 15.2843114,9.83240491 C15.3902388,9.60873117 15.5088412,9.38777412 15.6437401,9.16953375 L14.6143437,8.13991009 L13.56684,7.0921752 C12.7429607,6.26811405 11.9516744,5.73473821 11.2083723,5.41145268 C11.2020348,5.408736 11.1947919,5.40511375 11.1884543,5.40239707 C11.1794007,5.39877482 11.1703471,5.39515257 11.1612935,5.39153033 C11.1142147,5.37160797 11.0671358,5.35259117 11.0209624,5.33447994 C11.0028551,5.32723545 10.9856533,5.31999095 10.967546,5.31365202 C10.9050761,5.29010742 10.8426061,5.26746837 10.7810415,5.24664045 C10.7756093,5.24482933 10.7701771,5.24301821 10.764745,5.24120708 C10.6805463,5.21313467 10.5981584,5.18868451 10.5157705,5.16604546 C10.4967579,5.16061209 10.4786506,5.15608428 10.459638,5.15155648 C10.4288557,5.14340642 10.3989788,5.1343508 10.3681965,5.12710631 C10.3301713,5.11805069 10.2921461,5.1108062 10.2550262,5.10265614 C10.2405404,5.09993946 10.2260547,5.09631721 10.2106635,5.09269497 L10.0918348,5.06982953 L9.94867441,5.04753008 L9.92366379,5.0447002 C9.86572063,5.03655014 9.80868283,5.03021121 9.7525504,5.02477784 L9.66291957,5.01662778 C9.64843378,5.01572222 9.63304263,5.0139111 9.61855684,5.01300554 C9.59863888,5.01119441 9.57872092,5.01209997 9.55880296,5.01028885 C9.50629197,5.00757217 9.45378098,5.00485548 9.40126999,5.00394992 C9.38406811,5.00394992 9.36686624,5.0021388 9.34966436,5.0021388 Z" id="Combined-Shape"></path>
        </g>
    </g>
</svg>