<svg xmlns="http://www.w3.org/2000/svg" width="32" height="32" viewBox="0 0 32 32"><g fill="none" fill-rule="evenodd"><rect width="32" height="32"/><path fill="#000" d="M16,0 C24.836556,0 32,7.163444 32,16 C32,24.836556 24.836556,32 16,32 C7.163444,32 0,24.836556 0,16 C0,7.163444 7.163444,0 16,0 Z M18.7074689,4.29290678 C18.3169416,3.90237945 17.6837826,3.90237945 17.2932621,4.2929 L14.2930436,7.29311852 C13.9025163,7.68364585 13.9025163,8.31680475 14.2930436,8.70733208 L14.7396863,9.15401044 L9.64879817,11.0640705 C9.3102413,11.1910617 9.0666107,11.4909275 9.0116283,11.8483131 L7.0116283,24.8483131 C6.9682324,25.1303865 7.04582342,25.39597 7.20009829,25.6007115 L7.23368526,25.6420104 L7.24429274,25.6553444 L7.25968526,25.6720104 L7.27713535,25.6913647 L7.30900559,25.7232349 C7.32703457,25.7404791 7.34570284,25.7570594 7.36537504,25.7732837 C7.37669106,25.7825977 7.38816383,25.7916251 7.39944569,25.800108 C7.41982652,25.8154656 7.44080688,25.8300632 7.46286743,25.8441214 C7.47392856,25.8511776 7.48509814,25.8579948 7.49595425,25.8644662 C7.59494906,25.9225197 7.70465903,25.9640018 7.8215405,25.9844086 C7.82715675,25.9854221 7.83277999,25.9863872 7.83796263,25.9878855 C7.86984626,25.9930663 7.90222051,25.9967171 7.93497192,25.9982668 C7.94929517,25.9991945 7.96363456,25.9998153 7.97784906,26.0005014 L8.05268526,25.9980104 L8.15205718,25.988742 L21.1520572,23.988742 C21.5094428,23.9337596 21.8093086,23.690129 21.9362998,23.3515721 L23.8456863,18.2600104 L24.292845,18.7071335 C24.6833655,19.097654 25.3165245,19.097654 25.7070518,18.7071267 L28.7072703,15.7069082 C29.0977908,15.3163877 29.0977908,14.6832287 28.7072703,14.2927082 Z M16.2926863,10.7070104 L22.2926863,16.7070104 L20.269,22.1003703 L10.8666863,23.5470104 L14.7068895,19.708343 C15.8219031,20.2406941 17.1976338,20.0451365 18.1211,19.1216703 C19.2926616,17.9501087 19.2926616,16.0506319 18.1211,14.8790703 C16.9495384,13.7075087 15.0500616,13.7075087 13.8785,14.8790703 C12.9549532,15.8026171 12.7594421,17.1785074 13.2919667,18.2935727 L9.4516863,22.1340104 L10.899,12.7303703 L16.2926863,10.7070104 Z M15.2927068,16.2932635 C15.6832205,15.9027498 16.3163795,15.9027498 16.7069068,16.2932771 C17.0974205,16.6837908 17.0974205,17.3169498 16.7069068,17.7074635 C16.3163795,18.0979908 15.6832205,18.0979908 15.2927068,17.7074771 C14.9021795,17.3169498 14.9021795,16.6837908 15.2927068,16.2932635 Z M17.9989767,6.41418479 L26.5846672,14.9998753 L24.9986267,16.5859158 L24.1876108,15.7744005 L24.1670572,15.7529065 L16.4129361,8.0002253 L17.9989767,6.41418479 Z"/></g></svg>