<svg width="32" height="32" viewBox="0 0 32 32" fill="none" xmlns="http://www.w3.org/2000/svg">
<path fill-rule="evenodd" clip-rule="evenodd" d="M32 16C32 24.8365 24.8365 32 16 32C7.16352 32 0 24.8365 0 16C0 7.16352 7.16352 0 16 0C24.8365 0 32 7.16352 32 16Z" fill="#FCFCFC"/>
<path fill-rule="evenodd" clip-rule="evenodd" d="M29.471 15.9483C29.471 23.3627 23.4606 29.3731 16.0462 29.3731C8.63176 29.3731 2.62109 23.3627 2.62109 15.9483C2.62109 8.53389 8.63176 2.52344 16.0462 2.52344C23.4606 2.52344 29.471 8.53389 29.471 15.9483Z" fill="white"/>
<path fill-rule="evenodd" clip-rule="evenodd" d="M7.7937 12.1345L9.55348 17.2018L11.2179 12.1345H13.7515V19.5553H11.8963V15.0603L10.2532 19.5553H8.70527L7.06218 15.0603V19.5553H5.20703V12.1345H7.7937Z" fill="#56BEB7"/>
<path fill-rule="evenodd" clip-rule="evenodd" d="M18.257 16.8202C18.257 16.4174 18.158 16.094 17.9602 15.8502C17.7623 15.6063 17.4903 15.4845 17.1438 15.4845C16.7976 15.4845 16.5254 15.6063 16.3276 15.8502C16.1296 16.094 16.0306 16.4174 16.0306 16.8202C16.0306 17.223 16.1296 17.5464 16.3276 17.7902C16.5254 18.0341 16.7976 18.1559 17.1438 18.1559C17.4903 18.1559 17.7623 18.0341 17.9602 17.7902C18.158 17.5464 18.257 17.223 18.257 16.8202ZM14.5307 18.2937C14.2869 17.8698 14.165 17.3785 14.165 16.8202C14.165 16.2619 14.2869 15.7706 14.5307 15.3467C14.7745 14.9226 15.1208 14.5958 15.5696 14.366C16.0185 14.1363 16.5431 14.0215 17.1438 14.0215C17.7446 14.0215 18.2694 14.1363 18.7182 14.366C19.1669 14.5958 19.5133 14.9226 19.7571 15.3467C20.0008 15.7706 20.1228 16.2619 20.1228 16.8202C20.1228 17.3785 20.0008 17.8698 19.7571 18.2937C19.5133 18.7178 19.1669 19.0446 18.7182 19.2744C18.2694 19.5042 17.7446 19.6189 17.1438 19.6189C16.5431 19.6189 16.0185 19.5042 15.5696 19.2744C15.1208 19.0446 14.7745 18.7178 14.5307 18.2937Z" fill="#56BEB7"/>
<path fill-rule="evenodd" clip-rule="evenodd" d="M22.1631 12.5373C22.718 12.2263 23.3733 12.071 24.1296 12.071C24.7303 12.071 25.2675 12.1911 25.7409 12.4313C26.2145 12.6715 26.5925 13.0056 26.8752 13.4331C27.1581 13.8606 27.3204 14.35 27.3629 14.9013H25.4124C25.3418 14.5339 25.1843 14.2389 24.9407 14.0162C24.6969 13.7937 24.3911 13.6823 24.0236 13.6823C23.5218 13.6823 23.1314 13.8801 22.8522 14.276C22.5729 14.6717 22.4334 15.1946 22.4334 15.8449C22.4334 16.4951 22.5729 17.0182 22.8522 17.4139C23.1314 17.8097 23.5218 18.0076 24.0236 18.0076C24.3911 18.0076 24.6969 17.8963 24.9407 17.6735C25.1843 17.451 25.3418 17.156 25.4124 16.7884H27.3629C27.3204 17.3397 27.1581 17.8291 26.8752 18.2566C26.5925 18.6843 26.2145 19.0182 25.7409 19.2584C25.2675 19.4988 24.7303 19.6189 24.1296 19.6189C23.3733 19.6189 22.718 19.4634 22.1631 19.1524C21.6082 18.8415 21.1824 18.4034 20.8857 17.8378C20.5889 17.2725 20.4404 16.6082 20.4404 15.8449C20.4404 15.0815 20.5889 14.4172 20.8857 13.8519C21.1824 13.2866 21.6082 12.8484 22.1631 12.5373Z" fill="#56BEB7"/>
<path fill-rule="evenodd" clip-rule="evenodd" d="M15.9999 0.910339C7.666 0.910339 0.910156 7.66618 0.910156 16C0.910156 24.3337 7.666 31.0898 15.9999 31.0898C24.3337 31.0898 31.0896 24.3337 31.0896 16C31.0896 7.66618 24.3337 0.910339 15.9999 0.910339ZM15.9999 2.7785C17.7852 2.7785 19.5167 3.12794 21.1459 3.81722C22.7201 4.48303 24.1343 5.43642 25.3488 6.65114C26.5635 7.86565 27.5169 9.27962 28.1827 10.854C28.8718 12.4832 29.2212 14.2147 29.2212 16C29.2212 17.7854 28.8718 19.5168 28.1827 21.1461C27.5169 22.7203 26.5635 24.1344 25.3488 25.349C24.1343 26.5635 22.7201 27.5171 21.1459 28.1829C19.5167 28.8719 17.7852 29.2214 15.9999 29.2214C14.2145 29.2214 12.4831 28.8719 10.8538 28.1829C9.27965 27.5171 7.86546 26.5635 6.65096 25.349C5.43624 24.1344 4.48285 22.7203 3.81704 21.1461C3.12797 19.5168 2.77853 17.7854 2.77853 16C2.77853 14.2147 3.12797 12.4832 3.81704 10.854C4.48285 9.27962 5.43624 7.86565 6.65096 6.65114C7.86546 5.43642 9.27965 4.48303 10.8538 3.81722C12.4831 3.12794 14.2145 2.7785 15.9999 2.7785Z" fill="#56BEB7"/>
</svg>
