<?xml version="1.0" encoding="UTF-8"?>
<svg width="24px" height="24px" viewBox="0 0 24 24" version="1.1" xmlns="http://www.w3.org/2000/svg" xmlns:xlink="http://www.w3.org/1999/xlink">
    <title>Icons/Exchange/Filled</title>
    <g id="Icons/Exchange/Filled" stroke="none" stroke-width="1" fill="none" fill-rule="evenodd">
        <rect id="Area" x="0" y="0" width="24" height="24"></rect>
        <g id="opposite-directions-2" transform="translate(1, 1)" fill="#000000" fill-rule="nonzero">
            <path d="M21.0001351,15.0001001 L9.00013513,15.0001001 L9.00013513,11.0001001 C9.00017125,10.6255479 8.79089605,10.282378 8.4578897,10.110925 C8.12488335,9.93947205 7.7239845,9.96848524 7.41913513,10.1861001 L0.419135128,15.1861001 C0.156121163,15.3737851 0,15.6769871 0,16.0001001 C0,16.3232131 0.156121163,16.6264151 0.419135128,16.8141001 L7.41913513,21.8141001 C7.7239845,22.0317149 8.12488335,22.0607281 8.4578897,21.8892751 C8.79089605,21.7178221 9.00017125,21.3746523 9.00013513,21.0001001 L9.00013513,17.0001001 L21.0001351,17.0001001 C21.5524199,17.0001001 22.0001351,16.5523848 22.0001351,16.0001001 C22.0001351,15.4478153 21.5524199,15.0001001 21.0001351,15.0001001 Z" id="Path"></path>
            <path d="M21.5811351,5.18610008 L14.5811351,0.186100077 C14.2762858,-0.0315147567 13.8753869,-0.0605279514 13.5423806,0.110925034 C13.2093742,0.282378018 13.000099,0.625547872 13.0001351,1.00010008 L13.0001351,5.00010008 L1.00013513,5.00010008 C0.447850378,5.00010008 0.00013512759,5.44781533 0.00013512759,6.00010008 C0.00013512759,6.55238483 0.447850378,7.00010008 1.00013513,7.00010008 L13.0001351,7.00010008 L13.0001351,11.0001001 C13.000099,11.3746523 13.2093742,11.7178221 13.5423806,11.8892751 C13.8753869,12.0607281 14.2762858,12.0317149 14.5811351,11.8141001 L21.5811351,6.81410008 C21.8441491,6.6264151 22.0002703,6.32321306 22.0002703,6.00010008 C22.0002703,5.6769871 21.8441491,5.37378506 21.5811351,5.18610008 Z" id="Path"></path>
        </g>
    </g>
</svg>