<?xml version="1.0" encoding="UTF-8"?>
<svg width="125px" height="41px" viewBox="0 0 125 41" version="1.1" xmlns="http://www.w3.org/2000/svg" xmlns:xlink="http://www.w3.org/1999/xlink">
    <title>LogoFlipago</title>
    <g id="⭐️Symbols" stroke="none" stroke-width="1" fill="none" fill-rule="evenodd">
        <g id="Component/Brand/d" transform="translate(-34.000000, -20.000000)" fill-rule="nonzero">
            <g id="LogoFlipago" transform="translate(34.000000, 20.000000)">
                <g id="Group" transform="translate(47.675692, 9.677640)" fill="#FFF383">
                    <path d="M0.00409354695,19.7571179 L1.85680195,2.56475559 C1.89338147,2.1823345 2.00410722,1.90527743 2.18898209,1.7326026 C2.37286833,1.55992778 2.64078716,1.47309925 2.99076418,1.47309925 L10.595348,1.47309925 C11.0560522,1.47309925 11.2864094,1.80088946 11.2864094,2.4554929 L11.2587247,2.83791232 L11.147998,3.68373058 C11.0738503,4.59393178 10.7604519,5.04854366 10.2078045,5.04854366 L5.89339692,5.04854366 L5.34075295,9.57808655 L9.4060224,9.57808655 C9.86672662,9.57808655 10.0970778,9.87855835 10.0970778,10.4785302 C10.0970778,10.6785208 10.0871946,10.8336365 10.0693991,10.9428996 L9.95866637,11.7887119 C9.88451869,12.2803962 9.77873757,12.6306256 9.64032858,12.8393963 C9.50191958,13.0491425 9.29430826,13.153525 9.0184789,13.153525 L4.95320945,13.153525 L4.31751139,19.7571179 C4.2621478,20.3395296 3.69961456,20.6302489 2.63089935,20.6302489 L1.52461568,20.6302489 C0.454911898,20.6302489 -0.0512700516,20.3395296 0.00409354695,19.7571179 L0.00409354695,19.7571179 Z" id="Vector"></path>
                    <path d="M11.8400407,17.4918612 C11.8400407,17.3279664 11.8578359,17.0460301 11.8954041,16.6460489 L13.5820163,0.873125009 C13.6373799,0.290713326 14.2177086,0 15.3239919,0 L16.0980953,0 C17.2043786,0 17.7293445,0.291688866 17.6739809,0.873125009 L15.9873686,16.7006802 C15.9685845,16.7738475 15.9596839,16.8733508 15.9596839,17.0011496 C15.9596839,17.219676 16.0101082,17.3786953 16.1119377,17.4791784 C16.2127785,17.5796615 16.4025946,17.6294131 16.678424,17.6294131 C16.8257307,17.6294131 16.9868807,17.5981969 17.1628579,17.5338097 C17.3378464,17.4703981 17.4624114,17.4382063 17.536559,17.4382063 C17.7026498,17.4382063 17.7856972,17.5660036 17.7856972,17.8206258 L17.7303338,18.2849952 C17.7115497,18.3942583 17.6789207,18.6040039 17.6334434,18.9122821 C17.5869775,19.2215359 17.52667,19.4849367 17.453511,19.7034631 C17.3427838,20.0127169 17.0481752,20.27222 16.5686869,20.4809907 C16.0891986,20.6897614 15.5731274,20.7951194 15.02048,20.7951194 C12.8998564,20.7951194 11.8400407,19.6946856 11.8400407,17.4928377 L11.8400407,17.4918612 Z" id="Vector"></path>
                    <path d="M19.7906472,20.1249074 C19.3200566,19.6790747 19.0857495,18.9649597 19.0857495,17.9825668 C19.0857495,17.6918487 19.0946501,17.4645432 19.1134342,17.3006485 L20.1643544,7.12161714 C20.219718,6.53920545 20.8000467,6.24848617 21.90633,6.24848617 L22.6804334,6.24848617 C23.8045122,6.24848617 24.3304666,6.54895797 24.2563189,7.14892983 L23.1500354,17.0274918 L23.1500354,17.2187044 C23.1500354,17.4918624 23.2973401,17.6284366 23.5929422,17.6284366 C23.7036694,17.6284366 23.8321904,17.5972204 23.9804857,17.5328332 C24.1277924,17.4694215 24.2296236,17.4372298 24.2849872,17.4372298 C24.451078,17.4372298 24.5341253,17.5650271 24.5341253,17.8196492 L24.478762,18.2840187 C24.4599779,18.3932818 24.4273488,18.6030274 24.3818716,18.9113056 C24.3354057,19.2205594 24.2750982,19.4839602 24.2019391,19.7024866 C24.0912119,20.030276 23.7916587,20.2936829 23.3032727,20.4936735 C22.8148867,20.6936641 22.2661924,20.7941429 21.6581815,20.7941429 C20.8840797,20.7941429 20.2612388,20.5717167 19.7916368,20.125884 L19.7906472,20.1249074 Z M20.5509083,4.03785483 L20.7723617,1.90917945 C20.8277253,1.32676776 21.5464642,1.03604848 22.9295655,1.03604848 C24.3126668,1.03604848 24.9206795,1.3277433 24.8653159,1.90917945 L24.6438624,4.03785483 C24.5884988,4.62026652 23.8786546,4.9109858 22.5143373,4.9109858 C21.15002,4.9109858 20.4955447,4.62026652 20.5509083,4.03785483 L20.5509083,4.03785483 Z" id="Vector"></path>
                    <path d="M36.9088757,7.61329925 C37.526773,8.6327636 37.8352269,10.1419604 37.8352269,12.1428421 C37.8352269,13.6530152 37.6414548,15.0675829 37.2548982,16.3865455 C36.867353,17.7055081 36.2632959,18.7698464 35.4437169,19.5795645 C34.624138,20.3892827 33.5949679,20.7941429 32.360162,20.7941429 C31.4199694,20.7941429 30.6824467,20.530742 30.1475948,20.0029619 L29.5949509,25.3246623 C29.5395873,25.907074 28.9493694,26.1977933 27.8252906,26.1977933 L27.0511873,26.1977933 C26.4797558,26.1977933 26.0694708,26.1246269 25.8203346,25.9792679 C25.5711984,25.8339089 25.4654173,25.6153804 25.5019968,25.3246623 L26.9958239,11.1067937 C27.087767,10.2336639 27.1342352,9.46979726 27.1342352,8.81421828 C27.1342352,8.48642879 27.124346,8.16839707 27.1065505,7.85914328 C27.0877664,7.54988948 27.0788719,7.33136101 27.0788719,7.20453769 C27.1342355,6.93137978 27.5356198,6.71773055 28.2820398,6.56359144 C29.0284598,6.40945232 29.6414115,6.33140673 30.1208998,6.33140673 C30.8950015,6.33140673 31.244979,6.90406232 31.17182,8.05035001 C31.521797,7.46793833 31.9785503,6.99576652 32.541084,6.63090559 C33.1036177,6.26702022 33.7165694,6.08556865 34.379944,6.08556865 C35.4486592,6.08556865 36.291969,6.59481048 36.9108549,7.61329925 L36.9088757,7.61329925 Z M33.2034711,15.9231526 C33.5445504,14.8041807 33.7145941,13.53497 33.7145941,12.1165 C33.7145941,11.1341071 33.6266021,10.4336543 33.4516136,10.0151373 C33.2766251,9.59662037 33.0136509,9.38785038 32.6636739,9.38785038 C32.1110265,9.38785038 31.6127556,9.75173599 31.1698468,10.4795067 L30.4511067,17.219681 C30.7832883,17.4743032 31.1332658,17.6021004 31.5020269,17.6021004 C32.2949128,17.6021004 32.8614022,17.0431011 33.2024815,15.9241291 L33.2034711,15.9231526 Z" id="Vector"></path>
                    <path d="M40.2682586,19.2108045 C39.7156113,18.1376841 39.4387918,16.7640909 39.4387918,15.0900231 C39.4387918,13.5983858 39.6226807,12.1662581 39.9914418,10.7916884 C40.360203,9.4180943 40.935587,8.2903421 41.7195751,7.40745667 C42.5025746,6.52554683 43.475393,6.08361562 44.63704,6.08361562 C45.3004145,6.08361562 45.8352696,6.21531652 46.2406102,6.47969436 C46.6459508,6.74407221 47.033496,7.08454309 47.4022571,7.50306004 C47.5129843,7.13917467 47.6187654,6.87967751 47.7205949,6.72553839 C47.8214357,6.57139928 47.9835744,6.45237905 48.2050288,6.37043167 C48.4264832,6.2884843 48.7576708,6.24750966 49.2005796,6.24750966 L49.5327598,6.24750966 C50.6568385,6.24750966 51.2015768,6.47481513 51.1640086,6.92942793 L50.0854158,17.0538339 L50.0854158,17.2177279 C50.0854158,17.4908858 50.2050422,17.627466 50.4452806,17.627466 C50.5184397,17.627466 50.6291654,17.5962439 50.7774608,17.5318567 C50.9247675,17.468445 51.0265926,17.4362533 51.0819562,17.4362533 C51.248047,17.4362533 51.3310944,17.5640505 51.3310944,17.8186727 L51.275725,18.2830421 C51.1649978,19.0108129 51.0730619,19.4839602 50.9989142,19.7024866 C50.888187,20.030276 50.5935663,20.2936829 50.114078,20.4936735 C49.6345897,20.6936641 49.1086413,20.7941429 48.5381985,20.7941429 C47.1738813,20.7941429 46.3711125,20.1034427 46.1318627,18.7200929 C45.3943404,20.1210028 44.3345186,20.8214616 42.9514173,20.8214616 C41.7156227,20.8214616 40.8218956,20.2849014 40.2692482,19.211781 L40.2682586,19.2108045 Z M45.5367021,17.1094418 C45.7858382,16.8362838 45.9746657,16.4821508 46.1031884,16.0450981 L46.5460952,11.7057914 C46.6746179,10.77803 46.776443,10.1507436 46.8505907,9.82295407 C46.5184091,9.4590687 46.1407531,9.27761118 45.7166284,9.27761118 C44.9237426,9.27761118 44.3612091,9.86880225 44.0300162,11.0511858 C43.6978346,12.2335693 43.531746,13.5613146 43.531746,15.0353918 C43.531746,16.6909238 43.9094019,17.5191739 44.6657082,17.5191739 C44.9978898,17.5191739 45.2875659,17.3825997 45.5367021,17.1094418 Z" id="Vector"></path>
                    <path d="M64.4661066,6.93138097 L63.2490903,18.33865 C62.9534882,21.0858382 62.3227473,23.109157 61.354873,24.4105593 C60.3869987,25.7109861 58.9722547,26.3616873 57.1096651,26.3616873 C55.9292341,26.3616873 54.9198365,26.202674 54.0814735,25.8836645 C53.2421218,25.5646551 52.7863632,25.1607704 52.7122155,24.6690862 C52.6746474,24.3773925 52.6568582,24.1052087 52.6568582,23.8505866 C52.6568582,23.3959738 52.7023258,23.0135527 52.7952575,22.7042989 C52.8872006,22.3950451 53.0345175,22.2399295 53.2381765,22.2399295 C53.3301196,22.2399295 53.5051018,22.3121202 53.7631357,22.4584548 C54.1506809,22.6584454 54.5283368,22.8272223 54.897098,22.9628257 C55.2658591,23.0994047 55.6988839,23.1676918 56.1971563,23.1676918 C57.0078375,23.1676918 57.6534123,22.8857555 58.1329006,22.3218794 C58.6123889,21.7580034 58.898109,20.9297474 58.9900521,19.8380914 L59.0730941,19.0469104 C58.7409125,19.4839631 58.358312,19.8293132 57.9252895,20.0839354 C57.4922671,20.3385576 57.0266192,20.4663548 56.5283468,20.4663548 C55.1640296,20.4663548 54.1912111,19.9385776 53.610882,18.8839929 C53.0305528,17.8294082 52.7399002,16.464592 52.7399002,14.7905242 C52.7399002,12.3340541 53.1778697,10.2697607 54.0538009,8.5956929 C54.9297321,6.9216251 56.2525161,6.08556865 58.0221739,6.08556865 C59.0355255,6.08556865 59.9302413,6.55871602 60.704343,7.50501307 C60.8150702,7.1411277 60.9208634,6.88162459 61.0226929,6.72748547 C61.1235337,6.57334636 61.2856603,6.45433208 61.5071147,6.37238471 C61.7285691,6.29043733 62.0597688,6.24946269 62.5026776,6.24946269 L62.8348577,6.24946269 C63.922357,6.24946269 64.4661066,6.47676816 64.4661066,6.93138097 L64.4661066,6.93138097 Z M60.151699,9.82392463 C59.8195175,9.46003926 59.4507621,9.27858769 59.0454215,9.27858769 C58.2337516,9.27858769 57.6623115,9.81026865 57.3311185,10.874609 C56.998937,11.9389493 56.8328544,13.2169369 56.8328544,14.7085742 C56.8328544,15.5095123 56.9247902,16.1182692 57.1096651,16.5367862 C57.2935513,16.9553031 57.5980492,17.1640731 58.0221739,17.1640731 C58.2989919,17.1640731 58.5431883,17.0684676 58.7547563,16.8772571 C58.9663244,16.6860465 59.183831,16.4089835 59.4042967,16.0450981 L59.8472036,11.7057914 C59.9757262,10.77803 60.0775514,10.1507436 60.151699,9.82295407 L60.151699,9.82392463 Z" id="Vector"></path>
                    <path d="M67.1482757,19.2108045 C66.2812422,18.1562197 65.8482174,16.5914166 65.8482174,14.5173675 C65.8482174,12.0433372 66.3731892,10.0190428 67.4241089,8.44545819 C68.4750287,6.87187355 70.0973778,6.08459214 72.2911605,6.08459214 C73.9322957,6.08459214 75.180945,6.60749012 76.0380921,7.65329475 C76.8952393,8.70007487 77.3243081,10.2502464 77.3243081,12.3057597 C77.3243081,14.7622298 76.7943917,16.7904278 75.7345742,18.3913283 C74.6737682,19.9922288 73.047463,20.7931664 70.8536803,20.7931664 C69.2501133,20.7931664 68.0143206,20.2653892 67.1482757,19.2108045 L67.1482757,19.2108045 Z M72.7755944,16.0041261 C73.0800942,14.9397858 73.2323436,13.470587 73.2323436,11.5965287 C73.2323436,10.7965662 73.1255618,10.2092729 72.9139937,9.83660744 C72.701437,9.463942 72.3287257,9.27761118 71.7938738,9.27761118 C71.1670788,9.27761118 70.7014309,9.80539435 70.3969311,10.8599791 C70.0924313,11.9155393 69.9401819,13.3798588 69.9401819,15.2539171 C69.9401819,16.0724154 70.045963,16.6684856 70.2585197,17.0411511 C70.4700878,17.4138165 70.8526883,17.6001473 71.4063243,17.6001473 C72.0143353,17.6001473 72.4710946,17.0684664 72.7755944,16.0041261 L72.7755944,16.0041261 Z" id="Vector"></path>
                </g>
                <path d="M11.5087054,0.657505361 L21.9002476,3.86418521 L24.8404612,6.8845305 L28.4845709,3.99003231 L39.2369735,7.54205967 L36.6605832,26.3099617 L25.3733252,40.124922 L15.0193516,35.0656485 L14.7534084,29.3937181 L10.2155682,28.213288 L0.666333452,23.2544961 L11.5087054,0.657505361 Z" id="Vector" fill="#FFF383"></path>
                <path d="M39.6680173,6.91672578 L28.692182,3.36567158 C28.477648,3.29543097 28.2413675,3.3383552 28.0653903,3.47786085 L24.9403023,5.96555051 L22.80881,3.55785781 C22.7277419,3.46615479 22.6229518,3.39884088 22.5053042,3.36274501 L11.7084064,0.0302181062 C11.3900657,-0.068313856 11.0470096,0.0809466614 10.9056347,0.378493674 L0.0632686812,23.1803522 C-0.0899698452,23.5022884 0.0444843677,23.886661 0.365790965,24.0466535 L10.3203641,29.0015394 C10.34508,29.0142218 10.3697968,29.0249546 10.3955014,29.0337347 L14.1048636,30.3429399 L14.3530061,35.0997909 C14.3658584,35.3319751 14.5003165,35.5407463 14.7089186,35.6490339 L24.8859346,40.9239091 C24.9838095,40.975614 25.0905826,41 25.195378,41 C25.3921165,41 25.5849005,40.9141554 25.7144118,40.7551384 L37.1796169,26.7226234 C37.2547532,26.6318959 37.3032007,26.5216572 37.3200075,26.4055651 L40.1198185,7.63766602 C40.167273,7.32158328 39.9764716,7.01720886 39.6680173,6.91672578 L39.6680173,6.91672578 Z M25.2507353,7.40840788 L25.2991775,7.37036244 L28.6210031,4.72658305 L38.5320758,7.9342383 L33.3170226,13.1320431 L22.8315467,9.33514677 L25.2507353,7.40840788 L25.2507353,7.40840788 Z M32.9729672,13.474467 L26.0327495,20.3931652 L14.8858822,15.6607033 L22.4281877,9.65610815 L32.9729672,13.474467 Z M33.1983791,13.8734724 L32.3382708,23.7637376 L25.84096,30.9663267 L26.3016556,20.7472954 L33.1983791,13.8734724 L33.1983791,13.8734724 Z M11.8656021,1.45649223 L21.8122696,4.52659214 L18.8740412,10.7955662 L18.8730516,10.7955662 L13.7746567,14.8548895 L6.86409156,11.9740491 L11.8656021,1.45649223 L11.8656021,1.45649223 Z M1.54523259,23.1608398 L6.6752648,12.3711014 L13.4256654,15.1856041 C13.3584381,15.2958429 13.3248293,15.4246191 13.3317498,15.5563202 L13.6471248,21.5999374 L10.706918,27.7215999 L1.54523259,23.1608398 L1.54523259,23.1608398 Z M25.0114932,39.5034882 L15.6649276,34.6578635 L15.4128267,29.8483312 L15.4128267,29.8210156 L15.2674941,27.0445583 L25.3624517,31.7087295 L25.0114932,39.5034882 L25.0114932,39.5034882 Z M15.2417947,26.5479966 L14.693097,16.0567821 L25.8547903,20.7950971 L25.3842108,31.2346068 L15.2417947,26.5479966 L15.2417947,26.5479966 Z M25.4810952,38.9454625 L25.8093169,31.6599513 L32.2749967,24.4934605 L31.6788465,31.3604524 L25.4810952,38.9454625 Z M36.0278539,26.036802 L32.1771227,30.7507249 L32.7683249,23.9471441 L37.0471431,19.204929 L36.0278539,26.036802 L36.0278539,26.036802 Z M37.1647849,18.4147215 L32.8315991,23.2174242 L33.682813,13.4364186 C33.6838016,13.4208096 33.6838016,13.406177 33.682813,13.3915435 L38.6536761,8.43567665 L37.1657745,18.4147215 L37.1647849,18.4147215 Z" id="Vector" fill="#0C0C08"></path>
            </g>
        </g>
    </g>
</svg>