<svg width="33" height="32" viewBox="0 0 33 32" fill="none" xmlns="http://www.w3.org/2000/svg">
<circle cx="16.5" cy="16" r="16" fill="#F1EB14"/>
<path fill-rule="evenodd" clip-rule="evenodd" d="M15.921 16.1763C15.4224 16.1763 15.0182 16.5804 15.0182 17.079C15.0182 17.5776 15.4224 17.9817 15.921 17.9817C16.4196 17.9817 16.8237 17.5776 16.8237 17.079C16.8237 16.5804 16.4196 16.1763 15.921 16.1763ZM13.8146 17.079C13.8146 15.9157 14.7577 14.9726 15.921 14.9726C17.0843 14.9726 18.0274 15.9157 18.0274 17.079C18.0274 18.2423 17.0843 19.1854 15.921 19.1854C14.7577 19.1854 13.8146 18.2423 13.8146 17.079Z" fill="#1C1B21"/>
<path fill-rule="evenodd" clip-rule="evenodd" d="M15.2858 17.7142C15.5208 17.9492 15.5208 18.3303 15.2858 18.5653L10.0274 23.8237C9.79236 24.0588 9.4113 24.0588 9.17628 23.8237C8.94125 23.5887 8.94125 23.2076 9.17628 22.9726L14.4347 17.7142C14.6697 17.4791 15.0508 17.4791 15.2858 17.7142Z" fill="#1C1B21"/>
<path fill-rule="evenodd" clip-rule="evenodd" d="M16.0105 10.1964C16.2315 10.1135 16.4805 10.1674 16.6474 10.3343L22.6657 16.3525C22.8326 16.5194 22.8865 16.7685 22.8036 16.9895L21.1195 21.4779C21.0474 21.6751 20.9246 21.8499 20.7634 21.9847C20.6011 22.1203 20.4058 22.2105 20.1974 22.2461L20.1949 22.2465L9.70056 23.9918C9.5089 24.0237 9.31366 23.9611 9.17628 23.8237C9.03889 23.6863 8.97627 23.491 9.00817 23.2994L10.754 12.8096C10.7895 12.6022 10.8786 12.4075 11.0123 12.245C11.146 12.0824 11.3198 11.9575 11.5165 11.8826L11.5194 11.8815L16.0105 10.1964ZM11.9447 13.0075C11.9448 13.0074 11.9446 13.0075 11.9447 13.0075C11.9436 13.008 11.9427 13.0087 11.9419 13.0096C11.9411 13.0105 11.9406 13.0117 11.9403 13.0128C11.9404 13.0127 11.9403 13.0129 11.9403 13.0128L10.3337 22.6664L19.9906 21.0603L19.9915 21.0578L21.5405 16.9296L16.0704 11.4595L11.9447 13.0075Z" fill="#1C1B21"/>
<path fill-rule="evenodd" clip-rule="evenodd" d="M18.1643 8.09339C18.3116 8.03175 18.4696 8 18.6292 8C18.7888 8 18.9468 8.03175 19.0941 8.09339C19.2405 8.1547 19.3733 8.24435 19.4849 8.35718L24.6428 13.5151C24.7556 13.6267 24.8453 13.7595 24.9066 13.9059C24.9683 14.0532 25 14.2112 25 14.3708C25 14.5304 24.9683 14.6884 24.9066 14.8357C24.8453 14.9821 24.7556 15.1149 24.6428 15.2265L22.6657 17.2037C22.4307 17.4387 22.0496 17.4387 21.8146 17.2037C21.5796 16.9686 21.5796 16.5876 21.8146 16.3525L23.7963 14.3708L23.7931 14.3676L18.6292 9.20366L18.626 9.20693L16.6474 11.1854C16.4124 11.4204 16.0314 11.4204 15.7963 11.1854C15.5613 10.9504 15.5613 10.5693 15.7963 10.3343L17.7735 8.35716C17.8851 8.24434 18.0179 8.15469 18.1643 8.09339Z" fill="#1C1B21"/>
</svg>
