<svg width="32" height="32" viewBox="0 0 32 32" fill="none" xmlns="http://www.w3.org/2000/svg">

<mask id="mask0_354_2406" style="mask-type:luminance" maskUnits="userSpaceOnUse" x="0" y="0" width="32" height="32">
<rect width="32" height="32" fill="white"/>
</mask>
<g mask="url(#mask0_354_2406)">
<circle cx="16" cy="16" r="14.5" stroke="#2CBF12" stroke-width="3"/>
</g>
<path d="M14.7 14.3C14.3 13.9 13.7 13.9 13.3 14.3C12.9 14.7 12.9 15.3 13.3 15.7L15.3 17.7C15.5 17.9 15.7 18 16 18C16.3 18 16.5 17.9 16.7 17.7L23.7 10.7C24.1 10.3 24.1 9.7 23.7 9.3C23.3 8.9 22.7 8.9 22.3 9.3L16 15.6L14.7 14.3Z" fill="#2CBF12"/>
<path d="M16 23C19.9 23 23 19.9 23 16C23 15.4 22.6 15 22 15C21.4 15 21 15.4 21 16C21 18.8 18.8 21 16 21C13.2 21 11 18.8 11 16C11 13.2 13.2 11 16 11C16.6 11 17.1 11.1 17.7 11.3C18.2 11.5 18.8 11.2 19 10.7C19.2 10.2 18.9 9.6 18.4 9.4C17.6 9.1 16.8 9 16 9C12.1 9 9 12.1 9 16C9 19.9 12.1 23 16 23Z" fill="#2CBF12"/>
</svg>
