<svg xmlns="http://www.w3.org/2000/svg" width="32" height="32" viewBox="0 0 32 32"><g fill="none" fill-rule="evenodd"><rect width="32" height="32"/><path fill="#FCFCFC" d="M32,16 C32,24.83648 24.83648,32 16,32 C7.16352,32 0,24.83648 0,16 C0,7.16352 7.16352,0 16,0 C24.83648,0 32,7.16352 32,16"/><path fill="#FFF" d="M29.4249387,16 C29.4249387,23.4144 23.4144853,29.4248533 16.0000853,29.4248533 C8.58568533,29.4248533 2.57501867,23.4144 2.57501867,16 C2.57501867,8.5856 8.58568533,2.57514667 16.0000853,2.57514667 C23.4144853,2.57514667 29.4249387,8.5856 29.4249387,16"/><path fill="#FF9415" d="M8.77105067 18.019264C8.60443733 18.160064 8.37275733 18.230464 8.07643733 18.230464L6.85403733 18.230464 6.85403733 16.6302507 8.07643733 16.6302507C8.37275733 16.6302507 8.60443733 16.7004373 8.77105067 16.8412373 8.937664 16.9820373 9.02107733 17.178304 9.02107733 17.4302507 9.02107733 17.6821973 8.937664 17.878464 8.77105067 18.019264L8.77105067 18.019264ZM6.85403733 13.5518507 7.92091733 13.5518507C8.20251733 13.5518507 8.42289067 13.6222507 8.58203733 13.7630507 8.74139733 13.9038507 8.82097067 14.0926507 8.82097067 14.329664 8.82097067 14.5668907 8.74139733 14.7556907 8.58203733 14.8964907 8.42289067 15.0372907 8.20251733 15.1076907 7.92091733 15.1076907L6.85403733 15.1076907 6.85403733 13.5518507ZM10.6379307 16.3356373C10.3157973 16.042944 9.85819733 15.8633173 9.26555733 15.7967573 9.76945067 15.7225173 10.161984 15.539264 10.443584 15.2465707 10.7249707 14.9538773 10.8657707 14.559424 10.8657707 14.0629973 10.8657707 13.4037973 10.6046507 12.8962773 10.0824107 12.5406507 9.70033067 12.280384 9.20561067 12.115904 8.59931733 12.0459307L8.59931733 11.1196373 7.46715733 11.1196373 7.46715733 12.007104 6.839744 12.007104 6.839744 11.1196373 5.707584 11.1196373 5.707584 12.007104 4.80923733 12.007104 4.80923733 19.786304 5.707584 19.786304 5.707584 20.6648107 6.839744 20.6648107 6.839744 19.786304 7.46715733 19.786304 7.46715733 20.6648107 8.59931733 20.6648107 8.59931733 19.7630507C9.311424 19.7007573 9.88379733 19.510464 10.3157973 19.191744 10.8529707 18.7953707 11.121344 18.2562773 11.121344 17.5746773 11.121344 17.041344 10.9602773 16.6283307 10.6379307 16.3356373L10.6379307 16.3356373ZM15.3052373 15.4466347C15.116224 15.6281813 14.858944 15.718848 14.5329707 15.718848L13.4993707 15.718848 13.4993707 13.674048 14.5329707 13.674048C14.858944 13.674048 15.116224 13.764928 15.3052373 13.9464747 15.4940373 14.127808 15.588544 14.3778347 15.588544 14.6965547 15.588544 15.0150613 15.4940373 15.265088 15.3052373 15.4466347M16.2665173 12.3405013C15.8219307 12.118208 15.3071573 12.0072747 14.7217707 12.0072747L11.4545707 12.0072747 11.4545707 19.7862613 13.4993707 19.7862613 13.4993707 17.3858347 14.7217707 17.3858347C15.3071573 17.3858347 15.8219307 17.274688 16.2665173 17.0523947 16.711104 16.8301013 17.055424 16.5171413 17.299904 16.1133013 17.5445973 15.7096747 17.666624 15.2373547 17.666624 14.6965547 17.666624 14.1557547 17.5445973 13.6834347 17.299904 13.2795947 17.055424 12.8757547 16.711104 12.5627947 16.2665173 12.3405013M21.78944 14.0519253 21.51168 14.0519253C21.1114667 14.0519253 20.7854933 14.1223253 20.53376 14.2631253 20.2818133 14.4039253 20.0706133 14.614912 19.90016 14.896512L19.74464 14.0519253 17.9776 14.0519253 17.9776 19.7863253 19.90016 19.7863253 19.90016 17.030272C19.90016 16.1782187 20.28928 15.752192 21.0670933 15.752192L21.78944 15.752192 21.78944 14.0519253ZM25.7344213 17.9359147C25.5270613 18.191488 25.2418347 18.3192747 24.8787413 18.3192747 24.515648 18.3192747 24.2304213 18.191488 24.0230613 17.9359147 23.815488 17.6803413 23.711808 17.3413547 23.711808 16.919168 23.711808 16.496768 23.815488 16.1577813 24.0230613 15.902208 24.2304213 15.6466347 24.515648 15.518848 24.8787413 15.518848 25.2418347 15.518848 25.5270613 15.6466347 25.7344213 15.902208 25.9417813 16.1577813 26.0456747 16.496768 26.0456747 16.919168 26.0456747 17.3413547 25.9417813 17.6803413 25.7344213 17.9359147M26.529088 14.346368C26.0584747 14.105728 25.5085013 13.9851947 24.8787413 13.9851947 24.2489813 13.9851947 23.6987947 14.105728 23.2283947 14.346368 22.7579947 14.5872213 22.3949013 14.9298347 22.139328 15.3744213 21.8837547 15.8187947 21.755968 16.3337813 21.755968 16.919168 21.755968 17.5043413 21.8837547 18.019328 22.139328 18.4637013 22.3949013 18.908288 22.7579947 19.2509013 23.2283947 19.4917547 23.6987947 19.7323947 24.2489813 19.852928 24.8787413 19.852928 25.5085013 19.852928 26.0584747 19.7323947 26.529088 19.4917547 26.999488 19.2509013 27.362368 18.908288 27.6179413 18.4637013 27.873728 18.019328 28.0015147 17.5043413 28.0015147 16.919168 28.0015147 16.3337813 27.873728 15.8187947 27.6179413 15.3744213 27.362368 14.9298347 26.999488 14.5872213 26.529088 14.346368"/><path fill="#FF9415" d="M25.3489493,25.3489493 C24.1344427,26.563456 22.720256,27.517056 21.1460693,28.1828693 C19.5168427,28.871936 17.7854293,29.221376 16.0000427,29.221376 C14.214656,29.221376 12.4832427,28.871936 10.854016,28.1828693 C9.27982933,27.517056 7.86564267,26.563456 6.651136,25.3489493 C5.436416,24.1344427 4.48302933,22.720256 3.817216,21.1460693 C3.127936,19.5168427 2.778496,17.7854293 2.778496,16.0000427 C2.778496,14.214656 3.127936,12.4832427 3.817216,10.854016 C4.48302933,9.279616 5.436416,7.86564267 6.651136,6.651136 C7.86564267,5.436416 9.27982933,4.48302933 10.854016,3.817216 C12.4832427,3.127936 14.214656,2.778496 16.0000427,2.778496 C17.7854293,2.778496 19.5168427,3.127936 21.1460693,3.817216 C22.720256,4.48302933 24.1344427,5.436416 25.3489493,6.651136 C26.563456,7.86564267 27.517056,9.279616 28.1828693,10.854016 C28.871936,12.4832427 29.221376,14.214656 29.221376,16.0000427 C29.221376,17.7854293 28.871936,19.5168427 28.1828693,21.1460693 C27.517056,22.720256 26.563456,24.1344427 25.3489493,25.3489493 M16.0000427,0.910336 C7.666176,0.910336 0.910336,7.666176 0.910336,16.0000427 C0.910336,24.333696 7.666176,31.0897493 16.0000427,31.0897493 C24.333696,31.0897493 31.0897493,24.333696 31.0897493,16.0000427 C31.0897493,7.666176 24.333696,0.910336 16.0000427,0.910336"/></g></svg>