<?xml version="1.0" encoding="UTF-8"?>
<svg width="24px" height="24px" viewBox="0 0 24 24" version="1.1" xmlns="http://www.w3.org/2000/svg" xmlns:xlink="http://www.w3.org/1999/xlink">
    <title>Icons/Exchange/Filled</title>
    <g id="⭐️Symbols" stroke="none" stroke-width="1" fill="none" fill-rule="evenodd">
        <g id="ArrowsLeftRight">
            <rect id="Rectangle" x="0" y="0" width="24" height="24"></rect>
            <path d="M20.0303653,17.0303653 L17.0303653,20.0303653 C16.8158529,20.244857 16.4932587,20.3090146 16.2129999,20.1929231 C15.9327411,20.0768315 15.75,19.8033517 15.75,19.5 L15.75,17.25 L4.5,17.25 C4.08578644,17.25 3.75,16.9142136 3.75,16.5 C3.75,16.0857864 4.08578644,15.75 4.5,15.75 L15.75,15.75 L15.75,13.5 C15.75,13.1966483 15.9327411,12.9231685 16.2129999,12.8070769 C16.4932587,12.6909854 16.8158529,12.755143 17.0303653,12.9696347 L20.0303653,15.9696347 C20.3232423,16.2625621 20.3232423,16.7374379 20.0303653,17.0303653 L20.0303653,17.0303653 Z M6.96963469,11.0303653 C7.18414706,11.244857 7.50674131,11.3090146 7.78700011,11.1929231 C8.06725892,11.0768315 8.24999371,10.8033517 8.25,10.5 L8.25,8.25 L19.5,8.25 C19.9142136,8.25 20.25,7.91421356 20.25,7.5 C20.25,7.08578644 19.9142136,6.75 19.5,6.75 L8.25,6.75 L8.25,4.5 C8.24999371,4.19664832 8.06725892,3.92316845 7.78700011,3.80707694 C7.50674131,3.69098542 7.18414706,3.75514301 6.96963469,3.96963469 L3.96963469,6.96963469 C3.67675766,7.26256213 3.67675766,7.73743787 3.96963469,8.03036531 L6.96963469,11.0303653 Z" id="Shape" fill="#FFF383" fill-rule="nonzero"></path>
        </g>
    </g>
</svg>