<svg xmlns="http://www.w3.org/2000/svg" width="24" height="24" viewBox="0 0 24 24"><g fill="none" fill-rule="evenodd"><rect width="24" height="24"/><path fill="#000" fill-rule="nonzero" d="M21.625,8.219 L11.625,0.219 C11.26,-0.073 10.74,-0.073 10.375,0.219 L0.375,8.219 C0.138,8.409 0,8.696 0,8.999 L0,22 C0,22.552 0.448,23 1,23 L8,23 L8,16 C8,15.448 8.448,15 9,15 L13,15 C13.552,15 14,15.448 14,16 L14,23 L21,23 C21.552,23 22,22.552 22,22 L22,8.999 C22,8.695 21.862,8.408 21.625,8.219 Z" transform="translate(1)"/></g></svg>