<svg xmlns="http://www.w3.org/2000/svg" xmlns:xlink="http://www.w3.org/1999/xlink" width="32" height="32" viewBox="0 0 32 32"><defs><path id="a" d="M0,32 L0,0 L16,0 L16,32 L0,32 Z"/></defs><g fill="none" fill-rule="evenodd"><rect width="32" height="32"/><g transform="translate(0 0)"><circle cx="16" cy="16" r="16"/><g transform="translate(16)"><mask id="b" fill="#fff"><use xlink:href="#a"/></mask><circle cy="16" r="14.5" stroke="#000000" stroke-width="3" mask="url(#b)"/></g><path fill="#000000" fill-rule="nonzero" d="M6 0 1 0C.44771525 0 0 .44771525 0 1L0 6C0 6.55228475.44771525 7 1 7L6 7C6.55228475 7 7 6.55228475 7 6L7 1C7 .44771525 6.55228475 0 6 0ZM5 5 2 5 2 2 5 2 5 5ZM15 9 10 9C9.44771525 9 9 9.44771525 9 10L9 15C9 15.5522847 9.44771525 16 10 16L15 16C15.5522847 16 16 15.5522847 16 15L16 10C16 9.44771525 15.5522847 9 15 9ZM14 14 11 14 11 11 14 11 14 14ZM6 9 1 9C.44771525 9 0 9.44771525 0 10L0 15C0 15.5522847.44771525 16 1 16L6 16C6.55228475 16 7 15.5522847 7 15L7 10C7 9.44771525 6.55228475 9 6 9ZM5 14 2 14 2 11 5 11 5 14ZM11 7 11.055 7C11.3390363 6.98458256 11.6030652 6.84893134 11.781 6.627L15.781 1.627C16.0046483 1.34797557 16.06245.970831447 15.9326319.63763416 15.8028138.304436873 15.5050983.0658070208 15.1516319.0116341596 14.7981655-.0425387015 14.4426483.0959755743 14.219.375L10.917 4.5 9.707 3.29C9.31570625 2.89953468 8.68196532 2.90020625 8.2915 3.2915 7.90103468 3.68279375 7.90170625 4.31653468 8.293 4.707L10.293 6.707C10.4804927 6.89454937 10.7348052 7 11 7Z" transform="translate(8 8)"/></g></g></svg>