<svg width="32" height="32" viewBox="0 0 32 32" fill="none" xmlns="http://www.w3.org/2000/svg">
<mask id="mask0_354_2418" style="mask-type:luminance" maskUnits="userSpaceOnUse" x="16" y="0" width="16" height="32">
<path fill-rule="evenodd" clip-rule="evenodd" d="M16 32V0H32V32H16Z" fill="white"/>
</mask>
<g mask="url(#mask0_354_2418)">
<circle cx="16" cy="16" r="14.5" stroke="#2CBF12" stroke-width="3"/>
</g>
<path fill-rule="evenodd" clip-rule="evenodd" d="M9 8H14C14.5523 8 15 8.44772 15 9V14C15 14.5523 14.5523 15 14 15H9C8.44772 15 8 14.5523 8 14V9C8 8.44772 8.44772 8 9 8ZM10 13H13V10H10V13Z" fill="#2CBF12"/>
<path fill-rule="evenodd" clip-rule="evenodd" d="M18 17H23C23.5523 17 24 17.4477 24 18V23C24 23.5523 23.5523 24 23 24H18C17.4477 24 17 23.5523 17 23V18C17 17.4477 17.4477 17 18 17ZM19 22H22V19H19V22Z" fill="#2CBF12"/>
<path fill-rule="evenodd" clip-rule="evenodd" d="M9 17H14C14.5523 17 15 17.4477 15 18V23C15 23.5523 14.5523 24 14 24H9C8.44772 24 8 23.5523 8 23V18C8 17.4477 8.44772 17 9 17ZM10 22H13V19H10V22Z" fill="#2CBF12"/>
<path d="M18.9999 14.9999H19.0549C19.339 14.9845 19.603 14.8489 19.7809 14.6269L23.7809 9.62694C24.0046 9.34791 24.0624 8.97077 23.9326 8.63757C23.8027 8.30437 23.505 8.06574 23.1516 8.01157C22.7981 7.9574 22.4426 8.09591 22.2189 8.37494L18.9169 12.4999L17.7069 11.2899C17.3156 10.8995 16.6819 10.9001 16.2914 11.2914C15.901 11.6827 15.9016 12.3165 16.2929 12.7069L18.2929 14.7069C18.4804 14.8945 18.7347 14.9999 18.9999 14.9999Z" fill="#2CBF12"/>
</svg>
