<svg xmlns="http://www.w3.org/2000/svg" width="24" height="24" viewBox="0 0 24 24"><g fill="none" fill-rule="evenodd"><rect width="24" height="24"/><g fill="#000" fill-rule="nonzero"><path d="M12.0160134,6.00000022 C11.4637286,6.00000022 11.0160134,6.44771547 11.0160134,7.00000022 L11.0160134,12.0000002 C11.0160134,12.265195 11.121464,12.5195075 11.3090134,12.7070002 L15.3090134,16.7070002 C15.7013923,17.0859724 16.3250981,17.0805526 16.7108319,16.6948188 C17.0965657,16.309085 17.1019856,15.6853791 16.7230134,15.2930002 L13.0160134,11.5860002 L13.0160134,7.00000022 C13.0160134,6.44771547 12.5682981,6.00000022 12.0160134,6.00000022 Z"/><path d="M5.13101337,2.17200022 L3.55301337,0.192000221 C3.45887277,0.0716071831 3.31484059,0.00088038559 3.16201337,0 C3.1314564,0 3.10097248,0.00298518291 3.07101337,0.00900022067 C2.88932721,0.0430673137 2.74126045,0.174596743 2.68601337,0.351000221 L0.644013369,6.72800022 C0.623793794,6.79054789 0.616313191,6.8565132 0.622013369,6.92200022 C0.633205611,7.05424259 0.696513879,7.17661 0.79799026,7.26214277 C0.899466641,7.34767554 1.03078491,7.38935564 1.16301337,7.37800022 L7.83501337,6.81000022 C7.9333916,6.80118289 8.02680857,6.76284011 8.10301337,6.70000022 C8.31778603,6.5285712 8.35396113,6.21594689 8.18401337,6 L6.38401337,3.74000022 C10.1934857,1.14758749 15.2797074,1.48651138 18.7115316,4.56145291 C22.1433558,7.63639445 23.0365109,12.6550392 20.8762789,16.7251842 C18.7160469,20.7953293 14.0590509,22.868228 9.58907865,21.7492863 C5.11910636,20.6303445 1.98792716,16.6078779 2.00001337,12 C2.00001337,11.4477155 1.55229812,11 1.00001337,11 C0.447728619,11 0,11.4477155 0,12 C-0.00819768096,17.5349536 3.76675019,22.3589887 9.14132614,23.6817547 C14.5159021,25.0045206 20.0985717,22.4835392 22.6601694,17.5770137 C25.2217672,12.6704881 24.0990684,6.64876956 19.9414721,2.99498119 C15.7838758,-0.658807188 9.66782762,-0.998661027 5.13101337,2.17200022 Z"/></g></g></svg>