<svg xmlns="http://www.w3.org/2000/svg" width="24" height="24" viewBox="0 0 24 24"><g fill="none" fill-rule="evenodd"><rect width="24" height="24"/><rect width="24" height="24"/><path fill="#000" fill-rule="nonzero" d="M4 11 1 11C.44771525 11 0 11.4477153 0 12L0 23C0 23.5522848.44771525 24 1 24L4 24 4 11ZM22.539 10.4C21.7792164 9.51171448 20.6688979 9.00021536 19.5 9L13 9 13 4C13 1.79400002 12.206-4.31643354e-16 10-4.31643354e-16 9.5489279-4.31643354e-16 9.15363196.301807526 9.035.737000021L6 11 6 24.0000438 18.426 24.0000438C20.4038632 24.009211 22.088235 22.5642467 22.38 20.608L23.456 13.608C23.6321908 12.4561449 23.2973417 11.284721 22.539 10.4Z"/></g></svg>