<svg xmlns="http://www.w3.org/2000/svg" width="32" height="32" viewBox="0 0 32 32"><g fill="none"><path fill="#FCFCFC" d="M16,32 C24.8365555,32 32,24.8365555 32,16 C32,7.1634439 24.8365555,0 16,0 C7.1634439,0 0,7.1634439 0,16 C0,24.8365555 7.1634439,32 16,32 Z"/><path fill="#FFF" d="M15.9999538,29.4250906 C23.4144144,29.4250906 29.4250202,23.4144848 29.4250202,16.0000242 C29.4250202,8.58556469 23.4144144,2.57495777 15.9999538,2.57495777 C8.58549431,2.57495777 2.57488739,8.58556469 2.57488739,16.0000242 C2.57488739,23.4144848 8.58549431,29.4250906 15.9999538,29.4250906 Z"/><path fill="#00A651" d="M8.01083237 11.6842558C8.76455242 11.6708047 9.50896337 11.8523147 10.1718992 12.2111893 10.7863262 12.5505377 11.2933281 13.0553219 11.6353661 13.6682558 11.9773636 14.3204808 12.1560268 15.0459386 12.1560268 15.7823893 12.1560268 16.5188401 11.9773636 17.2442968 11.6353661 17.8965218 11.2939737 18.5099444 10.7868121 19.0148898 10.1718992 19.3535904 9.50935109 19.7134704 8.76467105 19.895045 8.01083237 19.8805229L4.93243243 19.8805229 4.93243243 11.6842558 8.01083237 11.6842558ZM9.44443161 17.4805237C9.80528971 16.9870451 9.98532767 16.3844112 9.95429951 15.7738565 9.98515265 15.1633229 9.80513179 14.5607474 9.44443161 14.0671904 9.27321053 13.8546302 9.05396049 13.6857673 8.80472489 13.5745014 8.55548929 13.4632355 8.28339407 13.4127472 8.01083237 13.42719L7.08496534 13.42719 7.08496534 18.120523 8.01083237 18.120523C8.28339407 18.1349658 8.55548929 18.0844764 8.80472489 17.9732105 9.05396049 17.8619446 9.27321053 17.6930839 9.44443161 17.4805237ZM12.910969 18.4874718C12.6448065 17.9861946 12.5056306 17.4272953 12.5056306 16.8597379 12.5056306 16.2921805 12.6448065 15.7332823 12.910969 15.2320051 13.1781095 14.7653288 13.5774836 14.3882256 14.0587037 14.1482714 14.6041924 13.8980923 15.197248 13.7685811 15.797371 13.7685811 16.3974939 13.7685811 16.9905474 13.8980923 17.536036 14.1482714 18.0162469 14.3888844 18.4147612 14.7658776 18.6816362 15.2320051 18.9477987 15.7332823 19.0869756 16.2921805 19.0869756 16.8597379 19.0869756 17.4272953 18.9477987 17.9861946 18.6816362 18.4874718 18.4147612 18.9535993 18.0162469 19.3305925 17.536036 19.5712055 16.9905474 19.8213846 16.3974939 19.9508947 15.797371 19.9508947 15.197248 19.9508947 14.6041924 19.8213846 14.0587037 19.5712055 13.5774836 19.3312513 13.1781095 18.9541481 12.910969 18.4874718ZM17.0261692 16.8533386C17.0448718 16.4702907 16.9286109 16.0928189 16.6976362 15.7866717 16.5845483 15.6593017 16.4457499 15.5573474 16.2903888 15.4875268 16.1350277 15.4177063 15.9666322 15.381605 15.7963031 15.381605 15.6259741 15.381605 15.4575786 15.4177063 15.3022175 15.4875268 15.1468564 15.5573474 15.008058 15.6593017 14.89497 15.7866717 14.6840097 16.1024082 14.57141 16.47361 14.57141 16.8533386 14.57141 17.2330671 14.6840097 17.604269 14.89497 17.9200055 15.008058 18.0473754 15.1468564 18.1493297 15.3022175 18.2191503 15.4575786 18.2889709 15.6259741 18.3250721 15.7963031 18.3250721 15.9666322 18.3250721 16.1350277 18.2889709 16.2903888 18.2191503 16.4457499 18.1493297 16.5845483 18.0473754 16.6976362 17.9200055 16.9286109 17.6138582 17.0448718 17.2363864 17.0261692 16.8533386ZM21.3333135 12.1301401C22.0003782 11.7730874 22.7486638 11.5952043 23.5050456 11.613874 24.1214638 11.6028269 24.7315603 11.7396217 25.2842479 12.0128064 25.7931739 12.2640954 26.2261028 12.6462252 26.5386446 13.1200072 26.8608188 13.6032991 27.0519503 14.161981 27.0933145 14.7413396L24.9386459 14.7413396C24.8780398 14.3664093 24.6950065 14.0220956 24.4181139 13.762141 24.1403325 13.5136647 23.7772503 13.3821894 23.4047808 13.3952065 23.1514146 13.385646 22.8997846 13.440753 22.673606 13.5553352 22.4474274 13.6699175 22.2541471 13.8402018 22.1119792 14.0501401 21.7761622 14.5651086 21.6105057 15.1725171 21.6383793 15.7866739 21.6082455 16.3982459 21.7701113 17.0039316 22.101314 17.5189396 22.2432332 17.7292718 22.4364051 17.8999751 22.6625999 18.0149388 22.8887946 18.1299024 23.1405514 18.1853341 23.3941134 18.1760056 23.7668389 18.1882175 24.1298797 18.0559957 24.4074487 17.8069398 24.6847075 17.5481383 24.8678577 17.2043544 24.9279807 16.8298736L27.0933145 16.8298736C27.0563929 17.4075312 26.8712381 17.9659287 26.5557125 18.4512071 26.2423409 18.9237325 25.8095796 19.3049771 25.3013157 19.5562733 24.7486281 19.829458 24.1385317 19.9662528 23.5221134 19.9552057 22.7596034 19.975545 22.005034 19.796097 21.3333135 19.4346737 20.7302767 19.1010469 20.2395873 18.5962544 19.9231793 17.9840077 19.5842577 17.3021967 19.4172725 16.5478265 19.4367808 15.7866739 19.4185566 15.023552 19.5877644 14.2676047 19.9295797 13.5850731 20.2442242 12.9725999 20.7325004 12.4665152 21.3333135 12.1301401Z"/><path fill="#00A651" d="M16.0001089,2.77333907 C19.2649696,2.77788205 22.4117828,3.99484335 24.8301771,6.18817524 C27.2485714,8.38150712 28.7661651,11.3948697 29.0885945,14.6437735 C29.4110238,17.8926774 28.5153079,21.145543 26.5751843,23.771425 C24.6350608,26.397307 21.7888206,28.2090338 18.5885373,28.8551938 C15.388254,29.5013538 12.0620417,28.9358899 9.25507197,27.2684799 C6.44810225,25.60107 4.36045404,22.9505673 3.39705954,19.8310789 C2.43366503,16.7115905 2.66319467,13.3454719 4.04112752,10.3856344 C5.41906037,7.42579692 7.84717759,5.08321525 10.8545087,3.81227208 C12.482363,3.12336593 14.2324862,2.77000398 16.0001089,2.77333907 Z M16.0001089,0.906672297 C13.0159549,0.906672417 10.0988074,1.79152301 7.61751577,3.44934247 C5.13622415,5.10716193 3.20221896,7.46349933 2.06003797,10.2204172 C0.91785699,12.9773351 0.618793728,16.0110245 1.20066297,18.9379003 C1.78253222,21.8647761 3.21920309,24.5533981 5.32902018,26.6638118 C7.43883727,28.7742255 10.1270524,30.2116577 13.0537637,30.7943544 C15.9804751,31.3770511 19.0142481,31.0788465 21.7714888,29.937445 C24.5287294,28.7960435 26.8856137,26.8627028 28.5441345,24.3818799 C30.2026553,21.9010571 31.0883313,18.9841592 31.0891751,16 C31.0891751,11.9981362 29.4994378,8.16017302 26.6696887,5.33042399 C23.8399397,2.50067496 20.0019781,0.910939053 16.0001089,0.910939053 L16.0001089,0.906672297 Z"/></g></svg>