<svg xmlns="http://www.w3.org/2000/svg" width="32" height="32" viewBox="0 0 32 32"><g fill="none" fill-rule="evenodd"><rect width="32" height="32"/><path fill="#62BCBF" d="M16,0 C24.83072,0 32,7.16928 32,16 C32,24.83064 24.83072,32 16,32 C7.16936,32 0,24.83064 0,16 C0,7.16928 7.16936,0 16,0 Z"/><path fill="#FFF" d="M16,1.6 C23.94752,1.6 30.4,8.05248 30.4,16 C30.4,23.947584 23.94752,30.4 16,30.4 C8.052416,30.4 1.6,23.947584 1.6,16 C1.6,8.05248 8.052416,1.6 16,1.6 Z"/><path fill="#62BCBF" d="M15.91448,3.2 C22.97904,3.2 28.71456,8.93552 28.71456,16 C28.71456,23.064512 22.97904,28.8 15.91448,28.8 C8.849968,28.8 3.11448,23.064512 3.11448,16 C3.11448,8.93552 8.849968,3.2 15.91448,3.2 Z"/><path fill="#FFF" d="M15.91448 5.36368C19.06752 5.36368 21.62752 7.92368 21.62752 11.0768 21.62752 14.22976 19.06752 16.78976 15.91448 16.78976 12.761376 16.78976 10.20144 14.22976 10.20144 11.0768 10.20144 7.92368 12.761376 5.36368 15.91448 5.36368ZM11.81088 20.623584C11.793456 20.431248 11.71608 20.281408 11.578768 20.174064 11.441472 20.066736 11.246304 20.013056 10.993296 20.013056 10.826032 20.013056 10.68672 20.035024 10.575392 20.078928 10.464048 20.122848 10.380416 20.182608 10.32448 20.25824 10.268544 20.333856 10.239872 20.420096 10.238496 20.51696 10.235712 20.59712 10.252016 20.667952 10.287376 20.729456 10.322736 20.790976 10.374928 20.844816 10.44392 20.890992 10.512928 20.937168 10.596224 20.977776 10.693792 21.0128 10.791376 21.047824 10.90096 21.0784 11.022576 21.104544L11.482576 21.209088C11.747424 21.266592 11.981344 21.342896 12.184336 21.438016 12.387328 21.533152 12.558272 21.647184 12.697152 21.780144 12.836016 21.913104 12.941184 22.065824 13.012624 22.23832 13.084064 22.410832 13.12048 22.603712 13.121856 22.81696 13.12048 23.1564 13.035008 23.447056 12.865456 23.688896 12.69592 23.930736 12.453024 24.116304 12.136768 24.2456 11.820512 24.374896 11.440064 24.439536 10.995424 24.439536 10.54656 24.439536 10.155808 24.372096 9.823184 24.237232 9.49056 24.102352 9.231984 23.898128 9.047472 23.624576 8.862944 23.351008 8.767904 23.005856 8.76232 22.589088L10.000112 22.589088C10.010576 22.760528 10.057008 22.904 10.13944 23.019536 10.221856 23.135072 10.334768 23.222192 10.478176 23.280896 10.621568 23.339616 10.7884 23.368976 10.978688 23.368976 11.152208 23.368976 11.300496 23.345536 11.423504 23.298672 11.546528 23.251792 11.641136 23.18664 11.70736 23.103168 11.773568 23.019712 11.807376 22.923616 11.8088 22.81488 11.807376 22.713824 11.776176 22.627392 11.7152 22.555616 11.654208 22.48384 11.560816 22.421104 11.435024 22.36744 11.309232 22.31376 11.148048 22.264272 10.951488 22.218976L10.393232 22.089344C9.930448 21.983056 9.565584 21.811088 9.29864 21.573424 9.031696 21.33576 8.898928 21.013584 8.900304 20.60688 8.898928 20.27512 8.988048 19.984736 9.167696 19.735744 9.347344 19.486768 9.595456 19.292656 9.912048 19.15344 10.22864 19.014224 10.590464 18.944608 10.997504 18.944608 11.412208 18.944608 11.772528 19.014752 12.078496 19.155008 12.384448 19.29528 12.621856 19.491552 12.790704 19.743856 12.959552 19.99616 13.045552 20.289392 13.048688 20.623584L11.81088 20.623584ZM13.602768 20.069504 13.602768 19.017792 18.12752 19.017792 18.12752 20.069504 16.50288 20.069504 16.50288 24.370528 15.227392 24.370528 15.227392 20.069504 13.602768 20.069504ZM19.64448 23.24768 19.29216 24.370528 17.9016 24.370528 19.70816 19.017792 21.4312 19.017792 23.23776 24.370528 21.8472 24.370528 21.49488 23.24768 19.64448 23.24768ZM21.18576 22.262864 20.59056 20.366432 20.5488 20.366432 19.9536 22.262864 21.18576 22.262864Z"/><polygon fill="#62BCBF" points="14.996 8.447 15.975 10.138 16.017 10.138 17.004 8.447 18.453 8.447 16.836 11.123 18.503 13.799 17.02 13.799 16.017 12.091 15.975 12.091 14.971 13.799 13.497 13.799 15.155 11.123 13.539 8.447"/></g></svg>